<svg width="25" height="24" viewBox="0 0 25 24" fill="none" xmlns="http://www.w3.org/2000/svg">
<g clip-path="url(#clip0_2007_8983)">
<path d="M12.9971 23.8637C19.5492 23.8637 24.8607 18.5522 24.8607 12.0001C24.8607 5.44801 19.5492 0.136475 12.9971 0.136475C6.44495 0.136475 1.13342 5.44801 1.13342 12.0001C1.13342 18.5522 6.44495 23.8637 12.9971 23.8637Z" fill="#FFE477"/>
<path d="M12.997 22.2275C18.6454 22.2275 23.2243 17.6486 23.2243 12.0002C23.2243 6.35185 18.6454 1.77295 12.997 1.77295C7.34868 1.77295 2.76978 6.35185 2.76978 12.0002C2.76978 17.6486 7.34868 22.2275 12.997 22.2275Z" fill="#FFDA44"/>
<path d="M13.0564 0.136475C13.1889 0.676956 13.2832 1.22608 13.3387 1.77979C15.2274 1.84274 17.0618 2.42778 18.6383 3.47C20.2147 4.51221 21.4715 5.97083 22.2693 7.684C23.0671 9.39717 23.3746 11.2979 23.1577 13.1752C22.9408 15.0525 22.208 16.833 21.0406 18.3191C19.8732 19.8053 18.3168 20.9389 16.5443 21.5942C14.7717 22.2494 12.8523 22.4008 10.9989 22.0314C9.14554 21.662 7.43078 20.7863 6.0449 19.5015C4.65902 18.2167 3.65623 16.573 3.14781 14.7529C2.6158 14.8257 2.0795 14.8627 1.54253 14.8637C1.52249 14.8637 1.50162 14.8637 1.48322 14.8637C2.0193 17.0189 3.14954 18.9803 4.74534 20.5248C6.34114 22.0692 8.33842 23.1348 10.5099 23.6002C12.6814 24.0656 14.9399 23.9121 17.0285 23.1572C19.1171 22.4024 20.9519 21.0764 22.3241 19.3303C23.6963 17.5841 24.5508 15.4878 24.7904 13.28C25.03 11.0721 24.6451 8.84136 23.6795 6.84148C22.7138 4.8416 21.2062 3.15291 19.3282 1.96755C17.4502 0.782198 15.2772 0.147778 13.0564 0.136475Z" fill="#FFDE55"/>
<path d="M12.997 22.2274C15.6675 22.2088 18.2247 21.1464 20.1222 19.2673C22.0197 17.3882 23.1069 14.8414 23.1515 12.1713C23.1961 9.50115 22.1946 6.91948 20.3609 4.97803C18.5273 3.03657 16.0069 1.88933 13.3386 1.78149C13.382 2.18629 13.4045 2.59306 13.4061 3.00018C13.4057 5.86823 12.3663 8.63903 10.4803 10.7998C8.59433 12.9605 5.98944 14.3649 3.14777 14.7529C3.74867 16.9031 5.03661 18.7975 6.815 20.1471C8.59339 21.4967 10.7645 22.2273 12.997 22.2274Z" fill="#FFCD00"/>
<path d="M12.9971 7.37177L16.179 10.5537L17.9148 8.81832L12.9971 3.90063L8.07941 8.81832L9.81518 10.5537L12.9971 7.37177Z" fill="#F1F2F2"/>
<path d="M12.9971 16.6287L9.81518 13.4468L8.07941 15.1821L12.9971 20.0998L17.9148 15.1821L16.179 13.4468L12.9971 16.6287Z" fill="#F1F2F2"/>
<path d="M11.2589 12.0002L12.9945 10.2646L14.7301 12.0002L12.9945 13.7359L11.2589 12.0002Z" fill="#F1F2F2"/>
<path d="M17.6223 12.001L19.3579 10.2654L21.0936 12.001L19.3579 13.7366L17.6223 12.001Z" fill="#F1F2F2"/>
<path d="M4.89581 11.9995L6.63144 10.2639L8.36706 11.9995L6.63144 13.7351L4.89581 11.9995Z" fill="#F1F2F2"/>
</g>
<defs>
<clipPath id="clip0_2007_8983">
<rect width="24" height="24" fill="white" transform="translate(0.998596)"/>
</clipPath>
</defs>
</svg>
