<svg width="45" height="45" viewBox="0 0 45 45" fill="none" xmlns="http://www.w3.org/2000/svg">
<rect x="0.5" y="0.5" width="44" height="44" rx="22" fill="white" fill-opacity="0.15" stroke="#0AEABF"/>
<g clip-path="url(#clip0_1421_257308)">
<path d="M27.183 33.0291H11.4966C10.1155 33.0291 8.99512 31.7696 8.99512 30.2044V15.7061C8.99512 14.2623 9.95993 13.0508 11.2323 12.8974L26.914 11.0162C28.3923 10.8387 29.6799 12.1463 29.6799 13.8249V30.1987C29.6845 31.7605 28.5642 33.0291 27.183 33.0291Z" fill="url(#paint0_linear_1421_257308)"/>
<path d="M31.7442 14.6445H12.1576C10.4137 14.6445 9 16.0287 9 17.7361V30.9084C9 32.6158 10.4137 33.9999 12.1576 33.9999H31.7442C33.4881 33.9999 34.9018 32.6158 34.9018 30.9084V17.7361C34.9018 16.0287 33.4881 14.6445 31.7442 14.6445Z" fill="#0ACB87"/>
<path d="M26.1159 22.0371H34.9713C35.2442 22.0371 35.506 22.1433 35.699 22.3322C35.892 22.5212 36.0004 22.7775 36.0004 23.0447V27.145C36.0004 27.2745 35.9744 27.4027 35.9238 27.5223C35.8732 27.6419 35.799 27.7506 35.7055 27.8422C35.612 27.9337 35.501 28.0063 35.3788 28.0559C35.2567 28.1054 35.1257 28.1309 34.9935 28.1309H26.1159C25.2906 28.1309 24.499 27.8099 23.9154 27.2385C23.3318 26.6671 23.0039 25.8921 23.0039 25.084C23.0039 24.2759 23.3318 23.5009 23.9154 22.9295C24.499 22.3581 25.2906 22.0371 26.1159 22.0371Z" fill="#23AC7C"/>
<path d="M26.146 26.263C26.8112 26.263 27.3506 25.735 27.3506 25.0837C27.3506 24.4323 26.8112 23.9043 26.146 23.9043C25.4807 23.9043 24.9414 24.4323 24.9414 25.0837C24.9414 25.735 25.4807 26.263 26.146 26.263Z" fill="white"/>
</g>
<defs>
<linearGradient id="paint0_linear_1421_257308" x1="19.3428" y1="32.3708" x2="19.3428" y2="11.0871" gradientUnits="userSpaceOnUse">
<stop stop-color="#060000"/>
<stop offset="1" stop-color="#23AC7C"/>
</linearGradient>
<clipPath id="clip0_1421_257308">
<rect width="27" height="23" fill="white" transform="translate(9 11)"/>
</clipPath>
</defs>
</svg>
