<svg width="18" height="13" viewBox="0 0 18 13" fill="none" xmlns="http://www.w3.org/2000/svg">
<path d="M12 3.92857V2.5C12 1.39543 11.1046 0.5 10 0.5H3C1.89543 0.5 1 1.39543 1 2.5V10.5C1 11.6046 1.89543 12.5 3 12.5H10C11.1046 12.5 12 11.6046 12 10.5V9.07143" stroke="white" stroke-linecap="round" stroke-linejoin="round"/>
<path d="M6 6C5.72386 6 5.5 6.22386 5.5 6.5C5.5 6.77614 5.72386 7 6 7V6ZM17.3536 6.85355C17.5488 6.65829 17.5488 6.34171 17.3536 6.14645L14.1716 2.96447C13.9763 2.7692 13.6597 2.7692 13.4645 2.96447C13.2692 3.15973 13.2692 3.47631 13.4645 3.67157L16.2929 6.5L13.4645 9.32843C13.2692 9.52369 13.2692 9.84027 13.4645 10.0355C13.6597 10.2308 13.9763 10.2308 14.1716 10.0355L17.3536 6.85355ZM6 7H17V6H6V7Z" fill="white"/>
</svg>
