<?xml version="1.0" standalone="no"?>
<!DOCTYPE svg PUBLIC "-//W3C//DTD SVG 1.1//EN" "http://www.w3.org/Graphics/SVG/1.1/DTD/svg11.dtd" >
<svg xmlns="http://www.w3.org/2000/svg" xmlns:xlink="http://www.w3.org/1999/xlink" version="1.1">
<metadata>
Created by FontForge 20170731 at Wed Feb 16 12:26:54 2022
 By Aleksey,,,
Copyright (c) 2011 by typedepot. All rights reserved.
</metadata>
<defs>
<font id="CentraleSansRndMedium" horiz-adv-x="1560" >
  <font-face 
    font-family="CentraleSansRnd Medium"
    font-weight="500"
    font-stretch="normal"
    units-per-em="2048"
    panose-1="0 0 0 0 0 0 0 0 0 0"
    ascent="1536"
    descent="-512"
    x-height="1065"
    cap-height="1440"
    bbox="-324 -535 2517 1933"
    underline-thickness="102"
    underline-position="-307"
    unicode-range="U+000D-FB04"
  />
<missing-glyph horiz-adv-x="1339" 
d="M289 1499h764q53 0 81.5 -28t28.5 -80v-1530q0 -51 -28 -79t-82 -28h-764q-51 0 -80 28t-29 79l2 1530q0 51 28 79.5t79 28.5zM983 1368h-647l326 -604zM668 473l-326 -590h643zM1034 1171l-299 -555l299 -548v1103zM305 1151v-1059l287 524l-285 535h-2z" />
    <glyph glyph-name="f_f" unicode="ff" horiz-adv-x="1337" 
d="M1124 1534q55 0 117 -10q79 -13 76 -86q-3 -36 -26 -54t-54 -18q-20 2 -63 2q-78 0 -112 -40.5t-34 -129.5v-133h174q42 0 65 -20.5t23 -53.5q0 -35 -23.5 -57.5t-64.5 -22.5h-174v-800q0 -56 -30 -86.5t-78 -30.5t-77.5 29.5t-29.5 87.5v800h-362v-800q0 -57 -30 -87
t-79 -30q-48 0 -77 29.5t-29 87.5v800h-91q-36 0 -56.5 19.5t-20.5 50.5q0 30 19.5 50t55.5 24l93 10v109q0 171 71 257.5t242 86.5q55 0 106 -11q73 -17 70 -88q-3 -37 -27 -54t-55 -15q-18 2 -47 2q-81 0 -113 -38.5t-32 -127.5v-121h362v125q0 171 71 257.5t240 86.5z
" />
    <glyph glyph-name="f_i" unicode="fi" horiz-adv-x="1224" 
d="M647 1526q141 0 250 -51q64 -27 64 -76q0 -32 -20 -55t-54 -23q-23 0 -56 10q-95 29 -163 29q-59 0 -102.5 -19t-67.5 -51.5t-35.5 -69t-11.5 -77.5v-78h499q52 0 80.5 -28t28.5 -79v-847q0 -57 -30 -87t-79 -30q-48 0 -77 30t-29 87v800h-393v-800q0 -57 -30 -87
t-79 -30q-48 0 -77 30t-29 87v800h-91q-36 0 -56.5 19.5t-20.5 50.5q0 30 19.5 50t55.5 24l93 10v80q0 185 113 283t298 98z" />
    <glyph glyph-name="f_l" unicode="fl" horiz-adv-x="1323" 
d="M1067 1124v-893q0 -43 17.5 -60t58.5 -17q6 0 17 1t16 1q28 0 44.5 -20t16.5 -54q0 -47 -45 -72q-49 -28 -129 -28q-103 0 -157 57.5t-54 169.5v917q0 113 -58 169.5t-143 56.5q-87 0 -143.5 -54.5t-56.5 -164.5v-68h137q40 0 63 -20.5t23 -53.5q0 -35 -23 -57.5
t-63 -22.5h-137v-800q0 -57 -30 -87t-79 -30q-48 0 -77 30t-29 87v800h-91q-36 0 -56.5 19.5t-20.5 50.5q0 30 19.5 50t55.5 24l93 10v57q0 178 112.5 287t300.5 109q118 0 210.5 -42t150 -133t57.5 -219z" />
    <glyph glyph-name="f_f_i" unicode="ffi" horiz-adv-x="1792" 
d="M1223 1534q145 0 256 -53q65 -27 65 -80q0 -31 -19.5 -53.5t-54.5 -22.5q-21 0 -61 14q-77 29 -166 29q-58 0 -101.5 -19t-67 -51t-35 -68t-11.5 -77v-88h500q51 0 78.5 -28t27.5 -79v-847q0 -57 -29 -87t-77 -30q-49 0 -78 29.5t-29 87.5v800h-395v-800q0 -57 -29 -87
t-77 -30q-49 0 -78 29.5t-29 87.5v800h-362v-800q0 -57 -30 -87t-79 -30q-48 0 -77 29.5t-29 87.5v800h-91q-36 0 -56.5 19.5t-20.5 50.5q0 30 19.5 50t55.5 24l93 10v109q0 171 71 257.5t242 86.5q55 0 106 -11q73 -17 70 -88q-5 -69 -84 -69q-8 0 -23 1t-22 1
q-81 0 -113 -38.5t-32 -127.5v-121h362v90q0 183 113 281t297 98z" />
    <glyph glyph-name="f_f_l" unicode="ffl" horiz-adv-x="1900" 
d="M1229 1534q182 0 300 -101t118 -290v-901q0 -48 16.5 -68t54.5 -20h19q80 4 80 -72q0 -47 -48 -72q-46 -28 -127 -28q-103 0 -156.5 60.5t-53.5 174.5v926q0 113 -58 169t-145 56q-86 0 -142.5 -56t-56.5 -169v-78h135q42 0 65 -20.5t23 -53.5q0 -35 -23.5 -57.5
t-64.5 -22.5h-135v-800q0 -56 -30 -86.5t-78 -30.5t-77.5 29.5t-29.5 87.5v800h-364v-800q0 -57 -30 -87t-79 -30q-48 0 -77 29.5t-29 87.5v800h-91q-36 0 -56.5 19.5t-20.5 50.5q0 30 19.5 50t55.5 24l93 10v109q0 171 71 257.5t242 86.5q56 0 110 -11q79 -16 76 -88
q-3 -37 -25.5 -54t-56.5 -15q-9 0 -28.5 1t-28.5 1q-81 0 -113 -38.5t-32 -127.5v-121h364v74q0 178 112.5 286.5t301.5 108.5z" />
    <glyph glyph-name="aogonek_j" unicode="&#x105;j" horiz-adv-x="1853" 
d="M612 1083q99 0 175 -19t134 -60.5t88.5 -112.5t30.5 -170v-490q0 -20 5 -32t17.5 -17.5t22.5 -7t31 -2.5q66 -8 66 -78q0 -44 -37 -74q-43 -28 -127 -28q-131 -55 -131 -162q0 -89 104 -84q26 2 40 -5.5t20 -29.5q9 -45 -43 -61q-38 -12 -72 -12q-81 0 -134.5 46
t-53.5 128q0 72 40 127.5t107 89.5q-47 32 -47 92v51q-41 -84 -135.5 -137t-235.5 -53q-166 0 -270.5 84t-104.5 241q0 92 37 160t104 107t151.5 58t187.5 19q68 0 252 -18v78q0 117 -68 165t-193 48q-36 0 -73.5 -4t-62 -8t-67 -12.5t-63.5 -12.5q-51 -9 -78.5 12t-29.5 59
q-3 65 73 84q166 41 340 41zM1401 1065h135q51 0 78.5 -28t27.5 -79v-985q0 -155 -79 -241t-230 -86q-76 0 -123 24q-49 29 -49 76q0 39 22 62.5t58 23.5q9 0 30.5 -3t35.5 -3q123 0 123 145v901l-58 19q-65 20 -65 92q0 38 25 60t69 22zM602 518q-127 0 -205 -46.5
t-78 -147.5q0 -92 60.5 -139.5t150.5 -47.5q125 0 214.5 75.5t89.5 186.5v99q-100 20 -232 20zM1526 1462q56 0 89.5 -28t33.5 -80v-33q0 -52 -34 -79.5t-89 -27.5q-53 0 -86 27.5t-33 79.5v33q0 52 32.5 80t86.5 28z" />
    <glyph glyph-name=".notdef" horiz-adv-x="1339" 
d="M289 1499h764q53 0 81.5 -28t28.5 -80v-1530q0 -51 -28 -79t-82 -28h-764q-51 0 -80 28t-29 79l2 1530q0 51 28 79.5t79 28.5zM983 1368h-647l326 -604zM668 473l-326 -590h643zM1034 1171l-299 -555l299 -548v1103zM305 1151v-1059l287 524l-285 535h-2z" />
    <glyph glyph-name=".null" horiz-adv-x="28" 
 />
    <glyph glyph-name=".null" horiz-adv-x="28" 
 />
    <glyph glyph-name="nonmarkingreturn" horiz-adv-x="682" 
 />
    <glyph glyph-name="CR" unicode="&#xd;" horiz-adv-x="636" 
 />
    <glyph glyph-name="space" unicode=" " horiz-adv-x="550" 
 />
    <glyph glyph-name="exclam" unicode="!" horiz-adv-x="628" 
d="M309 1434q59 0 91.5 -34t29.5 -95l-24 -795q-6 -100 -95 -100q-39 0 -64 25t-28 75l-29 795q-3 61 29 95t90 34zM311 225q55 0 91 -35.5t36 -91.5q0 -53 -35.5 -88t-91.5 -35t-93.5 34.5t-37.5 88.5q0 55 37.5 91t93.5 36z" />
    <glyph glyph-name="quotedbl" unicode="&#x22;" horiz-adv-x="1089" 
d="M367 1436q55 0 83.5 -33t16.5 -94l-74 -373q-15 -66 -74 -66q-33 0 -52 19.5t-19 54.5l10 377q0 57 29 86t80 29zM758 1436q53 0 81.5 -33t18.5 -94l-76 -373q-12 -66 -73 -66q-32 0 -52 20t-20 54l12 377q-1 57 28.5 86t80.5 29z" />
    <glyph glyph-name="numbersign" unicode="#" horiz-adv-x="1636" 
d="M1212 1440q41 0 66.5 -29.5t17.5 -81.5l-43 -237h146q49 0 76.5 -26t27.5 -65q0 -40 -27.5 -66t-76.5 -26h-174l-72 -403h145q49 0 76 -25.5t27 -64.5q0 -40 -28 -66t-75 -26h-178l-43 -238q-16 -92 -96 -92q-43 0 -67.5 30.5t-14.5 84.5l37 215h-387l-45 -238
q-19 -92 -96 -92q-43 0 -68.5 30.5t-15.5 84.5l38 215h-147q-48 0 -75 25.5t-27 66.5q0 37 27.5 63.5t74.5 26.5h180l74 403h-150q-49 0 -75.5 26t-26.5 66q0 39 26.5 65t75.5 26h179l51 260q8 42 32 65t62 23q41 0 67 -29.5t17 -81.5l-43 -237h385l49 260q15 88 94 88z
M1042 909h-389l-71 -403h387z" />
    <glyph glyph-name="dollar" unicode="$" horiz-adv-x="1226" 
d="M623 1634q32 0 50.5 -18.5t18.5 -52.5v-107q165 -9 293 -61q70 -28 70 -90q0 -38 -23 -65.5t-69 -27.5q-23 0 -56 11q-143 47 -280 47q-131 0 -201 -57t-70 -152q0 -43 17.5 -78.5t45 -60t70 -46t84 -37t95.5 -33.5q5 -1 8.5 -2.5t7.5 -2.5q47 -16 77.5 -27t75 -29.5
t74 -36t65 -42.5t58 -53.5t43 -63t30 -78t9.5 -92.5q0 -179 -112 -279.5t-312 -119.5v-111q0 -33 -19 -52.5t-50 -19.5q-32 0 -52 19t-20 53v108q-171 8 -320 66q-75 29 -75 96q0 37 23 62.5t61 25.5q33 0 71 -14q144 -51 295 -51q139 0 212 57.5t73 163.5q0 24 -6 45
t-14 38t-25 33t-31 27.5t-39 24.5t-42.5 21t-49.5 19.5t-50.5 18t-55 18t-54.5 17.5q-69 23 -116.5 43t-104 55.5t-90.5 76t-57 102t-23 137.5q0 181 110 282t308 115v107q0 34 20.5 52.5t51.5 18.5z" />
    <glyph glyph-name="percent" unicode="%" horiz-adv-x="1705" 
d="M1221 1440q38 0 63 -21.5t25 -58.5q0 -28 -19 -60l-715 -1243q-37 -63 -88 -63q-37 0 -62.5 22.5t-25.5 59.5q0 31 17 59l714 1239q37 66 91 66zM432 1303q-70 0 -111.5 -54t-41.5 -141t43.5 -140t111.5 -53q67 0 109.5 54t42.5 139q0 86 -43 140.5t-111 54.5zM434 1456
q146 0 237 -97.5t91 -248.5t-92 -248.5t-240 -97.5q-147 0 -238.5 96.5t-91.5 245.5q0 153 93.5 251.5t240.5 98.5zM1278 516q-70 0 -112 -53.5t-42 -140.5t44 -140t112 -53q67 0 109.5 54t42.5 139q0 86 -43 140t-111 54zM1280 670q146 0 237 -97.5t91 -248.5t-92 -249
t-240 -98q-147 0 -238.5 96.5t-91.5 245.5q0 153 93.5 252t240.5 99z" />
    <glyph glyph-name="ampersand" unicode="&#x26;" horiz-adv-x="1400" 
d="M606 1456q142 0 244 -83.5t102 -225.5q0 -112 -70 -198t-202 -165l330 -378q21 23 37.5 44t33 46t23 35t23.5 40t18 31q43 66 106 49q41 -11 54.5 -47.5t-9.5 -89.5q-66 -138 -163 -238l114 -135q33 -36 33 -71q0 -38 -26.5 -62t-65.5 -24q-47 0 -84 45l-107 125
q-87 -83 -199.5 -128.5t-232.5 -45.5q-88 0 -168.5 25.5t-145 74.5t-102.5 128t-38 177q0 75 23 140t67 117t93.5 92t117.5 81q-5 6 -31.5 38t-33.5 42t-27.5 38t-27 44.5t-18 43.5t-15 53.5t-3.5 55.5q0 101 49 176.5t127.5 112.5t173.5 37zM881 287l-363 405
q-105 -65 -157 -130.5t-52 -158.5q0 -117 79 -180t194 -63q165 0 299 127zM608 1288q-76 0 -120 -49t-44 -117q0 -58 31 -107t100 -120q195 109 195 238q0 68 -45 111.5t-117 43.5z" />
    <glyph glyph-name="quotesingle" unicode="'" horiz-adv-x="534" 
d="M283 1436q54 0 83 -33t19 -94l-76 -373q-12 -66 -73 -66q-32 0 -52 20t-20 54l10 377q0 57 29 86t80 29z" />
    <glyph glyph-name="parenleft" unicode="(" horiz-adv-x="774" 
d="M586 1419q32 0 54 -21.5t22 -49.5q0 -43 -58 -101q-82 -79 -137.5 -163t-93 -209t-37.5 -275q-1 -120 20.5 -223t63.5 -185.5t89.5 -145.5t111.5 -126q25 -28 36 -47t11 -43q0 -27 -22.5 -49.5t-55.5 -22.5q-46 0 -107 52q-72 63 -133.5 139t-117 174.5t-87.5 222
t-32 256.5q0 127 31.5 246t85.5 214.5t115 170t132 135.5q57 51 109 51z" />
    <glyph glyph-name="parenright" unicode=")" horiz-adv-x="774" 
d="M182 1419q47 0 107 -51q71 -61 132 -135.5t115 -170t85.5 -214.5t31.5 -246q0 -133 -32 -256.5t-87.5 -222t-117 -174.5t-133.5 -139q-61 -52 -107 -52q-34 0 -56 22t-22 50q0 40 47 90q64 63 111.5 126t89 145.5t62.5 185.5t20 223q0 219 -70.5 372.5t-197.5 274.5
q-56 53 -56 101q0 28 22 49.5t56 21.5z" />
    <glyph glyph-name="asterisk" unicode="*" horiz-adv-x="927" 
d="M451 1540q30 0 46 -19.5t13 -50.5l-18 -188l149 107q25 19 53 15.5t43 -28.5t6 -49.5t-38 -36.5l-170 -78l167 -77q31 -13 40.5 -38t-5.5 -50q-15 -24 -43.5 -27.5t-52.5 14.5l-149 105l18 -187q3 -31 -13 -50t-46 -19q-32 0 -47.5 19.5t-10.5 49.5l17 187l-148 -105
q-26 -20 -53.5 -16t-42.5 29t-5.5 50.5t38.5 37.5l168 77l-168 76q-29 12 -37.5 37.5t6.5 50.5q15 24 41.5 26.5t52.5 -16.5l148 -104l-17 188q-5 32 10 51t48 19z" />
    <glyph glyph-name="plus" unicode="+" horiz-adv-x="1071" 
d="M537 1083q36 0 56.5 -23t20.5 -61v-243h238q41 0 65.5 -20t24.5 -54q0 -36 -23.5 -57t-66.5 -21h-238v-246q0 -38 -20.5 -61t-56.5 -23q-34 0 -54 23t-20 61v246h-238q-41 0 -65.5 21.5t-24.5 56.5q0 33 25 53.5t65 20.5h238v243q0 38 20 61t54 23z" />
    <glyph glyph-name="comma" unicode="," horiz-adv-x="583" 
d="M276 215q74 0 117 -54t43 -134q0 -83 -48 -153.5t-112 -111.5q-30 -18 -53 -18q-17 0 -31 12t-14 31q0 28 27 47q101 66 98 168q-30 -20 -53 -20q-50 0 -76.5 29.5t-26.5 80.5q0 52 37.5 87.5t91.5 35.5z" />
    <glyph glyph-name="hyphen" unicode="-" horiz-adv-x="1069" 
d="M246 612h577q40 0 64 -19t24 -52q0 -36 -23 -56t-65 -20h-577q-39 0 -62.5 20t-23.5 56q0 33 23.5 52t62.5 19z" />
    <glyph glyph-name="period" unicode="." horiz-adv-x="555" 
d="M276 227q53 0 89 -35.5t36 -87.5q0 -55 -35.5 -88.5t-89.5 -33.5q-53 0 -88.5 33.5t-35.5 88.5q0 52 35.5 87.5t88.5 35.5z" />
    <glyph glyph-name="slash" unicode="/" horiz-adv-x="956" 
d="M844 1507q34 0 58 -19.5t24 -53.5q0 -25 -11 -50l-745 -1691q-32 -72 -86 -72q-34 0 -58 20.5t-24 55.5q0 25 10 47l746 1692q32 71 86 71z" />
    <glyph glyph-name="zero" unicode="0" horiz-adv-x="1482" 
d="M743 1456q275 0 442 -203t167 -532q0 -331 -167 -537.5t-444 -206.5q-183 0 -322 93t-213.5 260t-74.5 385t74.5 386t214 261.5t323.5 93.5zM741 1270q-179 0 -280 -148t-101 -403q0 -260 100.5 -407.5t282.5 -147.5q181 0 280 147t99 404q0 258 -100 406.5t-281 148.5z
" />
    <glyph glyph-name="one" unicode="1" horiz-adv-x="788" 
d="M471 1440q47 0 77 -26.5t30 -82.5v-1222q0 -55 -30 -85t-79 -30q-47 0 -75.5 30t-28.5 85v1089l-113 -61q-36 -19 -64 -19q-37 0 -59.5 27t-22.5 59q0 54 66 90l193 113q59 33 106 33z" />
    <glyph glyph-name="two" unicode="2" horiz-adv-x="1210" 
d="M571 1456q213 0 349.5 -121.5t136.5 -312.5q0 -51 -11 -101t-25 -87.5t-44 -82.5t-49 -70.5t-61.5 -68.5t-60 -59.5t-63.5 -58.5l-337 -312h587q46 0 74.5 -25.5t28.5 -64.5q0 -38 -28.5 -65t-74.5 -27h-768q-56 0 -85 32.5t-29 76.5q0 65 77 131l422 393q40 38 63.5 62
t57.5 65.5t52.5 75.5t33 80t14.5 92q0 113 -79.5 188.5t-223.5 75.5q-31 0 -66.5 -6.5t-56.5 -12.5t-59.5 -19.5t-48.5 -16.5q-32 -11 -59 -11q-40 0 -62 26.5t-22 61.5q0 62 75 90q65 30 161 51t181 21z" />
    <glyph glyph-name="three" unicode="3" horiz-adv-x="1218" 
d="M553 1456q205 0 334 -98t129 -273q0 -112 -69.5 -200t-190.5 -123q67 -14 122 -42t99.5 -71.5t69 -107.5t24.5 -144q0 -136 -72 -232.5t-191 -142t-273 -45.5q-196 0 -342 68q-74 30 -74 96q0 33 21.5 57.5t56.5 24.5q13 0 59 -12q120 -47 268 -47q138 0 229 67t91 197
q0 58 -20.5 103.5t-53.5 74.5t-79.5 48t-94.5 26.5t-102 7.5h-45q-95 0 -95 78t95 78h59q125 0 207 50.5t82 156.5q0 107 -81.5 163t-195.5 56q-82 0 -207 -33q-46 -8 -57 -8q-38 0 -60 24t-22 62q0 66 82 92q136 49 297 49z" />
    <glyph glyph-name="four" unicode="4" horiz-adv-x="1292" 
d="M911 1440q51 0 85 -30.5t34 -88.5v-825h86q40 -2 63 -22t23 -56q0 -37 -22.5 -59t-63.5 -23h-86v-227q0 -55 -30 -85t-78 -30q-49 0 -78 29.5t-29 85.5v227h-618q-52 0 -82.5 26.5t-30.5 73.5q0 21 13.5 48t24.5 41.5t38 49.5l600 768q46 57 68 72q36 25 83 25zM815 1143
l-508 -647h508v647z" />
    <glyph glyph-name="five" unicode="5" horiz-adv-x="1198" 
d="M348 1434h606q48 0 75.5 -25.5t27.5 -65.5t-27.5 -66t-75.5 -26h-555l-51 -397q53 33 125 53.5t145 20.5q222 0 351 -127t129 -326q0 -219 -149.5 -358.5t-397.5 -139.5q-190 0 -356 72q-78 34 -78 92q0 38 23 64t59 26q21 0 55 -12q138 -57 268 -57q151 0 249.5 85.5
t98.5 223.5q0 131 -85.5 213t-217.5 82q-92 0 -192 -49q-82 -39 -150 -4q-63 35 -51 133l64 491q6 46 34.5 71.5t75.5 25.5z" />
    <glyph glyph-name="six" unicode="6" horiz-adv-x="1337" 
d="M731 1456q176 0 330 -55q80 -26 80 -86q0 -35 -22.5 -62t-61.5 -28q-33 0 -64 8q-119 39 -248 39q-194 0 -304 -139t-111 -420q51 103 159 163t240 60q138 0 248 -51.5t178 -158.5t68 -255q0 -216 -143.5 -355t-374.5 -139q-118 0 -214 35.5t-162.5 98.5t-111.5 150.5
t-65.5 190t-20.5 218.5q0 72 7 142t25.5 149.5t47.5 149t76.5 134t108 110.5t147 73.5t188.5 27.5zM688 768q-141 0 -229 -87t-88 -220q0 -129 85 -220t232 -91q144 0 228.5 89t84.5 222q0 136 -84 221.5t-229 85.5z" />
    <glyph glyph-name="seven" unicode="7" horiz-adv-x="1163" 
d="M193 1434h743q68 0 103.5 -31.5t35.5 -83.5q0 -49 -39 -129l-516 -1118q-20 -42 -43.5 -60t-56.5 -18q-43 0 -73 25t-30 65q0 24 17 63l510 1104h-651q-45 0 -72 26.5t-27 65.5q0 38 26.5 64.5t72.5 26.5z" />
    <glyph glyph-name="eight" unicode="8" horiz-adv-x="1318" 
d="M893 760q138 -38 221.5 -132t83.5 -229q0 -106 -43.5 -188.5t-119 -132.5t-171 -75.5t-205.5 -25.5t-205.5 25.5t-170.5 75.5t-118.5 132.5t-43.5 188.5q0 135 83.5 229t221.5 132q-108 32 -173 113t-65 198q0 180 133.5 282.5t337.5 102.5t337.5 -102.5t133.5 -282.5
q0 -117 -64.5 -198t-172.5 -113zM399 1057q0 -97 69.5 -159t190.5 -62t191 62t70 159q0 104 -74 164.5t-187 60.5q-112 0 -186 -60.5t-74 -164.5zM659 145q133 0 225.5 69.5t92.5 191.5q0 120 -88 189t-230 69t-229.5 -69t-87.5 -189q0 -122 92 -191.5t225 -69.5z" />
    <glyph glyph-name="nine" unicode="9" horiz-adv-x="1304" 
d="M627 1456q143 0 253 -54t176.5 -150t100 -219.5t33.5 -270.5q0 -71 -7.5 -141t-26.5 -149.5t-48.5 -148.5t-77.5 -134t-109.5 -111t-148.5 -73.5t-190 -27.5q-190 0 -332 56q-80 32 -80 98q0 34 22 59t62 25q21 0 51 -10q48 -15 76.5 -22.5t76.5 -14t105 -6.5
q200 0 312.5 140t113.5 419q-49 -103 -157 -163t-238 -60q-138 0 -247.5 51.5t-176 158.5t-66.5 255q0 217 142 355t381 138zM639 1284q-147 0 -231 -89t-84 -222q0 -137 83.5 -222t231.5 -85q137 0 225 87t88 218q0 129 -85 221t-228 92z" />
    <glyph glyph-name="colon" unicode=":" horiz-adv-x="567" 
d="M283 285q53 0 89 -36.5t36 -88.5q0 -53 -36 -88t-89 -35q-52 0 -87.5 34.5t-35.5 88.5q0 52 36 88.5t87 36.5zM283 1016q53 0 89 -36t36 -89t-36 -87t-89 -34q-52 0 -87.5 34t-35.5 87q0 52 36 88.5t87 36.5z" />
    <glyph glyph-name="semicolon" unicode=";" horiz-adv-x="634" 
d="M303 219q74 0 117 -54t43 -134q0 -87 -50 -157t-118 -112q-26 -16 -43 -16q-20 0 -33.5 13t-13.5 32q0 23 28 45q42 33 70.5 78t28.5 92q-20 -20 -53 -20q-50 0 -76.5 29.5t-26.5 78.5q0 54 36.5 89.5t90.5 35.5zM311 958q53 0 90 -36t37 -88q0 -53 -37 -88t-90 -35
q-52 0 -88.5 35t-36.5 88q0 52 37 88t88 36z" />
    <glyph glyph-name="less" unicode="&#x3c;" horiz-adv-x="913" 
d="M621 997q23 13 43 13q28 0 47 -18.5t24 -45.5q9 -55 -49 -82l-375 -174l377 -172q56 -27 47 -84q-5 -27 -23.5 -45t-45.5 -18q-22 0 -43 12l-437 221q-61 33 -61 86q0 58 61 88z" />
    <glyph glyph-name="equal" unicode="=" horiz-adv-x="1050" 
d="M254 922h549q40 0 63 -19.5t23 -54.5q0 -37 -22.5 -57.5t-63.5 -20.5h-549q-39 0 -62.5 21t-23.5 57q0 35 23.5 54.5t62.5 19.5zM254 594h549q40 0 63 -19.5t23 -54.5q0 -37 -22.5 -57.5t-63.5 -20.5h-549q-39 0 -62.5 21t-23.5 57q0 35 23.5 54.5t62.5 19.5z" />
    <glyph glyph-name="greater" unicode="&#x3e;" horiz-adv-x="913" 
d="M299 997l434 -219q62 -30 62 -88q0 -52 -62 -86l-436 -221q-21 -12 -43 -12q-27 0 -46 18t-24 45q-9 57 47 84l377 172l-375 174q-58 27 -49 82q5 27 24.5 45.5t47.5 18.5q20 0 43 -13z" />
    <glyph glyph-name="question" unicode="?" horiz-adv-x="1038" 
d="M463 1456q86 0 164 -22.5t140 -66t99 -114.5t37 -161q0 -64 -21 -118t-54.5 -91.5t-74.5 -70t-81.5 -60.5t-74 -56.5t-54.5 -65t-21 -79.5v-72q0 -41 -26 -63.5t-62 -22.5q-41 0 -65.5 23.5t-24.5 70.5v74q0 57 19.5 104.5t50 81t67.5 63.5t73.5 57.5t67 56.5t49.5 68
t19 85q0 93 -68.5 145t-170.5 52q-59 0 -99.5 -11t-75 -27t-61.5 -22q-48 -10 -76 15.5t-30 62.5q-3 61 57 92q57 32 139.5 52t157.5 20zM438 225q56 0 91.5 -35.5t35.5 -91.5q0 -53 -35.5 -88t-91.5 -35t-93.5 34.5t-37.5 88.5q0 55 37.5 91t93.5 36z" />
    <glyph glyph-name="at" unicode="@" horiz-adv-x="1908" 
d="M965 1432q140 0 263.5 -30t230.5 -95.5t184 -162t121 -237t44 -313.5q0 -213 -90.5 -327.5t-265.5 -114.5q-218 0 -250 178q-24 -69 -106.5 -123.5t-198.5 -54.5q-125 0 -209 68t-84 198q0 74 29.5 127.5t81.5 83t112 42.5t131 13q51 0 199 -12v63q1 97 -53 136.5
t-154 39.5q-96 0 -198 -26q-32 -8 -54 2t-28 37q-12 59 55 75q147 35 264 35q154 0 241 -71t87 -218v-335q0 -136 141 -136q56 0 95.5 22t61 65t31 96.5t9.5 124.5q0 159 -39 283.5t-103 202t-154 128t-185 70.5t-203 20q-328 0 -513.5 -179t-185.5 -519q0 -338 182 -514
t496 -176q146 0 281 36q36 8 61.5 -3t32.5 -40q9 -32 -7 -55t-46 -33q-156 -53 -334 -53q-176 0 -324 54.5t-258.5 158t-172.5 264.5t-62 363q0 201 61 361t172.5 265t266.5 160.5t344 55.5zM981 582q-227 0 -227 -158q0 -79 51.5 -114.5t124.5 -35.5q97 0 162.5 58
t64.5 147v92q-149 11 -176 11z" />
    <glyph glyph-name="A" unicode="A" horiz-adv-x="1396" 
d="M698 1446q141 0 189 -131l430 -1165q25 -71 -6.5 -113.5t-91.5 -42.5q-75 0 -107 96l-108 287h-609l-108 -287q-19 -51 -45 -73.5t-66 -22.5q-59 0 -90 42t-6 111l432 1168q45 131 186 131zM702 1237h-6l-243 -686h493z" />
    <glyph glyph-name="B" unicode="B" horiz-adv-x="1445" 
d="M309 1436h543q194 0 312 -101t118 -278q0 -72 -20.5 -131t-54.5 -97t-70 -61.5t-74 -34.5q114 -22 193 -110.5t79 -233.5q0 -92 -35 -167t-95.5 -123t-138 -73.5t-165.5 -25.5h-592q-51 0 -78.5 27.5t-27.5 78.5v1221q0 50 27.5 79t78.5 30zM866 641h-442v-457h440
q102 0 169 63t67 165q0 97 -61 163t-173 66zM827 1251h-403v-438h414q97 0 155 60t58 155q0 102 -65.5 163.5t-158.5 59.5z" />
    <glyph glyph-name="C" unicode="C" horiz-adv-x="1409" 
d="M887 1270q-243 0 -391 -155t-148 -396q0 -244 149.5 -399.5t395.5 -155.5q76 0 133.5 14.5t97 29t70.5 15.5q43 1 67.5 -23t26.5 -59q3 -70 -82 -106q-137 -58 -317 -58q-227 0 -403 89t-275.5 258.5t-99.5 394.5q0 224 100 392.5t276.5 256.5t403.5 88q178 -3 309 -57
q45 -19 64 -43t18 -62q-2 -35 -26.5 -60t-67.5 -24q-32 1 -73.5 15.5t-99 29t-128.5 15.5z" />
    <glyph glyph-name="D" unicode="D" horiz-adv-x="1488" 
d="M309 1434h402q179 0 342 -91q165 -96 243 -259.5t80 -366.5q0 -201 -80 -367t-243 -260q-76 -44 -168.5 -67t-173.5 -23h-402q-51 0 -78.5 27.5t-27.5 78.5v1221q0 50 27.5 78.5t78.5 28.5zM662 1249h-236v-1067h236q167 0 292 90q185 127 185 445q0 333 -203 457
q-123 75 -274 75z" />
    <glyph glyph-name="E" unicode="E" horiz-adv-x="1343" 
d="M309 1434h803q47 0 73.5 -26t26.5 -65t-26.5 -66.5t-73.5 -27.5h-686v-461h575q48 0 75.5 -25.5t27.5 -64.5q0 -38 -27.5 -64t-75.5 -26h-575v-424h709q48 0 75 -26.5t27 -65.5q0 -40 -27 -66t-75 -26h-826q-51 0 -78.5 27.5t-27.5 78.5v1221q0 50 27.5 78.5t78.5 28.5z
" />
    <glyph glyph-name="F" unicode="F" horiz-adv-x="1284" 
d="M309 1434h805q46 0 72 -26t26 -65t-26.5 -66.5t-71.5 -27.5h-688v-477h580q46 0 72 -26t26 -64q0 -40 -26 -65t-72 -25h-580v-483q0 -54 -31 -84.5t-82 -30.5q-50 0 -80 30t-30 85v1218q0 50 27.5 78.5t78.5 28.5z" />
    <glyph glyph-name="G" unicode="G" horiz-adv-x="1554" 
d="M893 1456q187 0 362 -74q81 -35 72 -102q-3 -36 -28 -60t-68 -20q-29 3 -79.5 21t-117.5 33.5t-147 15.5q-119 0 -220.5 -44t-170 -119t-107.5 -176.5t-39 -215.5q0 -154 61.5 -278t184.5 -198.5t289 -74.5q201 0 352 119v301h-307q-42 0 -66 23t-24 59q0 38 24 61t66 23
h389q51 0 79.5 -28t28.5 -79v-367q0 -75 -53 -114q-217 -185 -489 -185q-228 0 -403.5 93t-272 261.5t-96.5 385.5q0 162 58.5 300t161.5 234t247.5 150.5t312.5 54.5z" />
    <glyph glyph-name="H" unicode="H" horiz-adv-x="1593" 
d="M1278 1440q51 0 82 -30t31 -85v-1216q0 -54 -31 -84.5t-82 -30.5q-49 0 -80 30t-31 85v507h-741v-507q0 -54 -32 -84.5t-81 -30.5t-79.5 30t-30.5 85v1216q0 55 30.5 85t79.5 30t81 -30t32 -85v-522h741v522q0 55 31 85t80 30z" />
    <glyph glyph-name="I" unicode="I" horiz-adv-x="626" 
d="M313 1440q51 0 82 -30t31 -85v-1216q0 -54 -31 -84.5t-82 -30.5q-50 0 -80 30t-30 85v1216q0 56 29.5 85.5t80.5 29.5z" />
    <glyph glyph-name="J" unicode="J" horiz-adv-x="1169" 
d="M881 1440q51 0 80.5 -30t29.5 -87v-784q0 -85 -8 -148q-23 -199 -148 -306.5t-325 -107.5q-126 0 -220.5 48.5t-152.5 119.5q-33 36 -33 82q0 33 22.5 58.5t61.5 25.5q45 0 80 -35q112 -112 228 -112q119 0 195.5 79t76.5 226v854q0 56 31 86.5t82 30.5z" />
    <glyph glyph-name="K" unicode="K" horiz-adv-x="1388" 
d="M1161 1440q35 0 61 -25.5t26.5 -62t-34.5 -78.5l-362 -395l412 -707q37 -62 9 -120t-97 -58q-46 0 -72 20.5t-51 63.5l-363 653l-266 -280v-342q0 -54 -29.5 -84.5t-81.5 -30.5q-54 0 -82 31t-28 84v1216q0 53 28.5 84t81.5 31t82 -31.5t29 -83.5v-369l-6 -251l6 -3
l633 680q32 34 51 46t53 12z" />
    <glyph glyph-name="L" unicode="L" horiz-adv-x="1206" 
d="M313 1440q51 0 82 -30t31 -85v-1143h616q50 0 77.5 -25t27.5 -65q0 -39 -28 -65.5t-77 -26.5h-733q-51 0 -78.5 27.5t-27.5 78.5v1219q0 56 29 85.5t81 29.5z" />
    <glyph glyph-name="M" unicode="M" horiz-adv-x="1931" 
d="M1587 1440q57 0 100.5 -36.5t43.5 -111.5v-1183q0 -54 -31 -84.5t-82 -30.5q-50 0 -80.5 30t-30.5 85v403l15 582h-2l-410 -899q-48 -101 -143 -101q-99 0 -146 105l-407 895h-4l16 -582v-403q0 -54 -31 -84.5t-80 -30.5q-52 0 -82 30t-30 85v1181q0 74 43.5 112t99.5 38
q69 0 107 -37.5t75 -118.5l435 -956h6l434 958q39 81 77 117.5t107 36.5z" />
    <glyph glyph-name="N" unicode="N" horiz-adv-x="1572" 
d="M1260 1440q49 0 79.5 -30t30.5 -85v-1188q0 -68 -37 -105.5t-104 -37.5q-54 0 -86 25.5t-60 70.5l-663 1010h-4l10 -465v-526q0 -56 -31.5 -85.5t-83.5 -29.5q-49 0 -78.5 30t-29.5 85v1191q0 65 35 102.5t100 37.5q38 0 68 -15t44 -31t33 -44l670 -1008h4l-10 467v516
q0 56 30.5 85.5t82.5 29.5z" />
    <glyph glyph-name="O" unicode="O" horiz-adv-x="1726" 
d="M862 1456q162 0 301 -54t238.5 -150t156 -234.5t56.5 -300.5q0 -217 -96.5 -386t-267.5 -261.5t-388 -92.5q-215 0 -385.5 92.5t-267 261.5t-96.5 386t96.5 386t267 261t385.5 92zM862 1270q-220 0 -366 -153t-146 -400q0 -248 146 -400.5t368 -152.5t367 152.5
t145 400.5t-145.5 400.5t-368.5 152.5z" />
    <glyph glyph-name="P" unicode="P" horiz-adv-x="1441" 
d="M307 1434h615q189 0 308.5 -131t119.5 -314q0 -185 -117.5 -315.5t-304.5 -130.5h-502v-434q0 -54 -31 -84.5t-82 -30.5q-50 0 -80 30t-30 85v1218q0 50 27.5 78.5t76.5 28.5zM856 1249h-430v-522h442q108 0 178 73.5t70 186.5q0 115 -73 188.5t-187 73.5z" />
    <glyph glyph-name="Q" unicode="Q" horiz-adv-x="1726" 
d="M862 1456q162 0 301 -54t238.5 -150t156 -234.5t56.5 -300.5q0 -246 -122.5 -426.5t-330.5 -255.5q111 -58 301 -113q91 -23 84 -98q-5 -50 -44 -76.5t-105 -7.5q-85 24 -186 70.5t-163 82t-151 89.5q-16 -2 -49 -2q-212 3 -379.5 95.5t-261.5 259.5t-94 382
q0 217 96.5 386t267 261t385.5 92zM862 1270q-220 0 -366 -153t-146 -400q0 -248 146 -400.5t368 -152.5t367 152.5t145 400.5t-145.5 400.5t-368.5 152.5z" />
    <glyph glyph-name="R" unicode="R" horiz-adv-x="1427" 
d="M307 1434h592q196 0 318 -121.5t122 -304.5q0 -146 -79.5 -255.5t-217.5 -150.5l228 -440q20 -36 20 -76q0 -47 -32 -69.5t-72 -22.5q-68 0 -109 76l-254 508h-397v-469q0 -54 -31 -84.5t-82 -30.5q-50 0 -80 30t-30 85v1218q0 50 27 78.5t77 28.5zM854 1249h-428v-487
h440q104 0 170 70.5t66 175.5q0 108 -69 174.5t-179 66.5z" />
    <glyph glyph-name="S" unicode="S" horiz-adv-x="1247" 
d="M623 1456q112 0 222.5 -21t174.5 -51q69 -34 63 -98q-6 -50 -41.5 -72t-97.5 -4q-1 0 -63 21t-117.5 31t-120.5 10q-136 -1 -208.5 -54.5t-72.5 -144.5q0 -29 6 -53.5t21.5 -45t30 -36.5t42.5 -31.5t46.5 -25.5t56 -23t57.5 -19.5t62 -19.5q61 -18 99.5 -31t93 -35.5
t88 -43.5t71.5 -54t59.5 -70t35.5 -87.5t14 -110.5q0 -106 -41 -186.5t-114.5 -129t-168.5 -72t-209 -22.5q-117 1 -237 23t-182 51q-77 38 -72 109q5 46 40.5 67.5t86.5 8.5q9 -3 44.5 -16t51 -17.5t50.5 -14.5t61 -14t64 -8t77 -4q159 0 233 56.5t74 154.5q0 26 -6 48.5
t-14 40t-25 34.5t-31 28.5t-40.5 24.5t-44 21t-51 19t-53.5 17t-58 17q-49 15 -76 23.5t-72 25t-71.5 29.5t-63.5 34t-59 42t-47 51t-38.5 62.5t-22.5 74t-9 88.5q0 105 38 183.5t107 126t158.5 70.5t198.5 23z" />
    <glyph glyph-name="T" unicode="T" horiz-adv-x="1327" 
d="M158 1434h1011q46 0 73.5 -26.5t27.5 -64.5t-27.5 -65t-73.5 -27h-393v-1142q0 -56 -31 -85.5t-83 -29.5q-51 0 -81 29.5t-30 85.5v1142h-393q-46 0 -73.5 27t-27.5 65t27.5 64.5t73.5 26.5z" />
    <glyph glyph-name="U" unicode="U" horiz-adv-x="1501" 
d="M1200 1440q52 0 82.5 -29.5t30.5 -85.5v-844q0 -227 -154.5 -365.5t-406.5 -138.5q-258 0 -411 141t-153 363v844q0 56 30 85.5t81 29.5t82 -30t31 -85v-850q0 -140 94 -225.5t248 -85.5q150 0 243 86.5t93 224.5v850q0 56 29.5 85.5t80.5 29.5z" />
    <glyph glyph-name="V" unicode="V" horiz-adv-x="1337" 
d="M1155 1440q46 0 79.5 -28t33.5 -75q0 -24 -11 -53l-421 -1163q-47 -127 -168 -127q-119 0 -168 127l-422 1163q-10 40 -10 53q0 47 34 75t80 28q77 0 105 -86l223 -621l158 -475h4l155 471l224 625q28 86 104 86z" />
    <glyph glyph-name="W" unicode="W" horiz-adv-x="2033" 
d="M1837 1440q51 0 82 -29t31 -78q0 -28 -8 -59l-336 -1153q-38 -127 -160 -127q-125 0 -158 127l-270 987l-273 -987q-36 -127 -157 -127q-123 0 -158 127l-336 1153q-10 33 -10 57q0 49 32 79t83 30q85 0 108 -90l164 -590q25 -91 68 -268t55 -218h4l274 1043q13 61 52 92
t94 31q54 0 92.5 -30.5t52.5 -92.5l275 -1043h4q15 50 59.5 232.5t67.5 269.5l160 574q26 90 108 90z" />
    <glyph glyph-name="X" unicode="X" horiz-adv-x="1384" 
d="M1192 1440q42 0 72.5 -28t33 -68t-31.5 -84l-432 -531l442 -551q34 -47 30.5 -88t-35 -68.5t-73.5 -27.5q-53 0 -90 49l-420 524l-409 -522q-39 -51 -97 -51q-42 0 -72 28t-33 68.5t29 85.5l445 555l-432 524q-37 48 -32 89t37 68.5t73 27.5q54 0 92 -47l401 -504
l404 500q39 51 98 51z" />
    <glyph glyph-name="Y" unicode="Y" horiz-adv-x="1271" 
d="M1102 1440q43 0 73.5 -26t30.5 -68q0 -34 -22 -68l-434 -698v-471q0 -55 -29.5 -85t-83.5 -30t-83.5 30t-29.5 85v471l-436 698q-22 34 -22 70q0 40 32 66t72 26q55 0 94 -64l371 -610h4l369 610q40 64 94 64z" />
    <glyph glyph-name="Z" unicode="Z" horiz-adv-x="1302" 
d="M221 1434h862q51 0 86 -25.5t35 -75.5q0 -48 -49 -116l-776 -1039l2 -4l399 8h324q45 0 72.5 -26.5t27.5 -63.5q0 -38 -27 -65t-73 -27h-895q-54 0 -86.5 23.5t-32.5 74.5q0 45 43 105l782 1050l-2 4l-344 -6h-348q-47 0 -73.5 27t-26.5 65q0 39 26.5 65t73.5 26z" />
    <glyph glyph-name="bracketleft" unicode="[" horiz-adv-x="671" 
d="M295 1456h176q46 0 70 -22.5t24 -59.5q0 -35 -24.5 -57.5t-69.5 -22.5h-106v-1497h106q46 0 70 -22t24 -58t-24.5 -59t-69.5 -23h-174q-51 0 -80 28t-29 79v1608q0 49 28.5 77.5t78.5 28.5z" />
    <glyph glyph-name="backslash" unicode="\" horiz-adv-x="956" 
d="M113 1507q58 0 86 -71l745 -1692q12 -27 12 -47q-1 -35 -24.5 -55.5t-57.5 -20.5q-58 0 -86 72l-745 1691q-12 27 -12 50q1 34 24.5 53.5t57.5 19.5z" />
    <glyph glyph-name="bracketright" unicode="]" horiz-adv-x="673" 
d="M205 1456h174q51 0 78.5 -28t27.5 -78v-1608q0 -51 -27.5 -79t-78.5 -28h-174q-45 0 -70.5 23.5t-25.5 58.5q0 36 25 58t71 22h104v1497h-104q-46 0 -71 22.5t-25 57.5q0 37 25 59.5t71 22.5z" />
    <glyph glyph-name="asciicircum" unicode="^" horiz-adv-x="962" 
d="M569 1497l199 -217q25 -22 25 -51q0 -22 -16 -37.5t-40 -15.5q-38 0 -63 28l-193 191l-190 -191q-28 -28 -66 -28q-23 0 -38 15.5t-15 37.5q0 28 23 51l198 217q35 35 88 35q56 0 88 -35z" />
    <glyph glyph-name="underscore" unicode="_" horiz-adv-x="1218" 
d="M248 -135h729q42 0 65 -20t23 -56t-23 -56t-65 -20h-729q-41 0 -65.5 20.5t-24.5 55.5q0 36 24.5 56t65.5 20z" />
    <glyph glyph-name="grave" unicode="`" horiz-adv-x="681" 
d="M276 1534q54 0 82 -68l72 -182q17 -44 -1 -70t-52 -26t-64 41l-100 166q-25 37 -25 61q0 34 27 56t61 22z" />
    <glyph glyph-name="a" unicode="a" horiz-adv-x="1216" 
d="M596 1083q99 0 175 -19t134 -60.5t88.5 -112.5t30.5 -170v-490q0 -20 5 -32t17.5 -17.5t22.5 -7t31 -2.5q65 -7 65 -78q0 -44 -37 -74q-41 -28 -133 -28q-64 0 -114 34.5t-50 94.5v51q-41 -84 -135 -137t-235 -53q-166 0 -270.5 84t-104.5 241q0 92 37 160t103.5 107
t151 58t187.5 19q67 0 252 -18v78q0 117 -68 165t-192 48q-36 0 -73.5 -4t-62 -8t-67 -12.5t-63.5 -12.5q-51 -9 -79 12t-30 59q-3 65 74 84q166 41 340 41zM586 518q-127 0 -205 -46.5t-78 -147.5q0 -92 60.5 -139.5t150.5 -47.5q125 0 214 75.5t89 186.5v99
q-100 20 -231 20z" />
    <glyph glyph-name="b" unicode="b" horiz-adv-x="1353" 
d="M381 1389v-504q54 91 151.5 144.5t221.5 53.5q154 0 269 -77.5t171.5 -201.5t56.5 -274q0 -111 -32.5 -209.5t-94 -174.5t-158.5 -120t-218 -44t-222.5 55t-156.5 160l-9 -115q-3 -41 -29.5 -64.5t-68.5 -23.5q-43 0 -68.5 26.5t-25.5 73.5v1295q0 58 28.5 87t77.5 29
q48 0 77.5 -29t29.5 -87zM705 913q-141 0 -232.5 -109t-91.5 -274q0 -161 91.5 -269.5t232.5 -108.5q143 0 233 107t90 271q0 166 -90 274.5t-233 108.5z" />
    <glyph glyph-name="c" unicode="c" horiz-adv-x="1083" 
d="M670 1083q150 0 250 -43q59 -24 59 -75q0 -37 -25 -61t-71 -17q-18 3 -50.5 10.5t-65 12.5t-69.5 5q-98 0 -174 -33.5t-120 -89.5t-66.5 -122t-22.5 -138t22.5 -138t67 -121t120.5 -88t173 -33q50 0 114 15.5t85 16.5q40 1 61.5 -19t24.5 -52q6 -57 -55 -86
q-86 -45 -254 -45q-257 0 -416.5 152t-159.5 396q0 246 159 399.5t413 153.5z" />
    <glyph glyph-name="d" unicode="d" horiz-adv-x="1351" 
d="M1079 1505q49 0 78 -29t29 -87v-1295q0 -47 -25.5 -73.5t-68.5 -26.5q-42 0 -69 23.5t-30 64.5l-8 115q-55 -105 -156.5 -160t-222.5 -55q-97 0 -179.5 29t-141.5 79.5t-101 120t-62 150t-20 169.5q0 111 33.5 211t95.5 176t157.5 121t211.5 45q124 0 221.5 -53.5
t151.5 -144.5v504q0 58 29 87t77 29zM649 913q-143 0 -233 -108.5t-90 -274.5q0 -164 90 -271t233 -107q141 0 232.5 108.5t91.5 269.5q0 165 -91.5 274t-232.5 109z" />
    <glyph glyph-name="e" unicode="e" horiz-adv-x="1220" 
d="M643 1083q95 0 173 -23.5t130 -65.5t90 -94t58.5 -114t29.5 -119.5t9 -117.5q-1 -41 -26.5 -63.5t-68.5 -22.5h-714q3 -149 104 -232.5t266 -83.5q80 0 135.5 11.5t92.5 26.5t53 18q41 7 65 -12.5t29 -57.5q6 -55 -61 -88q-132 -63 -330 -63q-269 0 -423.5 148
t-154.5 398q0 159 66 285t190 198t287 72zM649 922q-136 0 -224 -85.5t-101 -232.5h610q0 43 -7.5 84.5t-28 84.5t-51.5 75.5t-82 53t-116 20.5z" />
    <glyph glyph-name="f" unicode="f" horiz-adv-x="772" 
d="M549 1518q61 0 119 -15q73 -15 73 -80q0 -35 -20.5 -56t-54.5 -21q-8 0 -30.5 3t-37.5 3q-84 0 -115.5 -37.5t-31.5 -132.5v-117h174q41 0 64.5 -21t23.5 -55q0 -33 -24 -55.5t-64 -22.5h-174v-800q0 -56 -30.5 -86.5t-78.5 -30.5t-77 29.5t-29 87.5v800h-91
q-36 0 -56.5 19.5t-20.5 50.5q0 30 19.5 50t55.5 24l93 10v109q0 171 71 257.5t242 86.5z" />
    <glyph glyph-name="g" unicode="g" horiz-adv-x="1155" 
d="M569 1083q71 0 142 -18h284q41 0 65.5 -19.5t24.5 -56.5q0 -35 -18.5 -57.5t-52.5 -26.5l-92 -12q75 -62 75 -191q0 -151 -110 -244t-305 -93q-127 0 -201 38q-57 -36 -57 -88q0 -24 12 -42t40.5 -28.5t54 -17t74.5 -9t78 -3t88 -0.5h19q190 0 276.5 -71t86.5 -187
q0 -77 -32 -135.5t-78.5 -91t-111.5 -52.5t-119.5 -26t-113.5 -6q-47 0 -87.5 2t-92 9t-93 19t-83.5 33.5t-70 50.5t-45.5 72.5t-17.5 97.5q0 63 36.5 116.5t104.5 88.5q-113 47 -113 168q0 52 33 98.5t80 73.5q-48 39 -77.5 106t-29.5 140q0 174 116.5 268t309.5 94z
M383 80q-80 -54 -80 -127q0 -39 18 -67.5t45 -44t67.5 -24.5t75.5 -11.5t79 -2.5q268 0 268 146q0 62 -44 88t-138 26q-224 0 -291 17zM578 930q-109 0 -168.5 -55t-59.5 -156q0 -98 56.5 -153.5t164.5 -55.5t164 55t56 154q0 101 -56.5 156t-156.5 55z" />
    <glyph glyph-name="h" unicode="h" horiz-adv-x="1263" 
d="M276 1505q48 0 77.5 -30t29.5 -86v-486q19 33 45.5 61.5t67 57t99.5 45t128 16.5q179 0 286 -112.5t107 -347.5v-510q0 -58 -29.5 -88.5t-78.5 -30.5q-48 0 -77.5 30.5t-29.5 88.5v514q0 138 -61 212t-178 74q-92 0 -157 -47.5t-93.5 -118.5t-28.5 -157v-477
q0 -58 -29.5 -88.5t-77.5 -30.5q-49 0 -78.5 30.5t-29.5 88.5v1276q0 57 29.5 86.5t78.5 29.5z" />
    <glyph glyph-name="i" unicode="i" horiz-adv-x="602" 
d="M186 1065h133q51 0 80 -28t29 -79v-854q0 -53 -29 -81.5t-77 -28.5q-47 0 -77 29t-30 81v768l-57 19q-68 22 -68 92q0 38 26 60t70 22zM309 1462q57 0 90 -27.5t33 -80.5v-33q0 -52 -34 -79.5t-89 -27.5q-52 0 -85.5 27.5t-33.5 79.5v33q0 52 33 80t86 28z" />
    <glyph glyph-name="j" unicode="j" horiz-adv-x="612" 
d="M190 1065h138q50 0 78 -28t28 -79v-985q0 -155 -79 -241t-230 -86q-83 0 -125 24q-49 25 -49 76q0 39 22.5 62.5t57.5 23.5q9 0 30 -3t35 -3q123 0 123 145v901l-57 19q-66 21 -66 92q0 38 25 60t69 22zM315 1462q57 0 90 -27.5t33 -80.5v-33q0 -52 -34 -79.5t-89 -27.5
q-52 0 -85 27.5t-33 79.5v33q0 52 32.5 80t85.5 28z" />
    <glyph glyph-name="k" unicode="k" horiz-adv-x="1097" 
d="M274 1505q50 0 79.5 -30t29.5 -82v-559l-10 -295l223 245l209 232q28 31 48.5 43t45.5 12q43 0 72 -28.5t29 -66t-31 -73.5l-275 -291l307 -456q36 -56 11.5 -109t-84.5 -53q-40 0 -66.5 18t-52.5 58l-260 405l-166 -172v-194q0 -53 -30.5 -84t-80.5 -31q-46 0 -75 31
t-29 84v1284q0 52 29 82t77 30z" />
    <glyph glyph-name="l" unicode="l" horiz-adv-x="651" 
d="M281 1505q50 0 79 -28.5t29 -81.5v-1164q0 -43 17.5 -60t58.5 -17q6 0 17 1t16 1q28 0 44.5 -20t16.5 -54q0 -47 -45 -72q-49 -28 -127 -28q-103 0 -157 57.5t-54 169.5v1186q0 53 28.5 81.5t76.5 28.5z" />
    <glyph glyph-name="m" unicode="m" horiz-adv-x="1861" 
d="M1333 1083q181 0 282 -101.5t101 -311.5v-566q0 -53 -29 -81.5t-79 -28.5q-49 0 -78 28.5t-29 81.5v580q0 105 -55 167t-162 62q-111 0 -174 -78t-63 -184v-547q0 -53 -29.5 -81.5t-79.5 -28.5q-49 0 -78 28.5t-29 81.5v584q0 102 -57 163.5t-158 61.5
q-108 0 -170.5 -75.5t-62.5 -180.5v-551q0 -54 -29 -83t-80 -29q-48 0 -77 28.5t-29 81.5v869q0 45 24.5 71.5t69.5 26.5q39 0 62 -25t28 -69l13 -96q38 94 125.5 148t181.5 54q112 0 195.5 -54t119.5 -159q42 92 133.5 152.5t212.5 60.5z" />
    <glyph glyph-name="n" unicode="n" horiz-adv-x="1267" 
d="M723 1083q179 0 286 -112.5t107 -347.5v-519q0 -53 -30 -81.5t-78 -28.5t-77.5 28t-29.5 82v523q0 138 -61 212t-178 74q-92 0 -157 -47.5t-93.5 -118.5t-28.5 -157v-486q0 -54 -29.5 -82t-77.5 -28q-49 0 -78.5 28t-29.5 82v867q0 100 90 100q78 0 90 -88l14 -117
q13 29 31 56.5t49.5 57.5t69 52t93 36.5t118.5 14.5z" />
    <glyph glyph-name="o" unicode="o" horiz-adv-x="1343" 
d="M674 1083q159 0 288 -66t206 -192t77 -290q0 -123 -45 -227t-122 -175t-181.5 -111t-222.5 -40q-162 0 -292.5 67t-207 193.5t-76.5 289.5q0 164 76.5 290.5t207 193.5t292.5 67zM672 913q-153 0 -251.5 -105t-98.5 -276q0 -170 98.5 -275t251.5 -105q151 0 250.5 105.5
t99.5 274.5q0 171 -99 276t-251 105z" />
    <glyph glyph-name="p" unicode="p" horiz-adv-x="1353" 
d="M745 1083q121 0 218.5 -44t159.5 -119.5t95 -174t33 -210.5q0 -113 -33.5 -212.5t-95 -176t-157 -120.5t-211.5 -44q-126 0 -226.5 54t-146.5 148v-428q0 -54 -29.5 -82t-77.5 -28q-49 0 -77.5 28t-28.5 82v1213q0 50 26.5 76t71.5 26q83 0 92 -100l11 -101
q54 107 156.5 160t219.5 53zM705 913q-141 0 -232.5 -108.5t-91.5 -269.5q0 -166 91.5 -274.5t232.5 -108.5q142 0 232.5 109t90.5 274q0 163 -91 270.5t-232 107.5z" />
    <glyph glyph-name="q" unicode="q" horiz-adv-x="1353" 
d="M608 1083q117 0 220 -53t157 -162l10 99q5 48 30.5 76t68.5 28q94 0 94 -102v-1213q0 -54 -29.5 -82t-77.5 -28q-49 0 -78.5 28.5t-29.5 81.5v428q-44 -93 -145 -147.5t-226 -54.5q-154 0 -269.5 76.5t-173 200.5t-57.5 276q0 112 33 210.5t95.5 174t160 119.5t217.5 44z
M651 913q-142 0 -233.5 -107.5t-91.5 -270.5q0 -166 91 -274.5t234 -108.5q139 0 230.5 108.5t91.5 274.5q0 161 -91 269.5t-231 108.5z" />
    <glyph glyph-name="r" unicode="r" horiz-adv-x="790" 
d="M627 1073q53 0 81.5 -26t28.5 -72q0 -87 -112 -111q-109 -24 -175.5 -100.5t-66.5 -212.5v-447q0 -53 -30 -81.5t-79 -28.5q-48 0 -77 28t-29 82v859q0 53 24.5 80.5t69.5 27.5q37 0 60.5 -22.5t27.5 -63.5l17 -133q13 30 34.5 64t54 71.5t78 61.5t93.5 24z" />
    <glyph glyph-name="s" unicode="s" horiz-adv-x="1011" 
d="M512 1083q167 0 297 -49q66 -25 63 -90q-2 -29 -23.5 -48t-53.5 -19q-19 0 -52 10q-106 39 -213 39q-102 1 -155 -38t-53 -100q0 -28 11.5 -50t32 -38t49 -29.5t61 -24.5t68.5 -22q18 -5 27 -8q44 -13 72.5 -22.5t70 -26t68.5 -33t57 -42t47.5 -53.5t28.5 -66.5t11 -83.5
q-1 -103 -58.5 -174t-150 -102.5t-211.5 -30.5q-226 3 -342 63q-56 27 -53 86q2 31 21 49.5t50 18.5q18 0 56 -11q128 -47 247 -49q115 0 169.5 41t54.5 103q0 17 -4 32t-14.5 28t-20 23t-28.5 20t-32 16.5t-38.5 15.5t-40 13.5t-45 14t-44.5 13.5q-59 18 -98 32.5
t-88.5 41.5t-78 58t-49 80t-19.5 109q1 78 33.5 137.5t89 95t127.5 53t153 17.5z" />
    <glyph glyph-name="t" unicode="t" horiz-adv-x="815" 
d="M336 1378q43 0 68 -25t26 -71v-217h215q42 0 66 -21.5t24 -54.5t-24.5 -55.5t-65.5 -22.5h-215v-585q0 -101 35 -143t110 -42q12 0 23 2t23.5 5t21.5 4q37 7 63.5 -10.5t26.5 -57.5q0 -58 -57 -78q-65 -24 -154 -24q-153 0 -230 83t-77 261v585h-72q-90 0 -90 72
q0 57 66 70l96 12l23 219q4 45 30 69.5t68 24.5z" />
    <glyph glyph-name="u" unicode="u" horiz-adv-x="1253" 
d="M991 1071q48 0 77.5 -28t29.5 -82v-867q0 -49 -24.5 -74.5t-65.5 -25.5q-82 0 -90 88l-13 100q-56 -101 -140.5 -150.5t-207.5 -49.5q-191 0 -298 109.5t-107 342.5v527q0 54 29.5 82t78.5 28q48 0 76.5 -28t28.5 -82v-523q0 -141 61 -213.5t195 -72.5q114 0 188 83.5
t74 215.5v510q0 54 29.5 82t78.5 28z" />
    <glyph glyph-name="v" unicode="v" horiz-adv-x="1132" 
d="M930 1071q64 0 90 -43.5t4 -105.5l-297 -807q-45 -121 -162 -121q-119 0 -162 121l-294 807q-23 63 4 106t90 43q37 0 61 -20.5t39 -67.5l262 -752h4l260 752q27 88 101 88z" />
    <glyph glyph-name="w" unicode="w" horiz-adv-x="1757" 
d="M1550 1071q63 0 89 -41t6 -106l-263 -813q-36 -117 -153 -117q-116 0 -152 117l-198 671h-2l-199 -671q-36 -117 -152 -117q-117 0 -153 117l-260 813q-20 65 5.5 106t86.5 41q37 0 61 -20.5t39 -67.5l227 -747h7l211 733q28 102 129 102q99 0 127 -102l211 -733h8
l225 745q26 90 100 90z" />
    <glyph glyph-name="x" unicode="x" horiz-adv-x="1132" 
d="M930 1071q47 0 73 -29.5t25 -67.5t-24 -65l-306 -364l312 -381q29 -34 31 -74t-24.5 -68t-72.5 -28q-53 0 -94 47l-283 360l-282 -358q-42 -49 -97 -49q-45 0 -70.5 27.5t-24.5 65.5t26 69l315 385l-293 354q-28 35 -30 76t24 70.5t72 29.5q56 0 92 -47l268 -338l271 336
q43 49 92 49z" />
    <glyph glyph-name="y" unicode="y" horiz-adv-x="1169" 
d="M981 1071q67 0 93 -45.5t3 -105.5l-366 -930q-34 -87 -66.5 -146.5t-75.5 -107.5t-98.5 -71t-126.5 -23q-73 0 -133 18q-77 24 -74 90q2 35 22.5 55.5t55.5 20.5q15 0 46 -6t48 -6q109 0 166 188l-366 916q-24 61 2.5 107t89.5 46q40 0 64 -22t42 -68l144 -356
q14 -38 141 -408h8q14 42 44 132.5t52.5 157t46.5 128.5l136 348q31 88 102 88z" />
    <glyph glyph-name="z" unicode="z" horiz-adv-x="1083" 
d="M207 1065h667q56 0 87.5 -27t31.5 -77q0 -52 -49 -109l-594 -688l2 -8l330 6h223q43 0 66.5 -22t23.5 -58t-24 -59t-66 -23h-698q-55 0 -87 28t-32 76q0 57 49 109l602 690l-2 4l-338 -4h-192q-42 0 -67 23t-25 59t25 58t67 22z" />
    <glyph glyph-name="braceleft" unicode="{" horiz-adv-x="720" 
d="M512 1456q53 0 81 -23t28 -61q0 -78 -99 -78q-123 0 -123 -143v-444q0 -136 -116 -160q116 -24 116 -160v-446q0 -67 27.5 -104.5t95.5 -37.5q99 0 99 -78q0 -38 -28.5 -62t-80.5 -24q-86 0 -145 23t-90 66.5t-43.5 95t-12.5 121.5v428q0 53 -22.5 78.5t-65.5 37.5
q-41 13 -41 64q0 47 39 59q44 14 67 39t23 78v426q0 70 12.5 121.5t43.5 95t90 66t145 22.5z" />
    <glyph glyph-name="bar" unicode="|" horiz-adv-x="548" 
d="M274 1622q39 0 63.5 -25.5t24.5 -68.5v-1755q0 -42 -24.5 -67t-63.5 -25q-40 0 -64 25t-24 67v1755q0 44 24 69t64 25z" />
    <glyph glyph-name="braceright" unicode="}" horiz-adv-x="720" 
d="M211 1456q86 0 145 -22.5t90 -66t43.5 -95t12.5 -121.5v-426q0 -53 23 -78t67 -39q39 -12 39 -59q0 -52 -41 -64q-42 -12 -65 -37.5t-23 -78.5v-428q0 -70 -12.5 -121.5t-43.5 -95t-90 -66.5t-145 -23q-52 0 -80.5 24t-28.5 62q0 35 24 56.5t75 21.5q68 0 95.5 37.5
t27.5 104.5v446q0 136 116 160q-116 24 -116 160v444q0 143 -123 143q-99 0 -99 78q0 38 28 61t81 23z" />
    <glyph glyph-name="exclamdown" unicode="&#xa1;" horiz-adv-x="591" 
d="M295 649q40 0 64.5 -25.5t27.5 -74.5l25 -795q3 -62 -29.5 -95.5t-91.5 -33.5q-58 0 -89.5 33.5t-27.5 95.5l27 795q3 49 28.5 74.5t65.5 25.5zM293 1083q57 0 92 -35.5t35 -89.5t-36 -90.5t-91 -36.5t-92 36.5t-37 90.5q0 55 36.5 90t92.5 35z" />
    <glyph glyph-name="cent" unicode="&#xa2;" horiz-adv-x="1181" 
d="M657 1423q60 0 60 -61v-113q124 -3 219 -43q68 -30 57 -90q-14 -78 -104 -61q-7 1 -31 7t-41 9.5t-46 6.5t-58 3q-98 0 -175.5 -33.5t-124 -89.5t-70.5 -122.5t-24 -137.5t24 -137.5t70.5 -121.5t123 -88.5t172.5 -33.5q67 0 125 17t73 18q87 4 92 -69q3 -58 -55 -86
q-82 -40 -227 -47v-113q0 -29 -16.5 -45.5t-45.5 -16.5q-28 0 -43.5 16.5t-15.5 45.5v117q-220 26 -356 175.5t-136 368.5t136 370t356 177v117q0 29 16.5 45t44.5 16z" />
    <glyph glyph-name="sterling" unicode="&#xa3;" horiz-adv-x="1208" 
d="M692 1456q160 0 281 -98q53 -44 53 -92q0 -38 -22.5 -63t-61.5 -25q-33 0 -61 22q-43 35 -83 52.5t-93 17.5q-114 0 -173 -72t-59 -190v-263h404q31 0 50 -16t19 -45q0 -28 -18.5 -43.5t-50.5 -15.5h-404v-228q0 -68 -25.5 -126.5t-78.5 -88.5h614q50 0 79.5 -24
t29.5 -66t-28.5 -67t-80.5 -25h-762q-52 0 -79 24.5t-27 67.5q0 13 2.5 24.5t5.5 19.5t11 18.5t12.5 15.5t16.5 18t17 19q22 24 34 41t25 51.5t13 73.5v252h-49q-34 0 -52 15.5t-18 43.5t19 44.5t51 16.5h49v265q0 196 117.5 321t322.5 125z" />
    <glyph glyph-name="currency" unicode="&#xa4;" horiz-adv-x="1280" 
d="M639 1096q146 0 260 -86l76 77q12 14 32.5 16t32.5 -11q14 -13 13 -32.5t-15 -33.5l-77 -80q102 -113 102 -260t-100 -262l75 -80q14 -14 14.5 -32.5t-12.5 -32.5q-12 -12 -31.5 -11t-33.5 15l-76 77q-114 -86 -260 -86t-260 86l-74 -77q-14 -13 -32.5 -15t-34.5 11
q-12 14 -11 32.5t15 32.5l73 78q-100 114 -100 264q0 149 100 260l-73 80q-15 17 -15.5 36.5t11.5 31.5q13 12 33.5 10t33.5 -17l74 -77q114 86 260 86zM639 971q-122 0 -203 -78.5t-82 -206.5q1 -129 82 -208t203 -79t202.5 78.5t80.5 208.5q0 128 -80.5 206.5t-202.5 78.5
z" />
    <glyph glyph-name="yen" unicode="&#xa5;" horiz-adv-x="1261" 
d="M1075 1440q42 0 73.5 -25.5t31.5 -66.5q0 -31 -23 -72l-414 -676v-76h195q28 0 43.5 -14t15.5 -39t-15.5 -39t-43.5 -14h-195v-92h195q28 0 43.5 -14.5t15.5 -39.5q0 -24 -16 -38.5t-43 -14.5h-197v-133q0 -44 -30.5 -68t-79.5 -24q-48 0 -79.5 24t-31.5 68v133h-192
q-30 0 -47 14.5t-17 38.5q0 25 17 39.5t47 14.5h192v92h-192q-31 0 -47.5 14t-16.5 39t16.5 39t47.5 14h192v76l-416 676q-20 36 -20 72q0 41 31 66.5t71 25.5q59 0 95 -64l348 -606h4l348 606q37 64 94 64z" />
    <glyph glyph-name="section" unicode="&#xa7;" horiz-adv-x="1265" 
d="M627 1434q105 0 207 -20.5t163 -47.5q79 -31 76 -92q0 -36 -23.5 -61t-66.5 -25q-21 0 -49 8q-169 51 -285 51q-123 1 -192.5 -42.5t-69.5 -117.5q0 -44 25 -78t68.5 -57.5t99.5 -43t118 -37t124 -37t118.5 -46.5t100 -61t69 -84.5t25.5 -114.5q0 -51 -17 -101
t-44.5 -88.5t-53 -65.5t-51.5 -48q154 -90 151 -248q-1 -155 -132 -241t-359 -86q-197 0 -359 65q-77 31 -77 95q0 37 23.5 62.5t68.5 25.5q22 0 49 -9q154 -53 276 -53q123 0 196 42t73 120q0 55 -41 95t-107 64.5t-146 46t-160.5 48.5t-146.5 63.5t-107.5 99.5t-41.5 148
q0 94 48.5 170t115.5 127q-151 96 -148 250q0 154 132.5 239t349.5 85zM428 780q-104 -100 -104 -186q0 -38 15.5 -69.5t47 -54.5t68 -41.5t86.5 -35t95 -29t101.5 -29.5t96.5 -32q44 39 74.5 90.5t31.5 100.5q0 50 -32 88.5t-91.5 65.5t-119 46t-140.5 42.5t-129 43.5z" />
    <glyph glyph-name="dieresis" unicode="&#xa8;" horiz-adv-x="1071" 
d="M748 1462q106 0 106 -106q0 -52 -28.5 -78.5t-77.5 -26.5q-47 0 -76 26.5t-29 78.5q0 53 29.5 79.5t75.5 26.5zM313 1462q50 0 79.5 -26t29.5 -80q0 -52 -30 -78.5t-79 -26.5q-47 0 -75.5 26.5t-28.5 78.5q0 53 29 79.5t75 26.5z" />
    <glyph glyph-name="copyright" unicode="&#xa9;" horiz-adv-x="1703" 
d="M854 1434q198 0 364.5 -94.5t263.5 -259.5t97 -363t-97.5 -363t-264 -259.5t-363.5 -94.5q-196 0 -363 94.5t-265.5 259.5t-98.5 363t98 363t265 259.5t364 94.5zM885 1098q118 0 188 -49q39 -24 39 -62q0 -27 -16.5 -44t-46.5 -17q-20 0 -43 10q-53 27 -119 27
q-115 0 -180.5 -73t-65.5 -173t65.5 -174t180.5 -74q66 0 119 27q23 10 43 10q30 0 46.5 -17.5t16.5 -44.5q0 -37 -39 -61q-71 -47 -188 -47q-174 0 -287 105.5t-113 275.5q0 169 113.5 275t286.5 106zM854 1337q-171 0 -316 -81.5t-230 -224.5t-85 -316q0 -129 50 -244.5
t134.5 -198t201 -130.5t245.5 -48t245 48t200.5 130.5t134 198t49.5 244.5q0 172 -84.5 315t-229 225t-315.5 82z" />
    <glyph glyph-name="ordfeminine" unicode="&#xaa;" horiz-adv-x="1040" 
d="M506 1491q148 0 218.5 -64.5t70.5 -193.5v-348q0 -18 8 -25.5t26 -9.5l11 -2q43 -6 43 -57q0 -45 -41 -60q-30 -12 -68 -12q-47 0 -81 24.5t-34 75.5v27q-12 -22 -29 -42.5t-44.5 -43t-68.5 -36t-89 -13.5q-119 0 -193.5 61.5t-74.5 179.5q3 117 87.5 171.5t221.5 54.5
q35 0 174 -9v25q0 88 -40 125t-128 37q-60 0 -143 -17q-46 -9 -71.5 6t-27.5 50q-3 57 64 73q97 23 209 23zM236 567h571q37 0 55.5 -18.5t18.5 -48.5t-19 -49t-55 -19h-571q-34 0 -53 19.5t-19 48.5t19 48t53 19zM496 1083q-50 0 -90 -9t-72.5 -39t-32.5 -79
q0 -63 43.5 -97t110.5 -34q78 0 133 48.5t55 127.5v72q-8 3 -57 6.5t-90 3.5z" />
    <glyph glyph-name="guillemotleft" unicode="&#xab;" horiz-adv-x="1284" 
d="M1106 977q29 -24 30 -56.5t-24 -64.5l-252 -324l250 -325q55 -71 -4 -121q-27 -20 -53 -20q-39 0 -76 40l-342 379q-19 24 -19 45t19 45l342 379q37 43 76 43q26 0 53 -20zM596 977q29 -25 30 -57t-26 -64l-252 -324l252 -325q54 -73 -6 -121q-30 -20 -55 -20
q-37 0 -74 40l-340 379q-19 24 -19 45q0 26 19 45l342 379q37 43 76 43q26 0 53 -20z" />
    <glyph glyph-name="registered" unicode="&#xae;" horiz-adv-x="1243" 
d="M623 1434q194 0 327 -133t133 -326t-133 -326t-327 -133q-196 0 -328.5 133t-132.5 326t132.5 326t328.5 133zM623 1354q-162 0 -271.5 -110t-109.5 -269q0 -160 109.5 -269.5t271.5 -109.5q161 0 271 108.5t110 270.5q0 159 -110 269t-271 110zM485 1221h183
q63 0 104 -41t41 -105q0 -51 -26.5 -87t-69.5 -48l84 -145q10 -20 10 -33q0 -14 -11 -23.5t-24 -9.5q-25 0 -41 29l-100 174h-109v-162q0 -41 -39 -41q-17 0 -27.5 11t-10.5 30v414q0 15 10.5 26t25.5 11zM662 1153h-136v-154h142q28 0 48.5 22t20.5 54q0 36 -22.5 57
t-52.5 21z" />
    <glyph glyph-name="macron" unicode="&#xaf;" horiz-adv-x="985" 
d="M256 1354h489q34 0 54 -17t20 -47q0 -31 -19.5 -49t-54.5 -18h-489q-35 0 -54.5 18t-19.5 49q0 30 19.5 47t54.5 17z" />
    <glyph glyph-name="degree" unicode="&#xb0;" horiz-adv-x="784" 
d="M383 1495q106 0 182 -67t76 -179t-75.5 -177.5t-182.5 -65.5q-108 0 -184 65.5t-76 177.5q0 113 76 179.5t184 66.5zM383 1389q-57 0 -94 -37t-37 -103q0 -64 37 -100.5t94 -36.5q56 0 93.5 36.5t37.5 100.5q0 65 -37.5 102.5t-93.5 37.5z" />
    <glyph glyph-name="plusminus" unicode="&#xb1;" horiz-adv-x="1083" 
d="M545 1085q33 0 53 -21.5t20 -55.5v-209h232q36 0 58 -19t22 -51t-21.5 -51t-58.5 -19h-232v-208q0 -35 -19.5 -56.5t-53.5 -21.5t-53 20.5t-19 57.5v208h-231q-36 0 -59 19t-23 51q0 31 23.5 50.5t58.5 19.5h231v209q0 35 19 56t53 21zM248 233h596q39 0 62.5 -19
t23.5 -52q0 -34 -23 -53t-63 -19h-596q-38 0 -62 19.5t-24 52.5t24 52t62 19z" />
    <glyph glyph-name="acute" unicode="&#xb4;" horiz-adv-x="681" 
d="M371 1532q34 0 60 -22t26 -56q0 -26 -23 -61l-112 -166q-27 -39 -60 -39q-35 0 -53 25.5t0 68.5l80 180q30 70 82 70z" />
    <glyph glyph-name="mu" unicode="&#xb5;" horiz-adv-x="1306" 
d="M1053 1071q46 0 76 -29t30 -81v-871q0 -46 -25 -71t-71 -25q-65 0 -88 74l-8 84q-35 -68 -113.5 -121.5t-194.5 -53.5q-94 0 -169.5 41.5t-102.5 110.5v-377q0 -51 -28 -78.5t-74 -27.5q-45 0 -73 27t-28 79v1209q0 53 29.5 81.5t75.5 28.5q47 0 76.5 -29t29.5 -81v-533
q0 -125 74 -200.5t197 -75.5q134 0 208 73t74 201v535q0 54 28.5 82t76.5 28z" />
    <glyph glyph-name="paragraph" unicode="&#xb6;" horiz-adv-x="1218" 
d="M508 1434h391q52 0 80.5 -28t28.5 -79v-1419q0 -41 -22.5 -64.5t-57.5 -23.5q-37 0 -58.5 23.5t-21.5 64.5v1362h-160v-1362q0 -40 -22.5 -64t-57.5 -24q-37 0 -60.5 23.5t-23.5 64.5v657h-47q-121 2 -209 62.5t-130 158t-42 218.5q0 106 36 190.5t95 135.5t131 77.5
t150 26.5z" />
    <glyph glyph-name="periodcentered" unicode="&#xb7;" horiz-adv-x="612" 
d="M305 696q66 0 113 -46.5t47 -112.5q0 -65 -47 -112.5t-113 -47.5q-63 0 -109 47.5t-46 112.5q0 66 46 112.5t109 46.5z" />
    <glyph glyph-name="cedilla" unicode="&#xb8;" horiz-adv-x="722" 
d="M406 18l-44 -135q75 6 126 -31t51 -110q0 -84 -64.5 -121t-157.5 -37q-55 0 -92 13q-53 20 -45 53q8 38 58 28q34 -6 71 -6q103 0 103 72q0 63 -80 63q-4 0 -14.5 -1t-14.5 -1q-33 0 -44.5 21t-0.5 53l51 139h97z" />
    <glyph glyph-name="ordmasculine" unicode="&#xba;" horiz-adv-x="1140" 
d="M569 1487q180 0 291 -106t111 -271q0 -163 -111.5 -270t-290.5 -107t-290 107t-111 270q0 165 110.5 271t290.5 106zM240 573h657q35 0 53.5 -19.5t18.5 -47.5q0 -30 -18.5 -49t-53.5 -19h-657q-34 0 -52 19.5t-18 48.5q0 28 18.5 47.5t51.5 19.5zM569 1350
q-103 0 -169 -67t-66 -173q0 -104 66 -172t169 -68q104 0 170 67.5t66 172.5q0 106 -66 173t-170 67z" />
    <glyph glyph-name="guillemotright" unicode="&#xbb;" horiz-adv-x="1284" 
d="M680 977q27 20 51 20q41 0 78 -43l340 -379q20 -20 20 -45t-20 -45l-340 -379q-34 -40 -74 -40q-29 0 -55 20q-61 46 -6 121l252 325l-252 324q-55 72 6 121zM168 977q27 20 53 20q39 0 76 -43l342 -379q18 -18 18 -45q0 -22 -18 -45l-340 -379q-37 -40 -76 -40
q-27 0 -53 20q-61 46 -6 121l252 325l-254 324q-25 32 -24 64.5t30 56.5z" />
    <glyph glyph-name="onequarter" unicode="&#xbc;" horiz-adv-x="1363" 
d="M1217 1438q32 0 50.5 -18t18.5 -48q0 -32 -26 -65l-1043 -1239q-3 -4 -14.5 -16.5t-15 -16.5t-13 -13t-14.5 -12t-13 -8t-15.5 -6.5t-16.5 -1.5q-53 0 -68 43t21 84l1048 1247q34 39 54.5 54.5t46.5 15.5zM256 1440q72 0 72 -74v-573q0 -37 -19 -57.5t-51 -20.5
q-33 0 -52.5 20.5t-19.5 57.5v479l-39 -19q-19 -8 -41 -8q-26 0 -40.5 17.5t-14.5 40.5q0 38 45 61l92 53q40 23 68 23zM1143 702q33 0 54.5 -20.5t21.5 -60.5v-383h41q57 0 57 -50q0 -55 -57 -55h-41v-86q0 -36 -18 -55t-50 -19t-50 19t-18 55v86h-276q-34 0 -55 18.5
t-21 49.5q0 29 43 85q1 2 3 5l5 6l256 336q28 36 51 52.5t54 16.5zM1083 512l-213 -274h213v274z" />
    <glyph glyph-name="onehalf" unicode="&#xbd;" horiz-adv-x="1425" 
d="M1217 1438q32 0 50.5 -18t18.5 -48q0 -32 -26 -65l-1043 -1239q-3 -4 -14.5 -16.5t-15 -16.5t-13 -13t-14.5 -12t-13 -8t-15.5 -6.5t-16.5 -1.5q-53 0 -68 43t21 84l1048 1247q34 39 54.5 54.5t46.5 15.5zM256 1440q72 0 72 -74v-573q0 -37 -19 -57.5t-51 -20.5
q-33 0 -52.5 20.5t-19.5 57.5v479l-34 -17q-25 -10 -46 -10q-26 0 -40.5 17.5t-14.5 40.5q0 38 45 61l92 53q40 23 68 23zM1104 729q113 0 181.5 -62t68.5 -163q0 -81 -41 -140.5t-111 -115.5l-143 -127h250q30 0 47.5 -17t17.5 -43q0 -27 -17.5 -44t-47.5 -17h-363
q-37 0 -56.5 21.5t-19.5 50.5q0 42 54 86l192 180q90 83 90 156q0 47 -33 79.5t-94 32.5q-35 0 -100 -18q-24 -6 -39 -6q-27 0 -41 17t-14 40q0 39 51 59q79 31 168 31z" />
    <glyph glyph-name="threequarters" unicode="&#xbe;" horiz-adv-x="1464" 
d="M1323 1438q32 0 52 -18.5t20 -47.5q0 -28 -29 -65l-1042 -1239q-43 -51 -61 -62q-19 -12 -40 -12q-53 0 -68.5 43t19.5 84l1051 1247q33 39 52.5 54.5t45.5 15.5zM283 1438q109 0 176 -52t67 -141q0 -53 -32 -97t-93 -65q66 -14 108 -62t42 -116q0 -102 -78 -156.5
t-197 -54.5q-89 0 -165 29q-54 19 -54 63q0 24 15 40t41 16q18 0 39 -6q67 -19 108 -19q60 0 98.5 29t38.5 82q0 54 -42 81t-101 27h-18q-62 0 -62 51q0 50 64 50h26q48 0 81.5 21t33.5 65q0 46 -33 70t-80 24q-30 0 -68.5 -9.5t-52.5 -9.5q-27 0 -42 15.5t-15 40.5
q0 42 55 61q67 23 140 23zM1192 510l-209 -272h209v272zM1253 702q33 0 54.5 -20.5t21.5 -60.5v-383h41q26 0 41.5 -13.5t15.5 -36.5q0 -26 -15.5 -40.5t-41.5 -14.5h-41v-86q0 -36 -18.5 -55t-48.5 -19q-33 0 -51.5 19t-18.5 55v86h-274q-34 0 -55 18.5t-21 47.5
q0 16 7.5 33t16 29t27.5 36l256 336q28 36 50.5 52.5t53.5 16.5z" />
    <glyph glyph-name="questiondown" unicode="&#xbf;" horiz-adv-x="1015" 
d="M543 -397q-86 0 -164 22.5t-140.5 66t-99.5 114.5t-37 161q0 64 21 118t54.5 91.5t74.5 70t81.5 60.5t74 56.5t54.5 65t21 79.5v72q0 41 26 63.5t62 22.5q41 0 66 -24t25 -71v-73q0 -57 -19.5 -104.5t-50 -81t-67.5 -63.5t-74 -57.5t-67.5 -56.5t-49.5 -68t-19 -85
q0 -93 69 -145t171 -52q59 0 99.5 11t75 26.5t61.5 21.5q48 10 76 -15t30 -62q3 -62 -57 -93q-56 -32 -138.5 -51.5t-158.5 -19.5zM567 834q-55 0 -91 36t-36 91q0 53 35.5 87.5t91.5 34.5t93.5 -34.5t37.5 -87.5q0 -55 -37.5 -91t-93.5 -36z" />
    <glyph glyph-name="Agrave" unicode="&#xc0;" horiz-adv-x="1396" 
d="M698 1446q141 0 189 -131l430 -1165q25 -71 -6.5 -113.5t-91.5 -42.5q-75 0 -107 96l-108 287h-609l-108 -287q-19 -51 -45 -73.5t-66 -22.5q-59 0 -90 42t-6 111l432 1168q45 131 186 131zM702 1237h-6l-243 -686h493zM600 1855q51 3 90 -53l113 -157q18 -23 18 -52
q0 -22 -15.5 -36.5t-37.5 -14.5q-34 0 -63 29l-140 135q-41 41 -41 72q-1 35 21.5 55t54.5 22z" />
    <glyph glyph-name="Aacute" unicode="&#xc1;" horiz-adv-x="1396" 
d="M698 1446q141 0 189 -131l430 -1165q25 -71 -6.5 -113.5t-91.5 -42.5q-75 0 -107 96l-108 287h-609l-108 -287q-19 -51 -45 -73.5t-66 -22.5q-59 0 -90 42t-6 111l432 1168q45 131 186 131zM702 1237h-6l-243 -686h493zM807 1855q32 -2 54 -23t22 -56q0 -29 -41 -70
l-140 -135q-29 -29 -63 -29q-22 0 -37.5 14.5t-15.5 36.5q0 23 20 52l111 157q39 56 90 53z" />
    <glyph glyph-name="Acircumflex" unicode="&#xc2;" horiz-adv-x="1396" 
d="M698 1446q141 0 189 -131l430 -1165q25 -71 -6.5 -113.5t-91.5 -42.5q-75 0 -107 96l-108 287h-609l-108 -287q-19 -51 -45 -73.5t-66 -22.5q-59 0 -90 42t-6 111l432 1168q45 131 186 131zM702 1237h-6l-243 -686h493zM698 1786q43 0 88 -31l166 -121q23 -17 23 -47
q0 -25 -16.5 -38t-38.5 -13q-19 0 -62 25l-160 94l-159 -94q-43 -25 -62 -25q-23 0 -39 14t-16 39q0 28 22 45l166 121q45 31 88 31z" />
    <glyph glyph-name="Atilde" unicode="&#xc3;" horiz-adv-x="1396" 
d="M991 1718q17 0 34 -12.5t17 -34.5q0 -29 -28 -57q-79 -86 -180 -86q-50 0 -92 20.5t-79.5 41t-76.5 20.5q-41 0 -76 -31q-25 -20 -45 -20q-18 0 -33.5 12.5t-15.5 36.5q0 29 28 57q33 38 80 62t97 24q51 0 126.5 -42t120.5 -42t76 31q20 20 47 20zM713 1446
q140 0 188 -131l430 -1165q25 -71 -6.5 -113.5t-91.5 -42.5q-75 0 -107 96l-108 287h-608l-109 -287q-19 -51 -45 -73.5t-66 -22.5q-59 0 -90 42t-6 111l432 1168q45 131 187 131zM717 1237h-6l-244 -686h494z" />
    <glyph glyph-name="Adieresis" unicode="&#xc4;" horiz-adv-x="1396" 
d="M698 1446q141 0 189 -131l430 -1165q25 -71 -6.5 -113.5t-91.5 -42.5q-75 0 -107 96l-108 287h-609l-108 -287q-19 -51 -45 -73.5t-66 -22.5q-59 0 -90 42t-6 111l432 1168q45 131 186 131zM702 1237h-6l-243 -686h493zM913 1772q50 0 78.5 -26t28.5 -81q0 -52 -29 -78
t-78 -26q-47 0 -75.5 26t-28.5 78q0 53 29 80t75 27zM479 1772q50 0 79.5 -26t29.5 -81q0 -52 -29.5 -78t-79.5 -26q-47 0 -75.5 26t-28.5 78q0 53 29 80t75 27z" />
    <glyph glyph-name="Aring" unicode="&#xc5;" horiz-adv-x="1396" 
d="M698 1446q141 0 189 -131l430 -1165q25 -71 -6.5 -113.5t-91.5 -42.5q-75 0 -107 96l-108 287h-609l-108 -287q-19 -51 -45 -73.5t-66 -22.5q-59 0 -90 42t-6 111l432 1168q45 131 186 131zM702 1237h-6l-243 -686h493zM698 1880q84 0 137.5 -49.5t53.5 -130.5
t-53.5 -130.5t-137.5 -49.5q-81 0 -135.5 50t-54.5 130t54.5 130t135.5 50zM698 1796q-45 0 -68.5 -27t-23.5 -69t23.5 -70t68.5 -28q44 0 68.5 28t24.5 70t-24.5 69t-68.5 27z" />
    <glyph glyph-name="AE" unicode="&#xc6;" horiz-adv-x="2015" 
d="M760 1434h1026q46 0 72 -26t26 -65t-26.5 -65.5t-71.5 -26.5h-688v-463h579q46 0 72.5 -25.5t26.5 -64.5q0 -38 -26.5 -64t-72.5 -26h-579v-426h710q46 0 73.5 -26t27.5 -64q0 -39 -27.5 -65.5t-73.5 -26.5h-827q-51 0 -79 27.5t-28 78.5v271h-473l-131 -281
q-23 -52 -48.5 -76t-65.5 -24q-62 0 -88.5 47t6.5 125l565 1190q34 76 121 76zM874 1251h-77l-322 -702h399v702z" />
    <glyph glyph-name="Ccedilla" unicode="&#xc7;" horiz-adv-x="1409" 
d="M901 1270q-243 0 -391 -155t-148 -396q0 -244 149.5 -399.5t395.5 -155.5q76 0 133.5 14.5t97 29t70.5 15.5q43 1 68 -23t27 -59q3 -70 -82 -106q-137 -58 -318 -58q-6 0 -17 1.5t-16 1.5l-30 -97q74 6 125 -31t51 -110q0 -84 -64 -121t-157 -37q-56 0 -93 13
q-53 20 -45 53q8 38 58 28q34 -6 71 -6q103 0 103 72q0 63 -80 63q-4 0 -14.5 -1t-14.5 -1q-33 0 -44.5 21t-0.5 53l39 107q-295 37 -472 232t-177 501q0 224 100 392.5t276.5 256.5t403.5 88q178 -3 309 -57q45 -19 64 -43t18 -62q-2 -35 -26.5 -60t-67.5 -24
q-32 1 -73.5 15.5t-99 29t-128.5 15.5z" />
    <glyph glyph-name="Egrave" unicode="&#xc8;" horiz-adv-x="1343" 
d="M309 1434h803q47 0 73.5 -26t26.5 -65t-26.5 -66.5t-73.5 -27.5h-686v-461h575q48 0 75.5 -25.5t27.5 -64.5q0 -38 -27.5 -64t-75.5 -26h-575v-424h709q48 0 75 -26.5t27 -65.5q0 -40 -27 -66t-75 -26h-826q-51 0 -78.5 27.5t-27.5 78.5v1221q0 50 27.5 78.5t78.5 28.5z
M621 1855q51 3 90 -53l112 -157q19 -24 19 -52q0 -21 -16 -36t-38 -15q-34 0 -63 29l-139 135q-41 41 -41 72q-1 35 21.5 55t54.5 22z" />
    <glyph glyph-name="Eacute" unicode="&#xc9;" horiz-adv-x="1343" 
d="M309 1434h803q47 0 73.5 -26t26.5 -65t-26.5 -66.5t-73.5 -27.5h-686v-461h575q48 0 75.5 -25.5t27.5 -64.5q0 -38 -27.5 -64t-75.5 -26h-575v-424h709q48 0 75 -26.5t27 -65.5q0 -40 -27 -66t-75 -26h-826q-51 0 -78.5 27.5t-27.5 78.5v1221q0 50 27.5 78.5t78.5 28.5z
M827 1855q32 -2 54 -23t22 -56q0 -29 -41 -70l-139 -135q-29 -29 -64 -29q-22 0 -37.5 14.5t-15.5 36.5t21 52l110 157q39 56 90 53z" />
    <glyph glyph-name="Ecircumflex" unicode="&#xca;" horiz-adv-x="1343" 
d="M309 1434h803q47 0 73.5 -26t26.5 -65t-26.5 -66.5t-73.5 -27.5h-686v-461h575q48 0 75.5 -25.5t27.5 -64.5q0 -38 -27.5 -64t-75.5 -26h-575v-424h709q48 0 75 -26.5t27 -65.5q0 -40 -27 -66t-75 -26h-826q-51 0 -78.5 27.5t-27.5 78.5v1221q0 50 27.5 78.5t78.5 28.5z
M719 1786q43 0 88 -31l166 -121q22 -16 22 -47q0 -25 -16.5 -38t-38.5 -13q-18 0 -61 25l-160 94l-160 -94q-43 -25 -61 -25q-23 0 -39.5 14t-16.5 39q0 27 23 45l166 121q45 31 88 31z" />
    <glyph glyph-name="Edieresis" unicode="&#xcb;" horiz-adv-x="1343" 
d="M309 1434h803q47 0 73.5 -26t26.5 -65t-26.5 -66.5t-73.5 -27.5h-686v-461h575q48 0 75.5 -25.5t27.5 -64.5q0 -38 -27.5 -64t-75.5 -26h-575v-424h709q48 0 75 -26.5t27 -65.5q0 -40 -27 -66t-75 -26h-826q-51 0 -78.5 27.5t-27.5 78.5v1221q0 50 27.5 78.5t78.5 28.5z
M934 1772q106 0 106 -107q0 -52 -28.5 -78t-77.5 -26q-47 0 -76 26t-29 78q0 53 29.5 80t75.5 27zM500 1772q50 0 79 -26t29 -81q0 -52 -29 -78t-79 -26q-47 0 -76 26t-29 78q0 53 29.5 80t75.5 27z" />
    <glyph glyph-name="Igrave" unicode="&#xcc;" horiz-adv-x="626" 
d="M313 1440q51 0 82 -30t31 -85v-1216q0 -54 -31 -84.5t-82 -30.5q-50 0 -80 30t-30 85v1216q0 56 29.5 85.5t80.5 29.5zM215 1855q51 3 90 -53l113 -157q18 -23 18 -52q0 -22 -15.5 -36.5t-37.5 -14.5q-35 0 -64 29l-139 135q-41 41 -41 72q-1 35 21.5 55t54.5 22z" />
    <glyph glyph-name="Iacute" unicode="&#xcd;" horiz-adv-x="626" 
d="M313 1440q51 0 82 -30t31 -85v-1216q0 -54 -31 -84.5t-82 -30.5q-50 0 -80 30t-30 85v1216q0 56 29.5 85.5t80.5 29.5zM422 1855q32 -2 54 -23t22 -56q0 -29 -41 -70l-140 -135q-29 -29 -63 -29q-22 0 -37.5 14.5t-15.5 36.5q0 23 20 52l111 157q39 56 90 53z" />
    <glyph glyph-name="Icircumflex" unicode="&#xce;" horiz-adv-x="626" 
d="M313 1440q51 0 82 -30t31 -85v-1216q0 -54 -31 -84.5t-82 -30.5q-50 0 -80 30t-30 85v1216q0 56 29.5 85.5t80.5 29.5zM313 1786q43 0 88 -31l166 -121q23 -17 23 -47q0 -25 -16.5 -38t-38.5 -13q-19 0 -62 25l-160 94l-159 -94q-43 -25 -62 -25q-23 0 -39 14t-16 39
q0 28 22 45l166 121q45 31 88 31z" />
    <glyph glyph-name="Idieresis" unicode="&#xcf;" horiz-adv-x="626" 
d="M545 1763q106 0 106 -106q0 -52 -28.5 -78.5t-77.5 -26.5q-47 0 -76 26.5t-29 78.5q0 53 29.5 79.5t75.5 26.5zM111 1763q108 0 108 -106q0 -52 -29.5 -78.5t-78.5 -26.5q-47 0 -76 26.5t-29 78.5q0 53 29.5 79.5t75.5 26.5zM328 1440q51 0 81.5 -29.5t30.5 -85.5v-1216
q0 -54 -30.5 -84.5t-81.5 -30.5q-50 0 -80.5 30t-30.5 85v1216q0 56 30 85.5t81 29.5z" />
    <glyph glyph-name="Eth" unicode="&#xd0;" horiz-adv-x="1492" 
d="M317 1434h404q172 0 332 -91q165 -96 243 -259.5t80 -366.5q0 -201 -80 -367t-243 -260q-75 -44 -164 -67t-168 -23h-404q-51 0 -78.5 27.5t-27.5 78.5v564h-127q-30 0 -45.5 14.5t-15.5 38.5q0 53 59 53h129v551q0 50 27.5 78.5t78.5 28.5zM434 1249v-473h230
q30 0 45.5 -14.5t15.5 -38.5t-15.5 -38.5t-45.5 -14.5h-230v-488h236q168 0 293 90q184 126 184 445q0 333 -203 457q-123 75 -274 75h-236z" />
    <glyph glyph-name="Ntilde" unicode="&#xd1;" horiz-adv-x="1572" 
d="M1260 1440q49 0 79.5 -30t30.5 -85v-1188q0 -68 -37 -105.5t-104 -37.5q-54 0 -86 25.5t-60 70.5l-663 1010h-4l10 -465v-526q0 -56 -31.5 -85.5t-83.5 -29.5q-49 0 -78.5 30t-29.5 85v1191q0 65 35 102.5t100 37.5q38 0 68 -15t44 -31t33 -44l670 -1008h4l-10 467v516
q0 56 30.5 85.5t82.5 29.5zM1079 1718q17 0 34 -12.5t17 -34.5q0 -29 -28 -57q-79 -86 -180 -86q-50 0 -92 20.5t-79.5 41t-76.5 20.5q-41 0 -76 -31q-25 -20 -45 -20q-18 0 -33.5 12.5t-15.5 36.5q0 29 28 57q33 38 80 62t97 24q51 0 126.5 -42t120.5 -42t76 31
q20 20 47 20z" />
    <glyph glyph-name="Ograve" unicode="&#xd2;" horiz-adv-x="1726" 
d="M862 1456q162 0 301 -54t238.5 -150t156 -234.5t56.5 -300.5q0 -217 -96.5 -386t-267.5 -261.5t-388 -92.5q-215 0 -385.5 92.5t-267 261.5t-96.5 386t96.5 386t267 261t385.5 92zM862 1270q-220 0 -366 -153t-146 -400q0 -248 146 -400.5t368 -152.5t367 152.5
t145 400.5t-145.5 400.5t-368.5 152.5zM764 1855q51 3 90 -53l113 -157q18 -23 18 -52q0 -22 -15.5 -36.5t-37.5 -14.5q-35 0 -64 29l-139 135q-41 41 -41 72q-1 35 21.5 55t54.5 22z" />
    <glyph glyph-name="Oacute" unicode="&#xd3;" horiz-adv-x="1726" 
d="M862 1456q162 0 301 -54t238.5 -150t156 -234.5t56.5 -300.5q0 -217 -96.5 -386t-267.5 -261.5t-388 -92.5q-215 0 -385.5 92.5t-267 261.5t-96.5 386t96.5 386t267 261t385.5 92zM862 1270q-220 0 -366 -153t-146 -400q0 -248 146 -400.5t368 -152.5t367 152.5
t145 400.5t-145.5 400.5t-368.5 152.5zM971 1855q32 -2 54 -23t22 -56q0 -29 -41 -70l-140 -135q-29 -29 -63 -29q-22 0 -37.5 14.5t-15.5 36.5q0 23 20 52l111 157q39 56 90 53z" />
    <glyph glyph-name="Ocircumflex" unicode="&#xd4;" horiz-adv-x="1726" 
d="M862 1456q162 0 301 -54t238.5 -150t156 -234.5t56.5 -300.5q0 -217 -96.5 -386t-267.5 -261.5t-388 -92.5q-215 0 -385.5 92.5t-267 261.5t-96.5 386t96.5 386t267 261t385.5 92zM862 1270q-220 0 -366 -153t-146 -400q0 -248 146 -400.5t368 -152.5t367 152.5
t145 400.5t-145.5 400.5t-368.5 152.5zM862 1786q43 0 88 -31l166 -121q23 -17 23 -47q0 -25 -17 -38t-39 -13q-18 0 -61 25l-160 94l-160 -94q-43 -25 -61 -25q-23 0 -39 14t-16 39q0 28 22 45l166 121q45 31 88 31z" />
    <glyph glyph-name="Otilde" unicode="&#xd5;" horiz-adv-x="1726" 
d="M862 1456q162 0 301 -54t238.5 -150t156 -234.5t56.5 -300.5q0 -217 -96.5 -386t-267.5 -261.5t-388 -92.5q-215 0 -385.5 92.5t-267 261.5t-96.5 386t96.5 386t267 261t385.5 92zM862 1270q-220 0 -366 -153t-146 -400q0 -248 146 -400.5t368 -152.5t367 152.5
t145 400.5t-145.5 400.5t-368.5 152.5zM1128 1718q17 0 34.5 -12.5t17.5 -34.5q0 -28 -29 -57q-79 -86 -180 -86q-50 0 -92 20.5t-79.5 41t-76.5 20.5q-41 0 -76 -31q-25 -20 -45 -20q-18 0 -33.5 12.5t-15.5 36.5q0 28 29 57q33 38 79.5 62t96.5 24q51 0 127 -42t121 -42
q44 0 75 31q20 20 47 20z" />
    <glyph glyph-name="Odieresis" unicode="&#xd6;" horiz-adv-x="1726" 
d="M862 1456q162 0 301 -54t238.5 -150t156 -234.5t56.5 -300.5q0 -217 -96.5 -386t-267.5 -261.5t-388 -92.5q-215 0 -385.5 92.5t-267 261.5t-96.5 386t96.5 386t267 261t385.5 92zM862 1270q-220 0 -366 -153t-146 -400q0 -248 146 -400.5t368 -152.5t367 152.5
t145 400.5t-145.5 400.5t-368.5 152.5zM1077 1772q50 0 78.5 -26t28.5 -81q0 -52 -29 -78t-78 -26q-47 0 -75.5 26t-28.5 78q0 53 29 80t75 27zM643 1772q50 0 79.5 -26t29.5 -81q0 -52 -29.5 -78t-79.5 -26q-47 0 -75.5 26t-28.5 78q0 53 29 80t75 27z" />
    <glyph glyph-name="multiply" unicode="&#xd7;" horiz-adv-x="935" 
d="M670 940q27 0 46 -17.5t19 -43.5q0 -27 -33 -60l-161 -160l168 -170q32 -28 32 -59q0 -27 -19 -45t-44 -18q-32 0 -64 28l-168 168l-165 -164q-30 -30 -62 -30q-25 0 -44 17.5t-19 43.5q0 32 30 62l168 167l-161 160q-31 31 -31 60q0 25 18 43t45 18q29 0 60 -31
l161 -161l166 165q27 27 58 27z" />
    <glyph glyph-name="Oslash" unicode="&#xd8;" horiz-adv-x="1724" 
d="M1329 1497q49 0 68 -36.5t-15 -90.5l-43 -65q129 -101 201 -252t72 -336q0 -217 -96 -386t-266.5 -261.5t-387.5 -92.5q-182 0 -338 70l-43 -65q-36 -56 -75 -56q-26 0 -47 14.5t-27 43t20 69.5l43 68q-134 99 -209 252.5t-75 343.5q0 162 56.5 300.5t155.5 234.5
t238 150t301 54q189 0 350 -76l41 64q37 53 76 53zM862 1270q-145 0 -261.5 -68t-184.5 -194.5t-68 -290.5q0 -260 168 -412l586 907q-110 58 -240 58zM1217 1116l-584 -901q105 -51 229 -51q223 0 368.5 152.5t145.5 400.5q0 123 -42 225.5t-117 173.5z" />
    <glyph glyph-name="Ugrave" unicode="&#xd9;" horiz-adv-x="1501" 
d="M1200 1440q52 0 82.5 -29.5t30.5 -85.5v-844q0 -227 -154.5 -365.5t-406.5 -138.5q-258 0 -411 141t-153 363v844q0 56 30 85.5t81 29.5t82 -30t31 -85v-850q0 -140 94 -225.5t248 -85.5q150 0 243 86.5t93 224.5v850q0 56 29.5 85.5t80.5 29.5zM653 1855q51 3 90 -53
l113 -157q18 -23 18 -52q0 -22 -15.5 -36.5t-37.5 -14.5q-34 0 -63 29l-140 135q-40 40 -40 72q-1 35 21 55t54 22z" />
    <glyph glyph-name="Uacute" unicode="&#xda;" horiz-adv-x="1501" 
d="M1200 1440q52 0 82.5 -29.5t30.5 -85.5v-844q0 -227 -154.5 -365.5t-406.5 -138.5q-258 0 -411 141t-153 363v844q0 56 30 85.5t81 29.5t82 -30t31 -85v-850q0 -140 94 -225.5t248 -85.5q150 0 243 86.5t93 224.5v850q0 56 29.5 85.5t80.5 29.5zM860 1855q32 -2 54 -23
t22 -56q0 -29 -41 -70l-139 -135q-29 -29 -64 -29q-22 0 -37.5 14.5t-15.5 36.5q0 23 20 52l111 157q39 56 90 53z" />
    <glyph glyph-name="Ucircumflex" unicode="&#xdb;" horiz-adv-x="1501" 
d="M1200 1440q52 0 82.5 -29.5t30.5 -85.5v-844q0 -227 -154.5 -365.5t-406.5 -138.5q-258 0 -411 141t-153 363v844q0 56 30 85.5t81 29.5t82 -30t31 -85v-850q0 -140 94 -225.5t248 -85.5q150 0 243 86.5t93 224.5v850q0 56 29.5 85.5t80.5 29.5zM752 1786q43 0 88 -31
l166 -121q22 -16 22 -47q0 -25 -16.5 -38t-38.5 -13q-19 0 -62 25l-159 94l-160 -94q-43 -25 -62 -25q-23 0 -39 14t-16 39q0 27 23 45l166 121q45 31 88 31z" />
    <glyph glyph-name="Udieresis" unicode="&#xdc;" horiz-adv-x="1501" 
d="M1200 1440q52 0 82.5 -29.5t30.5 -85.5v-844q0 -227 -154.5 -365.5t-406.5 -138.5q-258 0 -411 141t-153 363v844q0 56 30 85.5t81 29.5t82 -30t31 -85v-850q0 -140 94 -225.5t248 -85.5q150 0 243 86.5t93 224.5v850q0 56 29.5 85.5t80.5 29.5zM967 1772q106 0 106 -107
q0 -52 -28.5 -78t-77.5 -26q-47 0 -76 26t-29 78q0 53 29.5 80t75.5 27zM532 1772q50 0 79.5 -26t29.5 -81q0 -52 -29.5 -78t-79.5 -26q-47 0 -75.5 26t-28.5 78q0 53 29 80t75 27z" />
    <glyph glyph-name="Yacute" unicode="&#xdd;" horiz-adv-x="1271" 
d="M1102 1440q43 0 73.5 -26t30.5 -68q0 -34 -22 -68l-434 -698v-471q0 -55 -29.5 -85t-83.5 -30t-83.5 30t-29.5 85v471l-436 698q-22 34 -22 70q0 40 32 66t72 26q55 0 94 -64l371 -610h4l369 610q40 64 94 64zM745 1855q32 -2 54 -23t22 -56q0 -29 -41 -70l-139 -135
q-29 -29 -63 -29q-22 0 -38 15t-16 36q0 22 21 52l110 157q39 56 90 53z" />
    <glyph glyph-name="Thorn" unicode="&#xde;" horiz-adv-x="1325" 
d="M313 1440q51 0 82 -30.5t31 -86.5v-156h397q190 0 305 -123.5t115 -314.5q0 -189 -116.5 -314.5t-297.5 -125.5h-403v-178q0 -56 -31 -86.5t-82 -30.5t-80.5 30.5t-29.5 86.5v1212q0 56 29.5 86.5t80.5 30.5zM782 989h-356v-522h373q103 0 167 76t64 184q0 117 -70 189.5
t-178 72.5z" />
    <glyph glyph-name="germandbls" unicode="&#xdf;" horiz-adv-x="1249" 
d="M602 1456q198 0 310 -106t112 -269q0 -59 -17.5 -111t-38 -83.5t-38 -72t-17.5 -79.5q0 -46 27.5 -85t66.5 -71.5t77.5 -69.5t66 -97.5t27.5 -137.5q0 -147 -93 -237t-278 -90q-140 0 -215 35q-69 29 -57 96q5 35 29 55t61 17q6 -1 32 -7t41.5 -9t41 -6t46.5 -3
q87 0 136 41t49 127q0 59 -27 103t-65 72.5t-76 58t-65 76t-27 108.5q0 48 17 93.5t38 76t38 78t17 98.5q0 99 -56 156t-151 57q-104 0 -167.5 -75t-63.5 -237v-852q0 -54 -30 -83t-79 -29t-77.5 29t-28.5 83v883q0 124 34 216.5t94.5 146t136.5 79t169 25.5z" />
    <glyph glyph-name="agrave" unicode="&#xe0;" horiz-adv-x="1216" 
d="M596 1083q99 0 175 -19t134 -60.5t88.5 -112.5t30.5 -170v-490q0 -20 5 -32t17.5 -17.5t22.5 -7t31 -2.5q65 -7 65 -78q0 -44 -37 -74q-41 -28 -133 -28q-64 0 -114 34.5t-50 94.5v51q-41 -84 -135 -137t-235 -53q-166 0 -270.5 84t-104.5 241q0 92 37 160t103.5 107
t151 58t187.5 19q67 0 252 -18v78q0 117 -68 165t-192 48q-36 0 -73.5 -4t-62 -8t-67 -12.5t-63.5 -12.5q-51 -9 -79 12t-30 59q-3 65 74 84q166 41 340 41zM586 518q-127 0 -205 -46.5t-78 -147.5q0 -92 60.5 -139.5t150.5 -47.5q125 0 214 75.5t89 186.5v99
q-100 20 -231 20zM567 1532q54 0 82 -68l72 -182q17 -44 -1 -70t-52 -26t-64 41l-100 166q-25 37 -25 61q0 34 27 56t61 22z" />
    <glyph glyph-name="aacute" unicode="&#xe1;" horiz-adv-x="1216" 
d="M596 1083q99 0 175 -19t134 -60.5t88.5 -112.5t30.5 -170v-490q0 -20 5 -32t17.5 -17.5t22.5 -7t31 -2.5q65 -7 65 -78q0 -44 -37 -74q-41 -28 -133 -28q-64 0 -114 34.5t-50 94.5v51q-41 -84 -135 -137t-235 -53q-166 0 -270.5 84t-104.5 241q0 92 37 160t103.5 107
t151 58t187.5 19q67 0 252 -18v78q0 117 -68 165t-192 48q-36 0 -73.5 -4t-62 -8t-67 -12.5t-63.5 -12.5q-51 -9 -79 12t-30 59q-3 65 74 84q166 41 340 41zM586 518q-127 0 -205 -46.5t-78 -147.5q0 -92 60.5 -139.5t150.5 -47.5q125 0 214 75.5t89 186.5v99
q-100 20 -231 20zM723 1530q34 0 60 -22t26 -56q0 -26 -23 -61l-112 -166q-27 -39 -60 -39q-35 0 -53 25.5t0 68.5l80 180q30 70 82 70z" />
    <glyph glyph-name="acircumflex" unicode="&#xe2;" horiz-adv-x="1216" 
d="M623 1477q52 0 88 -33l166 -150q22 -22 22 -49q0 -23 -14.5 -36t-38.5 -13q-30 0 -64 27l-159 118l-158 -118q-35 -27 -59 -27q-23 0 -40.5 14t-17.5 37q0 24 23 47l164 150q36 33 88 33zM610 1083q99 0 175 -19t134 -60.5t88.5 -112.5t30.5 -170v-490q0 -20 5 -32
t17.5 -17.5t22.5 -7t31 -2.5q66 -8 66 -78q0 -44 -37 -74q-41 -28 -133 -28q-64 0 -114 34.5t-50 94.5v51q-41 -84 -135.5 -137t-235.5 -53q-166 0 -270.5 84t-104.5 241q0 92 37 160t104 107t151.5 58t187.5 19q66 0 251 -18v78q0 117 -68 165t-192 48q-36 0 -73.5 -4
t-62 -8t-67 -12.5t-63.5 -12.5q-51 -9 -78.5 12t-29.5 59q-3 65 73 84q166 41 340 41zM600 518q-127 0 -205 -46.5t-78 -147.5q0 -92 60.5 -139.5t150.5 -47.5q125 0 214 75.5t89 186.5v99q-100 20 -231 20z" />
    <glyph glyph-name="atilde" unicode="&#xe3;" horiz-adv-x="1216" 
d="M915 1386q17 0 34.5 -12.5t17.5 -34.5q0 -28 -29 -57q-79 -86 -180 -86q-50 0 -92 20.5t-79.5 41t-76.5 20.5q-41 0 -76 -31q-25 -20 -45 -20q-18 0 -33.5 12.5t-15.5 36.5q0 28 29 57q33 38 79.5 62t96.5 24q51 0 127 -42t121 -42q44 0 75 31q20 20 47 20zM610 1083
q99 0 175 -19t134 -60.5t88.5 -112.5t30.5 -170v-490q0 -20 5 -32t17.5 -17.5t22.5 -7t31 -2.5q66 -8 66 -78q0 -44 -37 -74q-41 -28 -133 -28q-64 0 -114 34.5t-50 94.5v51q-41 -84 -135.5 -137t-235.5 -53q-166 0 -270.5 84t-104.5 241q0 92 37 160t104 107t151.5 58
t187.5 19q66 0 251 -18v78q0 117 -68 165t-192 48q-36 0 -73.5 -4t-62 -8t-67 -12.5t-63.5 -12.5q-51 -9 -78.5 12t-29.5 59q-3 65 73 84q166 41 340 41zM600 518q-127 0 -205 -46.5t-78 -147.5q0 -92 60.5 -139.5t150.5 -47.5q125 0 214 75.5t89 186.5v99q-100 20 -231 20z
" />
    <glyph glyph-name="adieresis" unicode="&#xe4;" horiz-adv-x="1216" 
d="M879 1438q106 0 106 -107q0 -52 -28.5 -78t-77.5 -26q-47 0 -76 26t-29 78q0 53 29.5 80t75.5 27zM444 1438q50 0 79.5 -26t29.5 -81q0 -52 -29.5 -78t-79.5 -26q-47 0 -75.5 26t-28.5 78q0 53 29 80t75 27zM610 1083q99 0 175 -19t134 -60.5t88.5 -112.5t30.5 -170v-490
q0 -20 5 -32t17.5 -17.5t22.5 -7t31 -2.5q66 -8 66 -78q0 -44 -37 -74q-41 -28 -133 -28q-64 0 -114 34.5t-50 94.5v51q-41 -84 -135.5 -137t-235.5 -53q-166 0 -270.5 84t-104.5 241q0 92 37 160t104 107t151.5 58t187.5 19q66 0 251 -18v78q0 117 -68 165t-192 48
q-36 0 -73.5 -4t-62 -8t-67 -12.5t-63.5 -12.5q-51 -9 -78.5 12t-29.5 59q-3 65 73 84q166 41 340 41zM600 518q-127 0 -205 -46.5t-78 -147.5q0 -92 60.5 -139.5t150.5 -47.5q125 0 214 75.5t89 186.5v99q-100 20 -231 20z" />
    <glyph glyph-name="aring" unicode="&#xe5;" horiz-adv-x="1216" 
d="M653 1548q84 0 137.5 -49.5t53.5 -130.5t-53.5 -130.5t-137.5 -49.5q-81 0 -135.5 50t-54.5 130t54.5 130t135.5 50zM653 1464q-45 0 -68.5 -27t-23.5 -69t23.5 -70t68.5 -28q44 0 68 28t24 70t-24 69t-68 27zM610 1083q99 0 175 -19t134 -60.5t88.5 -112.5t30.5 -170
v-490q0 -20 5 -32t17.5 -17.5t22.5 -7t31 -2.5q66 -8 66 -78q0 -44 -37 -74q-41 -28 -133 -28q-64 0 -114 34.5t-50 94.5v51q-41 -84 -135.5 -137t-235.5 -53q-166 0 -270.5 84t-104.5 241q0 92 37 160t104 107t151.5 58t187.5 19q66 0 251 -18v78q0 117 -68 165t-192 48
q-36 0 -73.5 -4t-62 -8t-67 -12.5t-63.5 -12.5q-51 -9 -78.5 12t-29.5 59q-3 65 73 84q166 41 340 41zM600 518q-127 0 -205 -46.5t-78 -147.5q0 -92 60.5 -139.5t150.5 -47.5q125 0 214 75.5t89 186.5v99q-100 20 -231 20z" />
    <glyph glyph-name="ae" unicode="&#xe6;" horiz-adv-x="1955" 
d="M809 635v78q0 118 -67.5 165.5t-194.5 47.5q-76 0 -266 -33q-52 -10 -78.5 13t-28.5 59q-1 33 17.5 51t56.5 28q58 18 158.5 28.5t179.5 10.5q146 0 237.5 -45t139.5 -147q151 194 415 194q109 0 195.5 -36.5t137.5 -92t84.5 -127.5t45 -136.5t10.5 -125.5
q-2 -50 -20.5 -76t-73.5 -26h-715q3 -150 104.5 -232.5t270.5 -82.5q115 0 258 45q25 6 48 6.5t41.5 -16.5t23.5 -50q3 -27 -13 -51.5t-46 -36.5q-152 -63 -332 -63q-165 0 -287 62.5t-190 180.5q-50 -104 -163.5 -173.5t-291.5 -69.5t-282.5 83t-104.5 242q0 92 36.5 159.5
t103.5 107t151.5 58.5t189.5 19q57 0 250 -18zM1042 606h611q0 43 -7.5 84.5t-28 84.5t-51.5 75.5t-82 53t-116 20.5q-136 0 -224.5 -85.5t-101.5 -232.5zM809 401v99q-22 5 -93 12.5t-132 7.5q-291 0 -291 -194q0 -92 61 -139.5t152 -47.5q124 0 213.5 75.5t89.5 186.5z
" />
    <glyph glyph-name="ccedilla" unicode="&#xe7;" horiz-adv-x="1083" 
d="M670 1083q150 0 250 -43q59 -24 59 -75q0 -37 -25 -61t-71 -17q-18 3 -50.5 10.5t-65 12.5t-69.5 5q-98 0 -174 -33.5t-120 -89.5t-66.5 -122t-22.5 -138t22.5 -138t67 -121t120.5 -88t173 -33q50 0 114 15.5t85 16.5q40 1 61.5 -19t24.5 -52q6 -57 -55 -86
q-86 -45 -254 -45q-8 0 -24.5 1t-24.5 1l-31 -101q74 6 125 -31t51 -110q0 -84 -64 -121t-157 -37q-55 0 -92 13q-53 20 -45 53q8 37 57 28q35 -6 72 -6q102 0 102 72q0 63 -80 63q-4 0 -14 -1t-14 -1q-33 0 -45 21t-1 53l43 117q-198 38 -316 182.5t-118 351.5
q0 246 159 399.5t413 153.5z" />
    <glyph glyph-name="egrave" unicode="&#xe8;" horiz-adv-x="1220" 
d="M584 1534q54 0 82 -68l71 -182q17 -44 -1 -70t-52 -26q-33 0 -63 41l-101 166q-24 36 -24 61q0 34 27 56t61 22zM657 1083q95 0 173 -23.5t130 -65.5t90 -94t58.5 -114t29.5 -119.5t9 -117.5q-1 -41 -26 -63.5t-68 -22.5h-715q3 -148 104.5 -232t266.5 -84q80 0 135 11.5
t92 26.5t53 18q41 7 65 -12.5t29 -57.5q6 -55 -61 -88q-132 -63 -330 -63q-269 0 -423 148t-154 398q0 243 148.5 399t393.5 156zM664 922q-136 0 -224.5 -85.5t-101.5 -232.5h610q0 43 -7.5 84.5t-28 84.5t-51 75.5t-81.5 53t-116 20.5z" />
    <glyph glyph-name="eacute" unicode="&#xe9;" horiz-adv-x="1220" 
d="M643 1083q95 0 173 -23.5t130 -65.5t90 -94t58.5 -114t29.5 -119.5t9 -117.5q-1 -41 -26.5 -63.5t-68.5 -22.5h-714q3 -149 104 -232.5t266 -83.5q80 0 135.5 11.5t92.5 26.5t53 18q41 7 65 -12.5t29 -57.5q6 -55 -61 -88q-132 -63 -330 -63q-269 0 -423.5 148
t-154.5 398q0 159 66 285t190 198t287 72zM649 922q-136 0 -224 -85.5t-101 -232.5h610q0 43 -7.5 84.5t-28 84.5t-51.5 75.5t-82 53t-116 20.5zM723 1530q34 0 60 -22t26 -56q0 -26 -23 -61l-112 -166q-27 -39 -60 -39q-35 0 -53 25.5t0 68.5l80 180q30 70 82 70z" />
    <glyph glyph-name="ecircumflex" unicode="&#xea;" horiz-adv-x="1220" 
d="M664 1477q52 0 88 -33l166 -150q22 -22 22 -49q0 -23 -14.5 -36t-38.5 -13q-30 0 -64 27l-159 118l-158 -118q-35 -27 -60 -27q-23 0 -40 13.5t-17 37.5t23 47l163 150q36 33 89 33zM657 1083q95 0 173 -23.5t130 -65.5t90 -94t58.5 -114t29.5 -119.5t9 -117.5
q-1 -41 -26 -63.5t-68 -22.5h-715q3 -148 104.5 -232t266.5 -84q80 0 135 11.5t92 26.5t53 18q41 7 65 -12.5t29 -57.5q6 -55 -61 -88q-132 -63 -330 -63q-269 0 -423 148t-154 398q0 243 148.5 399t393.5 156zM664 922q-136 0 -224.5 -85.5t-101.5 -232.5h610
q0 43 -7.5 84.5t-28 84.5t-51 75.5t-81.5 53t-116 20.5z" />
    <glyph glyph-name="edieresis" unicode="&#xeb;" horiz-adv-x="1220" 
d="M879 1438q106 0 106 -107q0 -52 -28.5 -78t-77.5 -26q-47 0 -76 26t-29 78q0 53 29.5 80t75.5 27zM444 1438q50 0 79.5 -26t29.5 -81q0 -52 -29.5 -78t-79.5 -26q-47 0 -75.5 26t-28.5 78q0 53 29 80t75 27zM657 1083q95 0 173 -23.5t130 -65.5t90 -94t58.5 -114
t29.5 -119.5t9 -117.5q-1 -41 -26 -63.5t-68 -22.5h-715q3 -148 104.5 -232t266.5 -84q80 0 135 11.5t92 26.5t53 18q41 7 65 -12.5t29 -57.5q6 -55 -61 -88q-132 -63 -330 -63q-269 0 -423 148t-154 398q0 243 148.5 399t393.5 156zM664 922q-136 0 -224.5 -85.5
t-101.5 -232.5h610q0 43 -7.5 84.5t-28 84.5t-51 75.5t-81.5 53t-116 20.5z" />
    <glyph glyph-name="igrave" unicode="&#xec;" horiz-adv-x="600" 
d="M221 1524q54 0 82 -68l72 -182q17 -44 -1 -70t-52 -26t-64 41l-100 165q-25 37 -25 62q0 34 27 56t61 22zM211 1065h135q51 0 79 -28t28 -79v-854q0 -52 -30 -81t-77 -29q-48 0 -77 28.5t-29 81.5v768l-60 19q-63 18 -63 92q0 38 25 60t69 22z" />
    <glyph glyph-name="iacute" unicode="&#xed;" horiz-adv-x="600" 
d="M197 1065h135q51 0 78.5 -28t27.5 -79v-854q0 -52 -29.5 -81t-76.5 -29q-49 0 -78 28.5t-29 81.5v768l-59 19q-64 18 -64 92q0 38 25.5 60t69.5 22zM369 1522q34 0 60 -22t26 -56q0 -28 -23 -62l-113 -165q-27 -39 -59 -39q-35 0 -53 25.5t0 68.5l80 180q30 70 82 70z
" />
    <glyph glyph-name="icircumflex" unicode="&#xee;" horiz-adv-x="600" 
d="M305 1466q53 0 88 -32l166 -150q23 -23 23 -49q0 -23 -15 -36t-39 -13q-30 0 -63 26l-160 119l-158 -119q-33 -26 -59 -26q-23 0 -40 13.5t-17 37.5q0 25 22 47l164 150q35 32 88 32zM211 1065h135q51 0 79 -28t28 -79v-854q0 -52 -30 -81t-77 -29q-48 0 -77 28.5
t-29 81.5v768l-60 19q-63 18 -63 92q0 38 25 60t69 22z" />
    <glyph glyph-name="idieresis" unicode="&#xef;" horiz-adv-x="600" 
d="M504 1440q106 0 106 -107q0 -52 -28.5 -78t-77.5 -26q-47 0 -76 26t-29 78q0 53 29.5 80t75.5 27zM70 1440q50 0 79 -26t29 -81q0 -52 -29 -78t-79 -26q-47 0 -76 26t-29 78q0 53 29.5 80t75.5 27zM211 1065h135q51 0 79 -28t28 -79v-854q0 -52 -30 -81t-77 -29
q-48 0 -77 28.5t-29 81.5v768l-60 19q-63 18 -63 92q0 38 25 60t69 22z" />
    <glyph glyph-name="eth" unicode="&#xf0;" horiz-adv-x="1247" 
d="M442 1595q20 0 50 -12q100 -44 239 -147l141 96q30 18 52.5 9.5t25.5 -32.5q7 -29 -26 -49l-125 -84q119 -112 196.5 -256t107.5 -274t30 -260q0 -279 -139.5 -441.5t-379.5 -162.5q-243 0 -381.5 143t-138.5 369q0 228 137.5 364.5t354.5 136.5q107 0 202 -45.5
t136 -118.5q-60 276 -248 461l-139 -96q-30 -19 -51.5 -10.5t-26.5 31.5q-6 27 26 49l123 84q-61 54 -180 120q-49 25 -49 66q0 23 18 41t45 18zM610 831q-146 0 -226.5 -96t-80.5 -243q0 -93 33 -169.5t105 -126t171 -49.5q140 0 224 100t84 251t-87 242t-223 91z" />
    <glyph glyph-name="ntilde" unicode="&#xf1;" horiz-adv-x="1273" 
d="M938 1405q17 0 34 -12.5t17 -34.5q0 -30 -28 -58q-79 -86 -181 -86q-50 0 -92 20.5t-79.5 41t-76.5 20.5q-41 0 -75 -30q-26 -21 -45 -21q-18 0 -34 12.5t-16 36.5q0 29 29 58q33 38 79.5 62t96.5 24q51 0 127 -42t121 -42q46 0 76 30q21 21 47 21zM737 1083
q179 0 286 -112.5t107 -347.5v-519q0 -53 -30 -81.5t-78 -28.5t-77.5 28t-29.5 82v523q0 138 -61 212t-178 74q-92 0 -157 -47.5t-93.5 -118.5t-28.5 -157v-486q0 -54 -29 -82t-77 -28q-49 0 -79 28t-30 82v867q0 100 90 100q78 0 90 -88l15 -117q17 38 43 72t68 69
t106.5 55.5t142.5 20.5z" />
    <glyph glyph-name="ograve" unicode="&#xf2;" horiz-adv-x="1343" 
d="M606 1534q54 0 82 -68l72 -182q17 -44 -1 -70t-52 -26t-64 41l-100 166q-25 37 -25 61q0 34 27 56t61 22zM688 1083q159 0 288.5 -66t206.5 -192t77 -290q0 -163 -77 -290.5t-207 -195t-288 -67.5q-162 0 -292.5 67t-206.5 193.5t-76 289.5q0 164 76 290.5t206.5 193.5
t292.5 67zM686 913q-153 0 -251.5 -105t-98.5 -276q0 -170 98.5 -275t251.5 -105q151 0 250.5 105.5t99.5 274.5q0 171 -99 276t-251 105z" />
    <glyph glyph-name="oacute" unicode="&#xf3;" horiz-adv-x="1343" 
d="M674 1083q159 0 288 -66t206 -192t77 -290q0 -123 -45 -227t-122 -175t-181.5 -111t-222.5 -40q-162 0 -292.5 67t-207 193.5t-76.5 289.5q0 164 76.5 290.5t207 193.5t292.5 67zM672 913q-153 0 -251.5 -105t-98.5 -276q0 -170 98.5 -275t251.5 -105q151 0 250.5 105.5
t99.5 274.5q0 171 -99 276t-251 105zM745 1530q34 0 60 -22t26 -56q0 -28 -22 -61l-113 -166q-27 -39 -59 -39q-35 0 -53 25.5t0 68.5l80 180q30 70 81 70z" />
    <glyph glyph-name="ocircumflex" unicode="&#xf4;" horiz-adv-x="1343" 
d="M684 1477q52 0 88 -33l166 -150q23 -23 23 -49q0 -23 -15 -36t-39 -13q-29 0 -63 27l-160 118l-158 -118q-35 -27 -59 -27q-23 0 -40 13.5t-17 37.5q0 25 22 47l164 150q36 33 88 33zM688 1083q159 0 288.5 -66t206.5 -192t77 -290q0 -163 -77 -290.5t-207 -195
t-288 -67.5q-162 0 -292.5 67t-206.5 193.5t-76 289.5q0 164 76 290.5t206.5 193.5t292.5 67zM686 913q-153 0 -251.5 -105t-98.5 -276q0 -170 98.5 -275t251.5 -105q151 0 250.5 105.5t99.5 274.5q0 171 -99 276t-251 105z" />
    <glyph glyph-name="otilde" unicode="&#xf5;" horiz-adv-x="1343" 
d="M674 1083q159 0 288 -66t206 -192t77 -290q0 -123 -45 -227t-122 -175t-181.5 -111t-222.5 -40q-162 0 -292.5 67t-207 193.5t-76.5 289.5q0 164 76.5 290.5t207 193.5t292.5 67zM672 913q-153 0 -251.5 -105t-98.5 -276q0 -170 98.5 -275t251.5 -105q151 0 250.5 105.5
t99.5 274.5q0 171 -99 276t-251 105zM938 1384q17 0 34 -12.5t17 -34.5q0 -29 -28 -57q-79 -86 -181 -86q-50 0 -92 20.5t-79.5 41t-76.5 20.5q-40 0 -75 -31q-25 -20 -45 -20q-18 0 -34 12.5t-16 36.5q0 28 29 57q33 38 79.5 62t96.5 24q51 0 127 -42t121 -42t76 31
q20 20 47 20z" />
    <glyph glyph-name="odieresis" unicode="&#xf6;" horiz-adv-x="1343" 
d="M901 1440q50 0 78.5 -26t28.5 -81q0 -52 -29 -78t-78 -26q-47 0 -75.5 26t-28.5 78q0 53 29 80t75 27zM467 1440q50 0 79 -26t29 -81q0 -52 -29.5 -78t-78.5 -26q-47 0 -76 26t-29 78q0 53 29.5 80t75.5 27zM688 1083q159 0 288.5 -66t206.5 -192t77 -290
q0 -163 -77 -290.5t-207 -195t-288 -67.5q-162 0 -292.5 67t-206.5 193.5t-76 289.5q0 164 76 290.5t206.5 193.5t292.5 67zM686 913q-153 0 -251.5 -105t-98.5 -276q0 -170 98.5 -275t251.5 -105q151 0 250.5 105.5t99.5 274.5q0 171 -99 276t-251 105z" />
    <glyph glyph-name="divide" unicode="&#xf7;" horiz-adv-x="1206" 
d="M233 737h744q39 0 62.5 -18.5t23.5 -52.5q0 -36 -23 -55t-63 -19h-744q-38 0 -62 20t-24 54t24 52.5t62 18.5zM608 436q46 0 81.5 -35t35.5 -84q0 -47 -35.5 -82.5t-81.5 -35.5q-51 0 -86 33.5t-35 84.5q0 50 35.5 84.5t85.5 34.5zM608 1133q47 0 82 -34.5t35 -84.5
t-35 -85.5t-82 -35.5q-51 0 -86 34.5t-35 86.5q0 50 35.5 84.5t85.5 34.5z" />
    <glyph glyph-name="oslash" unicode="&#xf8;" horiz-adv-x="1343" 
d="M1018 1135q24 0 42.5 -14.5t18.5 -37.5q0 -18 -20 -51l-35 -53q103 -74 162 -188.5t59 -255.5q0 -123 -45 -227t-122 -175t-181.5 -111t-222.5 -40q-144 0 -262 53l-41 -64q-22 -43 -60 -43q-25 0 -42 15t-17 41q0 19 16 43l41 67q-99 74 -155 186.5t-56 251.5
q0 164 76.5 290.5t207 193.5t292.5 67q132 0 246 -51l36 60q25 43 62 43zM911 809l-399 -621q65 -36 160 -36q151 0 250.5 105.5t99.5 274.5t-111 277zM672 913q-153 0 -251.5 -105t-98.5 -276q0 -165 102 -264l397 613q-63 32 -149 32z" />
    <glyph glyph-name="ugrave" unicode="&#xf9;" horiz-adv-x="1257" 
d="M567 1534q54 0 82 -68l72 -182q17 -44 -1 -70t-52 -26t-64 41l-100 166q-25 37 -25 61q0 34 27 56t61 22zM1006 1071q48 0 77 -28t29 -82v-867q0 -49 -24.5 -74.5t-65.5 -25.5q-82 0 -90 88l-12 100q-111 -200 -349 -200q-191 0 -298 109.5t-107 342.5v527q0 54 29.5 82
t78.5 28q48 0 76.5 -28t28.5 -82v-523q0 -141 61 -213.5t195 -72.5q114 0 188 83.5t74 215.5v510q0 54 30 82t79 28z" />
    <glyph glyph-name="uacute" unicode="&#xfa;" horiz-adv-x="1253" 
d="M991 1071q48 0 77.5 -28t29.5 -82v-867q0 -49 -24.5 -74.5t-65.5 -25.5q-82 0 -90 88l-13 100q-56 -101 -140.5 -150.5t-207.5 -49.5q-191 0 -298 109.5t-107 342.5v527q0 54 29.5 82t78.5 28q48 0 76.5 -28t28.5 -82v-523q0 -141 61 -213.5t195 -72.5q114 0 188 83.5
t74 215.5v510q0 54 29.5 82t78.5 28zM705 1530q34 0 60 -22t26 -56q0 -26 -23 -61l-113 -166q-27 -39 -59 -39q-35 0 -53 25.5t0 68.5l80 180q30 70 82 70z" />
    <glyph glyph-name="ucircumflex" unicode="&#xfb;" horiz-adv-x="1257" 
d="M645 1477q52 0 88 -33l166 -150q23 -23 23 -49q0 -23 -15 -36t-39 -13q-29 0 -63 27l-160 118l-158 -118q-35 -27 -59 -27q-23 0 -40 13.5t-17 37.5q0 25 22 47l164 150q36 33 88 33zM1006 1071q48 0 77 -28t29 -82v-867q0 -49 -24.5 -74.5t-65.5 -25.5q-82 0 -90 88
l-12 100q-111 -200 -349 -200q-191 0 -298 109.5t-107 342.5v527q0 54 29.5 82t78.5 28q48 0 76.5 -28t28.5 -82v-523q0 -141 61 -213.5t195 -72.5q114 0 188 83.5t74 215.5v510q0 54 30 82t79 28z" />
    <glyph glyph-name="udieresis" unicode="&#xfc;" horiz-adv-x="1257" 
d="M860 1440q50 0 78.5 -26t28.5 -81q0 -52 -29 -78t-78 -26q-47 0 -75.5 26t-28.5 78q0 53 29 80t75 27zM426 1440q50 0 79.5 -26t29.5 -81q0 -52 -29.5 -78t-79.5 -26q-47 0 -75.5 26t-28.5 78q0 53 29 80t75 27zM1006 1071q48 0 77 -28t29 -82v-867q0 -49 -24.5 -74.5
t-65.5 -25.5q-82 0 -90 88l-12 100q-111 -200 -349 -200q-191 0 -298 109.5t-107 342.5v527q0 54 29.5 82t78.5 28q48 0 76.5 -28t28.5 -82v-523q0 -141 61 -213.5t195 -72.5q114 0 188 83.5t74 215.5v510q0 54 30 82t79 28z" />
    <glyph glyph-name="yacute" unicode="&#xfd;" horiz-adv-x="1169" 
d="M981 1071q67 0 93 -45.5t3 -105.5l-366 -930q-34 -87 -66.5 -146.5t-75.5 -107.5t-98.5 -71t-126.5 -23q-73 0 -133 18q-77 24 -74 90q2 35 22.5 55.5t55.5 20.5q15 0 46 -6t48 -6q109 0 166 188l-366 916q-24 61 2.5 107t89.5 46q40 0 64 -22t42 -68l144 -356
q14 -38 141 -408h8q14 42 44 132.5t52.5 157t46.5 128.5l136 348q31 88 102 88zM651 1530q34 0 60 -22t26 -56q0 -28 -22 -61l-113 -166q-27 -39 -59 -39q-35 0 -53.5 25.5t-0.5 68.5l80 180q30 70 82 70z" />
    <glyph glyph-name="thorn" unicode="&#xfe;" horiz-adv-x="1347" 
d="M274 1440q50 0 79.5 -29t29.5 -84v-457q52 103 150 158t223 55q150 0 263 -75.5t170.5 -200t57.5 -277.5q0 -87 -20 -167.5t-61 -150t-99 -121t-139.5 -80.5t-177.5 -29q-130 0 -225.5 53t-139.5 141v-418q0 -54 -30 -83t-79 -29t-78.5 28.5t-29.5 83.5v1569q0 55 29 84
t77 29zM707 913q-140 0 -231 -109.5t-91 -273.5q0 -163 91.5 -270.5t230.5 -107.5q144 0 234.5 107t90.5 271q0 167 -90 275t-235 108z" />
    <glyph glyph-name="ydieresis" unicode="&#xff;" horiz-adv-x="1136" 
d="M807 1438q106 0 106 -107q0 -52 -28.5 -78t-77.5 -26q-47 0 -76 26t-29 78q0 53 29.5 80t75.5 27zM373 1438q50 0 79 -26t29 -81q0 -52 -29.5 -78t-78.5 -26q-47 0 -76 26t-29 78q0 53 29.5 80t75.5 27zM995 1071q67 0 93.5 -46t3.5 -105l-367 -930q-34 -87 -66.5 -146.5
t-75.5 -107.5t-98.5 -71t-126.5 -23q-73 0 -133 18q-76 24 -73 90q2 36 22 56t55 20q15 0 46.5 -6t48.5 -6q108 0 165 188l-366 916q-24 61 2.5 107t89.5 46q40 0 64.5 -22t42.5 -68l143 -356q14 -38 141 -408h8q120 355 144 418l135 348q31 88 102 88z" />
    <glyph glyph-name="Amacron" unicode="&#x100;" horiz-adv-x="1396" 
d="M698 1446q141 0 189 -131l430 -1165q25 -71 -6.5 -113.5t-91.5 -42.5q-75 0 -107 96l-108 287h-609l-108 -287q-19 -51 -45 -73.5t-66 -22.5q-59 0 -90 42t-6 111l432 1168q45 131 186 131zM702 1237h-6l-243 -686h493zM453 1718h489q34 0 54 -16.5t20 -46.5
q0 -31 -19.5 -49.5t-54.5 -18.5h-489q-35 0 -54.5 18.5t-19.5 49.5q0 29 19.5 46t54.5 17z" />
    <glyph glyph-name="amacron" unicode="&#x101;" horiz-adv-x="1216" 
d="M403 1384h490q34 0 54 -16.5t20 -46.5q0 -31 -19.5 -49.5t-54.5 -18.5h-490q-35 0 -54 18.5t-19 49.5q0 30 19 46.5t54 16.5zM610 1083q99 0 175 -19t134 -60.5t88.5 -112.5t30.5 -170v-490q0 -20 5 -32t17.5 -17.5t22.5 -7t31 -2.5q66 -8 66 -78q0 -44 -37 -74
q-41 -28 -133 -28q-64 0 -114 34.5t-50 94.5v51q-41 -84 -135.5 -137t-235.5 -53q-166 0 -270.5 84t-104.5 241q0 92 37 160t104 107t151.5 58t187.5 19q66 0 251 -18v78q0 117 -68 165t-192 48q-36 0 -73.5 -4t-62 -8t-67 -12.5t-63.5 -12.5q-51 -9 -78.5 12t-29.5 59
q-3 65 73 84q166 41 340 41zM600 518q-127 0 -205 -46.5t-78 -147.5q0 -92 60.5 -139.5t150.5 -47.5q125 0 214 75.5t89 186.5v99q-100 20 -231 20z" />
    <glyph glyph-name="Abreve" unicode="&#x102;" horiz-adv-x="1396" 
d="M698 1446q141 0 189 -131l430 -1165q25 -71 -6.5 -113.5t-91.5 -42.5q-75 0 -107 96l-108 287h-609l-108 -287q-19 -51 -45 -73.5t-66 -22.5q-59 0 -90 42t-6 111l432 1168q45 131 186 131zM702 1237h-6l-243 -686h493zM911 1802q28 -3 42 -25t3 -59q-25 -78 -89.5 -123
t-168.5 -45q-103 0 -167.5 45.5t-88.5 122.5q-11 37 2.5 59t42.5 25q42 5 62 -41q22 -46 56.5 -69t92.5 -23q60 0 95 23t57 69q20 46 61 41z" />
    <glyph glyph-name="abreve" unicode="&#x103;" horiz-adv-x="1216" 
d="M860 1468q28 -3 42 -25t3 -59q-24 -77 -89 -122t-169 -45q-103 0 -167.5 45t-88.5 122q-11 37 2.5 59t42.5 25q42 5 62 -41q22 -46 56.5 -69t92.5 -23q60 0 95 23t57 69q20 46 61 41zM610 1083q99 0 175 -19t134 -60.5t88.5 -112.5t30.5 -170v-490q0 -20 5 -32
t17.5 -17.5t22.5 -7t31 -2.5q66 -8 66 -78q0 -44 -37 -74q-41 -28 -133 -28q-64 0 -114 34.5t-50 94.5v51q-41 -84 -135.5 -137t-235.5 -53q-166 0 -270.5 84t-104.5 241q0 92 37 160t104 107t151.5 58t187.5 19q66 0 251 -18v78q0 117 -68 165t-192 48q-36 0 -73.5 -4
t-62 -8t-67 -12.5t-63.5 -12.5q-51 -9 -78.5 12t-29.5 59q-3 65 73 84q166 41 340 41zM600 518q-127 0 -205 -46.5t-78 -147.5q0 -92 60.5 -139.5t150.5 -47.5q125 0 214 75.5t89 186.5v99q-100 20 -231 20z" />
    <glyph glyph-name="Aogonek" unicode="&#x104;" horiz-adv-x="1439" 
d="M713 1446q140 0 188 -131l430 -1165q19 -62 1.5 -100.5t-60.5 -49.5q-72 -72 -72 -168q0 -44 23 -66t61 -20q27 0 43 -2q29 -4 37 -33q12 -44 -43 -61q-37 -12 -76 -12q-79 0 -132.5 47.5t-53.5 126.5q0 121 104 211q-23 23 -37 67l-108 287h-608l-109 -287
q-19 -51 -45 -73.5t-66 -22.5q-59 0 -90 42t-6 111l432 1168q45 131 187 131zM717 1237h-6l-244 -686h494z" />
    <glyph glyph-name="aogonek" unicode="&#x105;" horiz-adv-x="1187" 
d="M612 1083q99 0 175 -19t134 -60.5t88.5 -112.5t30.5 -170v-490q0 -20 5 -32t17.5 -17.5t22.5 -7t31 -2.5q66 -8 66 -78q0 -44 -37 -74q-28 -17 -74 -24q-104 -70 -104 -166q0 -55 29 -71.5t75 -12.5q51 6 62 -35q9 -44 -43 -61q-38 -12 -76 -12q-81 0 -134 45.5
t-53 128.5q0 108 107 194q-39 14 -62.5 44t-23.5 71v51q-41 -84 -135.5 -137t-235.5 -53q-166 0 -270.5 84t-104.5 241q0 92 37 160t104 107t151.5 58t187.5 19q68 0 252 -18v78q0 117 -68 165t-193 48q-36 0 -73.5 -4t-62 -8t-67 -12.5t-63.5 -12.5q-51 -9 -78.5 12
t-29.5 59q-3 65 73 84q166 41 340 41zM602 518q-127 0 -205 -46.5t-78 -147.5q0 -92 60.5 -139.5t150.5 -47.5q125 0 214.5 75.5t89.5 186.5v99q-100 20 -232 20z" />
    <glyph glyph-name="Cacute" unicode="&#x106;" horiz-adv-x="1409" 
d="M887 1270q-243 0 -391 -155t-148 -396q0 -244 149.5 -399.5t395.5 -155.5q76 0 133.5 14.5t97 29t70.5 15.5q43 1 67.5 -23t26.5 -59q3 -70 -82 -106q-137 -58 -317 -58q-227 0 -403 89t-275.5 258.5t-99.5 394.5q0 224 100 392.5t276.5 256.5t403.5 88q178 -3 309 -57
q45 -19 64 -43t18 -62q-2 -35 -26.5 -60t-67.5 -24q-32 1 -73.5 15.5t-99 29t-128.5 15.5zM963 1855q32 -2 53.5 -23t21.5 -56q0 -29 -41 -70l-139 -135q-29 -29 -63 -29q-22 0 -38 15t-16 36q0 22 21 52l110 157q39 56 91 53z" />
    <glyph glyph-name="cacute" unicode="&#x107;" horiz-adv-x="1083" 
d="M670 1083q150 0 250 -43q59 -24 59 -75q0 -37 -25 -61t-71 -17q-18 3 -50.5 10.5t-65 12.5t-69.5 5q-98 0 -174 -33.5t-120 -89.5t-66.5 -122t-22.5 -138t22.5 -138t67 -121t120.5 -88t173 -33q50 0 114 15.5t85 16.5q40 1 61.5 -19t24.5 -52q6 -57 -55 -86
q-86 -45 -254 -45q-257 0 -416.5 152t-159.5 396q0 246 159 399.5t413 153.5zM725 1530q34 0 60 -22t26 -56q0 -26 -23 -61l-112 -166q-27 -39 -60 -39q-35 0 -53 25.5t0 68.5l80 180q30 70 82 70z" />
    <glyph glyph-name="Ccircumflex" unicode="&#x108;" horiz-adv-x="1409" 
d="M887 1270q-243 0 -391 -155t-148 -396q0 -244 149.5 -399.5t395.5 -155.5q76 0 133.5 14.5t97 29t70.5 15.5q43 1 67.5 -23t26.5 -59q3 -70 -82 -106q-137 -58 -317 -58q-227 0 -403 89t-275.5 258.5t-99.5 394.5q0 224 100 392.5t276.5 256.5t403.5 88q178 -3 309 -57
q45 -19 64 -43t18 -62q-2 -35 -26.5 -60t-67.5 -24q-32 1 -73.5 15.5t-99 29t-128.5 15.5zM854 1786q43 0 88 -31l166 -121q22 -16 22 -47q0 -25 -16.5 -38t-38.5 -13q-18 0 -61 25l-160 94l-160 -94q-43 -25 -61 -25q-23 0 -39 14t-16 39q0 28 22 45l166 121q45 31 88 31z
" />
    <glyph glyph-name="ccircumflex" unicode="&#x109;" horiz-adv-x="1083" 
d="M670 1466q53 0 88 -32l166 -150q22 -22 22 -49q0 -23 -14.5 -36t-38.5 -13q-31 0 -64 26l-159 119l-158 -119q-33 -26 -59 -26q-23 0 -40.5 14t-17.5 37q0 24 23 47l164 150q35 32 88 32zM684 1083q150 0 250 -43q59 -24 59 -75q0 -37 -25 -61t-71 -17l-67 14
q-67 14 -117 14q-98 0 -174 -33.5t-120 -89.5t-66.5 -122t-22.5 -138t22.5 -138t67 -121t120.5 -88t173 -33q50 0 113.5 15.5t84.5 16.5q40 1 61.5 -19t24.5 -52q6 -57 -55 -86q-86 -45 -254 -45q-257 0 -416 152t-159 396q0 246 158.5 399.5t412.5 153.5z" />
    <glyph glyph-name="Cdotaccent" unicode="&#x10a;" horiz-adv-x="1409" 
d="M860 1808q57 0 90 -28.5t33 -81.5v-31q0 -53 -34 -80.5t-89 -27.5q-54 0 -86.5 27.5t-32.5 80.5v31q0 52 33 81t86 29zM901 1270q-243 0 -391 -155t-148 -396q0 -244 149.5 -399.5t395.5 -155.5q76 0 133.5 14.5t97 29t70.5 15.5q43 1 68 -23t27 -59q3 -70 -82 -106
q-137 -58 -318 -58q-227 0 -403 89t-275.5 258.5t-99.5 394.5q0 224 100 392.5t276.5 256.5t403.5 88q178 -3 309 -57q45 -19 64 -43t18 -62q-2 -35 -26.5 -60t-67.5 -24q-32 1 -73.5 15.5t-99 29t-128.5 15.5z" />
    <glyph glyph-name="cdotaccent" unicode="&#x10b;" horiz-adv-x="1083" 
d="M659 1470q57 0 90 -28.5t33 -81.5v-31q0 -53 -34 -80.5t-89 -27.5q-53 0 -85.5 27.5t-32.5 80.5v31q0 52 32.5 81t85.5 29zM684 1083q150 0 250 -43q59 -24 59 -75q0 -37 -25 -61t-71 -17l-67 14q-67 14 -117 14q-98 0 -174 -33.5t-120 -89.5t-66.5 -122t-22.5 -138
t22.5 -138t67 -121t120.5 -88t173 -33q50 0 113.5 15.5t84.5 16.5q40 1 61.5 -19t24.5 -52q6 -57 -55 -86q-86 -45 -254 -45q-257 0 -416 152t-159 396q0 246 158.5 399.5t412.5 153.5z" />
    <glyph glyph-name="Ccaron" unicode="&#x10c;" horiz-adv-x="1409" 
d="M887 1270q-243 0 -391 -155t-148 -396q0 -244 149.5 -399.5t395.5 -155.5q76 0 133.5 14.5t97 29t70.5 15.5q43 1 67.5 -23t26.5 -59q3 -70 -82 -106q-137 -58 -317 -58q-227 0 -403 89t-275.5 258.5t-99.5 394.5q0 224 100 392.5t276.5 256.5t403.5 88q178 -3 309 -57
q45 -19 64 -43t18 -62q-2 -35 -26.5 -60t-67.5 -24q-32 1 -73.5 15.5t-99 29t-128.5 15.5zM1075 1776q22 0 38.5 -14t16.5 -38q0 -32 -22 -49l-166 -119q-44 -30 -88 -30t-88 30l-166 119q-22 17 -22 49q0 24 16.5 38t38.5 14q18 0 61 -25l160 -94l160 94q43 25 61 25z" />
    <glyph glyph-name="ccaron" unicode="&#x10d;" horiz-adv-x="1083" 
d="M883 1479q24 0 39.5 -12.5t15.5 -34.5q0 -29 -23 -52l-163 -151q-33 -33 -86 -33q-55 0 -88 33l-162 151q-23 26 -23 47q0 24 16.5 38t39.5 14q22 0 61 -27l156 -119l153 119q39 27 64 27zM684 1083q150 0 250 -43q59 -24 59 -75q0 -37 -25 -61t-71 -17l-67 14
q-67 14 -117 14q-98 0 -174 -33.5t-120 -89.5t-66.5 -122t-22.5 -138t22.5 -138t67 -121t120.5 -88t173 -33q50 0 113.5 15.5t84.5 16.5q40 1 61.5 -19t24.5 -52q6 -57 -55 -86q-86 -45 -254 -45q-257 0 -416 152t-159 396q0 246 158.5 399.5t412.5 153.5z" />
    <glyph glyph-name="Dcaron" unicode="&#x10e;" horiz-adv-x="1488" 
d="M309 1434h402q179 0 342 -91q165 -96 243 -259.5t80 -366.5q0 -201 -80 -367t-243 -260q-76 -44 -168.5 -67t-173.5 -23h-402q-51 0 -78.5 27.5t-27.5 78.5v1221q0 50 27.5 78.5t78.5 28.5zM662 1249h-236v-1067h236q167 0 292 90q185 127 185 445q0 333 -203 457
q-123 75 -274 75zM907 1780q22 0 39 -14t17 -37q0 -32 -23 -50l-166 -118q-45 -31 -88 -31t-88 31l-166 118q-22 17 -22 50q0 23 16.5 37t38.5 14q18 0 61 -25l160 -94l160 94q43 25 61 25z" />
    <glyph glyph-name="dcaron" unicode="&#x10f;" horiz-adv-x="1501" 
d="M1483 1505q37 0 55.5 -25t11.5 -71q-18 -136 -86 -246q-34 -49 -78 -24q-20 8 -23.5 29t5.5 51q31 122 35 198q5 47 23 67.5t57 20.5zM1094 1505q49 0 77.5 -29t28.5 -87v-1295q0 -47 -25.5 -73.5t-68.5 -26.5q-42 0 -68.5 23.5t-29.5 64.5l-9 115q-55 -105 -156 -160
t-222 -55q-97 0 -179.5 29t-141.5 79.5t-101 120t-62 150t-20 169.5q0 150 56.5 274t171.5 201.5t269 77.5q124 0 221.5 -53.5t151.5 -144.5v504q0 58 29.5 87t77.5 29zM664 913q-143 0 -233.5 -108.5t-90.5 -274.5q0 -164 90 -271t234 -107q141 0 232 108.5t91 269.5
q0 165 -91.5 274t-231.5 109z" />
    <glyph glyph-name="Dcroat" unicode="&#x110;" horiz-adv-x="1492" 
d="M311 1434h404q171 0 334 -91q112 -65 185 -166t104 -214.5t32 -245.5q0 -202 -79 -367.5t-242 -259.5q-156 -90 -334 -90h-404q-50 0 -78 27.5t-28 78.5v564h-119q-30 0 -46.5 14.5t-16.5 38.5t16.5 38.5t46.5 14.5h119v551q0 50 28.5 78.5t77.5 28.5zM664 1249h-236
v-473h234q30 0 46.5 -14.5t16.5 -38.5t-16.5 -38.5t-46.5 -14.5h-234v-488h236q167 0 292 90q187 128 187 445q0 334 -205 457q-120 75 -274 75z" />
    <glyph glyph-name="dcroat" unicode="&#x111;" horiz-adv-x="1366" 
d="M1094 1505q49 0 77.5 -29t28.5 -87v-80h86q47 0 47 -39q0 -19 -12.5 -30t-34.5 -11h-86v-1135q0 -47 -25.5 -73.5t-68.5 -26.5q-42 0 -68.5 23.5t-29.5 64.5l-9 115q-55 -105 -156 -160t-222 -55q-97 0 -179.5 29t-141.5 79.5t-101 120t-62 150t-20 169.5q0 150 56.5 274
t171.5 201.5t269 77.5q124 0 221.5 -53.5t151.5 -144.5v344h-252q-47 0 -47 39q0 41 47 41h252v80q0 58 29.5 87t77.5 29zM664 913q-143 0 -233.5 -108.5t-90.5 -274.5q0 -164 90 -271t234 -107q141 0 232 108.5t91 269.5q0 165 -91.5 274t-231.5 109z" />
    <glyph glyph-name="Emacron" unicode="&#x112;" horiz-adv-x="1343" 
d="M485 1716h490q34 0 54 -16.5t20 -46.5q0 -31 -19.5 -49.5t-54.5 -18.5h-490q-35 0 -54 18.5t-19 49.5q0 30 19 46.5t54 16.5zM324 1434h802q48 0 74.5 -26t26.5 -65t-27 -66.5t-74 -27.5h-686v-461h576q48 0 75 -25t27 -65q0 -38 -27 -64t-75 -26h-576v-424h709
q48 0 75 -26.5t27 -65.5q0 -40 -27 -66t-75 -26h-825q-51 0 -79 27.5t-28 78.5v1221q0 50 28 78.5t79 28.5z" />
    <glyph glyph-name="emacron" unicode="&#x113;" horiz-adv-x="1220" 
d="M418 1384h489q34 0 54 -16.5t20 -46.5q0 -31 -19.5 -49.5t-54.5 -18.5h-489q-35 0 -54.5 18.5t-19.5 49.5q0 29 19.5 46t54.5 17zM657 1083q95 0 173 -23.5t130 -65.5t90 -94t58.5 -114t29.5 -119.5t9 -117.5q-1 -41 -26 -63.5t-68 -22.5h-715q3 -148 104.5 -232
t266.5 -84q80 0 135 11.5t92 26.5t53 18q41 7 65 -12.5t29 -57.5q6 -55 -61 -88q-132 -63 -330 -63q-269 0 -423 148t-154 398q0 243 148.5 399t393.5 156zM664 922q-136 0 -224.5 -85.5t-101.5 -232.5h610q0 43 -7.5 84.5t-28 84.5t-51 75.5t-81.5 53t-116 20.5z" />
    <glyph glyph-name="Ebreve" unicode="&#x114;" horiz-adv-x="1343" 
d="M309 1434h803q47 0 73.5 -26t26.5 -65t-26.5 -66.5t-73.5 -27.5h-686v-461h575q48 0 75.5 -25.5t27.5 -64.5q0 -38 -27.5 -64t-75.5 -26h-575v-424h709q48 0 75 -26.5t27 -65.5q0 -40 -27 -66t-75 -26h-826q-51 0 -78.5 27.5t-27.5 78.5v1221q0 50 27.5 78.5t78.5 28.5z
M932 1802q28 -3 42 -25t3 -59q-25 -78 -89.5 -123t-168.5 -45q-103 0 -167.5 45.5t-88.5 122.5q-11 37 2.5 59t42.5 25q41 5 61 -41q22 -46 56.5 -69t93.5 -23q60 0 94.5 23t56.5 69q20 46 62 41z" />
    <glyph glyph-name="ebreve" unicode="&#x115;" horiz-adv-x="1220" 
d="M874 1468q28 -3 42.5 -25t3.5 -59q-24 -77 -89 -122t-169 -45q-103 0 -167.5 45t-88.5 122q-11 37 2.5 59t42.5 25q41 5 61 -41q22 -46 56.5 -69t93.5 -23q60 0 94.5 23t56.5 69q20 46 61 41zM657 1083q95 0 173 -23.5t130 -65.5t90 -94t58.5 -114t29.5 -119.5t9 -117.5
q-1 -41 -26 -63.5t-68 -22.5h-715q3 -148 104.5 -232t266.5 -84q80 0 135 11.5t92 26.5t53 18q41 7 65 -12.5t29 -57.5q6 -55 -61 -88q-132 -63 -330 -63q-269 0 -423 148t-154 398q0 243 148.5 399t393.5 156zM664 922q-136 0 -224.5 -85.5t-101.5 -232.5h610
q0 43 -7.5 84.5t-28 84.5t-51 75.5t-81.5 53t-116 20.5z" />
    <glyph glyph-name="Edotaccent" unicode="&#x116;" horiz-adv-x="1343" 
d="M727 1808q57 0 90 -28.5t33 -81.5v-31q0 -53 -34 -80.5t-89 -27.5q-54 0 -86.5 27.5t-32.5 80.5v31q0 52 33 81t86 29zM324 1434h802q48 0 74.5 -26t26.5 -65t-27 -66.5t-74 -27.5h-686v-461h576q48 0 75 -25t27 -65q0 -38 -27 -64t-75 -26h-576v-424h709q48 0 75 -26.5
t27 -65.5q0 -40 -27 -66t-75 -26h-825q-51 0 -79 27.5t-28 78.5v1221q0 50 28 78.5t79 28.5z" />
    <glyph glyph-name="edotaccent" unicode="&#x117;" horiz-adv-x="1220" 
d="M655 1475q57 0 90 -29t33 -82v-31q0 -53 -34 -80.5t-89 -27.5q-53 0 -85.5 27.5t-32.5 80.5v31q0 53 32.5 82t85.5 29zM657 1083q95 0 173 -23.5t130 -65.5t90 -94t58.5 -114t29.5 -119.5t9 -117.5q-1 -41 -26 -63.5t-68 -22.5h-715q3 -148 104.5 -232t266.5 -84
q80 0 135 11.5t92 26.5t53 18q41 7 65 -12.5t29 -57.5q6 -55 -61 -88q-132 -63 -330 -63q-269 0 -423 148t-154 398q0 243 148.5 399t393.5 156zM664 922q-136 0 -224.5 -85.5t-101.5 -232.5h610q0 43 -7.5 84.5t-28 84.5t-51 75.5t-81.5 53t-116 20.5z" />
    <glyph glyph-name="Eogonek" unicode="&#x118;" horiz-adv-x="1337" 
d="M324 1434h802q48 0 74.5 -26t26.5 -65t-27 -66.5t-74 -27.5h-686v-461h576q48 0 75 -25t27 -65q0 -38 -27 -64t-75 -26h-576v-424h709q48 0 75 -26.5t27 -65.5q0 -36 -24 -62t-64 -30q-57 -33 -85.5 -77.5t-28.5 -92.5q0 -97 104 -84q27 3 41 -4.5t20 -30.5
q9 -42 -45 -61q-35 -12 -75 -12q-79 0 -132 46t-53 128q0 106 99 188h-684q-51 0 -79 27.5t-28 78.5v1221q0 50 28 78.5t79 28.5z" />
    <glyph glyph-name="eogonek" unicode="&#x119;" horiz-adv-x="1220" 
d="M657 1083q95 0 173 -23.5t130 -65.5t90 -94t58.5 -114t29.5 -119.5t9 -117.5q-1 -41 -26 -63.5t-68 -22.5h-715q3 -148 104.5 -232t266.5 -84q80 0 135 11.5t92 26.5t53 18q41 7 65 -12.5t29 -57.5q6 -55 -61 -88q-51 -25 -96 -35q-63 -38 -94 -85t-31 -93
q0 -43 22.5 -64.5t59.5 -21.5h22q53 4 60 -35q9 -45 -43 -61q-38 -12 -76 -12q-79 0 -133 47.5t-54 126.5q0 93 82 172q-16 -2 -49 -2q-269 0 -423 148t-154 398q0 243 148.5 399t393.5 156zM664 922q-136 0 -224.5 -85.5t-101.5 -232.5h610q0 43 -7.5 84.5t-28 84.5
t-51 75.5t-81.5 53t-116 20.5z" />
    <glyph glyph-name="Ecaron" unicode="&#x11a;" horiz-adv-x="1343" 
d="M309 1434h803q47 0 73.5 -26t26.5 -65t-26.5 -66.5t-73.5 -27.5h-686v-461h575q48 0 75.5 -25.5t27.5 -64.5q0 -38 -27.5 -64t-75.5 -26h-575v-424h709q48 0 75 -26.5t27 -65.5q0 -40 -27 -66t-75 -26h-826q-51 0 -78.5 27.5t-27.5 78.5v1221q0 50 27.5 78.5t78.5 28.5z
M940 1776q22 0 38.5 -14t16.5 -38q0 -32 -22 -49l-166 -119q-43 -30 -88 -30t-88 30l-166 119q-23 18 -23 49q0 23 17 37.5t39 14.5q18 0 61 -25l160 -94l160 94q43 25 61 25z" />
    <glyph glyph-name="ecaron" unicode="&#x11b;" horiz-adv-x="1220" 
d="M881 1479q24 0 39.5 -12.5t15.5 -34.5q0 -29 -23 -52l-163 -151q-33 -33 -86 -33q-56 0 -89 33l-161 151q-23 26 -23 47q0 24 16 38t39 14t62 -27l156 -119l153 119q39 27 64 27zM657 1083q95 0 173 -23.5t130 -65.5t90 -94t58.5 -114t29.5 -119.5t9 -117.5
q-1 -41 -26 -63.5t-68 -22.5h-715q3 -148 104.5 -232t266.5 -84q80 0 135 11.5t92 26.5t53 18q41 7 65 -12.5t29 -57.5q6 -55 -61 -88q-132 -63 -330 -63q-269 0 -423 148t-154 398q0 243 148.5 399t393.5 156zM664 922q-136 0 -224.5 -85.5t-101.5 -232.5h610
q0 43 -7.5 84.5t-28 84.5t-51 75.5t-81.5 53t-116 20.5z" />
    <glyph glyph-name="Gcircumflex" unicode="&#x11c;" horiz-adv-x="1554" 
d="M893 1456q187 0 362 -74q81 -35 72 -102q-3 -36 -28 -60t-68 -20q-29 3 -79.5 21t-117.5 33.5t-147 15.5q-119 0 -220.5 -44t-170 -119t-107.5 -176.5t-39 -215.5q0 -154 61.5 -278t184.5 -198.5t289 -74.5q201 0 352 119v301h-307q-42 0 -66 23t-24 59q0 38 24 61t66 23
h389q51 0 79.5 -28t28.5 -79v-367q0 -75 -53 -114q-217 -185 -489 -185q-228 0 -403.5 93t-272 261.5t-96.5 385.5q0 162 58.5 300t161.5 234t247.5 150.5t312.5 54.5zM860 1786q43 0 88 -31l166 -121q23 -17 23 -47q0 -25 -17 -38t-39 -13q-18 0 -61 25l-160 94l-160 -94
q-43 -25 -61 -25q-23 0 -39 14t-16 39q0 28 22 45l166 121q45 31 88 31z" />
    <glyph glyph-name="gcircumflex" unicode="&#x11d;" horiz-adv-x="1155" 
d="M590 1466q53 0 88 -32l166 -150q22 -22 22 -49q0 -23 -14.5 -36t-38.5 -13q-31 0 -63 26l-160 119l-158 -119q-33 -26 -59 -26q-23 0 -40.5 14t-17.5 37q0 24 23 47l164 150q35 32 88 32zM584 1083q70 0 141 -18h285q41 0 65.5 -19.5t24.5 -56.5q0 -34 -18.5 -57
t-53.5 -27l-92 -12q76 -63 76 -191q0 -151 -110.5 -244t-305.5 -93q-127 0 -201 38q-57 -36 -57 -88q0 -24 12 -42t41 -28.5t54.5 -17t74.5 -9t78 -3t88 -0.5h19q190 0 276 -71t86 -187q0 -77 -32 -135.5t-78.5 -91t-111.5 -52.5t-119.5 -26t-113.5 -6q-47 0 -87.5 2t-92 9
t-93 19t-83.5 33.5t-70 50.5t-45.5 72.5t-17.5 97.5q0 63 36.5 116.5t104.5 88.5q-112 47 -112 168q0 52 32.5 98.5t79.5 73.5q-48 39 -77 106t-29 140q0 174 116.5 268t309.5 94zM397 80q-80 -54 -80 -127q0 -39 18 -67.5t45 -44t67.5 -24.5t75.5 -11.5t79 -2.5
q268 0 268 146q0 62 -44 88t-138 26q-224 0 -291 17zM592 930q-109 0 -168 -55t-59 -156q0 -98 56.5 -153.5t164.5 -55.5t163.5 55t55.5 154q0 101 -56.5 156t-156.5 55z" />
    <glyph glyph-name="Gbreve" unicode="&#x11e;" horiz-adv-x="1554" 
d="M893 1456q187 0 362 -74q81 -35 72 -102q-3 -36 -28 -60t-68 -20q-29 3 -79.5 21t-117.5 33.5t-147 15.5q-119 0 -220.5 -44t-170 -119t-107.5 -176.5t-39 -215.5q0 -154 61.5 -278t184.5 -198.5t289 -74.5q201 0 352 119v301h-307q-42 0 -66 23t-24 59q0 38 24 61t66 23
h389q51 0 79.5 -28t28.5 -79v-367q0 -75 -53 -114q-217 -185 -489 -185q-228 0 -403.5 93t-272 261.5t-96.5 385.5q0 162 58.5 300t161.5 234t247.5 150.5t312.5 54.5zM1073 1802q28 -3 42 -25t3 -59q-25 -78 -89.5 -123t-168.5 -45q-103 0 -167.5 45.5t-88.5 122.5
q-11 37 2.5 59t42.5 25q42 5 62 -41q22 -46 56.5 -69t92.5 -23q60 0 95 23t57 69q20 46 61 41z" />
    <glyph glyph-name="gbreve" unicode="&#x11f;" horiz-adv-x="1155" 
d="M811 1468q28 -3 42 -25t3 -59q-24 -77 -89 -122t-169 -45q-103 0 -167.5 45t-88.5 122q-11 37 2.5 59t42.5 25q42 5 62 -41q22 -46 56.5 -69t92.5 -23q60 0 95 23t57 69q20 46 61 41zM584 1083q70 0 141 -18h285q41 0 65.5 -19.5t24.5 -56.5q0 -34 -18.5 -57t-53.5 -27
l-92 -12q76 -63 76 -191q0 -151 -110.5 -244t-305.5 -93q-127 0 -201 38q-57 -36 -57 -88q0 -24 12 -42t41 -28.5t54.5 -17t74.5 -9t78 -3t88 -0.5h19q190 0 276 -71t86 -187q0 -77 -32 -135.5t-78.5 -91t-111.5 -52.5t-119.5 -26t-113.5 -6q-47 0 -87.5 2t-92 9t-93 19
t-83.5 33.5t-70 50.5t-45.5 72.5t-17.5 97.5q0 63 36.5 116.5t104.5 88.5q-112 47 -112 168q0 52 32.5 98.5t79.5 73.5q-48 39 -77 106t-29 140q0 174 116.5 268t309.5 94zM397 80q-80 -54 -80 -127q0 -39 18 -67.5t45 -44t67.5 -24.5t75.5 -11.5t79 -2.5q268 0 268 146
q0 62 -44 88t-138 26q-224 0 -291 17zM592 930q-109 0 -168 -55t-59 -156q0 -98 56.5 -153.5t164.5 -55.5t163.5 55t55.5 154q0 101 -56.5 156t-156.5 55z" />
    <glyph glyph-name="Gdotaccent" unicode="&#x120;" horiz-adv-x="1554" 
d="M868 1808q57 0 90 -28.5t33 -81.5v-31q0 -53 -34 -80.5t-89 -27.5q-53 0 -85.5 27.5t-32.5 80.5v31q0 52 32.5 81t85.5 29zM907 1456q188 0 363 -74q80 -35 71 -102q-3 -36 -28 -60t-68 -20q-29 3 -79.5 21t-117.5 33.5t-147 15.5q-119 0 -220 -44t-170 -119
t-107.5 -176.5t-38.5 -215.5q0 -115 36 -215t102.5 -175t168.5 -118t227 -43q201 0 352 119v301h-307q-42 0 -66 23t-24 59q0 38 24 61t66 23h389q51 0 80 -28t29 -79v-367q0 -75 -53 -114q-217 -185 -490 -185q-228 0 -403.5 93t-272 261.5t-96.5 385.5q0 162 58.5 300
t161.5 234t247.5 150.5t312.5 54.5z" />
    <glyph glyph-name="gdotaccent" unicode="&#x121;" horiz-adv-x="1155" 
d="M602 1470q57 0 90 -28.5t33 -81.5v-31q0 -53 -34 -80.5t-89 -27.5q-54 0 -86.5 27.5t-32.5 80.5v31q0 52 33 81t86 29zM584 1083q70 0 141 -18h285q41 0 65.5 -19.5t24.5 -56.5q0 -34 -18.5 -57t-53.5 -27l-92 -12q76 -63 76 -191q0 -151 -110.5 -244t-305.5 -93
q-127 0 -201 38q-57 -36 -57 -88q0 -24 12 -42t41 -28.5t54.5 -17t74.5 -9t78 -3t88 -0.5h19q190 0 276 -71t86 -187q0 -77 -32 -135.5t-78.5 -91t-111.5 -52.5t-119.5 -26t-113.5 -6q-47 0 -87.5 2t-92 9t-93 19t-83.5 33.5t-70 50.5t-45.5 72.5t-17.5 97.5
q0 63 36.5 116.5t104.5 88.5q-112 47 -112 168q0 52 32.5 98.5t79.5 73.5q-48 39 -77 106t-29 140q0 174 116.5 268t309.5 94zM397 80q-80 -54 -80 -127q0 -39 18 -67.5t45 -44t67.5 -24.5t75.5 -11.5t79 -2.5q268 0 268 146q0 62 -44 88t-138 26q-224 0 -291 17zM592 930
q-109 0 -168 -55t-59 -156q0 -98 56.5 -153.5t164.5 -55.5t163.5 55t55.5 154q0 101 -56.5 156t-156.5 55z" />
    <glyph glyph-name="Gcommaaccent" unicode="&#x122;" horiz-adv-x="1554" 
d="M838 -164q58 0 87 -37t29 -100q0 -65 -32 -121.5t-76 -89.5q-27 -18 -41 -18q-35 0 -35 32q0 8 4.5 16t12 17.5t10.5 15.5q21 37 23.5 60t-8.5 35.5t-25.5 22t-26.5 29.5t-12 50q0 38 27.5 63t62.5 25zM907 1456q188 0 363 -74q80 -35 71 -102q-3 -36 -28 -60t-68 -20
q-29 3 -79.5 21t-117.5 33.5t-147 15.5q-119 0 -220 -44t-170 -119t-107.5 -176.5t-38.5 -215.5q0 -115 36 -215t102.5 -175t168.5 -118t227 -43q201 0 352 119v301h-307q-42 0 -66 23t-24 59q0 38 24 61t66 23h389q51 0 80 -28t29 -79v-367q0 -75 -53 -114
q-217 -185 -490 -185q-228 0 -403.5 93t-272 261.5t-96.5 385.5q0 162 58.5 300t161.5 234t247.5 150.5t312.5 54.5z" />
    <glyph glyph-name="gcommaaccent" unicode="&#x123;" horiz-adv-x="1155" 
d="M614 1243q-58 0 -87 37t-29 100q0 65 32 121.5t76 89.5q28 19 41 19q15 0 25 -8.5t10 -24.5q0 -8 -4.5 -16t-12 -17.5t-10.5 -15.5q-21 -37 -23.5 -60t9 -35.5t25.5 -22t26.5 -29.5t12.5 -50q0 -38 -27.5 -63t-63.5 -25zM584 1083q70 0 141 -18h285q41 0 65.5 -19.5
t24.5 -56.5q0 -34 -18.5 -57t-53.5 -27l-92 -12q76 -63 76 -191q0 -151 -110.5 -244t-305.5 -93q-127 0 -201 38q-57 -36 -57 -88q0 -24 12 -42t41 -28.5t54.5 -17t74.5 -9t78 -3t88 -0.5h19q190 0 276 -71t86 -187q0 -77 -32 -135.5t-78.5 -91t-111.5 -52.5t-119.5 -26
t-113.5 -6q-47 0 -87.5 2t-92 9t-93 19t-83.5 33.5t-70 50.5t-45.5 72.5t-17.5 97.5q0 63 36.5 116.5t104.5 88.5q-112 47 -112 168q0 52 32.5 98.5t79.5 73.5q-48 39 -77 106t-29 140q0 174 116.5 268t309.5 94zM397 80q-80 -54 -80 -127q0 -39 18 -67.5t45 -44t67.5 -24.5
t75.5 -11.5t79 -2.5q268 0 268 146q0 62 -44 88t-138 26q-224 0 -291 17zM592 930q-109 0 -168 -55t-59 -156q0 -98 56.5 -153.5t164.5 -55.5t163.5 55t55.5 154q0 101 -56.5 156t-156.5 55z" />
    <glyph glyph-name="Hcircumflex" unicode="&#x124;" horiz-adv-x="1593" 
d="M1278 1440q51 0 82 -30t31 -85v-1216q0 -54 -31 -84.5t-82 -30.5q-49 0 -80 30t-31 85v507h-741v-507q0 -54 -32 -84.5t-81 -30.5t-79.5 30t-30.5 85v1216q0 55 30.5 85t79.5 30t81 -30t32 -85v-522h741v522q0 55 31 85t80 30zM797 1780q43 0 88 -31l166 -121
q22 -16 22 -47q0 -25 -16.5 -38t-38.5 -13q-21 0 -62 24l-159 95l-160 -95q-41 -24 -62 -24q-23 0 -39 14t-16 39q0 27 23 45l166 121q45 31 88 31z" />
    <glyph glyph-name="hcircumflex" unicode="&#x125;" horiz-adv-x="1263" 
d="M276 1505q48 0 77.5 -30t29.5 -86v-486q19 33 45.5 61.5t67 57t99.5 45t128 16.5q179 0 286 -112.5t107 -347.5v-510q0 -58 -29.5 -88.5t-78.5 -30.5q-48 0 -77.5 30.5t-29.5 88.5v514q0 138 -61 212t-178 74q-92 0 -157 -47.5t-93.5 -118.5t-28.5 -157v-477
q0 -58 -29.5 -88.5t-77.5 -30.5q-49 0 -78.5 30.5t-29.5 88.5v1276q0 57 29.5 86.5t78.5 29.5zM276 1851q46 0 89 -30l165 -121q23 -17 23 -47q0 -25 -16.5 -38t-38.5 -13q-21 0 -62 24l-160 94l-159 -94q-41 -24 -62 -24q-23 0 -39 14t-16 39q0 27 23 45l165 121
q43 30 88 30z" />
    <glyph glyph-name="Hbar" unicode="&#x126;" horiz-adv-x="1570" 
d="M1290 1440q51 0 82 -30t31 -85v-141h31q30 0 46.5 -15t16.5 -39t-16.5 -38.5t-46.5 -14.5h-31v-968q0 -54 -31 -84.5t-82 -30.5q-49 0 -79.5 30t-30.5 85v507h-742v-507q0 -54 -31.5 -84.5t-80.5 -30.5t-80 30t-31 85v968h-68q-31 0 -48 14.5t-17 38.5t17 39t48 15h68
v141q0 55 31 85t80 30t80.5 -30t31.5 -85v-141h742v141q0 55 30.5 85t79.5 30zM438 803h742v274h-742v-274z" />
    <glyph glyph-name="hbar" unicode="&#x127;" horiz-adv-x="1224" 
d="M289 1505q48 0 77 -29.5t29 -86.5v-80h228q23 0 36 -10.5t13 -28.5q0 -19 -13 -30t-36 -11h-228v-326q19 33 45.5 61.5t67 57t99.5 45t128 16.5q179 0 286 -112.5t107 -347.5v-510q0 -58 -29.5 -88.5t-78.5 -30.5q-48 0 -77.5 30.5t-29.5 88.5v514q0 138 -61 212t-178 74
q-92 0 -157 -47.5t-93.5 -118.5t-28.5 -157v-477q0 -58 -29 -88.5t-77 -30.5q-49 0 -79 30.5t-30 88.5v1116h-119q-23 0 -37 11t-14 30q0 17 14 28t37 11h119v80q0 57 30 86.5t79 29.5z" />
    <glyph glyph-name="Itilde" unicode="&#x128;" horiz-adv-x="626" 
d="M592 1718q17 0 34 -12.5t17 -34.5q0 -28 -29 -57q-79 -86 -180 -86q-50 0 -92 20.5t-79.5 41t-76.5 20.5q-40 0 -75 -31q-25 -20 -45 -20q-18 0 -34 12.5t-16 36.5q0 28 29 57q33 38 79.5 62t96.5 24q51 0 127 -42t121 -42t76 31q20 20 47 20zM328 1440q51 0 81.5 -29.5
t30.5 -85.5v-1216q0 -54 -30.5 -84.5t-81.5 -30.5q-50 0 -80.5 30t-30.5 85v1216q0 56 30 85.5t81 29.5z" />
    <glyph glyph-name="itilde" unicode="&#x129;" horiz-adv-x="600" 
d="M578 1376q17 0 34 -12.5t17 -34.5q0 -28 -29 -57q-79 -86 -180 -86q-50 0 -92 20.5t-79.5 41t-76.5 20.5q-41 0 -76 -31q-25 -20 -45 -20q-18 0 -33.5 12.5t-15.5 36.5q0 28 29 57q33 38 79.5 62t96.5 24q51 0 127 -42t121 -42q44 0 75 31q20 20 48 20zM211 1065h135
q51 0 79 -28t28 -79v-854q0 -52 -30 -81t-77 -29q-48 0 -77 28.5t-29 81.5v768l-60 19q-63 18 -63 92q0 38 25 60t69 22z" />
    <glyph glyph-name="Imacron" unicode="&#x12a;" horiz-adv-x="626" 
d="M313 1440q51 0 82 -30t31 -85v-1216q0 -54 -31 -84.5t-82 -30.5q-50 0 -80 30t-30 85v1216q0 56 29.5 85.5t80.5 29.5zM68 1718h489q34 0 54 -16.5t20 -46.5q0 -31 -19.5 -49.5t-54.5 -18.5h-489q-35 0 -54.5 18.5t-19.5 49.5q0 29 19.5 46t54.5 17z" />
    <glyph glyph-name="imacron" unicode="&#x12b;" horiz-adv-x="600" 
d="M66 1376h489q34 0 54 -16.5t20 -46.5q0 -31 -19.5 -49.5t-54.5 -18.5h-489q-35 0 -54.5 18.5t-19.5 49.5q0 29 19.5 46t54.5 17zM211 1065h135q51 0 79 -28t28 -79v-854q0 -52 -30 -81t-77 -29q-48 0 -77 28.5t-29 81.5v768l-60 19q-63 18 -63 92q0 38 25 60t69 22z" />
    <glyph glyph-name="Ibreve" unicode="&#x12c;" horiz-adv-x="626" 
d="M539 1800q28 -3 42 -25t3 -59q-25 -78 -89.5 -123t-168.5 -45q-103 0 -167.5 45.5t-88.5 122.5q-11 37 2.5 59t42.5 25q41 5 61 -41q22 -46 56.5 -69t93.5 -23q60 0 94.5 23t56.5 69q20 46 62 41zM328 1440q51 0 81.5 -29.5t30.5 -85.5v-1216q0 -54 -30.5 -84.5
t-81.5 -30.5q-50 0 -80.5 30t-30.5 85v1216q0 56 30 85.5t81 29.5z" />
    <glyph glyph-name="ibreve" unicode="&#x12d;" horiz-adv-x="600" 
d="M512 1458q28 -3 42 -25t3 -59q-25 -78 -89.5 -123t-168.5 -45q-103 0 -167.5 45.5t-88.5 122.5q-11 37 2.5 59t42.5 25q42 5 62 -41q22 -46 56.5 -69t92.5 -23q60 0 95 23t57 69q20 46 61 41zM211 1065h135q51 0 79 -28t28 -79v-854q0 -52 -30 -81t-77 -29
q-48 0 -77 28.5t-29 81.5v768l-60 19q-63 18 -63 92q0 38 25 60t69 22z" />
    <glyph glyph-name="Iogonek" unicode="&#x12e;" horiz-adv-x="634" 
d="M330 1440q51 0 81.5 -29.5t30.5 -85.5v-1216q0 -42 -19.5 -71t-53.5 -38q-78 -75 -78 -168q0 -44 23.5 -65t62.5 -21q27 0 43 -2q29 -4 37 -33q9 -44 -43 -61q-37 -12 -76 -12q-79 0 -132.5 47.5t-53.5 126.5q0 115 104 206q-37 29 -37 91v1216q0 56 30 85.5t81 29.5z
" />
    <glyph glyph-name="iogonek" unicode="&#x12f;" horiz-adv-x="628" 
d="M205 1065h135q51 0 78.5 -28t27.5 -79v-854q0 -45 -21 -72.5t-56 -33.5q-76 -76 -76 -166q0 -45 23.5 -66.5t62.5 -19.5q25 0 41 -2q32 -4 39 -33q9 -44 -43 -61q-38 -12 -74 -12q-81 0 -134.5 47t-53.5 127q0 121 108 211q-29 29 -29 81v768l-59 19q-63 18 -63 92
q0 38 25 60t69 22zM299 1489q57 0 95 -39.5t38 -93.5q0 -56 -37.5 -94.5t-95.5 -38.5q-56 0 -92.5 38.5t-36.5 94.5q0 54 36 93.5t93 39.5z" />
    <glyph glyph-name="Idotaccent" unicode="&#x130;" horiz-adv-x="626" 
d="M313 1440q51 0 82 -30t31 -85v-1216q0 -54 -31 -84.5t-82 -30.5q-50 0 -80 30t-30 85v1216q0 56 29.5 85.5t80.5 29.5zM311 1808q57 0 90 -28.5t33 -81.5v-31q0 -53 -34 -80.5t-89 -27.5q-53 0 -85.5 27.5t-32.5 80.5v31q0 52 32.5 81t85.5 29z" />
    <glyph glyph-name="dotlessi" unicode="&#x131;" horiz-adv-x="600" 
d="M197 1065h135q51 0 78.5 -28t27.5 -79v-854q0 -52 -29.5 -81t-76.5 -29q-49 0 -78 28.5t-29 81.5v768l-59 19q-64 18 -64 92q0 38 25.5 60t69.5 22z" />
    <glyph glyph-name="IJ" unicode="&#x132;" horiz-adv-x="1314" 
d="M1016 1440q51 0 81.5 -29.5t30.5 -85.5v-848q0 -79 -13.5 -148t-47.5 -135t-86.5 -113t-136 -75.5t-191.5 -28.5q-70 0 -133 11t-125 38t-107 69t-72.5 109.5t-27.5 153.5q0 56 29.5 87.5t85.5 31.5q55 0 82 -33t27 -82q0 -51 21.5 -90.5t57 -61.5t76.5 -33t86 -11
q110 0 181 65t71 205v889q0 56 30 85.5t81 29.5zM299 1440q48 0 78.5 -26t34.5 -77v-610q0 -55 -31 -85t-82 -30t-81 29.5t-30 85.5v610q3 50 33.5 76.5t77.5 26.5z" />
    <glyph glyph-name="ij" unicode="&#x133;" horiz-adv-x="1214" 
d="M186 1065h133q51 0 80 -28t29 -79v-854q0 -53 -29 -81.5t-77 -28.5q-47 0 -77 29t-30 81v768l-57 19q-68 22 -68 92q0 38 26 60t70 22zM309 1462q57 0 90 -27.5t33 -80.5v-33q0 -52 -34 -79.5t-89 -27.5q-52 0 -85.5 27.5t-33.5 79.5v33q0 52 33 80t86 28zM793 1065h137
q50 0 78 -28t28 -79v-985q0 -155 -79 -241t-230 -86q-83 0 -125 24q-49 25 -49 76q0 39 22.5 62.5t57.5 23.5q9 0 30 -3t35 -3q123 0 123 145v901l-57 19q-66 21 -66 92q0 38 25.5 60t69.5 22zM918 1462q57 0 89.5 -27.5t32.5 -80.5v-33q0 -52 -33.5 -79.5t-88.5 -27.5
q-52 0 -85.5 27.5t-33.5 79.5v33q0 52 33 80t86 28z" />
    <glyph glyph-name="Jcircumflex" unicode="&#x134;" horiz-adv-x="1169" 
d="M881 1440q51 0 80.5 -30t29.5 -87v-784q0 -85 -8 -148q-23 -199 -148 -306.5t-325 -107.5q-126 0 -220.5 48.5t-152.5 119.5q-33 36 -33 82q0 33 22.5 58.5t61.5 25.5q45 0 80 -35q112 -112 228 -112q119 0 195.5 79t76.5 226v854q0 56 31 86.5t82 30.5zM879 1780
q43 0 88 -31l166 -121q22 -16 22 -47q0 -25 -16.5 -38t-38.5 -13q-21 0 -62 24l-159 95l-160 -95q-41 -24 -62 -24q-23 0 -39 14t-16 39q0 27 23 45l166 121q45 31 88 31z" />
    <glyph glyph-name="jcircumflex" unicode="&#x135;" horiz-adv-x="616" 
d="M207 1065h137q51 0 79 -28t28 -79v-985q0 -155 -79.5 -241t-230.5 -86q-81 0 -125 24q-47 24 -47 76q0 42 25 64.5t65 17.5q16 -2 54 -2q125 0 125 145v901l-60 19q-63 21 -63 92q0 39 24 60.5t68 21.5zM293 1448q52 0 88 -33l166 -149q22 -22 22 -49q0 -23 -14.5 -36.5
t-38.5 -13.5q-29 0 -63 27l-160 119l-158 -119q-35 -27 -59 -27q-23 0 -40.5 14t-17.5 38t23 47l164 149q36 33 88 33z" />
    <glyph glyph-name="Kcommaaccent" unicode="&#x136;" horiz-adv-x="1388" 
d="M731 -164q58 0 87.5 -37t29.5 -100q0 -65 -32.5 -121t-76.5 -90q-27 -18 -41 -18q-34 0 -34 32q0 8 4 15.5t11.5 17.5t10.5 16q21 37 23.5 60t-8.5 35.5t-25.5 22t-26.5 29.5t-12 50q0 38 27.5 63t62.5 25zM1176 1440q35 0 61 -25.5t26.5 -62t-34.5 -78.5l-363 -395
l412 -707q37 -62 9 -120t-97 -58q-46 0 -72 20.5t-51 63.5l-362 653l-267 -280v-342q0 -54 -29 -84.5t-81 -30.5q-54 0 -82.5 31t-28.5 84v1216q0 53 29 84t82 31t81.5 -31.5t28.5 -83.5v-369l-6 -251l6 -3l633 680q32 34 51.5 46t53.5 12z" />
    <glyph glyph-name="kcommaaccent" unicode="&#x137;" horiz-adv-x="1097" 
d="M598 -164q58 0 87.5 -37t29.5 -100q0 -65 -32.5 -121t-76.5 -90q-27 -18 -41 -18q-35 0 -35 32q0 8 4.5 16t12 17.5t10.5 15.5q21 37 23.5 60t-8.5 35.5t-25.5 22t-26.5 29.5t-12 50q0 38 27.5 63t62.5 25zM289 1505q50 0 79 -30t29 -82v-559l-10 -295l223 245l209 232
q28 31 48.5 43t45.5 12q43 0 72 -28.5t29 -66t-31 -73.5l-274 -291l307 -456q36 -56 11 -109t-85 -53q-40 0 -66.5 18t-52.5 58l-260 405l-166 -172v-194q0 -53 -30 -84t-80 -31q-47 0 -76 31t-29 84v1284q0 52 29.5 82t77.5 30z" />
    <glyph glyph-name="kgreenlandic" unicode="&#x138;" horiz-adv-x="1101" 
d="M274 1071q50 0 79.5 -30.5t29.5 -82.5v-176l-4 -245l190 227l185 213q45 54 71 73t56 19q44 0 72.5 -27t28.5 -68t-34 -77l-266 -285l297 -456q24 -40 20.5 -76t-30.5 -61t-64 -25q-41 0 -67.5 18t-53.5 62l-245 401l-156 -172v-194q0 -53 -30.5 -84t-80.5 -31
q-46 0 -75 31t-29 84v849q0 52 29 82.5t77 30.5z" />
    <glyph glyph-name="Lacute" unicode="&#x139;" horiz-adv-x="1206" 
d="M313 1440q51 0 82 -30t31 -85v-1143h616q50 0 77.5 -25t27.5 -65q0 -39 -28 -65.5t-77 -26.5h-733q-51 0 -78.5 27.5t-27.5 78.5v1219q0 56 29 85.5t81 29.5zM457 1849q32 -2 53.5 -23.5t21.5 -56.5q0 -29 -40 -69l-140 -135q-29 -29 -63 -29q-22 0 -37.5 14.5
t-15.5 36.5t20 51l111 158q39 56 90 53z" />
    <glyph glyph-name="lacute" unicode="&#x13a;" horiz-adv-x="651" 
d="M281 1505q50 0 79 -28.5t29 -81.5v-1164q0 -43 17.5 -60t58.5 -17q6 0 17 1t16 1q28 0 44.5 -20t16.5 -54q0 -47 -45 -72q-49 -28 -127 -28q-103 0 -157 57.5t-54 169.5v1186q0 53 28.5 81.5t76.5 28.5zM369 1933q34 0 60 -22t26 -56q0 -27 -23 -61l-113 -166
q-27 -39 -59 -39q-35 0 -53 25.5t0 68.5l80 181q29 69 82 69z" />
    <glyph glyph-name="Lcommaaccent" unicode="&#x13b;" horiz-adv-x="1206" 
d="M698 -164q58 0 87.5 -37t29.5 -100q0 -65 -32 -121.5t-76 -89.5q-27 -18 -41 -18q-35 0 -35 32q0 8 4 15.5t11.5 17.5t10.5 16q21 37 23.5 60t-8.5 35.5t-25.5 22t-26.5 29.5t-12 50q0 38 27.5 63t62.5 25zM328 1440q51 0 81.5 -29.5t30.5 -85.5v-1143h617q49 0 76.5 -25
t27.5 -65q0 -39 -27.5 -65.5t-76.5 -26.5h-733q-51 0 -79 27.5t-28 78.5v1219q0 56 29.5 85.5t81.5 29.5z" />
    <glyph glyph-name="lcommaaccent" unicode="&#x13c;" horiz-adv-x="651" 
d="M352 -164q58 0 87.5 -37t29.5 -100q0 -65 -32.5 -121t-76.5 -90q-27 -18 -41 -18q-34 0 -34 32q0 8 4 15.5t11.5 17.5t10.5 16q21 37 23.5 60t-8.5 35.5t-25.5 22t-26.5 29.5t-12 50q0 38 27.5 63t62.5 25zM295 1505q50 0 79 -28.5t29 -81.5v-1164q0 -43 17.5 -60
t58.5 -17q6 0 17 1t16 1q28 0 44.5 -20t16.5 -54q0 -47 -45 -72q-49 -28 -127 -28q-103 0 -157 57.5t-54 169.5v1186q0 53 28.5 81.5t76.5 28.5z" />
    <glyph glyph-name="Lcaron" unicode="&#x13d;" horiz-adv-x="1196" 
d="M827 1436q37 0 57 -25.5t13 -71.5q-17 -132 -88 -243q-30 -52 -78 -27q-19 10 -22 30t6 50q29 112 33 199q5 46 23 67t56 21zM328 1440q51 0 81.5 -29.5t30.5 -85.5v-1143h617q49 0 76.5 -25t27.5 -65q0 -39 -27.5 -65.5t-76.5 -26.5h-733q-51 0 -79 27.5t-28 78.5v1219
q0 56 29.5 85.5t81.5 29.5z" />
    <glyph glyph-name="lcaron" unicode="&#x13e;" horiz-adv-x="729" 
d="M686 1505q37 0 57 -25t13 -71q-17 -132 -88 -246q-28 -46 -78 -24q-33 15 -17 80q29 113 33 198q5 46 23.5 67t56.5 21zM295 1505q50 0 79 -28.5t29 -81.5v-1164q0 -43 17.5 -60t58.5 -17q6 0 17 1t16 1q28 0 44.5 -20t16.5 -54q0 -47 -45 -72q-49 -28 -127 -28
q-103 0 -157 57.5t-54 169.5v1186q0 53 28.5 81.5t76.5 28.5z" />
    <glyph glyph-name="Ldot" unicode="&#x13f;" horiz-adv-x="1212" 
d="M313 1440q51 0 82 -30t31 -85v-1143h616q50 0 77.5 -25t27.5 -65q0 -39 -28 -65.5t-77 -26.5h-733q-51 0 -78.5 27.5t-27.5 78.5v1219q0 56 29 85.5t81 29.5zM903 891q65 0 105.5 -40.5t40.5 -113.5q0 -74 -40.5 -114.5t-105.5 -40.5q-61 0 -101 40.5t-40 114.5
q0 72 40 113t101 41z" />
    <glyph glyph-name="ldot" unicode="&#x140;" horiz-adv-x="880" 
d="M281 1505q50 0 79 -28.5t29 -81.5v-1164q0 -44 18 -61.5t58 -15.5q6 0 19.5 1t19.5 1q55 -10 55 -74q0 -47 -45 -72q-49 -28 -127 -28q-103 0 -157 57.5t-54 169.5v1186q0 53 28.5 81.5t76.5 28.5zM713 872q65 0 107 -41.5t42 -115.5q0 -76 -42 -118t-107 -42
q-63 0 -106.5 42.5t-43.5 117.5q0 73 43.5 115t106.5 42z" />
    <glyph glyph-name="Lslash" unicode="&#x141;" horiz-adv-x="1236" 
d="M360 1440q51 0 82 -30t31 -85v-528l199 121q32 14 49 14q23 0 37 -14t14 -35q0 -33 -45 -58l-254 -153v-490h617q49 0 76.5 -25t27.5 -65q0 -39 -27.5 -65.5t-76.5 -26.5h-734q-51 0 -78.5 27.5t-27.5 78.5v431l-107 -64q-22 -14 -47 -14q-23 0 -36 14t-13 35q0 31 41 55
l162 99v663q0 56 29 85.5t81 29.5z" />
    <glyph glyph-name="lslash" unicode="&#x142;" horiz-adv-x="743" 
d="M356 1505q50 0 79.5 -28.5t29.5 -81.5v-609l149 91q24 16 50 16q23 0 37 -15t14 -36q0 -33 -43 -58l-207 -125v-428q0 -43 17.5 -60t58.5 -17q6 0 16.5 1t15.5 1q28 0 45 -20t17 -54q0 -47 -45 -72q-49 -28 -127 -28q-103 0 -157 57.5t-54 169.5v323l-94 -55
q-33 -20 -52 -20q-23 0 -38 14t-15 35q0 33 45 59l154 92v738q0 53 28 81.5t76 28.5z" />
    <glyph glyph-name="Nacute" unicode="&#x143;" horiz-adv-x="1572" 
d="M1260 1440q49 0 79.5 -30t30.5 -85v-1188q0 -68 -37 -105.5t-104 -37.5q-54 0 -86 25.5t-60 70.5l-663 1010h-4l10 -465v-526q0 -56 -31.5 -85.5t-83.5 -29.5q-49 0 -78.5 30t-29.5 85v1191q0 65 35 102.5t100 37.5q38 0 68 -15t44 -31t33 -44l670 -1008h4l-10 467v516
q0 56 30.5 85.5t82.5 29.5zM922 1855q32 -2 53.5 -23t21.5 -56q0 -29 -41 -70l-139 -135q-29 -29 -63 -29q-22 0 -38 15t-16 36q0 22 21 52l110 157q39 56 91 53z" />
    <glyph glyph-name="nacute" unicode="&#x144;" horiz-adv-x="1267" 
d="M723 1083q179 0 286 -112.5t107 -347.5v-519q0 -53 -30 -81.5t-78 -28.5t-77.5 28t-29.5 82v523q0 138 -61 212t-178 74q-92 0 -157 -47.5t-93.5 -118.5t-28.5 -157v-486q0 -54 -29.5 -82t-77.5 -28q-49 0 -78.5 28t-29.5 82v867q0 100 90 100q78 0 90 -88l14 -117
q13 29 31 56.5t49.5 57.5t69 52t93 36.5t118.5 14.5zM752 1530q34 0 60 -22t26 -56q0 -26 -23 -61l-113 -166q-27 -39 -59 -39q-35 0 -53 25.5t0 68.5l80 180q30 70 82 70z" />
    <glyph glyph-name="Ncommaaccent" unicode="&#x145;" horiz-adv-x="1572" 
d="M791 -164q58 0 87 -37t29 -100q0 -65 -32 -121.5t-76 -89.5q-27 -18 -41 -18q-35 0 -35 32q0 8 4.5 16t12 17.5t10.5 15.5q21 37 23.5 60t-9 35.5t-25.5 22t-26.5 29.5t-12.5 50q0 38 27.5 63t63.5 25zM1274 1440q49 0 79.5 -30t30.5 -85v-1188q0 -68 -37 -105.5
t-104 -37.5q-54 0 -85.5 25.5t-59.5 70.5l-664 1010h-4l10 -465v-526q0 -56 -31 -85.5t-83 -29.5q-49 0 -79 30t-30 85v1191q0 65 35 102.5t100 37.5q38 0 68.5 -15t44.5 -31t33 -44l669 -1008h4l-10 467v516q0 56 30.5 85.5t82.5 29.5z" />
    <glyph glyph-name="ncommaaccent" unicode="&#x146;" horiz-adv-x="1273" 
d="M641 -164q58 0 87.5 -37t29.5 -100q0 -65 -32.5 -121t-76.5 -90q-27 -18 -41 -18q-35 0 -35 32q0 8 4.5 16t12 17.5t10.5 15.5q21 37 23.5 60t-8.5 35.5t-25.5 22t-26.5 29.5t-12 50q0 38 27.5 63t62.5 25zM737 1083q179 0 286 -112.5t107 -347.5v-519q0 -53 -30 -81.5
t-78 -28.5t-77.5 28t-29.5 82v523q0 138 -61 212t-178 74q-92 0 -157 -47.5t-93.5 -118.5t-28.5 -157v-486q0 -54 -29 -82t-77 -28q-49 0 -79 28t-30 82v867q0 100 90 100q78 0 90 -88l15 -117q17 38 43 72t68 69t106.5 55.5t142.5 20.5z" />
    <glyph glyph-name="Ncaron" unicode="&#x147;" horiz-adv-x="1533" 
d="M1260 1440q49 0 79.5 -30t30.5 -85v-1188q0 -68 -37 -105.5t-104 -37.5q-54 0 -86 25.5t-60 70.5l-663 1010h-4l10 -465v-526q0 -56 -31.5 -85.5t-83.5 -29.5q-49 0 -78.5 30t-29.5 85v1191q0 65 35 102.5t100 37.5q38 0 68 -15t44 -31t33 -44l670 -1008h4l-10 467v516
q0 56 30.5 85.5t82.5 29.5zM1051 1776q22 0 38.5 -14t16.5 -38q0 -31 -23 -49l-165 -119q-44 -30 -89 -30t-88 30l-166 119q-22 17 -22 49q0 24 16.5 38t38.5 14q19 0 62 -25l159 -94l160 94q43 25 62 25z" />
    <glyph glyph-name="ncaron" unicode="&#x148;" horiz-adv-x="1273" 
d="M866 1479q24 0 40 -12.5t16 -34.5q0 -29 -23 -52l-164 -151q-33 -33 -86 -33q-55 0 -88 33l-162 151q-22 25 -22 47q0 24 16 38t39 14t62 -27l155 -119l154 119q39 27 63 27zM737 1083q179 0 286 -112.5t107 -347.5v-519q0 -53 -30 -81.5t-78 -28.5t-77.5 28t-29.5 82
v523q0 138 -61 212t-178 74q-92 0 -157 -47.5t-93.5 -118.5t-28.5 -157v-486q0 -54 -29 -82t-77 -28q-49 0 -79 28t-30 82v867q0 100 90 100q78 0 90 -88l15 -117q17 38 43 72t68 69t106.5 55.5t142.5 20.5z" />
    <glyph glyph-name="Eng" unicode="&#x14a;" horiz-adv-x="1548" 
d="M1241 1440q51 0 82 -30t31 -85v-1350q0 -120 -65 -193.5t-197 -107.5q-64 -17 -102 8t-38 76q0 53 66 80q49 23 74.5 46.5t29.5 66.5l2 39l-415 661l-289 451h-4l10 -467v-526q0 -56 -30.5 -85.5t-82.5 -29.5q-51 0 -80.5 29.5t-29.5 85.5v1191q0 65 37.5 102.5
t103.5 37.5q54 0 86 -24t59 -66l648 -1004h4l-13 463v516q0 56 30.5 85.5t82.5 29.5z" />
    <glyph glyph-name="eng" unicode="&#x14b;" horiz-adv-x="1255" 
d="M707 1083q85 0 155.5 -26t124.5 -78t84.5 -139t30.5 -201v-686q0 -111 -63 -177.5t-189 -99.5q-61 -16 -94 4t-35 62q-5 50 61 76q51 21 78 47.5t27 75.5v710q0 125 -64 193.5t-172 68.5q-87 0 -150 -45t-91.5 -110t-28.5 -140v-514q0 -52 -30 -81t-77 -29q-48 0 -77 28
t-29 82v867q0 46 24.5 73t69.5 27q38 0 60.5 -22.5t27.5 -63.5l12 -119q3 13 16.5 36.5t42.5 55.5t66.5 59.5t96 46.5t123.5 19z" />
    <glyph glyph-name="Omacron" unicode="&#x14c;" horiz-adv-x="1726" 
d="M862 1456q162 0 301 -54t238.5 -150t156 -234.5t56.5 -300.5q0 -217 -96.5 -386t-267.5 -261.5t-388 -92.5q-215 0 -385.5 92.5t-267 261.5t-96.5 386t96.5 386t267 261t385.5 92zM862 1270q-220 0 -366 -153t-146 -400q0 -248 146 -400.5t368 -152.5t367 152.5
t145 400.5t-145.5 400.5t-368.5 152.5zM616 1718h490q34 0 54 -16.5t20 -46.5q0 -31 -19.5 -49.5t-54.5 -18.5h-490q-35 0 -54 18.5t-19 49.5q0 30 19 46.5t54 16.5z" />
    <glyph glyph-name="omacron" unicode="&#x14d;" horiz-adv-x="1343" 
d="M440 1384h490q34 0 54 -16.5t20 -46.5q0 -31 -19.5 -49.5t-54.5 -18.5h-490q-35 0 -54 18.5t-19 49.5q0 30 19 46.5t54 16.5zM688 1083q159 0 288.5 -66t206.5 -192t77 -290q0 -163 -77 -290.5t-207 -195t-288 -67.5q-162 0 -292.5 67t-206.5 193.5t-76 289.5
q0 164 76 290.5t206.5 193.5t292.5 67zM686 913q-153 0 -251.5 -105t-98.5 -276q0 -170 98.5 -275t251.5 -105q151 0 250.5 105.5t99.5 274.5q0 171 -99 276t-251 105z" />
    <glyph glyph-name="Obreve" unicode="&#x14e;" horiz-adv-x="1726" 
d="M1094 1800q28 -3 42 -25t3 -59q-25 -78 -89.5 -123t-168.5 -45q-103 0 -167.5 45.5t-88.5 122.5q-11 37 2.5 59t42.5 25q41 5 61 -41q22 -46 56.5 -69t93.5 -23q60 0 94.5 23t56.5 69q20 46 62 41zM877 1456q162 0 301 -54t238 -150t155.5 -234.5t56.5 -300.5
q0 -217 -96 -386t-267 -261.5t-388 -92.5q-215 0 -386 92.5t-267.5 261.5t-96.5 386q0 162 56.5 300.5t155.5 234.5t238 150t300 54zM877 1270q-220 0 -366 -153t-146 -400q0 -248 146 -400.5t368 -152.5t367 152.5t145 400.5t-145.5 400.5t-368.5 152.5z" />
    <glyph glyph-name="obreve" unicode="&#x14f;" horiz-adv-x="1343" 
d="M899 1468q28 -3 42 -25t3 -59q-24 -77 -89 -122t-169 -45q-103 0 -167.5 45t-88.5 122q-11 37 2.5 59t42.5 25q42 5 62 -41q22 -46 56.5 -69t92.5 -23q60 0 95 23t57 69q20 46 61 41zM688 1083q159 0 288.5 -66t206.5 -192t77 -290q0 -163 -77 -290.5t-207 -195
t-288 -67.5q-162 0 -292.5 67t-206.5 193.5t-76 289.5q0 164 76 290.5t206.5 193.5t292.5 67zM686 913q-153 0 -251.5 -105t-98.5 -276q0 -170 98.5 -275t251.5 -105q151 0 250.5 105.5t99.5 274.5q0 171 -99 276t-251 105z" />
    <glyph glyph-name="Ohungarumlaut" unicode="&#x150;" horiz-adv-x="1726" 
d="M1096 1864q33 0 59.5 -22t26.5 -56q0 -20 -25 -62l-102 -165q-27 -39 -60 -39q-36 0 -55 26.5t0 69.5l74 178q27 70 82 70zM803 1864q34 0 60 -22t26 -56q0 -24 -25 -66l-100 -161q-22 -39 -62 -39q-35 0 -54.5 27t-0.5 69l74 178q27 70 82 70zM877 1456q162 0 301 -54
t238 -150t155.5 -234.5t56.5 -300.5q0 -217 -96 -386t-267 -261.5t-388 -92.5q-215 0 -386 92.5t-267.5 261.5t-96.5 386q0 162 56.5 300.5t155.5 234.5t238 150t300 54zM877 1270q-220 0 -366 -153t-146 -400q0 -248 146 -400.5t368 -152.5t367 152.5t145 400.5
t-145.5 400.5t-368.5 152.5z" />
    <glyph glyph-name="ohungarumlaut" unicode="&#x151;" horiz-adv-x="1343" 
d="M893 1532q33 0 59.5 -22t26.5 -56q0 -19 -25 -61l-102 -166q-27 -39 -59 -39q-36 0 -55.5 26.5t-0.5 69.5l74 178q27 70 82 70zM600 1532q34 0 60 -22t26 -56q0 -24 -24 -65l-101 -162q-22 -39 -61 -39q-35 0 -55 27t-1 69l74 178q27 70 82 70zM688 1083q159 0 288.5 -66
t206.5 -192t77 -290q0 -163 -77 -290.5t-207 -195t-288 -67.5q-162 0 -292.5 67t-206.5 193.5t-76 289.5q0 164 76 290.5t206.5 193.5t292.5 67zM686 913q-153 0 -251.5 -105t-98.5 -276q0 -170 98.5 -275t251.5 -105q151 0 250.5 105.5t99.5 274.5q0 171 -99 276t-251 105z
" />
    <glyph glyph-name="OE" unicode="&#x152;" horiz-adv-x="2521" 
d="M864 1456q163 0 300 -65t225 -183v131q0 50 28 72.5t70 22.5h801q49 0 75.5 -26t26.5 -65t-26.5 -65.5t-75.5 -26.5h-686v-463h577q48 0 75 -25t27 -65q0 -38 -27 -64t-75 -26h-577v-426h710q48 0 74.5 -25.5t26.5 -64.5q0 -40 -26.5 -66t-74.5 -26h-825q-45 0 -71.5 25
t-26.5 71v127q-89 -117 -225 -181.5t-300 -64.5q-216 0 -386.5 92.5t-266.5 261.5t-96 386t96 385.5t266.5 261t386.5 92.5zM864 1270q-220 0 -366 -153t-146 -400q0 -248 146 -400.5t368 -152.5q106 0 199 38t162.5 107.5t110 175t40.5 232.5q0 128 -40.5 233.5t-110.5 175
t-163.5 107t-199.5 37.5z" />
    <glyph glyph-name="oe" unicode="&#x153;" horiz-adv-x="2269" 
d="M1679 1083q95 0 173 -23.5t130 -65.5t90 -94t58.5 -114t29.5 -119.5t9 -117.5q0 -41 -25 -63.5t-67 -22.5h-715q3 -148 104.5 -232t266.5 -84q124 0 264 46q52 13 80.5 -5t31.5 -57q6 -56 -61 -86q-157 -63 -332 -63q-193 0 -329.5 79t-200.5 220q-68 -138 -205.5 -218.5
t-308.5 -80.5q-161 0 -291 68t-206.5 194.5t-76.5 287.5q0 246 163.5 398.5t410.5 152.5q172 0 310.5 -80.5t207.5 -220.5q62 139 189 220t300 81zM670 913q-151 0 -249.5 -106t-98.5 -275q0 -167 98.5 -273.5t249.5 -106.5q152 0 251 106t99 274q0 169 -98.5 275
t-251.5 106zM1686 922q-135 0 -223 -85.5t-101 -232.5h610q0 43 -7.5 84.5t-28 84.5t-51.5 75.5t-82.5 53t-116.5 20.5z" />
    <glyph glyph-name="Racute" unicode="&#x154;" horiz-adv-x="1427" 
d="M307 1434h592q196 0 318 -121.5t122 -304.5q0 -146 -79.5 -255.5t-217.5 -150.5l228 -440q20 -36 20 -76q0 -47 -32 -69.5t-72 -22.5q-68 0 -109 76l-254 508h-397v-469q0 -54 -31 -84.5t-82 -30.5q-50 0 -80 30t-30 85v1218q0 50 27 78.5t77 28.5zM854 1249h-428v-487
h440q104 0 170 70.5t66 175.5q0 108 -69 174.5t-179 66.5zM827 1855q32 -2 54 -23t22 -56q0 -29 -41 -70l-139 -135q-29 -29 -64 -29q-22 0 -37.5 14.5t-15.5 36.5t21 52l110 157q39 56 90 53z" />
    <glyph glyph-name="racute" unicode="&#x155;" horiz-adv-x="790" 
d="M627 1073q53 0 81.5 -26t28.5 -72q0 -87 -112 -111q-109 -24 -175.5 -100.5t-66.5 -212.5v-447q0 -53 -30 -81.5t-79 -28.5q-48 0 -77 28t-29 82v859q0 53 24.5 80.5t69.5 27.5q37 0 60.5 -22.5t27.5 -63.5l17 -133q13 30 34.5 64t54 71.5t78 61.5t93.5 24zM500 1530
q34 0 60 -22t26 -56q0 -26 -23 -61l-112 -166q-27 -39 -60 -39q-35 0 -53 25.5t0 68.5l80 180q30 70 82 70z" />
    <glyph glyph-name="Rcommaaccent" unicode="&#x156;" horiz-adv-x="1427" 
d="M752 -164q58 0 87 -37t29 -100q0 -65 -32 -121.5t-76 -89.5q-27 -18 -41 -18q-35 0 -35 32q0 8 4.5 16t12 17.5t10.5 15.5q21 37 23.5 60t-8.5 35.5t-25.5 22t-26.5 29.5t-12 50q0 38 27.5 63t62.5 25zM322 1434h591q196 0 318.5 -121.5t122.5 -304.5
q0 -146 -79.5 -255.5t-217.5 -150.5l227 -440q21 -38 21 -76q0 -46 -32.5 -69t-72.5 -23q-67 0 -108 76l-254 508h-398v-469q0 -54 -30.5 -84.5t-81.5 -30.5q-50 0 -80.5 30t-30.5 85v1218q0 50 27.5 78.5t77.5 28.5zM868 1249h-428v-487h441q104 0 169.5 70.5t65.5 175.5
q0 108 -69 174.5t-179 66.5z" />
    <glyph glyph-name="rcommaaccent" unicode="&#x157;" horiz-adv-x="788" 
d="M287 -168q58 0 87 -37t29 -100q0 -65 -32 -121.5t-76 -89.5q-29 -19 -41 -19q-15 0 -25 8.5t-10 24.5q0 8 4.5 16t12 17.5t10.5 15.5q21 37 23.5 60t-8.5 35.5t-25.5 22t-26.5 29.5t-12 50q0 38 27.5 63t62.5 25zM641 1073q53 0 82 -26t29 -72q0 -87 -113 -111
q-109 -24 -175.5 -100.5t-66.5 -212.5v-447q0 -53 -29.5 -81.5t-78.5 -28.5q-48 0 -77.5 28t-29.5 82v859q0 53 24.5 80.5t69.5 27.5q37 0 61 -22.5t28 -63.5l16 -133q13 30 34.5 64t54 71.5t78 61.5t93.5 24z" />
    <glyph glyph-name="Rcaron" unicode="&#x158;" horiz-adv-x="1427" 
d="M307 1434h592q196 0 318 -121.5t122 -304.5q0 -146 -79.5 -255.5t-217.5 -150.5l228 -440q20 -36 20 -76q0 -47 -32 -69.5t-72 -22.5q-68 0 -109 76l-254 508h-397v-469q0 -54 -31 -84.5t-82 -30.5q-50 0 -80 30t-30 85v1218q0 50 27 78.5t77 28.5zM854 1249h-428v-487
h440q104 0 170 70.5t66 175.5q0 108 -69 174.5t-179 66.5zM940 1776q22 0 38.5 -14t16.5 -38q0 -32 -22 -49l-166 -119q-43 -30 -88 -30t-88 30l-166 119q-23 18 -23 49q0 23 17 37.5t39 14.5q18 0 61 -25l160 -94l160 94q43 25 61 25z" />
    <glyph glyph-name="rcaron" unicode="&#x159;" horiz-adv-x="737" 
d="M659 1479q24 0 40 -12.5t16 -34.5q0 -29 -23 -52l-164 -151q-33 -33 -86 -33q-55 0 -88 33l-161 151q-23 26 -23 47q0 24 16 38t39 14t62 -27l155 -119l154 119q39 27 63 27zM641 1073q53 0 82 -26t29 -72q0 -87 -113 -111q-109 -24 -175.5 -100.5t-66.5 -212.5v-447
q0 -53 -29.5 -81.5t-78.5 -28.5q-48 0 -77.5 28t-29.5 82v859q0 53 24.5 80.5t69.5 27.5q37 0 61 -22.5t28 -63.5l16 -133q13 30 34.5 64t54 71.5t78 61.5t93.5 24z" />
    <glyph glyph-name="Sacute" unicode="&#x15a;" horiz-adv-x="1247" 
d="M623 1456q112 0 222.5 -21t174.5 -51q69 -34 63 -98q-6 -50 -41.5 -72t-97.5 -4q-1 0 -63 21t-117.5 31t-120.5 10q-136 -1 -208.5 -54.5t-72.5 -144.5q0 -29 6 -53.5t21.5 -45t30 -36.5t42.5 -31.5t46.5 -25.5t56 -23t57.5 -19.5t62 -19.5q61 -18 99.5 -31t93 -35.5
t88 -43.5t71.5 -54t59.5 -70t35.5 -87.5t14 -110.5q0 -106 -41 -186.5t-114.5 -129t-168.5 -72t-209 -22.5q-117 1 -237 23t-182 51q-77 38 -72 109q5 46 40.5 67.5t86.5 8.5q9 -3 44.5 -16t51 -17.5t50.5 -14.5t61 -14t64 -8t77 -4q159 0 233 56.5t74 154.5q0 26 -6 48.5
t-14 40t-25 34.5t-31 28.5t-40.5 24.5t-44 21t-51 19t-53.5 17t-58 17q-49 15 -76 23.5t-72 25t-71.5 29.5t-63.5 34t-59 42t-47 51t-38.5 62.5t-22.5 74t-9 88.5q0 105 38 183.5t107 126t158.5 70.5t198.5 23zM729 1862q32 -2 54 -23.5t22 -56.5q0 -29 -41 -70l-139 -135
q-29 -29 -64 -29q-22 0 -37.5 14.5t-15.5 36.5q0 23 20 52l111 157q39 57 90 54z" />
    <glyph glyph-name="sacute" unicode="&#x15b;" horiz-adv-x="1011" 
d="M512 1083q167 0 297 -49q66 -25 63 -90q-2 -29 -23.5 -48t-53.5 -19q-19 0 -52 10q-106 39 -213 39q-102 1 -155 -38t-53 -100q0 -28 11.5 -50t32 -38t49 -29.5t61 -24.5t68.5 -22q18 -5 27 -8q44 -13 72.5 -22.5t70 -26t68.5 -33t57 -42t47.5 -53.5t28.5 -66.5t11 -83.5
q-1 -103 -58.5 -174t-150 -102.5t-211.5 -30.5q-226 3 -342 63q-56 27 -53 86q2 31 21 49.5t50 18.5q18 0 56 -11q128 -47 247 -49q115 0 169.5 41t54.5 103q0 17 -4 32t-14.5 28t-20 23t-28.5 20t-32 16.5t-38.5 15.5t-40 13.5t-45 14t-44.5 13.5q-59 18 -98 32.5
t-88.5 41.5t-78 58t-49 80t-19.5 109q1 78 33.5 137.5t89 95t127.5 53t153 17.5zM580 1530q34 0 60 -22t26 -56q0 -26 -23 -61l-113 -166q-27 -39 -59 -39q-35 0 -53 25.5t0 68.5l80 180q30 70 82 70z" />
    <glyph glyph-name="Scircumflex" unicode="&#x15c;" horiz-adv-x="1247" 
d="M623 1456q112 0 222.5 -21t174.5 -51q69 -34 63 -98q-6 -50 -41.5 -72t-97.5 -4q-1 0 -63 21t-117.5 31t-120.5 10q-136 -1 -208.5 -54.5t-72.5 -144.5q0 -29 6 -53.5t21.5 -45t30 -36.5t42.5 -31.5t46.5 -25.5t56 -23t57.5 -19.5t62 -19.5q61 -18 99.5 -31t93 -35.5
t88 -43.5t71.5 -54t59.5 -70t35.5 -87.5t14 -110.5q0 -106 -41 -186.5t-114.5 -129t-168.5 -72t-209 -22.5q-117 1 -237 23t-182 51q-77 38 -72 109q5 46 40.5 67.5t86.5 8.5q9 -3 44.5 -16t51 -17.5t50.5 -14.5t61 -14t64 -8t77 -4q159 0 233 56.5t74 154.5q0 26 -6 48.5
t-14 40t-25 34.5t-31 28.5t-40.5 24.5t-44 21t-51 19t-53.5 17t-58 17q-49 15 -76 23.5t-72 25t-71.5 29.5t-63.5 34t-59 42t-47 51t-38.5 62.5t-22.5 74t-9 88.5q0 105 38 183.5t107 126t158.5 70.5t198.5 23zM621 1792q43 0 88 -31l165 -121q23 -17 23 -47
q0 -25 -16.5 -38t-38.5 -13q-19 0 -62 25l-159 94l-160 -94q-43 -25 -62 -25q-23 0 -39 14t-16 39q0 27 23 45l165 121q45 31 89 31z" />
    <glyph glyph-name="scircumflex" unicode="&#x15d;" horiz-adv-x="1017" 
d="M530 1477q52 0 88 -33l166 -150q23 -23 23 -49q0 -23 -14.5 -36t-38.5 -13q-30 0 -64 27l-160 118l-157 -118q-35 -27 -60 -27q-23 0 -40 13.5t-17 37.5t23 47l163 150q36 33 88 33zM526 1083q167 0 297 -49q67 -26 64 -90q-1 -29 -23.5 -48t-54.5 -19q-18 0 -51 10
q-106 39 -213 39q-102 1 -155.5 -38t-53.5 -100q0 -45 36.5 -78t69.5 -46t117 -39l27 -9q44 -13 72.5 -22.5t70 -26t68 -33t56.5 -42t47.5 -53.5t28.5 -66.5t11 -83.5q-1 -103 -58.5 -174t-150 -102.5t-211.5 -30.5q-226 3 -342 63q-56 27 -53 86q1 31 21 49.5t51 18.5
q17 0 55 -11q128 -47 248 -49q115 0 169 41t54 103q0 17 -4 32t-14.5 28t-19.5 23t-28 20t-32 16.5t-39 15.5t-40 13.5t-44.5 14t-44.5 13.5q-60 18 -98.5 32.5t-88 41.5t-78.5 58t-49.5 80t-19.5 109q1 78 33.5 137.5t89 95t127.5 53t153 17.5z" />
    <glyph glyph-name="Scedilla" unicode="&#x15e;" horiz-adv-x="1247" 
d="M623 1456q112 0 222.5 -21t174.5 -51q69 -34 63 -98q-6 -50 -41.5 -72t-97.5 -4q-1 0 -63 21t-117.5 31t-120.5 10q-136 -1 -208.5 -54.5t-72.5 -144.5q0 -29 6 -53.5t21.5 -45t30 -36.5t42.5 -31.5t46.5 -25.5t56 -23t57.5 -19.5t62 -19.5q61 -18 99.5 -31t93 -35.5
t88 -43.5t71.5 -54t59.5 -70t35.5 -87.5t14 -110.5q0 -101 -37.5 -178.5t-104.5 -125.5t-154 -73.5t-192 -29.5l-30 -97q74 6 125 -31t51 -110q0 -84 -64 -121t-157 -37q-56 0 -93 13q-53 20 -45 53q8 38 58 28q34 -6 71 -6q103 0 103 72q0 63 -80 63q-4 0 -14.5 -1
t-14.5 -1q-33 0 -44.5 21t-0.5 53l37 101q-108 6 -210.5 26t-155.5 45q-77 38 -72 109q5 46 40.5 67.5t86.5 8.5q9 -3 44.5 -16t51 -17.5t50.5 -14.5t61 -14t64 -8t77 -4q159 0 233 56.5t74 154.5q0 26 -6 48.5t-14 40t-25 34.5t-31 28.5t-40.5 24.5t-44 21t-51 19t-53.5 17
t-58 17q-49 15 -76 23.5t-72 25t-71.5 29.5t-63.5 34t-59 42t-47 51t-38.5 62.5t-22.5 74t-9 88.5q0 105 38 183.5t107 126t158.5 70.5t198.5 23z" />
    <glyph glyph-name="scedilla" unicode="&#x15f;" horiz-adv-x="1017" 
d="M526 1083q167 0 297 -49q67 -26 64 -90q-1 -29 -23.5 -48t-54.5 -19q-18 0 -51 10q-106 39 -213 39q-102 1 -155.5 -38t-53.5 -100q0 -45 36.5 -78t69.5 -46t117 -39l27 -9q44 -13 72.5 -22.5t70 -26t68 -33t56.5 -42t47.5 -53.5t28.5 -66.5t11 -83.5
q-1 -96 -51.5 -164.5t-131.5 -102t-188 -38.5l-28 -90q74 6 125 -31.5t51 -110.5q0 -84 -64 -121t-157 -37q-56 0 -93 13q-53 20 -45 53q9 39 58 29q34 -6 71 -6q103 0 103 71q0 30 -20.5 47t-59.5 17q-4 0 -14.5 -1t-14.5 -1q-33 0 -44.5 20.5t-0.5 52.5l35 95
q-197 10 -293 61q-56 27 -53 86q1 31 21 49.5t51 18.5q17 0 55 -11q128 -47 248 -49q115 0 169 41t54 103q0 17 -4 32t-14.5 28t-19.5 23t-28 20t-32 16.5t-39 15.5t-40 13.5t-44.5 14t-44.5 13.5q-60 18 -98.5 32.5t-88 41.5t-78.5 58t-49.5 80t-19.5 109q1 78 33.5 137.5
t89 95t127.5 53t153 17.5z" />
    <glyph glyph-name="Scaron" unicode="&#x160;" horiz-adv-x="1247" 
d="M623 1456q112 0 222.5 -21t174.5 -51q69 -34 63 -98q-6 -50 -41.5 -72t-97.5 -4q-1 0 -63 21t-117.5 31t-120.5 10q-136 -1 -208.5 -54.5t-72.5 -144.5q0 -29 6 -53.5t21.5 -45t30 -36.5t42.5 -31.5t46.5 -25.5t56 -23t57.5 -19.5t62 -19.5q61 -18 99.5 -31t93 -35.5
t88 -43.5t71.5 -54t59.5 -70t35.5 -87.5t14 -110.5q0 -106 -41 -186.5t-114.5 -129t-168.5 -72t-209 -22.5q-117 1 -237 23t-182 51q-77 38 -72 109q5 46 40.5 67.5t86.5 8.5q9 -3 44.5 -16t51 -17.5t50.5 -14.5t61 -14t64 -8t77 -4q159 0 233 56.5t74 154.5q0 26 -6 48.5
t-14 40t-25 34.5t-31 28.5t-40.5 24.5t-44 21t-51 19t-53.5 17t-58 17q-49 15 -76 23.5t-72 25t-71.5 29.5t-63.5 34t-59 42t-47 51t-38.5 62.5t-22.5 74t-9 88.5q0 105 38 183.5t107 126t158.5 70.5t198.5 23zM842 1782q22 0 38.5 -14t16.5 -37q0 -32 -23 -50l-165 -118
q-45 -31 -88 -31q-44 0 -89 31l-165 118q-23 18 -23 50q0 23 16.5 37t38.5 14q19 0 62 -25l160 -94l159 94q43 25 62 25z" />
    <glyph glyph-name="scaron" unicode="&#x161;" horiz-adv-x="1017" 
d="M743 1479q24 0 40 -12.5t16 -34.5q0 -29 -23 -52l-164 -151q-33 -33 -86 -33q-55 0 -88 33l-162 151q-22 25 -22 47q0 24 16 38t39 14t62 -27l155 -119l154 119q39 27 63 27zM526 1083q167 0 297 -49q67 -26 64 -90q-1 -29 -23.5 -48t-54.5 -19q-18 0 -51 10
q-106 39 -213 39q-102 1 -155.5 -38t-53.5 -100q0 -45 36.5 -78t69.5 -46t117 -39l27 -9q44 -13 72.5 -22.5t70 -26t68 -33t56.5 -42t47.5 -53.5t28.5 -66.5t11 -83.5q-1 -103 -58.5 -174t-150 -102.5t-211.5 -30.5q-226 3 -342 63q-56 27 -53 86q1 31 21 49.5t51 18.5
q17 0 55 -11q128 -47 248 -49q115 0 169 41t54 103q0 17 -4 32t-14.5 28t-19.5 23t-28 20t-32 16.5t-39 15.5t-40 13.5t-44.5 14t-44.5 13.5q-60 18 -98.5 32.5t-88 41.5t-78.5 58t-49.5 80t-19.5 109q1 78 33.5 137.5t89 95t127.5 53t153 17.5z" />
    <glyph glyph-name="Tcommaaccent" unicode="&#x162;" horiz-adv-x="1327" 
d="M158 1434h1011q46 0 73.5 -26.5t27.5 -64.5t-27.5 -65t-73.5 -27h-393v-1142q0 -56 -31 -85.5t-83 -29.5q-51 0 -81 29.5t-30 85.5v1142h-393q-46 0 -73.5 27t-27.5 65t27.5 64.5t73.5 26.5zM657 -164q58 0 87.5 -37t29.5 -100q0 -65 -32 -121.5t-76 -89.5
q-27 -18 -41 -18q-35 0 -35 32q0 8 4 15.5t11.5 17.5t10.5 16q21 37 23.5 60t-8.5 35.5t-25.5 22t-26.5 29.5t-12 50q0 38 27.5 63t62.5 25z" />
    <glyph glyph-name="tcommaaccent" unicode="&#x163;" horiz-adv-x="815" 
d="M455 -164q58 0 87 -37t29 -100q0 -65 -32 -121.5t-76 -89.5q-27 -18 -41 -18q-35 0 -35 32q0 8 4.5 16t12 17.5t10.5 15.5q21 37 23.5 60t-8.5 35.5t-25.5 22t-26.5 29.5t-12 50q0 38 27.5 63t62.5 25zM350 1378q43 0 68 -25t26 -71v-217h215q42 0 66.5 -21.5t24.5 -54.5
t-24.5 -55.5t-66.5 -22.5h-215v-585q0 -101 35.5 -143t110.5 -42q12 0 22.5 2t23 5t21.5 4q37 7 64 -10.5t27 -57.5q0 -57 -58 -78q-65 -24 -153 -24q-153 0 -230.5 83t-77.5 261v585h-71q-90 0 -90 72q0 57 65 70l96 12l23 219q4 45 30 69.5t68 24.5z" />
    <glyph glyph-name="Tcaron" unicode="&#x164;" horiz-adv-x="1327" 
d="M158 1434h1011q46 0 73.5 -26.5t27.5 -64.5t-27.5 -65t-73.5 -27h-393v-1142q0 -56 -31 -85.5t-83 -29.5q-51 0 -81 29.5t-30 85.5v1142h-393q-46 0 -73.5 27t-27.5 65t27.5 64.5t73.5 26.5zM887 1769q22 0 38.5 -14t16.5 -37q0 -32 -22 -49l-166 -119q-44 -30 -88 -30
t-88 30l-166 119q-23 18 -23 49q0 23 16.5 37t38.5 14q21 0 62 -24l160 -94l159 94q41 24 62 24z" />
    <glyph glyph-name="tcaron" unicode="&#x165;" horiz-adv-x="813" 
d="M670 1589q37 0 56.5 -25t12.5 -71q-18 -136 -88 -246q-15 -24 -36.5 -30.5t-41.5 4.5q-19 10 -22 29.5t4 49.5q30 106 35 201q5 46 23.5 67t56.5 21zM350 1378q43 0 68 -25t26 -71v-217h215q42 0 66.5 -21.5t24.5 -54.5t-24.5 -55.5t-66.5 -22.5h-215v-585
q0 -101 35.5 -143t110.5 -42q12 0 22.5 2t23 5t21.5 4q37 7 64 -10.5t27 -57.5q0 -57 -58 -78q-65 -24 -153 -24q-153 0 -230.5 83t-77.5 261v585h-71q-90 0 -90 72q0 57 65 70l96 12l23 219q4 45 30 69.5t68 24.5z" />
    <glyph glyph-name="Tbar" unicode="&#x166;" horiz-adv-x="1306" 
d="M176 1434h1012q46 0 73 -26.5t27 -64.5t-27 -65t-73 -27h-393v-473h241q32 0 50 -15t18 -40t-18 -40t-50 -15h-241v-559q0 -56 -31.5 -85.5t-83.5 -29.5q-51 0 -81 29.5t-30 85.5v559h-286q-32 0 -49 15t-17 40t17 40t49 15h286v473h-393q-46 0 -73 27t-27 65t27 64.5
t73 26.5z" />
    <glyph glyph-name="tbar" unicode="&#x167;" horiz-adv-x="786" 
d="M356 1378q43 0 68.5 -25.5t26.5 -70.5v-217h215q42 0 66 -21.5t24 -54.5t-24.5 -55.5t-65.5 -22.5h-215v-186h231q51 0 51 -41q0 -18 -13.5 -29.5t-37.5 -11.5h-231v-317q0 -101 35 -143t110 -42q12 0 23 2t23.5 5t21.5 4q37 7 63.5 -10.5t26.5 -57.5q0 -57 -58 -78
q-65 -24 -153 -24q-153 0 -230 83t-77 261v317h-130q-23 0 -36 11.5t-13 29.5q0 19 13 30t36 11h130v186h-72q-90 0 -90 72q0 57 65 70l97 12l22 219q4 45 30 69.5t68 24.5z" />
    <glyph glyph-name="Utilde" unicode="&#x168;" horiz-adv-x="1501" 
d="M1024 1729q17 0 34 -13t17 -35q0 -29 -28 -57q-79 -86 -181 -86q-50 0 -92 20.5t-79.5 41t-76.5 20.5q-40 0 -75 -31q-25 -20 -45 -20q-18 0 -33.5 12.5t-15.5 36.5q0 29 28 57q33 38 79.5 62t96.5 24q51 0 127 -42t121 -42t76 31q21 21 47 21zM1214 1440
q52 0 82.5 -29.5t30.5 -85.5v-844q0 -227 -154.5 -365.5t-406.5 -138.5q-258 0 -410.5 141t-152.5 363v844q0 56 29.5 85.5t80.5 29.5t82 -30t31 -85v-850q0 -140 94 -225.5t248 -85.5q150 0 243 86.5t93 224.5v850q0 56 29.5 85.5t80.5 29.5z" />
    <glyph glyph-name="utilde" unicode="&#x169;" horiz-adv-x="1257" 
d="M915 1386q17 0 34.5 -12.5t17.5 -34.5q0 -28 -29 -57q-79 -86 -180 -86q-50 0 -92 20.5t-79.5 41t-76.5 20.5q-41 0 -76 -31q-25 -20 -45 -20q-18 0 -33.5 12.5t-15.5 36.5q0 28 29 57q33 38 79.5 62t96.5 24q51 0 127 -42t121 -42q44 0 75 31q20 20 47 20zM1006 1071
q48 0 77 -28t29 -82v-867q0 -49 -24.5 -74.5t-65.5 -25.5q-82 0 -90 88l-12 100q-111 -200 -349 -200q-191 0 -298 109.5t-107 342.5v527q0 54 29.5 82t78.5 28q48 0 76.5 -28t28.5 -82v-523q0 -141 61 -213.5t195 -72.5q114 0 188 83.5t74 215.5v510q0 54 30 82t79 28z" />
    <glyph glyph-name="Umacron" unicode="&#x16a;" horiz-adv-x="1501" 
d="M520 1718h490q34 0 53.5 -16.5t19.5 -46.5q0 -31 -19 -49.5t-54 -18.5h-490q-35 0 -54.5 18.5t-19.5 49.5q0 29 19.5 46t54.5 17zM1214 1440q52 0 82.5 -29.5t30.5 -85.5v-844q0 -227 -154.5 -365.5t-406.5 -138.5q-258 0 -410.5 141t-152.5 363v844q0 56 29.5 85.5
t80.5 29.5t82 -30t31 -85v-850q0 -140 94 -225.5t248 -85.5q150 0 243 86.5t93 224.5v850q0 56 29.5 85.5t80.5 29.5z" />
    <glyph glyph-name="umacron" unicode="&#x16b;" horiz-adv-x="1257" 
d="M403 1384h490q34 0 54 -16.5t20 -46.5q0 -31 -19.5 -49.5t-54.5 -18.5h-490q-35 0 -54 18.5t-19 49.5q0 30 19 46.5t54 16.5zM1006 1071q48 0 77 -28t29 -82v-867q0 -49 -24.5 -74.5t-65.5 -25.5q-82 0 -90 88l-12 100q-111 -200 -349 -200q-191 0 -298 109.5t-107 342.5
v527q0 54 29.5 82t78.5 28q48 0 76.5 -28t28.5 -82v-523q0 -141 61 -213.5t195 -72.5q114 0 188 83.5t74 215.5v510q0 54 30 82t79 28z" />
    <glyph glyph-name="Ubreve" unicode="&#x16c;" horiz-adv-x="1501" 
d="M977 1800q28 -3 42 -25t3 -59q-25 -78 -89.5 -123t-168.5 -45q-103 0 -167.5 45.5t-88.5 122.5q-11 37 2.5 59t42.5 25q41 5 61 -41q22 -46 56.5 -69t93.5 -23q60 0 94.5 23t56.5 69q20 46 62 41zM1214 1440q52 0 82.5 -29.5t30.5 -85.5v-844q0 -227 -154.5 -365.5
t-406.5 -138.5q-258 0 -410.5 141t-152.5 363v844q0 56 29.5 85.5t80.5 29.5t82 -30t31 -85v-850q0 -140 94 -225.5t248 -85.5q150 0 243 86.5t93 224.5v850q0 56 29.5 85.5t80.5 29.5z" />
    <glyph glyph-name="ubreve" unicode="&#x16d;" horiz-adv-x="1257" 
d="M860 1468q28 -3 42 -25t3 -59q-24 -77 -89 -122t-169 -45q-103 0 -167.5 45t-88.5 122q-11 37 2.5 59t42.5 25q42 5 62 -41q22 -46 56.5 -69t92.5 -23q60 0 95 23t57 69q20 46 61 41zM1006 1071q48 0 77 -28t29 -82v-867q0 -49 -24.5 -74.5t-65.5 -25.5q-82 0 -90 88
l-12 100q-111 -200 -349 -200q-191 0 -298 109.5t-107 342.5v527q0 54 29.5 82t78.5 28q48 0 76.5 -28t28.5 -82v-523q0 -141 61 -213.5t195 -72.5q114 0 188 83.5t74 215.5v510q0 54 30 82t79 28z" />
    <glyph glyph-name="Uring" unicode="&#x16e;" horiz-adv-x="1501" 
d="M770 1880q84 0 137.5 -49.5t53.5 -130.5t-53.5 -130.5t-137.5 -49.5q-81 0 -135.5 50t-54.5 130t54.5 130t135.5 50zM770 1796q-45 0 -68.5 -27t-23.5 -69t23.5 -70t68.5 -28q44 0 68 28t24 70t-24 69t-68 27zM1214 1440q52 0 82.5 -29.5t30.5 -85.5v-844
q0 -227 -154.5 -365.5t-406.5 -138.5q-258 0 -410.5 141t-152.5 363v844q0 56 29.5 85.5t80.5 29.5t82 -30t31 -85v-850q0 -140 94 -225.5t248 -85.5q150 0 243 86.5t93 224.5v850q0 56 29.5 85.5t80.5 29.5z" />
    <glyph glyph-name="uring" unicode="&#x16f;" horiz-adv-x="1257" 
d="M635 1559q84 0 137 -50t53 -131t-53 -130.5t-137 -49.5q-81 0 -136 50t-55 130t55 130.5t136 50.5zM635 1475q-45 0 -68.5 -27.5t-23.5 -69.5t23.5 -70t68.5 -28q44 0 68 28t24 70t-24 69.5t-68 27.5zM1006 1071q48 0 77 -28t29 -82v-867q0 -49 -24.5 -74.5t-65.5 -25.5
q-82 0 -90 88l-12 100q-111 -200 -349 -200q-191 0 -298 109.5t-107 342.5v527q0 54 29.5 82t78.5 28q48 0 76.5 -28t28.5 -82v-523q0 -141 61 -213.5t195 -72.5q114 0 188 83.5t74 215.5v510q0 54 30 82t79 28z" />
    <glyph glyph-name="Uhungarumlaut" unicode="&#x170;" horiz-adv-x="1501" 
d="M979 1864q33 0 59.5 -22t26.5 -56q0 -20 -25 -62l-102 -165q-27 -39 -59 -39q-36 0 -55.5 26.5t-0.5 69.5l74 178q27 70 82 70zM686 1864q34 0 60 -22t26 -56q0 -26 -24 -66l-101 -161q-22 -39 -61 -39q-35 0 -55 27t-1 69l74 178q27 70 82 70zM1214 1440
q52 0 82.5 -29.5t30.5 -85.5v-844q0 -227 -154.5 -365.5t-406.5 -138.5q-258 0 -410.5 141t-152.5 363v844q0 56 29.5 85.5t80.5 29.5t82 -30t31 -85v-850q0 -140 94 -225.5t248 -85.5q150 0 243 86.5t93 224.5v850q0 56 29.5 85.5t80.5 29.5z" />
    <glyph glyph-name="uhungarumlaut" unicode="&#x171;" horiz-adv-x="1257" 
d="M852 1532q33 0 59.5 -22t26.5 -56q0 -19 -25 -61l-102 -166q-27 -39 -59 -39q-36 0 -55.5 26.5t-0.5 69.5l74 178q27 70 82 70zM559 1532q34 0 60 -22t26 -56q0 -24 -24 -65l-101 -162q-22 -39 -61 -39q-35 0 -55 27t-1 69l74 178q27 70 82 70zM1006 1071q48 0 77 -28
t29 -82v-867q0 -49 -24.5 -74.5t-65.5 -25.5q-82 0 -90 88l-12 100q-111 -200 -349 -200q-191 0 -298 109.5t-107 342.5v527q0 54 29.5 82t78.5 28q48 0 76.5 -28t28.5 -82v-523q0 -141 61 -213.5t195 -72.5q114 0 188 83.5t74 215.5v510q0 54 30 82t79 28z" />
    <glyph glyph-name="Uogonek" unicode="&#x172;" horiz-adv-x="1499" 
d="M1212 1440q52 0 82.5 -29.5t30.5 -85.5v-844q0 -184 -102.5 -312t-280.5 -171q-49 -32 -76.5 -76.5t-27.5 -89.5q0 -86 84 -86q27 0 43 -2q31 -4 39 -33q9 -41 -46 -61q-34 -12 -75 -12q-78 0 -131.5 47.5t-53.5 126.5q0 90 72 165h-6q-258 0 -410.5 141t-152.5 363v844
q0 56 29.5 85.5t80.5 29.5t82 -30t31 -85v-850q0 -140 94 -225.5t248 -85.5q150 0 243 86.5t93 224.5v850q0 56 29.5 85.5t80.5 29.5z" />
    <glyph glyph-name="uogonek" unicode="&#x173;" horiz-adv-x="1302" 
d="M1006 1071q48 0 77 -28t29 -82v-867q0 -85 -68 -98q-75 -72 -75 -164q0 -44 23.5 -66t62.5 -20q25 0 41 -2q32 -4 39 -33q9 -44 -43 -61q-37 -12 -76 -12q-79 0 -133 47.5t-54 126.5q0 125 117 217q-11 19 -14 53l-12 100q-111 -200 -349 -200q-191 0 -298 109.5
t-107 342.5v527q0 54 29.5 82t78.5 28q48 0 76.5 -28t28.5 -82v-523q0 -141 61 -213.5t195 -72.5q114 0 188 83.5t74 215.5v510q0 54 30 82t79 28z" />
    <glyph glyph-name="Wcircumflex" unicode="&#x174;" horiz-adv-x="2033" 
d="M1837 1440q51 0 82 -29t31 -78q0 -28 -8 -59l-336 -1153q-38 -127 -160 -127q-125 0 -158 127l-270 987l-273 -987q-36 -127 -157 -127q-123 0 -158 127l-336 1153q-10 33 -10 57q0 49 32 79t83 30q85 0 108 -90l164 -590q25 -91 68 -268t55 -218h4l274 1043q13 61 52 92
t94 31q54 0 92.5 -30.5t52.5 -92.5l275 -1043h4q15 50 59.5 232.5t67.5 269.5l160 574q26 90 108 90zM1018 1788q43 0 88 -31l166 -121q22 -17 22 -47q0 -25 -16.5 -38t-38.5 -13q-18 0 -61 25l-160 94l-160 -94q-43 -25 -61 -25q-23 0 -39.5 14t-16.5 39q0 27 23 45
l166 121q45 31 88 31z" />
    <glyph glyph-name="wcircumflex" unicode="&#x175;" horiz-adv-x="1724" 
d="M893 1477q52 0 88 -33l166 -150q22 -22 22 -49q0 -23 -14.5 -36t-38.5 -13q-29 0 -63 27l-160 118l-158 -118q-35 -27 -59 -27q-23 0 -40.5 14t-17.5 37q0 24 23 47l164 150q36 33 88 33zM1565 1071q63 0 88.5 -41t5.5 -106l-262 -813q-36 -117 -154 -117
q-115 0 -151 117l-199 671h-2l-199 -671q-36 -117 -151 -117q-118 0 -154 117l-260 813q-20 65 5.5 106t86.5 41q37 0 61 -20.5t39 -67.5l228 -747h6l211 733q28 102 129 102q99 0 127 -102l211 -733h8l225 745q26 90 101 90z" />
    <glyph glyph-name="Ycircumflex" unicode="&#x176;" horiz-adv-x="1271" 
d="M1102 1440q43 0 73.5 -26t30.5 -68q0 -34 -22 -68l-434 -698v-471q0 -55 -29.5 -85t-83.5 -30t-83.5 30t-29.5 85v471l-436 698q-22 34 -22 70q0 40 32 66t72 26q55 0 94 -64l371 -610h4l369 610q40 64 94 64zM637 1786q43 0 88 -31l166 -121q22 -16 22 -47
q0 -25 -16.5 -38t-38.5 -13q-18 0 -61 25l-160 94l-160 -94q-43 -25 -61 -25q-23 0 -39.5 14t-16.5 39q0 27 23 45l166 121q45 31 88 31z" />
    <glyph glyph-name="ycircumflex" unicode="&#x177;" horiz-adv-x="1136" 
d="M604 1477q52 0 88 -33l166 -150q23 -23 23 -49q0 -23 -15 -36t-39 -13q-29 0 -63 27l-160 118l-158 -118q-35 -27 -59 -27q-23 0 -40 13.5t-17 37.5q0 25 22 47l164 150q36 33 88 33zM995 1071q67 0 93.5 -46t3.5 -105l-367 -930q-34 -87 -66.5 -146.5t-75.5 -107.5
t-98.5 -71t-126.5 -23q-73 0 -133 18q-76 24 -73 90q2 36 22 56t55 20q15 0 46.5 -6t48.5 -6q108 0 165 188l-366 916q-24 61 2.5 107t89.5 46q40 0 64.5 -22t42.5 -68l143 -356q14 -38 141 -408h8q120 355 144 418l135 348q31 88 102 88z" />
    <glyph glyph-name="Ydieresis" unicode="&#x178;" horiz-adv-x="1271" 
d="M1102 1440q43 0 73.5 -26t30.5 -68q0 -34 -22 -68l-434 -698v-471q0 -55 -29.5 -85t-83.5 -30t-83.5 30t-29.5 85v471l-436 698q-22 34 -22 70q0 40 32 66t72 26q55 0 94 -64l371 -610h4l369 610q40 64 94 64zM852 1772q106 0 106 -107q0 -52 -28.5 -78t-77.5 -26
q-47 0 -75.5 26t-28.5 78q0 53 29 80t75 27zM418 1772q50 0 79 -26t29 -81q0 -52 -29 -78t-79 -26q-47 0 -76 26t-29 78q0 53 29.5 80t75.5 27z" />
    <glyph glyph-name="Zacute" unicode="&#x179;" horiz-adv-x="1302" 
d="M221 1434h862q51 0 86 -25.5t35 -75.5q0 -48 -49 -116l-776 -1039l2 -4l399 8h324q45 0 72.5 -26.5t27.5 -63.5q0 -38 -27 -65t-73 -27h-895q-54 0 -86.5 23.5t-32.5 74.5q0 45 43 105l782 1050l-2 4l-344 -6h-348q-47 0 -73.5 27t-26.5 65q0 39 26.5 65t73.5 26z
M772 1855q32 -2 54 -23t22 -56q0 -29 -41 -70l-139 -135q-29 -29 -64 -29q-22 0 -37.5 14.5t-15.5 36.5q0 23 20 52l111 157q39 56 90 53z" />
    <glyph glyph-name="zacute" unicode="&#x17a;" horiz-adv-x="1083" 
d="M207 1065h667q56 0 87.5 -27t31.5 -77q0 -52 -49 -109l-594 -688l2 -8l330 6h223q43 0 66.5 -22t23.5 -58t-24 -59t-66 -23h-698q-55 0 -87 28t-32 76q0 57 49 109l602 690l-2 4l-338 -4h-192q-42 0 -67 23t-25 59t25 58t67 22zM635 1530q34 0 60 -22t26 -56
q0 -26 -23 -61l-112 -166q-27 -39 -60 -39q-35 0 -53 25.5t0 68.5l80 180q30 70 82 70z" />
    <glyph glyph-name="Zdotaccent" unicode="&#x17b;" horiz-adv-x="1302" 
d="M670 1808q57 0 90 -28.5t33 -81.5v-31q0 -53 -34 -80.5t-89 -27.5q-54 0 -86.5 27.5t-32.5 80.5v31q0 52 33 81t86 29zM236 1434h862q51 0 86 -25.5t35 -75.5q0 -47 -50 -116l-776 -1039l2 -4l400 8h323q46 0 73.5 -26.5t27.5 -63.5q0 -38 -27.5 -65t-73.5 -27h-895
q-54 0 -86.5 23.5t-32.5 74.5q0 45 43 105l783 1050l-2 4l-344 -6h-348q-47 0 -74 27t-27 65q0 39 26.5 65t74.5 26z" />
    <glyph glyph-name="zdotaccent" unicode="&#x17c;" horiz-adv-x="1083" 
d="M559 1470q57 0 90 -28.5t33 -81.5v-31q0 -53 -34 -80.5t-89 -27.5q-54 0 -86.5 27.5t-32.5 80.5v31q0 52 33 81t86 29zM221 1065h668q56 0 87.5 -27t31.5 -77t-50 -109l-593 -688l2 -8l329 6h224q43 0 66.5 -22t23.5 -58t-24 -59t-66 -23h-699q-55 0 -87 28t-32 76
q0 56 50 109l602 690l-2 4l-338 -4h-193q-42 0 -67 23t-25 59t25 58t67 22z" />
    <glyph glyph-name="Zcaron" unicode="&#x17d;" horiz-adv-x="1302" 
d="M221 1434h862q51 0 86 -25.5t35 -75.5q0 -48 -49 -116l-776 -1039l2 -4l399 8h324q45 0 72.5 -26.5t27.5 -63.5q0 -38 -27 -65t-73 -27h-895q-54 0 -86.5 23.5t-32.5 74.5q0 45 43 105l782 1050l-2 4l-344 -6h-348q-47 0 -73.5 27t-26.5 65q0 39 26.5 65t73.5 26z
M885 1776q22 0 38.5 -14t16.5 -38q0 -32 -22 -49l-166 -119q-43 -30 -88 -30q-46 0 -89 30l-165 119q-23 18 -23 49q0 24 16.5 38t38.5 14q19 0 62 -25l160 -94l159 94q43 25 62 25z" />
    <glyph glyph-name="zcaron" unicode="&#x17e;" horiz-adv-x="1083" 
d="M791 1479q24 0 39.5 -12.5t15.5 -34.5q0 -29 -23 -52l-164 -151q-33 -33 -86 -33q-55 0 -88 33l-161 151q-23 26 -23 47q0 24 16 38t39 14t62 -27l155 -119l154 119q39 27 64 27zM221 1065h668q56 0 87.5 -27t31.5 -77t-50 -109l-593 -688l2 -8l329 6h224q43 0 66.5 -22
t23.5 -58t-24 -59t-66 -23h-699q-55 0 -87 28t-32 76q0 56 50 109l602 690l-2 4l-338 -4h-193q-42 0 -67 23t-25 59t25 58t67 22z" />
    <glyph glyph-name="AEacute" unicode="&#x1fc;" horiz-adv-x="2015" 
d="M760 1434h1026q46 0 72 -26t26 -65t-26.5 -65.5t-71.5 -26.5h-688v-463h579q46 0 72.5 -25.5t26.5 -64.5q0 -38 -26.5 -64t-72.5 -26h-579v-426h710q46 0 73.5 -26t27.5 -64q0 -39 -27.5 -65.5t-73.5 -26.5h-827q-51 0 -79 27.5t-28 78.5v271h-473l-131 -281
q-23 -52 -48.5 -76t-65.5 -24q-62 0 -88.5 47t6.5 125l565 1190q34 76 121 76zM874 1251h-77l-322 -702h399v702zM1368 1849q32 -2 54 -23.5t22 -56.5q0 -28 -41 -69l-139 -135q-29 -29 -64 -29q-22 0 -37.5 14.5t-15.5 36.5t20 51l111 158q39 56 90 53z" />
    <glyph glyph-name="aeacute" unicode="&#x1fd;" horiz-adv-x="1955" 
d="M809 635v78q0 118 -67.5 165.5t-194.5 47.5q-76 0 -266 -33q-52 -10 -78.5 13t-28.5 59q-1 33 17.5 51t56.5 28q58 18 158.5 28.5t179.5 10.5q146 0 237.5 -45t139.5 -147q151 194 415 194q109 0 195.5 -36.5t137.5 -92t84.5 -127.5t45 -136.5t10.5 -125.5
q-2 -50 -20.5 -76t-73.5 -26h-715q3 -150 104.5 -232.5t270.5 -82.5q115 0 258 45q25 6 48 6.5t41.5 -16.5t23.5 -50q3 -27 -13 -51.5t-46 -36.5q-152 -63 -332 -63q-165 0 -287 62.5t-190 180.5q-50 -104 -163.5 -173.5t-291.5 -69.5t-282.5 83t-104.5 242q0 92 36.5 159.5
t103.5 107t151.5 58.5t189.5 19q57 0 250 -18zM1042 606h611q0 43 -7.5 84.5t-28 84.5t-51.5 75.5t-82 53t-116 20.5q-136 0 -224.5 -85.5t-101.5 -232.5zM809 401v99q-22 5 -93 12.5t-132 7.5q-291 0 -291 -194q0 -92 61 -139.5t152 -47.5q124 0 213.5 75.5t89.5 186.5z
M1047 1489q34 0 60 -22t26 -56q0 -27 -23 -61l-113 -166q-27 -39 -59 -39q-35 0 -53 25.5t0 68.5l80 180q30 70 82 70z" />
    <glyph glyph-name="Oslashacute" unicode="&#x1fe;" horiz-adv-x="1724" 
d="M1329 1497q49 0 68 -36.5t-15 -90.5l-43 -65q129 -101 201 -252t72 -336q0 -217 -96 -386t-266.5 -261.5t-387.5 -92.5q-182 0 -338 70l-43 -65q-36 -56 -75 -56q-26 0 -47 14.5t-27 43t20 69.5l43 68q-134 99 -209 252.5t-75 343.5q0 162 56.5 300.5t155.5 234.5
t238 150t301 54q189 0 350 -76l41 64q37 53 76 53zM862 1270q-145 0 -261.5 -68t-184.5 -194.5t-68 -290.5q0 -260 168 -412l586 907q-110 58 -240 58zM1217 1116l-584 -901q105 -51 229 -51q223 0 368.5 152.5t145.5 400.5q0 123 -42 225.5t-117 173.5zM971 1849
q32 -2 54 -23.5t22 -56.5q0 -28 -41 -69l-140 -135q-29 -29 -63 -29q-22 0 -37.5 14.5t-15.5 36.5t20 51l111 158q39 56 90 53z" />
    <glyph glyph-name="oslashacute" unicode="&#x1ff;" horiz-adv-x="1314" 
d="M1018 1135q24 0 42.5 -14.5t18.5 -37.5q0 -18 -20 -51l-35 -53q103 -74 162 -188.5t59 -255.5q0 -123 -45 -227t-122 -175t-181.5 -111t-222.5 -40q-144 0 -262 53l-41 -64q-22 -43 -60 -43q-25 0 -42 15t-17 41q0 19 16 43l41 67q-99 74 -155 186.5t-56 251.5
q0 164 76.5 290.5t207 193.5t292.5 67q132 0 246 -51l36 60q25 43 62 43zM911 809l-399 -621q65 -36 160 -36q151 0 250.5 105.5t99.5 274.5t-111 277zM672 913q-153 0 -251.5 -105t-98.5 -276q0 -165 102 -264l397 613q-63 32 -149 32zM762 1532q34 0 60 -22t26 -56
q0 -26 -23 -61l-112 -166q-27 -39 -60 -39q-35 0 -53 25.5t0 68.5l80 180q30 70 82 70z" />
    <glyph glyph-name="Scommaaccent" unicode="&#x218;" horiz-adv-x="1247" 
d="M637 -164q58 0 87.5 -37t29.5 -100q0 -65 -32.5 -121t-76.5 -90q-27 -18 -41 -18q-35 0 -35 32q0 8 4.5 16t12 17.5t10.5 15.5q21 37 23.5 60t-8.5 35.5t-25.5 22t-26.5 29.5t-12 50q0 38 27.5 63t62.5 25zM637 1456q112 0 222.5 -21t174.5 -51q70 -34 64 -98
q-6 -50 -42 -72t-98 -4q-1 0 -63 21t-117.5 31t-120.5 10q-135 -1 -207.5 -54.5t-72.5 -144.5q0 -26 6 -48.5t14.5 -40.5t26.5 -35t32 -29t40.5 -25.5t44 -21.5t51 -19.5t51.5 -17t55 -17.5q61 -18 99.5 -31t93 -35.5t88 -43.5t71.5 -54t59.5 -70t35.5 -87.5t14 -110.5
q0 -106 -41 -186.5t-114 -129t-168 -72t-209 -22.5q-117 1 -237.5 23t-182.5 51q-77 38 -72 109q5 46 40.5 67.5t86.5 8.5q9 -3 44.5 -16t51 -17.5t50.5 -14.5t61 -14t64 -8t77 -4q160 0 234 56.5t74 154.5q0 33 -9.5 60.5t-23 48t-41 39.5t-48.5 31t-62 26.5t-65.5 22.5
t-74.5 22q-49 15 -76 23.5t-72 25t-71.5 29.5t-63.5 34t-59 42t-47 51t-38.5 62.5t-22.5 74t-9 88.5q0 105 38 183.5t107 126t158.5 70.5t198.5 23z" />
    <glyph glyph-name="scommaaccent" unicode="&#x219;" horiz-adv-x="1017" 
d="M528 -164q58 0 87.5 -37t29.5 -100q0 -65 -32 -121.5t-76 -89.5q-27 -18 -41 -18q-35 0 -35 32q0 8 4 15.5t11.5 17.5t10.5 16q21 37 23.5 60t-8.5 35.5t-25.5 22t-26.5 29.5t-12 50q0 38 27.5 63t62.5 25zM526 1083q167 0 297 -49q67 -26 64 -90q-1 -29 -23.5 -48
t-54.5 -19q-18 0 -51 10q-106 39 -213 39q-102 1 -155.5 -38t-53.5 -100q0 -45 36.5 -78t69.5 -46t117 -39l27 -9q44 -13 72.5 -22.5t70 -26t68 -33t56.5 -42t47.5 -53.5t28.5 -66.5t11 -83.5q-1 -103 -58.5 -174t-150 -102.5t-211.5 -30.5q-226 3 -342 63q-56 27 -53 86
q1 31 21 49.5t51 18.5q17 0 55 -11q128 -47 248 -49q115 0 169 41t54 103q0 17 -4 32t-14.5 28t-19.5 23t-28 20t-32 16.5t-39 15.5t-40 13.5t-44.5 14t-44.5 13.5q-60 18 -98.5 32.5t-88 41.5t-78.5 58t-49.5 80t-19.5 109q1 78 33.5 137.5t89 95t127.5 53t153 17.5z" />
    <glyph glyph-name="dotlessj" unicode="&#x237;" horiz-adv-x="616" 
d="M207 1065h137q51 0 79 -28t28 -79v-985q0 -155 -79.5 -241t-230.5 -86q-81 0 -125 24q-47 24 -47 76q0 42 25 64.5t65 17.5q16 -2 54 -2q125 0 125 145v901l-60 19q-63 21 -63 92q0 39 24 60.5t68 21.5z" />
    <glyph glyph-name="circumflex" unicode="&#x2c6;" horiz-adv-x="1054" 
d="M481 1520q52 0 88 -33l166 -150q23 -23 23 -49q0 -23 -14.5 -36t-38.5 -13q-30 0 -64 27l-160 118l-157 -118q-35 -27 -60 -27q-23 0 -40 13.5t-17 37.5q0 25 22 47l164 150q36 33 88 33z" />
    <glyph glyph-name="caron" unicode="&#x2c7;" horiz-adv-x="1042" 
d="M702 1479q24 0 40 -12.5t16 -34.5q0 -29 -23 -52l-164 -151q-33 -33 -86 -33q-55 0 -88 33l-161 151q-23 26 -23 47q0 24 16 38t39 14t62 -27l155 -119l154 119q39 27 63 27z" />
    <glyph glyph-name="breve" unicode="&#x2d8;" horiz-adv-x="911" 
d="M668 1436q28 -3 42 -25t3 -59q-25 -78 -89.5 -123t-168.5 -45q-103 0 -167.5 45.5t-88.5 122.5q-11 37 2.5 59t42.5 25q41 5 61 -41q22 -46 56.5 -69t93.5 -23q60 0 94.5 23t56.5 69q20 46 62 41z" />
    <glyph glyph-name="dotaccent" unicode="&#x2d9;" horiz-adv-x="622" 
d="M315 1470q57 0 90 -28.5t33 -81.5v-31q0 -53 -34 -80.5t-89 -27.5q-53 0 -85.5 27.5t-32.5 80.5v31q0 52 32.5 81t85.5 29z" />
    <glyph glyph-name="ring" unicode="&#x2da;" horiz-adv-x="737" 
d="M377 1548q84 0 137 -49.5t53 -130.5t-53 -130.5t-137 -49.5q-81 0 -136 50t-55 130t55 130t136 50zM377 1464q-45 0 -68.5 -27t-23.5 -69t23.5 -70t68.5 -28q44 0 68 28t24 70t-24 69t-68 27z" />
    <glyph glyph-name="ogonek" unicode="&#x2db;" horiz-adv-x="669" 
d="M395 88l37 -68q-110 -78 -110 -190q0 -92 104 -84q50 6 61 -35q9 -45 -45 -61q-34 -12 -75 -12q-79 0 -132 46t-53 128q0 87 58.5 157.5t154.5 118.5z" />
    <glyph glyph-name="tilde" unicode="&#x2dc;" horiz-adv-x="1009" 
d="M756 1386q17 0 34 -12.5t17 -34.5q0 -28 -29 -57q-79 -86 -180 -86q-50 0 -92 20.5t-79.5 41t-76.5 20.5q-41 0 -76 -31q-25 -20 -45 -20q-18 0 -33.5 12.5t-15.5 36.5q0 28 29 57q33 38 79.5 62t96.5 24q51 0 127 -42t121 -42t76 31q20 20 47 20z" />
    <glyph glyph-name="hungarumlaut" unicode="&#x2dd;" horiz-adv-x="962" 
d="M655 1532q33 0 59.5 -22t26.5 -56q0 -20 -24 -61l-103 -166q-27 -39 -59 -39q-36 0 -55 26.5t0 69.5l73 178q27 70 82 70zM362 1532q34 0 60.5 -22t26.5 -56q0 -23 -25 -65l-100 -162q-22 -39 -62 -39q-35 0 -54.5 27t-0.5 69l74 178q27 70 81 70z" />
    <glyph glyph-name="commaaccentcomb" unicode="&#x326;" horiz-adv-x="0" 
d="M-233 -164q58 0 87 -37t29 -100q0 -65 -32 -121.5t-76 -89.5q-27 -18 -41 -18q-35 0 -35 32q0 8 4.5 16t12 17.5t10.5 15.5q21 37 23.5 60t-9 35.5t-25.5 22t-26.5 29.5t-12.5 50q0 38 27.5 63t63.5 25z" />
    <glyph glyph-name="Wgrave" unicode="&#x1e80;" horiz-adv-x="2033" 
d="M1837 1440q51 0 82 -29t31 -78q0 -28 -8 -59l-336 -1153q-38 -127 -160 -127q-125 0 -158 127l-270 987l-273 -987q-36 -127 -157 -127q-123 0 -158 127l-336 1153q-10 33 -10 57q0 49 32 79t83 30q85 0 108 -90l164 -590q25 -91 68 -268t55 -218h4l274 1043q13 61 52 92
t94 31q54 0 92.5 -30.5t52.5 -92.5l275 -1043h4q15 50 59.5 232.5t67.5 269.5l160 574q26 90 108 90zM920 1858q51 3 90 -54l112 -157q19 -24 19 -52q0 -21 -16 -36t-38 -15q-34 0 -63 29l-139 135q-41 41 -41 72q-1 35 21.5 55.5t54.5 22.5z" />
    <glyph glyph-name="wgrave" unicode="&#x1e81;" horiz-adv-x="1724" 
d="M813 1534q54 0 82 -68l72 -182q17 -44 -1.5 -70t-52.5 -26q-33 0 -63 41l-100 166q-25 37 -25 61q0 34 27 56t61 22zM1565 1071q63 0 88.5 -41t5.5 -106l-262 -813q-36 -117 -154 -117q-115 0 -151 117l-199 671h-2l-199 -671q-36 -117 -151 -117q-118 0 -154 117
l-260 813q-20 65 5.5 106t86.5 41q37 0 61 -20.5t39 -67.5l228 -747h6l211 733q28 102 129 102q99 0 127 -102l211 -733h8l225 745q26 90 101 90z" />
    <glyph glyph-name="Wacute" unicode="&#x1e82;" horiz-adv-x="2033" 
d="M1837 1440q51 0 82 -29t31 -78q0 -28 -8 -59l-336 -1153q-38 -127 -160 -127q-125 0 -158 127l-270 987l-273 -987q-36 -127 -157 -127q-123 0 -158 127l-336 1153q-10 33 -10 57q0 49 32 79t83 30q85 0 108 -90l164 -590q25 -91 68 -268t55 -218h4l274 1043q13 61 52 92
t94 31q54 0 92.5 -30.5t52.5 -92.5l275 -1043h4q15 50 59.5 232.5t67.5 269.5l160 574q26 90 108 90zM1126 1858q32 -2 54 -23.5t22 -56.5q0 -29 -41 -70l-139 -135q-29 -29 -64 -29q-22 0 -37.5 14.5t-15.5 36.5t21 52l110 157q39 57 90 54z" />
    <glyph glyph-name="wacute" unicode="&#x1e83;" horiz-adv-x="1757" 
d="M1550 1071q63 0 89 -41t6 -106l-263 -813q-36 -117 -153 -117q-116 0 -152 117l-198 671h-2l-199 -671q-36 -117 -152 -117q-117 0 -153 117l-260 813q-20 65 5.5 106t86.5 41q37 0 61 -20.5t39 -67.5l227 -747h7l211 733q28 102 129 102q99 0 127 -102l211 -733h8
l225 745q26 90 100 90zM936 1530q34 0 60 -22t26 -56q0 -26 -23 -61l-112 -166q-27 -39 -60 -39q-35 0 -53 25.5t0 68.5l80 180q30 70 82 70z" />
    <glyph glyph-name="Wdieresis" unicode="&#x1e84;" horiz-adv-x="2033" 
d="M1249 1763q107 0 107 -106q0 -52 -29 -78.5t-78 -26.5q-47 0 -75.5 26.5t-28.5 78.5q0 53 29 79.5t75 26.5zM815 1763q50 0 79.5 -26t29.5 -80q0 -52 -30 -78.5t-79 -26.5q-47 0 -75.5 26.5t-28.5 78.5q0 53 29 79.5t75 26.5zM1851 1440q51 0 82 -29t31 -78q0 -28 -8 -59
l-336 -1153q-38 -127 -160 -127q-124 0 -157 127l-271 987l-272 -987q-36 -127 -158 -127q-123 0 -158 127l-335 1153q-11 37 -11 57q0 49 32 79t83 30q86 0 109 -90l163 -590q25 -91 68 -268t55 -218h4l275 1043q13 61 51.5 92t93.5 31q54 0 93 -30.5t53 -92.5l274 -1043h4
q15 50 59.5 232.5t67.5 269.5l160 574q26 90 108 90z" />
    <glyph glyph-name="wdieresis" unicode="&#x1e85;" horiz-adv-x="1724" 
d="M1104 1438q106 0 106 -107q0 -52 -28.5 -78t-77.5 -26q-47 0 -76 26t-29 78q0 53 29.5 80t75.5 27zM670 1438q50 0 79 -26t29 -81q0 -52 -29 -78t-79 -26q-47 0 -76 26t-29 78q0 53 29.5 80t75.5 27zM1565 1071q63 0 88.5 -41t5.5 -106l-262 -813q-36 -117 -154 -117
q-115 0 -151 117l-199 671h-2l-199 -671q-36 -117 -151 -117q-118 0 -154 117l-260 813q-20 65 5.5 106t86.5 41q37 0 61 -20.5t39 -67.5l228 -747h6l211 733q28 102 129 102q99 0 127 -102l211 -733h8l225 745q26 90 101 90z" />
    <glyph glyph-name="germandbls.case" unicode="&#x1e9e;" horiz-adv-x="1546" 
d="M762 1456q151 0 287.5 -52t218.5 -155q36 -39 40 -75t-26 -80l-211 -281q172 -39 264 -148t92 -266q0 -196 -135.5 -317t-357.5 -121q-141 0 -234 35q-59 25 -59 86q0 40 24 63t60 23q14 0 75 -13.5t118 -13.5q135 0 219 74t84 197q0 50 -16 91t-38.5 67t-57 47t-62.5 32
t-64 21q-4 1 -15.5 5t-15.5 5t-14 5t-14 6.5t-11 7t-11 8.5t-9 10.5t-8 13.5q-30 59 16 119l211 287q-34 50 -118 92.5t-206 42.5q-177 0 -269.5 -106.5t-92.5 -286.5v-770q0 -54 -31 -84.5t-82 -30.5q-50 0 -80 30t-30 85v765q0 267 151.5 424.5t407.5 157.5z" />
    <glyph glyph-name="Ygrave" unicode="&#x1ef2;" horiz-adv-x="1271" 
d="M1102 1440q43 0 73.5 -26t30.5 -68q0 -34 -22 -68l-434 -698v-471q0 -55 -29.5 -85t-83.5 -30t-83.5 30t-29.5 85v471l-436 698q-22 34 -22 70q0 40 32 66t72 26q55 0 94 -64l371 -610h4l369 610q40 64 94 64zM539 1855q51 3 90 -53l112 -157q19 -24 19 -52
q0 -22 -15.5 -36.5t-37.5 -14.5q-35 0 -64 29l-139 135q-41 41 -41 72q-1 35 21.5 55t54.5 22z" />
    <glyph glyph-name="ygrave" unicode="&#x1ef3;" horiz-adv-x="1136" 
d="M530 1534q54 0 82 -68l72 -182q17 -44 -1 -70t-52 -26t-64 41l-100 166q-25 37 -25 61q0 34 27 56t61 22zM995 1071q67 0 93.5 -46t3.5 -105l-367 -930q-34 -87 -66.5 -146.5t-75.5 -107.5t-98.5 -71t-126.5 -23q-73 0 -133 18q-76 24 -73 90q2 36 22 56t55 20
q15 0 46.5 -6t48.5 -6q108 0 165 188l-366 916q-24 61 2.5 107t89.5 46q40 0 64.5 -22t42.5 -68l143 -356q14 -38 141 -408h8q120 355 144 418l135 348q31 88 102 88z" />
    <glyph glyph-name="endash" unicode="&#x2013;" horiz-adv-x="1484" 
d="M246 612h999q40 0 63 -18.5t23 -52.5q0 -37 -22.5 -56.5t-63.5 -19.5h-999q-39 0 -62.5 20t-23.5 56q0 33 23.5 52t62.5 19z" />
    <glyph glyph-name="emdash" unicode="&#x2014;" horiz-adv-x="1789" 
d="M246 612h1304q40 0 63 -18.5t23 -52.5q0 -37 -22.5 -56.5t-63.5 -19.5h-1304q-39 0 -62.5 20t-23.5 56q0 33 23.5 52t62.5 19z" />
    <glyph glyph-name="quoteleft" unicode="&#x2018;" horiz-adv-x="581" 
d="M352 1421q20 0 33.5 -12.5t13.5 -32.5q0 -23 -28 -45q-42 -32 -71 -77t-28 -93q23 23 54 23q50 0 76 -30.5t26 -80.5q0 -53 -37 -88t-92 -35q-74 0 -116 54.5t-42 134.5q0 87 50 156.5t118 111.5q24 14 43 14z" />
    <glyph glyph-name="quoteright" unicode="&#x2019;" horiz-adv-x="581" 
d="M283 1434q74 0 116.5 -54.5t42.5 -134.5q0 -87 -50.5 -156.5t-119.5 -111.5q-22 -16 -41 -16q-20 0 -34.5 13t-14.5 32q0 22 29 45q101 80 98 170q-23 -23 -53 -23q-49 0 -75.5 31t-26.5 80q0 54 36.5 89.5t92.5 35.5z" />
    <glyph glyph-name="quotesinglbase" unicode="&#x201a;" horiz-adv-x="577" 
d="M274 231q74 0 117 -54t43 -134q0 -87 -50.5 -156.5t-119.5 -111.5q-24 -17 -41 -17q-20 0 -34.5 13t-14.5 32q0 22 29 45q101 80 98 170q-22 -22 -53 -22q-49 0 -76 30.5t-27 79.5q0 54 36.5 89.5t92.5 35.5z" />
    <glyph glyph-name="quotedblleft" unicode="&#x201c;" horiz-adv-x="987" 
d="M758 1423q20 0 33.5 -13t13.5 -32q0 -24 -27 -45q-101 -80 -98 -170q23 23 53 23q49 0 76 -31t27 -80q0 -54 -36.5 -89.5t-92.5 -35.5q-74 0 -117 54.5t-43 134.5q0 87 50.5 156.5t119.5 111.5q22 16 41 16zM354 1423q20 0 33.5 -13t13.5 -32q0 -25 -26 -45
q-102 -81 -99 -170q23 23 54 23q49 0 74.5 -30.5t25.5 -80.5q0 -54 -36.5 -89.5t-90.5 -35.5q-74 0 -117 54.5t-43 134.5q0 87 50.5 156.5t119.5 111.5q22 16 41 16z" />
    <glyph glyph-name="quotedblright" unicode="&#x201d;" horiz-adv-x="980" 
d="M682 1434q74 0 117 -54.5t43 -134.5q0 -86 -50 -155.5t-118 -112.5q-26 -16 -43 -16q-20 0 -33.5 13t-13.5 32q0 22 26 45q104 80 99 170q-23 -23 -52 -23q-50 0 -76 30.5t-26 80.5q0 54 36.5 89.5t90.5 35.5zM279 1434q74 0 116.5 -54.5t42.5 -134.5q0 -87 -50.5 -156.5
t-119.5 -111.5q-22 -16 -41 -16q-20 0 -33.5 13t-13.5 32q0 21 27 45q101 77 98 170q-23 -23 -53 -23q-49 0 -74.5 30.5t-25.5 80.5q0 54 36.5 89.5t90.5 35.5z" />
    <glyph glyph-name="quotedblbase" unicode="&#x201e;" horiz-adv-x="983" 
d="M678 231q74 0 117 -54t43 -134q0 -87 -50.5 -156.5t-119.5 -111.5q-24 -17 -41 -17q-20 0 -33.5 13t-13.5 32q0 25 26 45q102 81 99 170q-22 -22 -54 -22q-49 0 -75.5 30.5t-26.5 79.5q0 54 36.5 89.5t92.5 35.5zM274 231q74 0 117 -54t43 -134q0 -87 -50.5 -156.5
t-119.5 -111.5q-24 -17 -41 -17q-20 0 -34.5 13t-14.5 32q0 22 29 45q101 80 98 170q-22 -22 -53 -22q-49 0 -76 30.5t-27 79.5q0 54 36.5 89.5t92.5 35.5z" />
    <glyph glyph-name="dagger" unicode="&#x2020;" horiz-adv-x="927" 
d="M537 1280l180 20q47 4 71.5 -17.5t24.5 -57.5q0 -35 -24.5 -55.5t-71.5 -16.5l-187 14l23 -508q3 -43 -25.5 -66.5t-64.5 -23.5q-35 0 -63 23t-27 67l24 508l-188 -14q-45 -4 -69.5 17t-24.5 55q0 36 24.5 57.5t69.5 17.5l180 -20l-16 174q-9 50 19 80.5t71 30.5
q44 0 71.5 -30.5t20.5 -80.5z" />
    <glyph glyph-name="daggerdbl" unicode="&#x2021;" horiz-adv-x="927" 
d="M467 1565q44 0 73.5 -30.5t22.5 -80.5l-16 -172l172 18q47 6 71.5 -16t24.5 -59q0 -35 -24.5 -56.5t-71.5 -15.5l-176 16l14 -176l-10 -182l172 16q47 7 71.5 -14.5t24.5 -58.5q0 -35 -24.5 -56.5t-71.5 -15.5l-174 14l16 -379q3 -43 -26 -66.5t-68 -23.5t-67 23.5
t-27 66.5l18 379l-182 -14q-45 -6 -69.5 15.5t-24.5 56.5q0 36 24.5 57.5t69.5 15.5l180 -18l-10 186l12 172l-182 -14q-45 -4 -69.5 17t-24.5 55q0 36 24.5 57.5t69.5 17.5l180 -20l-16 174q-8 50 21.5 80.5t72.5 30.5z" />
    <glyph glyph-name="bullet" unicode="&#x2022;" horiz-adv-x="827" 
d="M408 733q91 0 153 -59t62 -150q0 -89 -62.5 -150t-152.5 -61t-152.5 61.5t-62.5 153.5q0 88 62.5 146.5t152.5 58.5z" />
    <glyph glyph-name="ellipsis" unicode="&#x2026;" horiz-adv-x="1441" 
d="M717 227q53 0 89 -35.5t36 -87.5q0 -55 -35.5 -88.5t-89.5 -33.5t-89.5 33.5t-35.5 88.5q0 52 36 87.5t89 35.5zM276 227q53 0 89 -35.5t36 -87.5q0 -55 -35.5 -88.5t-89.5 -33.5q-53 0 -88.5 33.5t-35.5 88.5q0 52 35.5 87.5t88.5 35.5zM1163 227q53 0 89 -35.5
t36 -87.5q0 -55 -35.5 -88.5t-89.5 -33.5q-52 0 -87.5 34t-35.5 88q0 52 36 87.5t87 35.5z" />
    <glyph glyph-name="perthousand" unicode="&#x2030;" horiz-adv-x="2537" 
d="M1217 1440q38 0 64 -22.5t26 -59.5q0 -26 -19 -58l-715 -1243q-35 -63 -86 -63q-38 0 -64 22.5t-26 59.5q0 29 17 57l714 1241q37 66 89 66zM436 1456q145 0 236.5 -98t91.5 -248q0 -151 -92.5 -248.5t-241.5 -97.5q-146 0 -237 96.5t-91 245.5q0 153 93 251.5t241 98.5z
M432 1303q-70 0 -111.5 -54t-41.5 -141t43.5 -140t111.5 -53q69 0 111.5 54t42.5 139q0 86 -44 140.5t-112 54.5zM1280 670q145 0 236.5 -97t91.5 -249q0 -151 -92.5 -249t-241.5 -98q-146 0 -237 97t-91 245q0 153 93 252t241 99zM1276 516q-70 0 -112 -53t-42 -139
q0 -87 44 -140t114 -53q67 0 109.5 54t42.5 139q0 84 -44 138t-112 54zM2083 670q145 0 236 -97t91 -249q0 -151 -92 -249t-241 -98q-146 0 -237 97t-91 245q0 153 93 252t241 99zM2081 516q-71 0 -113.5 -53t-42.5 -139q0 -87 44 -140t114 -53q67 0 109 54t42 139
q0 84 -43.5 138t-109.5 54z" />
    <glyph glyph-name="minute" unicode="&#x2032;" horiz-adv-x="645" 
d="M342 1483q58 0 80 -36.5t4 -90.5l-82 -285q-19 -59 -70 -59q-31 0 -51 21t-14 61l45 297q11 92 88 92z" />
    <glyph glyph-name="second" unicode="&#x2033;" horiz-adv-x="1007" 
d="M342 1483q58 0 80 -36.5t4 -90.5l-82 -285q-19 -59 -70 -59q-31 0 -51 21t-14 61l45 297q11 92 88 92zM709 1483q58 0 80 -36.5t4 -90.5l-82 -285q-19 -59 -70 -59q-30 0 -51 21t-15 61l46 297q11 92 88 92z" />
    <glyph glyph-name="guilsinglleft" unicode="&#x2039;" horiz-adv-x="774" 
d="M596 977q29 -24 30 -56.5t-24 -64.5l-254 -324l252 -325q55 -75 -6 -121q-26 -20 -53 -20q-39 0 -76 40l-340 379q-19 24 -19 45q0 26 19 45l342 379q37 43 76 43q26 0 53 -20z" />
    <glyph glyph-name="guilsinglright" unicode="&#x203a;" horiz-adv-x="774" 
d="M168 977q27 20 53 20q39 0 76 -43l342 -379q18 -18 18 -45q0 -22 -18 -45l-340 -379q-37 -40 -76 -40q-27 0 -53 20q-61 46 -6 121l252 325l-254 324q-25 32 -24 64.5t30 56.5z" />
    <glyph glyph-name="fraction" unicode="&#x2044;" horiz-adv-x="1292" 
d="M1198 1438q32 0 51 -18t19 -48q0 -24 -27 -65l-1044 -1239q-43 -51 -61 -62q-19 -12 -40 -12q-53 0 -68 43t21 84l1049 1247q35 40 54.5 55t45.5 15z" />
    <glyph glyph-name="Euro" unicode="&#x20ac;" horiz-adv-x="1599" 
d="M1030 1454q87 0 186 -23t150 -49q68 -35 68 -84q0 -33 -21 -61.5t-61 -28.5q-15 0 -62 13q-150 49 -252 49q-182 0 -306 -100.5t-169 -270.5h570q30 0 46.5 -13.5t16.5 -37.5q0 -53 -63 -53h-592q-4 -54 -4 -78q0 -28 4 -86h495q29 0 46.5 -14t17.5 -37q0 -24 -17.5 -39
t-46.5 -15h-471q44 -165 168.5 -263.5t306.5 -98.5q123 0 226 35q38 12 61 12q40 0 61 -25.5t21 -58.5q0 -58 -70 -92q-56 -24 -142 -39.5t-163 -15.5q-274 0 -467 146.5t-250 399.5h-110q-29 0 -45.5 14.5t-16.5 39.5q0 23 16.5 37t45.5 14h96q-4 29 -4 86q0 51 2 78h-113
q-29 0 -45 14t-16 39q0 24 16 37.5t45 13.5h127q54 255 247.5 405t467.5 150z" />
    <glyph glyph-name="trademark" unicode="&#x2122;" horiz-adv-x="1642" 
d="M1395 1436q37 0 56 -18t19 -50v-520q0 -28 -17.5 -45t-45.5 -17q-27 0 -45.5 17t-18.5 45l7 344l-140 -270q-22 -48 -65 -48q-46 0 -66 48l-137 270l6 -344q0 -29 -18.5 -45.5t-46.5 -16.5t-46 17t-18 45v520q0 31 20 49.5t58 18.5q54 0 76 -54l172 -354l174 356
q24 52 76 52zM223 1434h428q37 0 54.5 -18t17.5 -44q0 -27 -17.5 -45t-54.5 -18h-149v-457q0 -30 -18 -48t-48 -18t-47.5 18t-17.5 48v457h-148q-37 0 -54 17.5t-17 45.5q0 26 17 44t54 18z" />
    <glyph glyph-name="uni2190" unicode="&#x2190;" horiz-adv-x="1728" 
d="M762 1030q65 -77 -31 -164l-125 -110l-176 -142l367 19h692q123 0 123 -103q0 -102 -123 -102h-692l-367 18l176 -141l125 -110q46 -42 54.5 -83.5t-23.5 -78.5q-34 -37 -78 -34t-88 46l-424 381q-55 52 -55 104q0 53 55 105l424 381q44 43 88.5 46t77.5 -32z" />
    <glyph glyph-name="uni2191" unicode="&#x2191;" horiz-adv-x="1298" 
d="M754 1380l381 -422q89 -96 14 -165q-37 -32 -79.5 -24.5t-84.5 52.5l-104 121l-148 180l19 -364v-645q0 -119 -103 -119q-102 0 -102 119v645l18 364l-143 -176l-109 -125q-42 -45 -84 -52.5t-79 24.5q-75 69 14 165l381 422q48 56 104 56q57 0 105 -56z" />
    <glyph glyph-name="uni2192" unicode="&#x2192;" horiz-adv-x="1728" 
d="M967 1030q34 35 78 32t90 -46l421 -381q56 -51 56 -105q0 -53 -56 -104l-421 -381q-46 -43 -90 -46t-78 34q-32 37 -23.5 78.5t53.5 83.5l127 110l174 141l-364 -18h-694q-123 0 -123 102q0 103 123 103h694l364 -19l-178 146l-123 106q-94 88 -30 164z" />
    <glyph glyph-name="uni2193" unicode="&#x2193;" horiz-adv-x="1298" 
d="M1135 473l-381 -424q-49 -55 -105 -55q-55 0 -104 55l-381 424q-43 44 -47 88t33 76q37 33 79 25t84 -54l107 -121l145 -180l-18 367v643q0 119 102 119q103 0 103 -119v-643l-19 -367l146 180l106 121q42 46 84.5 54t79.5 -25q37 -32 33 -76t-47 -88z" />
    <glyph glyph-name="uni2196" unicode="&#x2196;" horiz-adv-x="1318" 
d="M264 1083l570 -26q63 -3 96 -31t31 -78q-3 -49 -39 -73.5t-97 -22.5l-157 10l-234 25l271 -246l448 -448q43 -42 48 -84t-30 -78q-36 -35 -77.5 -29.5t-85.5 47.5l-447 449l-248 270l27 -236l10 -155q2 -61 -22.5 -96.5t-73.5 -38.5q-50 -2 -78 31t-29 96l-28 569
q-6 74 33 113q38 38 112 32z" />
    <glyph glyph-name="uni2197" unicode="&#x2197;" horiz-adv-x="1318" 
d="M485 1057l570 26q74 6 112 -32q39 -39 33 -113l-29 -569q-1 -63 -28.5 -96t-77.5 -31q-49 3 -73.5 38.5t-22.5 96.5l10 158l27 233l-248 -270l-447 -449q-43 -42 -85.5 -47.5t-78.5 29.5q-35 36 -29.5 78t48.5 84l448 448l271 246l-244 -25l-147 -10q-61 -2 -97 22.5
t-39 73.5q-2 50 31 78t96 31z" />
    <glyph glyph-name="uni2198" unicode="&#x2198;" horiz-adv-x="1318" 
d="M1055 0l-570 29q-62 1 -95.5 29.5t-31.5 76.5q3 50 39 74.5t97 21.5l157 -10l234 -24l-271 245l-448 449q-43 43 -48.5 85.5t29.5 78.5q36 33 78.5 27.5t85.5 -48.5l447 -448l248 -271l-27 236l-10 156q-2 61 22.5 97t73.5 40q49 1 76.5 -32.5t29.5 -96.5l29 -568
q6 -73 -33 -112q-38 -38 -112 -35z" />
    <glyph glyph-name="uni2199" unicode="&#x2199;" horiz-adv-x="1318" 
d="M834 29l-570 -29q-74 -3 -112 35q-39 39 -33 112l28 568q1 63 29 97t78 32q99 -9 96 -137l-10 -152l-27 -240l248 271l447 448q90 90 163 21q35 -36 30 -78.5t-48 -85.5l-448 -449l-271 -245l234 24l157 10q61 3 97 -21.5t39 -74.5q2 -48 -31.5 -76.5t-95.5 -29.5z" />
    <glyph glyph-name="uni24EA" unicode="&#x24ea;" 
d="M782 1151q164 0 263.5 -121t99.5 -315q0 -196 -100 -319.5t-263 -123.5q-165 0 -264.5 121.5t-99.5 317.5t99.5 318t264.5 122zM782 1034q-104 0 -162.5 -85.5t-58.5 -235.5q0 -152 58 -237t163 -85t162 84.5t57 235.5q0 150 -57.5 236.5t-161.5 86.5zM782 1382
q134 0 257 -52.5t211.5 -142t141 -213t52.5 -259.5q0 -134 -52.5 -257t-141 -211.5t-211.5 -141t-257 -52.5q-135 0 -258 52.5t-212.5 141t-142 211.5t-52.5 257q0 136 52.5 259.5t142 213t212.5 142t258 52.5zM782 1319q-122 0 -233.5 -48t-192.5 -128.5t-128.5 -192.5
t-47.5 -235q0 -122 47.5 -232.5t128.5 -190.5t192.5 -127.5t233.5 -47.5t232.5 47.5t190.5 127.5t127.5 190.5t47.5 232.5q0 123 -47.5 235t-127.5 192.5t-190.5 128.5t-232.5 48z" />
    <glyph glyph-name="uni24FF" unicode="&#x24ff;" 
d="M1444 715q0 -134 -52.5 -257t-141 -211.5t-211.5 -141t-257 -52.5q-135 0 -258 52.5t-212.5 141t-142 211.5t-52.5 257q0 136 52.5 259.5t142 213t212.5 142t258 52.5q134 0 257 -52.5t211.5 -142t141 -213t52.5 -259.5zM782 1151q-165 0 -264.5 -122t-99.5 -318
t99.5 -317.5t264.5 -121.5q163 0 263 123.5t100 319.5q0 194 -99.5 315t-263.5 121zM782 1034q104 0 161.5 -86.5t57.5 -236.5q0 -151 -57 -235.5t-162 -84.5t-163 85t-58 237q0 150 58.5 235.5t162.5 85.5z" />
    <glyph glyph-name="uni2722" unicode="&#x2722;" horiz-adv-x="1161" 
d="M676 854q0 -57 -38.5 -160.5t-45.5 -152.5q70 9 160.5 46.5t152.5 37.5q38 0 68 -10.5t45.5 -27.5t23 -37t0 -40.5t-23 -37.5t-45.5 -27.5t-68 -10.5q-62 0 -151.5 37t-161.5 47q9 -70 46.5 -160.5t37.5 -152.5q0 -44 -14 -77t-35.5 -47.5t-46 -14.5t-46 14.5t-35.5 47.5
t-14 77q0 61 37.5 150.5t46.5 162.5q-73 -9 -162.5 -46.5t-150.5 -37.5q-38 0 -68 10.5t-45.5 27.5t-23 37.5t0 40.5t23 37t45.5 27.5t68 10.5q62 0 152.5 -37.5t160.5 -46.5q-9 73 -46.5 162.5t-37.5 150.5q0 44 14 77t35.5 47.5t46 14.5t46 -14.5t35.5 -47.5t14 -77z" />
    <glyph glyph-name="uni2723" unicode="&#x2723;" horiz-adv-x="1177" 
d="M889 688q75 0 123.5 -43t48.5 -115t-48.5 -114.5t-123.5 -42.5q-86 0 -140.5 42.5t-54.5 114.5t54.5 115t140.5 43zM485 530q0 -72 -54 -114.5t-140 -42.5q-75 0 -124.5 42.5t-49.5 114.5t49.5 115t124.5 43q86 0 140 -43t54 -115zM590 627q-72 0 -115 55t-43 141
q0 74 43 123t115 49q71 0 114.5 -49t43.5 -123q0 -86 -43.5 -141t-114.5 -55zM590 434q71 0 114.5 -55t43.5 -141q0 -74 -43.5 -123t-114.5 -49q-72 0 -115 49t-43 123q0 86 43 141t115 55z" />
    <glyph glyph-name="uni2724" unicode="&#x2724;" horiz-adv-x="1163" 
d="M582 995q77 0 131.5 -42t54.5 -122q0 -46 -25.5 -87.5t-61.5 -80t-46 -57.5q-13 -26 -7 -30.5t31 8.5q17 10 56.5 46.5t81 61.5t86.5 25q80 0 122 -55t42 -132q0 -76 -42.5 -131t-121.5 -55q-36 0 -71 17t-58.5 37.5t-51 45t-45.5 33.5q-25 14 -30 8.5t8 -30.5
q9 -17 33.5 -44.5t45 -51t37.5 -58.5t17 -70q0 -81 -54.5 -123t-131.5 -42q-76 0 -131.5 42t-55.5 123q0 35 17 70t37.5 58.5t45 51.5t33.5 46q12 22 8.5 27.5t-26.5 -5.5q-20 -10 -58.5 -46t-81 -62.5t-89.5 -26.5q-79 0 -121.5 55t-42.5 131q0 77 42 132t122 55
q45 0 84.5 -23t78.5 -59.5t56 -46.5q28 -17 35.5 -11t-9.5 35q-10 17 -47 56t-60.5 79t-23.5 84q0 79 55.5 121.5t131.5 42.5z" />
    <glyph glyph-name="uni2725" unicode="&#x2725;" horiz-adv-x="1161" 
d="M580 874q16 71 74 103.5t110 8t53 -94.5q0 -47 -18.5 -86t-45 -65t-52.5 -49t-44.5 -48.5t-17.5 -52.5q28 -1 53.5 17t48.5 44t48.5 52t64.5 44.5t86 18.5q71 -1 96.5 -53.5t-7 -110t-103.5 -72.5q71 -15 103.5 -72.5t7 -109.5t-96.5 -53q-47 0 -86 18.5t-64.5 44.5
t-48.5 52t-48.5 44t-53.5 17q-1 -27 17.5 -52.5t44.5 -48.5t52.5 -49t45 -65t18.5 -86q-1 -70 -53 -94.5t-110 7.5t-74 103q-15 -71 -72.5 -103t-110 -7.5t-53.5 94.5q0 47 18.5 86t45 65t52.5 49t43.5 48.5t16.5 52.5q-27 1 -52.5 -17t-48.5 -44t-48.5 -52t-64 -44.5
t-85.5 -18.5q-71 1 -96 53t7.5 109.5t103.5 72.5q-71 15 -103.5 72.5t-7.5 110t96 53.5q47 0 85.5 -18.5t64 -44.5t48.5 -52t48.5 -44t52.5 -17q1 27 -16.5 52.5t-43.5 48.5t-52.5 49t-45 65t-18.5 86q1 70 53.5 94.5t110 -8t72.5 -103.5z" />
    <glyph glyph-name="uni2726" unicode="&#x2726;" horiz-adv-x="1163" 
d="M696 791l-82 -148q-25 -49 2.5 -77t77.5 -3q29 14 76.5 41t71.5 39q76 43 140.5 9.5t64.5 -122.5t-64.5 -122t-140.5 10q-24 12 -71.5 39t-76.5 41q-50 25 -77.5 -2.5t-2.5 -77.5l82 -148q46 -78 12 -141t-126 -63t-126.5 63t11.5 141l82 148q25 50 -3 77.5t-77 2.5
q-29 -14 -76 -41t-71 -39q-76 -43 -140.5 -10t-64.5 122t64.5 122.5t140.5 -9.5q24 -12 71 -39t76 -41q49 -25 77 3t3 77l-82 148q-46 78 -11.5 141t126.5 63t126 -63t-12 -141z" />
    <glyph glyph-name="uni273B" unicode="&#x273b;" horiz-adv-x="1163" 
d="M694 483q41 -30 96.5 -59.5t97 -50t80 -45.5t59 -56t20.5 -71q0 -55 -42.5 -95t-97.5 -40q-49 0 -88.5 38t-63 86.5t-59 117.5t-67.5 110q-18 24 -47 24t-47 -24q-32 -41 -68 -110t-59 -117.5t-63 -86.5t-89 -38q-55 0 -97 40t-42 95q0 40 20.5 71t59 56t79.5 45.5
t96.5 50t96.5 59.5q27 20 27 47q0 28 -27 48q-41 30 -96.5 59.5t-96.5 50t-79.5 45.5t-59 56t-20.5 71q0 55 42 95t97 40q49 0 89 -38t63 -86.5t59 -117.5t68 -110q19 -25 47 -25t47 25q32 41 67.5 110t59 117.5t63 86.5t88.5 38q55 0 97.5 -40t42.5 -95q0 -40 -20.5 -71
t-59 -56t-80 -45.5t-97 -50t-96.5 -59.5q-26 -20 -26 -48t26 -47z" />
    <glyph glyph-name="uni273C" unicode="&#x273c;" horiz-adv-x="1163" 
d="M477 897q0 98 105 98q47 0 75.5 -24t28.5 -74q0 -151 -30.5 -236.5t-71.5 -85.5q-43 0 -75 85t-32 237zM477 164q0 151 31.5 236t73.5 85q43 0 73.5 -85t30.5 -236q0 -50 -28.5 -74t-75.5 -24q-105 0 -105 98zM215 426q-98 0 -98 104q0 105 98 105q151 0 236.5 -31
t85.5 -72q0 -43 -85 -74.5t-237 -31.5zM948 426q-152 0 -236.5 31t-84.5 73q0 43 84.5 74t236.5 31q50 0 74.5 -28.5t24.5 -76.5t-24.5 -76t-74.5 -28z" />
    <glyph glyph-name="uni273D" unicode="&#x273d;" horiz-adv-x="1163" 
d="M625 575q81 46 151.5 66.5t119 17t83.5 -22t51.5 -46.5t16.5 -60t-16.5 -60t-51.5 -46.5t-83.5 -22t-119 17t-151.5 66.5q46 -81 67 -151.5t17.5 -118.5t-22 -82.5t-46 -50.5t-59.5 -16t-59.5 16t-46 50.5t-22 82.5t17.5 118.5t67 151.5q-81 -46 -151.5 -66.5t-119 -17
t-83.5 22t-51.5 46.5t-16.5 60t16.5 60t51.5 46.5t83.5 22t119 -17t151.5 -66.5q-46 81 -67 152t-17.5 118.5t22 82.5t46 51t59.5 16t59.5 -16t46 -51t22 -82.5t-17.5 -118.5t-67 -152z" />
    <glyph glyph-name="uni273E" unicode="&#x273e;" horiz-adv-x="1095" 
d="M549 995q66 0 104 -33.5t37 -91.5q-1 -25 -18 -66t-42.5 -90.5t-33.5 -68.5q-11 -23 -2.5 -44t31.5 -21q22 0 47.5 30.5t48 66.5t65 66.5t95.5 30.5q62 -1 88 -55q26 -55 -7 -111q-42 -70 -147 -78q110 -9 149 -84q31 -56 3 -109q-26 -51 -86 -52q-53 0 -95.5 30.5
t-65 66.5t-48 66.5t-47.5 30.5q-23 0 -31.5 -20t2.5 -45q8 -20 33.5 -68.5t42.5 -89.5t18 -66q2 -54 -35.5 -89t-103.5 -35h-4q-67 0 -104 34.5t-37 89.5q1 25 18 66t42.5 89.5t33.5 68.5q11 25 2.5 45t-31.5 20q-22 0 -47.5 -30.5t-48 -66.5t-65 -66.5t-95.5 -30.5
q-63 1 -88.5 56t7.5 110q42 70 147 79q-110 8 -150 83q-30 56 -2 109q27 50 86 52q53 0 95.5 -30.5t65 -66.5t48 -66.5t47.5 -30.5q23 0 31.5 21t-2.5 44q-8 19 -33.5 68.5t-42.5 90.5t-18 66q0 55 37.5 90t105.5 35zM549 109q47 0 71.5 23t24.5 65q0 18 -8 43t-18 47.5
t-32 70t-38 84.5q-16 -37 -38 -84.5t-32 -70t-18 -47.5t-8 -43q0 -42 24.5 -65t71.5 -23zM549 952q-47 0 -71.5 -23t-24.5 -65q0 -18 8 -43.5t18 -47.5t32 -70.5t38 -84.5q16 36 38 84.5t32 70.5t18 47.5t8 43.5q0 42 -24.5 65t-71.5 23z" />
    <glyph glyph-name="uni273F" unicode="&#x273f;" horiz-adv-x="1200" 
d="M698 530q55 -12 95 -23t99 -35.5t97 -52.5t66 -73.5t28 -99.5q0 -82 -55 -131t-147 -49q-49 0 -89.5 18t-68.5 52t-49 71t-35.5 87.5t-22.5 88t-16 84.5q-8 -47 -16 -84.5t-22.5 -88t-35.5 -87.5t-49 -71t-68.5 -52t-89.5 -18q-92 0 -147 49t-55 131q0 54 28 99.5
t66 73.5t97 52.5t99 35.5t95 23q-37 8 -65.5 15.5t-71 21.5t-74 28.5t-66 37t-57 48t-37 60.5t-14.5 74q0 82 55 131t147 49q49 0 89.5 -18t68.5 -52t49 -71t35.5 -87.5t22.5 -88t16 -84.5q8 47 16 84.5t22.5 88t35.5 87.5t49 71t68.5 52t89.5 18q92 0 147 -49t55 -131
q0 -39 -14.5 -74t-37 -60.5t-57 -48t-66 -37t-74 -28.5t-71 -21.5t-65.5 -15.5z" />
    <glyph glyph-name="uni2740" unicode="&#x2740;" horiz-adv-x="1163" 
d="M582 995q192 0 328.5 -136.5t136.5 -328.5t-136.5 -328t-328.5 -136t-328.5 136t-136.5 328t136.5 328.5t328.5 136.5zM487 530q-27 -6 -61 -22t-68.5 -40.5t-58 -61t-23.5 -74.5q0 -50 31 -84.5t86 -34.5q24 0 45 7.5t37.5 23.5t29 31.5t25 42t19 43t17.5 46.5t16 42
q4 -10 15 -42t17 -47t18.5 -42.5t24.5 -42t28.5 -31t37.5 -24t45 -7.5q56 0 87.5 34.5t31.5 84.5q0 38 -23.5 74.5t-58 61t-69 40.5t-62.5 22q39 8 85.5 32.5t87 70.5t40.5 96t-31.5 84.5t-87.5 34.5q-24 0 -45 -7.5t-37.5 -24t-28.5 -31t-24.5 -42t-18.5 -42.5t-17 -47
t-15 -42q-5 12 -16 42t-17.5 46.5t-19 43t-25 42t-29 31.5t-37.5 23.5t-45 7.5q-55 0 -86 -34.5t-31 -84.5q0 -38 23.5 -74.5t58 -61t68.5 -41t61 -22.5z" />
    <glyph glyph-name="uni2749" unicode="&#x2749;" horiz-adv-x="1196" 
d="M637 530q0 -40 16 -72.5t38.5 -55t45 -45.5t38.5 -55t16 -71q0 -81 -57 -123t-136 -42q-81 0 -138 42t-57 123q0 39 16 71t38.5 55t45 45.5t38.5 55t16 72.5t-16 72.5t-38.5 55t-45 45.5t-38.5 55t-16 71q0 81 57 123.5t138 42.5q79 0 136 -42.5t57 -123.5q0 -39 -16 -71
t-38.5 -55t-45 -45.5t-38.5 -55t-16 -72.5zM909 684q73 0 121.5 -42.5t48.5 -111.5t-48 -111t-122 -42q-83 0 -136.5 42t-53.5 111q0 70 53.5 112t136.5 42zM475 530q0 -70 -53 -111.5t-137 -41.5q-73 0 -120.5 42t-47.5 111t47.5 111.5t120.5 42.5q84 0 137 -42t53 -112z
" />
    <glyph glyph-name="uni2765" unicode="&#x2765;" horiz-adv-x="942" 
d="M680 653q80 -11 112.5 -45t32.5 -78q0 -107 -145 -127q-50 -7 -82.5 -31.5t-47.5 -57.5t-25 -70.5t-22 -74t-32 -66.5t-61 -48t-103 -18q-86 0 -138 54.5t-52 137.5q0 116 83 200t216 101q-132 13 -215.5 98t-83.5 199q0 83 52 137t138 54q62 0 103 -18t61 -47.5
t32 -65.5t22 -74t24.5 -70.5t47.5 -57t83 -32.5z" />
    <glyph glyph-name="uni2776" unicode="&#x2776;" 
d="M782 1382q134 0 257 -52.5t211.5 -142t141 -213t52.5 -259.5q0 -134 -52.5 -257t-141 -211.5t-211.5 -141t-257 -52.5q-135 0 -258 52.5t-212.5 141t-142 211.5t-52.5 257q0 136 52.5 259.5t142 213t212.5 142t258 52.5zM807 1149q-25 0 -66 -21l-110 -63
q-45 -25 -45 -59q0 -21 15 -38.5t38 -17.5q19 0 41 11l59 26v-627q0 -34 19 -52.5t49 -18.5q29 0 48 18.5t19 52.5v721q0 32 -19 50t-48 18z" />
    <glyph glyph-name="uni2777" unicode="&#x2777;" 
d="M782 1382q134 0 257 -52.5t211.5 -142t141 -213t52.5 -259.5q0 -134 -52.5 -257t-141 -211.5t-211.5 -141t-257 -52.5q-135 0 -258 52.5t-212.5 141t-142 211.5t-52.5 257q0 136 52.5 259.5t142 213t212.5 142t258 52.5zM774 1157q-48 0 -105.5 -12.5t-95.5 -30.5
q-49 -18 -49 -55q0 -23 14 -40.5t40 -17.5q11 0 38 9q87 28 134 28q83 0 128.5 -42t45.5 -109q0 -94 -129 -215l-248 -232q-47 -43 -47 -80q0 -28 18 -47.5t53 -19.5h447q30 0 47.5 16t17.5 41t-17.5 41.5t-47.5 16.5h-336l195 176q39 34 64.5 60t58 67t49 87.5t16.5 96.5
q0 118 -81.5 190t-209.5 72z" />
    <glyph glyph-name="uni2778" unicode="&#x2778;" 
d="M1444 717q0 -134 -52.5 -257t-141 -211.5t-211.5 -141t-257 -52.5q-135 0 -258 52.5t-212.5 141t-142 211.5t-52.5 257q0 136 52.5 259.5t142 213t212.5 142t258 52.5q134 0 257 -52.5t211.5 -142t141 -213t52.5 -259.5zM774 1155q-97 0 -176 -31q-51 -16 -51 -55
q0 -24 13.5 -39.5t37.5 -15.5q11 0 47 8q56 12 107 12q69 0 115 -31.5t46 -93.5q0 -58 -46 -86t-117 -28h-37q-30 0 -46 -14.5t-16 -37.5q0 -22 15.5 -35.5t44.5 -13.5h30q81 -2 140 -39.5t59 -111.5q0 -70 -53 -109t-131 -39q-83 0 -150 25q-21 8 -41 8q-23 0 -37 -15
t-14 -40q0 -41 45 -58q86 -39 203 -39q140 0 230.5 65t90.5 185q0 76 -44.5 133.5t-116.5 79.5q62 27 95.5 77.5t33.5 111.5q0 105 -78.5 166t-198.5 61z" />
    <glyph glyph-name="uni2779" unicode="&#x2779;" 
d="M1444 715q0 -134 -52.5 -257t-141 -211.5t-211.5 -141t-257 -52.5q-135 0 -258 52.5t-212.5 141t-142 211.5t-52.5 257q0 136 52.5 259.5t142 213t212.5 142t258 52.5q134 0 257 -52.5t211.5 -142t141 -213t52.5 -259.5zM895 1147q-22 0 -40.5 -10t-24.5 -16.5t-27 -30.5
l-354 -453q-4 -6 -15 -21t-16 -22.5t-10 -19.5t-5 -21q0 -30 20.5 -48t51.5 -18h359v-129q0 -34 18.5 -52.5t48.5 -18.5t49 18.5t19 52.5v129h47q25 2 40 16.5t15 37.5t-15 36t-40 13h-47v483q0 35 -21.5 54.5t-52.5 19.5zM547 590l287 364v-364h-287z" />
    <glyph glyph-name="uni277A" unicode="&#x277a;" 
d="M1444 715q0 -134 -52.5 -257t-141 -211.5t-211.5 -141t-257 -52.5q-135 0 -258 52.5t-212.5 141t-142 211.5t-52.5 257q0 136 52.5 259.5t142 213t212.5 142t258 52.5q134 0 257 -52.5t211.5 -142t141 -213t52.5 -259.5zM985 1149h-356q-61 0 -70 -62l-39 -286
q-6 -62 35 -84q41 -21 92 2q63 29 111 29q76 0 125 -47t49 -123q0 -79 -57 -128t-144 -49q-73 0 -158 29q-18 6 -34 6q-23 0 -37.5 -14t-14.5 -39q0 -39 50 -57q109 -41 211 -41q146 0 235.5 83.5t89.5 213.5q0 118 -77 194t-208 76q-89 0 -155 -39l29 221h323
q29 0 46.5 16.5t17.5 41.5t-17.5 41t-46.5 16z" />
    <glyph glyph-name="uni277B" unicode="&#x277b;" 
d="M1444 715q0 -134 -52.5 -257t-141 -211.5t-211.5 -141t-257 -52.5q-135 0 -258 52.5t-212.5 141t-142 211.5t-52.5 257q0 136 52.5 259.5t142 213t212.5 142t258 52.5q134 0 257 -52.5t211.5 -142t141 -213t52.5 -259.5zM793 1153q-84 0 -149.5 -31.5t-104.5 -80
t-64 -113t-34 -123.5t-9 -119q0 -87 20 -160.5t60 -130.5t106.5 -89t153.5 -32q138 0 223.5 83t85.5 210q0 131 -83.5 205t-209.5 74q-72 0 -132 -29t-97 -82q6 150 70 225.5t172 75.5q73 0 145 -22q24 -8 39 -8q25 0 39 16.5t14 42.5q0 36 -49 53q-103 35 -196 35zM764 739
q84 0 132 -49t48 -127q0 -76 -48 -127t-132 -51q-85 0 -133.5 51.5t-48.5 126.5q0 76 50 126t132 50z" />
    <glyph glyph-name="uni277C" unicode="&#x277c;" 
d="M1444 715q0 -134 -52.5 -257t-141 -211.5t-211.5 -141t-257 -52.5q-135 0 -258 52.5t-212.5 141t-142 211.5t-52.5 257q0 136 52.5 259.5t142 213t212.5 142t258 52.5q134 0 257 -52.5t211.5 -142t141 -213t52.5 -259.5zM987 1147h-436q-29 0 -46.5 -16t-17.5 -41
q0 -24 17 -41t47 -17h375l-299 -645q-9 -24 -9 -39q0 -25 19.5 -41t46.5 -16q42 0 64 49l303 657q24 50 24 78q0 32 -23 52t-65 20z" />
    <glyph glyph-name="uni277D" unicode="&#x277d;" 
d="M782 1382q134 0 257 -52.5t211.5 -142t141 -213t52.5 -259.5q0 -134 -52.5 -257t-141 -211.5t-211.5 -141t-257 -52.5q-135 0 -258 52.5t-212.5 141t-142 211.5t-52.5 257q0 136 52.5 259.5t142 213t212.5 142t258 52.5zM782 678q83 0 134 -40t51 -108
q0 -70 -53.5 -109.5t-131.5 -39.5t-130 39.5t-52 109.5q0 68 50 108t132 40zM782 1153q-121 0 -200.5 -62t-79.5 -169q0 -65 35.5 -113.5t93.5 -69.5q-77 -26 -123.5 -81t-46.5 -132q0 -123 92.5 -187.5t228.5 -64.5q139 0 231.5 64.5t92.5 187.5q0 76 -47 132.5t-121 80.5
q55 23 91 71.5t36 111.5q0 107 -81 169t-202 62zM782 1040q67 0 108.5 -33.5t41.5 -93.5q0 -56 -40 -91.5t-110 -35.5q-69 0 -109 36t-40 91q0 60 41.5 93.5t107.5 33.5z" />
    <glyph glyph-name="uni277E" unicode="&#x277e;" 
d="M1444 715q0 -134 -52.5 -257t-141 -211.5t-211.5 -141t-257 -52.5q-135 0 -258 52.5t-212.5 141t-142 211.5t-52.5 257q0 136 52.5 259.5t142 213t212.5 142t258 52.5q134 0 257 -52.5t211.5 -142t141 -213t52.5 -259.5zM782 1153q-138 0 -223.5 -83.5t-85.5 -211.5
q0 -131 84 -204.5t211 -73.5q72 0 133 30t96 84q-11 -303 -241 -303q-60 0 -111 13t-61 14q-27 3 -43 -9.5t-19 -35.5q-3 -21 9 -39t38 -27q82 -33 195 -33q85 0 150.5 31t104 78t63.5 111.5t33.5 123.5t8.5 121q0 87 -20 160.5t-60.5 131t-107.5 90t-154 32.5zM791 1042
q85 0 134.5 -52.5t49.5 -125.5q0 -78 -50 -127t-134 -49t-131.5 48.5t-47.5 127.5q0 77 48 127.5t131 50.5z" />
    <glyph glyph-name="uni2780" unicode="&#x2780;" 
d="M807 1149q-25 0 -66 -21l-110 -63q-45 -25 -45 -59q0 -21 15 -38.5t38 -17.5q15 0 41 11l59 26v-627q0 -34 19 -52.5t49 -18.5q29 0 48 18.5t19 52.5v721q0 32 -19 50t-48 18zM782 1382q134 0 257 -52.5t211.5 -142t141 -213t52.5 -259.5q0 -134 -52.5 -257t-141 -211.5
t-211.5 -141t-257 -52.5q-135 0 -258 52.5t-212.5 141t-142 211.5t-52.5 257q0 136 52.5 259.5t142 213t212.5 142t258 52.5zM782 1319q-122 0 -233.5 -48t-192.5 -128.5t-128.5 -192.5t-47.5 -235q0 -122 47.5 -232.5t128.5 -190.5t192.5 -127.5t233.5 -47.5t232.5 47.5
t190.5 127.5t127.5 190.5t47.5 232.5q0 123 -47.5 235t-127.5 192.5t-190.5 128.5t-232.5 48z" />
    <glyph glyph-name="uni2781" unicode="&#x2781;" 
d="M782 1382q134 0 257 -52.5t211.5 -142t141 -213t52.5 -259.5q0 -134 -52.5 -257t-141 -211.5t-211.5 -141t-257 -52.5q-135 0 -258 52.5t-212.5 141t-142 211.5t-52.5 257q0 136 52.5 259.5t142 213t212.5 142t258 52.5zM782 1319q-122 0 -233.5 -48t-192.5 -128.5
t-128.5 -192.5t-47.5 -235q0 -122 47.5 -232.5t128.5 -190.5t192.5 -127.5t233.5 -47.5t232.5 47.5t190.5 127.5t127.5 190.5t47.5 232.5q0 123 -47.5 235t-127.5 192.5t-190.5 128.5t-232.5 48zM774 1157q-48 0 -105.5 -12.5t-95.5 -30.5q-49 -21 -49 -57q0 -22 14 -39
t40 -17q11 0 38 9q87 28 134 28q83 0 128.5 -42t45.5 -109q0 -94 -129 -215l-248 -232q-47 -43 -47 -80q0 -28 18 -47.5t53 -19.5h447q30 0 47.5 16t17.5 41t-17.5 41.5t-47.5 16.5h-336l195 176q39 34 64.5 60t58 67t49 87.5t16.5 96.5q0 118 -81.5 190t-209.5 72z" />
    <glyph glyph-name="uni2782" unicode="&#x2782;" 
d="M774 1155q120 0 198.5 -61t78.5 -166q0 -61 -33.5 -111.5t-95.5 -77.5q72 -22 116.5 -79.5t44.5 -133.5q0 -120 -90.5 -185t-230.5 -65q-110 0 -203 39q-45 17 -45 58q0 25 14 40t37 15q9 0 41 -8q86 -25 150 -25q78 0 131 39t53 109q0 74 -59 111.5t-140 39.5h-30
q-29 0 -44.5 13.5t-15.5 35.5q0 23 16 37.5t46 14.5h37q71 0 117 28t46 86q0 62 -46 93.5t-115 31.5q-51 0 -107 -12q-36 -8 -47 -8q-24 0 -37.5 15.5t-13.5 39.5q0 37 51 55q88 31 176 31zM782 1382q134 0 257 -52.5t211.5 -142t141 -213t52.5 -259.5q0 -134 -52.5 -257
t-141 -211.5t-211.5 -141t-257 -52.5q-135 0 -258 52.5t-212.5 141t-142 211.5t-52.5 257q0 136 52.5 259.5t142 213t212.5 142t258 52.5zM782 1319q-122 0 -233.5 -48t-192.5 -128.5t-128.5 -192.5t-47.5 -235q0 -122 47.5 -232.5t128.5 -190.5t192.5 -127.5t233.5 -47.5
t232.5 47.5t190.5 127.5t127.5 190.5t47.5 232.5q0 123 -47.5 235t-127.5 192.5t-190.5 128.5t-232.5 48z" />
    <glyph glyph-name="uni2783" unicode="&#x2783;" 
d="M895 1147q31 0 52.5 -19.5t21.5 -54.5v-483h47q25 0 40 -13t15 -36t-15 -37.5t-40 -16.5h-47v-129q0 -34 -19 -52.5t-49 -18.5t-48.5 18.5t-18.5 52.5v129h-359q-31 0 -51.5 18t-20.5 48q0 9 5 21t10 19.5t16 22.5t15 21l354 453q2 2 8.5 10t8.5 10t8 8.5t9 8.5t9 6.5
t10.5 6t11 4t13 3t14.5 0.5zM834 954l-287 -364h287v364zM782 1382q134 0 257 -52.5t211.5 -142t141 -213t52.5 -259.5q0 -134 -52.5 -257t-141 -211.5t-211.5 -141t-257 -52.5q-135 0 -258 52.5t-212.5 141t-142 211.5t-52.5 257q0 136 52.5 259.5t142 213t212.5 142
t258 52.5zM782 1319q-122 0 -233.5 -48t-192.5 -128.5t-128.5 -192.5t-47.5 -235q0 -122 47.5 -232.5t128.5 -190.5t192.5 -127.5t233.5 -47.5t232.5 47.5t190.5 127.5t127.5 190.5t47.5 232.5q0 123 -47.5 235t-127.5 192.5t-190.5 128.5t-232.5 48z" />
    <glyph glyph-name="uni2784" unicode="&#x2784;" 
d="M629 1149h356q29 0 46.5 -16t17.5 -41t-17.5 -41.5t-46.5 -16.5h-323l-29 -221q66 39 155 39q131 0 208 -76t77 -194q0 -130 -89.5 -213.5t-235.5 -83.5q-102 0 -211 41q-50 18 -50 57q0 25 14.5 39t37.5 14q16 0 34 -6q85 -29 158 -29q87 0 144 49t57 128q0 76 -49 123
t-125 47q-48 0 -111 -29q-51 -23 -92 -2q-41 22 -35 84l39 286q9 62 70 62zM782 1382q134 0 257 -52.5t211.5 -142t141 -213t52.5 -259.5q0 -134 -52.5 -257t-141 -211.5t-211.5 -141t-257 -52.5q-135 0 -258 52.5t-212.5 141t-142 211.5t-52.5 257q0 136 52.5 259.5
t142 213t212.5 142t258 52.5zM782 1319q-122 0 -233.5 -48t-192.5 -128.5t-128.5 -192.5t-47.5 -235q0 -122 47.5 -232.5t128.5 -190.5t192.5 -127.5t233.5 -47.5t232.5 47.5t190.5 127.5t127.5 190.5t47.5 232.5q0 123 -47.5 235t-127.5 192.5t-190.5 128.5t-232.5 48z" />
    <glyph glyph-name="uni2785" unicode="&#x2785;" 
d="M782 1382q134 0 257 -52.5t211.5 -142t141 -213t52.5 -259.5q0 -134 -52.5 -257t-141 -211.5t-211.5 -141t-257 -52.5q-135 0 -258 52.5t-212.5 141t-142 211.5t-52.5 257q0 136 52.5 259.5t142 213t212.5 142t258 52.5zM782 1319q-122 0 -233.5 -48t-192.5 -128.5
t-128.5 -192.5t-47.5 -235q0 -122 47.5 -232.5t128.5 -190.5t192.5 -127.5t233.5 -47.5t232.5 47.5t190.5 127.5t127.5 190.5t47.5 232.5q0 123 -47.5 235t-127.5 192.5t-190.5 128.5t-232.5 48zM793 1153q93 0 196 -35q49 -17 49 -53q0 -26 -14 -42.5t-39 -16.5
q-15 0 -39 8q-72 22 -145 22q-108 0 -172 -75.5t-70 -225.5q37 53 97 82t132 29q126 0 209.5 -74t83.5 -205q0 -127 -85.5 -210t-223.5 -83q-87 0 -153.5 32t-106.5 89t-60 130.5t-20 160.5q0 60 9 119t34 123.5t64 113t104.5 80t149.5 31.5zM764 739q-82 0 -132 -50
t-50 -126q0 -75 48.5 -126.5t133.5 -51.5q84 0 132 51t48 127q0 78 -48 127t-132 49z" />
    <glyph glyph-name="uni2786" unicode="&#x2786;" 
d="M551 1147h436q42 0 65 -20t23 -52q0 -28 -24 -78l-303 -657q-22 -49 -64 -49q-27 0 -46.5 16t-19.5 41q0 15 9 39l299 645h-375q-30 0 -47 17t-17 41q0 25 17.5 41t46.5 16zM782 1382q134 0 257 -52.5t211.5 -142t141 -213t52.5 -259.5q0 -134 -52.5 -257t-141 -211.5
t-211.5 -141t-257 -52.5q-135 0 -258 52.5t-212.5 141t-142 211.5t-52.5 257q0 136 52.5 259.5t142 213t212.5 142t258 52.5zM782 1319q-122 0 -233.5 -48t-192.5 -128.5t-128.5 -192.5t-47.5 -235q0 -122 47.5 -232.5t128.5 -190.5t192.5 -127.5t233.5 -47.5t232.5 47.5
t190.5 127.5t127.5 190.5t47.5 232.5q0 123 -47.5 235t-127.5 192.5t-190.5 128.5t-232.5 48z" />
    <glyph glyph-name="uni2787" unicode="&#x2787;" 
d="M782 678q83 0 134 -40t51 -108q0 -70 -53.5 -109.5t-131.5 -39.5t-130 39.5t-52 109.5q0 68 50 108t132 40zM782 1153q-121 0 -200.5 -62t-79.5 -169q0 -65 35.5 -113.5t93.5 -69.5q-77 -26 -123.5 -81t-46.5 -132q0 -123 92.5 -187.5t228.5 -64.5q139 0 231.5 64.5
t92.5 187.5q0 76 -47 132.5t-121 80.5q55 23 91 71.5t36 111.5q0 107 -81 169t-202 62zM782 1040q67 0 108.5 -33.5t41.5 -93.5q0 -56 -40 -91.5t-110 -35.5q-69 0 -109 36t-40 91q0 60 41.5 93.5t107.5 33.5zM782 1382q134 0 257 -52.5t211.5 -142t141 -213t52.5 -259.5
q0 -134 -52.5 -257t-141 -211.5t-211.5 -141t-257 -52.5q-135 0 -258 52.5t-212.5 141t-142 211.5t-52.5 257q0 136 52.5 259.5t142 213t212.5 142t258 52.5zM782 1319q-122 0 -233.5 -48t-192.5 -128.5t-128.5 -192.5t-47.5 -235q0 -122 47.5 -232.5t128.5 -190.5
t192.5 -127.5t233.5 -47.5t232.5 47.5t190.5 127.5t127.5 190.5t47.5 232.5q0 123 -47.5 235t-127.5 192.5t-190.5 128.5t-232.5 48z" />
    <glyph glyph-name="uni2788" unicode="&#x2788;" 
d="M782 1382q134 0 257 -52.5t211.5 -142t141 -213t52.5 -259.5q0 -134 -52.5 -257t-141 -211.5t-211.5 -141t-257 -52.5q-135 0 -258 52.5t-212.5 141t-142 211.5t-52.5 257q0 136 52.5 259.5t142 213t212.5 142t258 52.5zM782 1319q-122 0 -233.5 -48t-192.5 -128.5
t-128.5 -192.5t-47.5 -235q0 -122 47.5 -232.5t128.5 -190.5t192.5 -127.5t233.5 -47.5t232.5 47.5t190.5 127.5t127.5 190.5t47.5 232.5q0 123 -47.5 235t-127.5 192.5t-190.5 128.5t-232.5 48zM782 1153q87 0 154 -32.5t107.5 -90t60.5 -131t20 -160.5q0 -62 -8.5 -121
t-33.5 -123.5t-63.5 -111.5t-104 -78t-150.5 -31q-113 0 -195 33q-26 9 -38 27t-9 39q3 23 19 35.5t43 9.5q10 -1 61 -14t111 -13q230 0 241 303q-35 -54 -96 -84t-133 -30q-127 0 -211 73.5t-84 204.5q0 128 85.5 211.5t223.5 83.5zM791 1042q-83 0 -131 -50.5t-48 -127.5
q0 -79 47.5 -127.5t131.5 -48.5t134 49t50 127q0 73 -49.5 125.5t-134.5 52.5z" />
    <glyph glyph-name="uni2799" unicode="&#x2799;" horiz-adv-x="2181" 
d="M512 557h1315q-30 10 -60 25.5t-62.5 40t-52.5 59.5t-20 76q0 52 39 88.5t98 36.5t99.5 -30.5t58.5 -82.5q8 -22 17.5 -57t17 -59.5t20 -51t33 -45t49.5 -27.5q-36 -12 -60 -41t-33.5 -56t-22 -73t-21.5 -69q-18 -52 -58.5 -82.5t-99.5 -30.5t-98 36.5t-39 88.5
q0 41 20 76t52.5 59.5t62.5 40t60 25.5h-1315l-129 -303q-13 -33 -39 -33q-20 0 -29 14.5t0 40.5l119 281h-115l-129 -303q-13 -33 -38 -33q-20 0 -29 14.5t0 40.5l129 307l-129 308q-9 26 0 40.5t29 14.5q25 0 38 -33l129 -303h115l-119 281q-9 26 0 40.5t29 14.5
q26 0 39 -33z" />
    <glyph glyph-name="uni27B3" unicode="&#x27b3;" horiz-adv-x="2332" 
d="M702 545h1233q-21 29 -31.5 44t-27 55t-16.5 75q0 55 29.5 86t84.5 31q42 0 72 -23.5t48.5 -61.5t34 -78.5t37.5 -84t50 -68.5q-28 -25 -50 -68.5t-37.5 -84t-34 -78.5t-48.5 -61t-72 -23q-55 0 -84.5 31t-29.5 86q0 35 16.5 75t27 55t31.5 44h-1233l-81 -224
q-8 -22 -27 -22q-13 0 -19 10.5t0 28.5l76 207h-100l-82 -224q-8 -22 -27 -22q-13 0 -18.5 10.5t0.5 28.5l76 207h-101l-82 -224q-8 -22 -26 -22q-13 0 -19 10.5t0 28.5l76 207h-100l-82 -224q-8 -22 -27 -22q-13 0 -18.5 10.5t0.5 28.5l84 231l-84 232q-6 18 -0.5 28.5
t18.5 10.5q18 0 27 -23l82 -223h100l-76 207q-6 18 0 28.5t19 10.5q17 0 26 -23l82 -223h101l-76 207q-6 18 -0.5 28.5t18.5 10.5q18 0 27 -23l82 -223h100l-76 207q-6 18 0 28.5t19 10.5q18 0 27 -23z" />
    <glyph glyph-name="uni27B8" unicode="&#x27b8;" horiz-adv-x="1546" 
d="M854 635h195q-91 50 -91 133q0 62 41.5 101.5t116.5 39.5q112 0 154 -116q10 -21 31 -72.5t35.5 -83t40 -64t53.5 -43.5q-28 -9 -53.5 -41t-39.5 -61.5t-36 -82.5t-31 -73q-13 -26 -23.5 -42.5t-28.5 -35.5t-43.5 -28.5t-58.5 -9.5q-75 0 -116.5 39.5t-41.5 101.5
q0 85 91 131h-195q-34 0 -48.5 -7t-43.5 -44l-92 -146q-29 -40 -71 -57.5t-126 -17.5h-207q-90 0 -130 51.5t-1 126.5l94 196l-94 199q-39 75 1 127.5t130 52.5h207q84 0 126 -18t71 -60l92 -143q29 -38 43.5 -45.5t48.5 -7.5z" />
    <glyph glyph-name="uni27BA" unicode="&#x27ba;" horiz-adv-x="1216" 
d="M766 618l2 5q-52 18 -92.5 52.5t-40.5 86.5q0 56 30.5 83t79.5 27q33 0 66.5 -13t64 -39.5t55.5 -52t53.5 -66.5t44 -65.5t40.5 -66t31 -51.5q-6 -10 -31 -51.5t-40.5 -66t-44 -65.5t-53.5 -66.5t-55.5 -52t-64 -39.5t-66.5 -13q-49 0 -79.5 27t-30.5 83q0 52 40.5 87
t92.5 53l-2 4q-76 -7 -223 -51.5t-236 -44.5q-97 0 -143.5 54t-46.5 142t46.5 142.5t143.5 54.5q89 0 236 -45t223 -52z" />
    <glyph glyph-name="uni27BB" unicode="&#x27bb;" horiz-adv-x="1171" 
d="M311 803q28 0 49 -41l107 -199h336q-32 11 -56 22t-51 29.5t-42 47t-15 63.5q0 37 22 68t57.5 46t75.5 16t80 -23.5t66 -71.5q16 -27 57 -113.5t58 -114.5q-16 -27 -57 -113t-58 -114q-26 -47 -66 -72t-80 -24.5t-75.5 15.5t-57.5 46t-22 68q0 36 14.5 64.5t42 47.5
t51.5 30t56 22h-336l-107 -199q-21 -41 -49 -41q-26 0 -33.5 20.5t7.5 51.5l88 168h-64l-106 -199q-21 -41 -49 -41q-26 0 -34 20.5t7 51.5l104 198l-104 199q-15 31 -7 51.5t34 20.5q28 0 49 -41l106 -199h64l-88 168q-15 31 -7.5 51.5t33.5 20.5z" />
    <glyph glyph-name="uni27BC" unicode="&#x27bc;" horiz-adv-x="1630" 
d="M1110 584h119q-99 59 -99 153q0 48 31.5 83.5t95.5 35.5q83 0 127 -104q7 -15 23 -59t27 -70t32.5 -54.5t46.5 -38.5q-25 -10 -46.5 -38.5t-32.5 -54t-27 -69.5t-23 -59q-44 -104 -127 -104q-64 0 -95.5 35.5t-31.5 83.5q0 94 99 153h-119q-17 0 -29 -9t-19.5 -21.5
t-25.5 -47.5q-31 -65 -54 -94t-58.5 -42t-100.5 -13h-653q-31 0 -48 20.5t-1 59.5l41 98q9 31 0.5 39.5t-43.5 13.5v99q35 5 43.5 13.5t-0.5 39.5l-41 98q-16 39 1 59.5t48 20.5h653q65 0 100.5 -13t58.5 -42t54 -94q18 -35 25.5 -47.5t19.5 -21.5t29 -9z" />
    <glyph glyph-name="uni27BD" unicode="&#x27bd;" horiz-adv-x="1437" 
d="M877 588h133q-111 66 -111 168q0 52 37 91.5t102 39.5q54 0 91.5 -36t52.5 -79q5 -14 18 -52t22 -60.5t24 -52t33.5 -49t41.5 -28.5q-23 -9 -41.5 -28t-33.5 -48.5t-24 -52t-22 -60.5t-18 -52q-15 -43 -52.5 -79t-91.5 -36q-65 0 -102 39.5t-37 91.5q0 102 111 168h-133
q-24 0 -40 -18t-42 -68q-45 -101 -88 -132.5t-144 -31.5h-84q-58 0 -80 37q-20 32 2 90l60 125q12 27 12 55q0 29 -12 56l-60 125q-22 58 -2 90q22 37 80 37h84q101 0 144 -31.5t88 -132.5q26 -50 42 -68t40 -18zM326 782l88 -198q12 -28 12 -54q0 -25 -12 -53l-88 -198
q-24 -56 -76 -56h-70q-41 0 -59.5 26t0.5 68l53 127q3 7 9 20t8.5 19t5.5 15t4.5 16.5t1.5 15.5q0 10 -3 21t-5 17t-10 24t-11 24l-53 127q-19 42 -0.5 68.5t59.5 26.5h70q52 0 76 -56z" />
    </font>
</defs>
</svg>
