<?xml version="1.0" standalone="no"?>
<!DOCTYPE svg PUBLIC "-//W3C//DTD SVG 1.1//EN" "http://www.w3.org/Graphics/SVG/1.1/DTD/svg11.dtd" >
<svg xmlns="http://www.w3.org/2000/svg" xmlns:xlink="http://www.w3.org/1999/xlink" version="1.1">
<metadata>
Created by FontForge 20170731 at Wed Feb 16 12:26:52 2022
 By Aleksey,,,
Copyright (c) 2011 by typedepot. All rights reserved.
</metadata>
<defs>
<font id="CentraleSansBoldRnd-Italic" horiz-adv-x="1552" >
  <font-face 
    font-family="CentraleSansRnd Book"
    font-weight="800"
    font-style="italic"
    font-stretch="normal"
    units-per-em="2048"
    panose-1="0 0 8 0 0 0 0 0 0 0"
    ascent="1536"
    descent="-512"
    x-height="1067"
    cap-height="1440"
    bbox="-217 -584 2566 1962"
    underline-thickness="102"
    underline-position="-307"
    slope="-10"
    unicode-range="U+000D-FB04"
  />
<missing-glyph horiz-adv-x="1435" 
d="M580 1499l712 -2q71 0 104 -39t21 -108l-260 -1471q-21 -127 -153 -127h-711q-71 0 -105 40t-22 110l260 1470q21 127 154 127zM614 1335l197 -547l387 547h-584zM870 612l174 -479l173 961zM367 160l327 452l-166 461zM369 -92h579l-192 532z" />
    <glyph glyph-name="f_f" unicode="ff" horiz-adv-x="1372" 
d="M909 1065l21 127q12 71 34.5 126.5t62.5 104.5t107 76t156 27q81 0 148 -29q35 -15 51 -36t16 -54q0 -49 -24.5 -73.5t-59.5 -22.5q-12 1 -43 5.5t-49 4.5q-53 0 -82.5 -29.5t-42.5 -99.5l-22 -129h100q55 0 86 -26t31 -68q0 -44 -31.5 -71.5t-85.5 -27.5h-133l-158 -880
q-41 -218 -137 -293q-62 -49 -158 -55q-61 -1 -93.5 29.5t-35.5 78.5q-5 80 82 119q30 13 46 47t26 94l153 860h-366l-156 -880q-41 -218 -137 -293q-62 -49 -158 -55q-61 -1 -93.5 29.5t-35.5 78.5q-5 80 82 119q30 13 46 47t26 94l154 860h-46q-46 0 -72 22.5t-26 59.5
q0 43 27 65.5t84 33.5l63 8l23 123q11 56 26.5 102t44 90.5t66.5 74.5t95.5 48.5t129.5 18.5q75 0 137 -25q70 -29 70 -88q0 -102 -84 -98q-7 1 -30 4.5t-39 3.5q-62 0 -94 -30.5t-44 -100.5l-22 -117h364z" />
    <glyph glyph-name="uni00660069" unicode="fi" horiz-adv-x="1257" 
d="M270 1061l11 72q35 184 164 284.5t319 100.5q120 0 248 -48q86 -35 86 -94q0 -38 -24.5 -65t-65.5 -27q-22 0 -64 10q-86 31 -153 31q-198 0 -230 -180l-14 -78h485q72 0 105.5 -39.5t21.5 -109.5l-139 -785q-12 -66 -48.5 -101.5t-92.5 -35.5q-70 0 -105 44t-20 128
l125 706h-365l-158 -880q-41 -218 -137 -293q-62 -49 -158 -55q-61 -1 -93.5 29.5t-35.5 78.5q-5 80 82 119q30 13 46 47t26 94l154 860h-47q-47 0 -73 22.5t-26 59.5q0 43 28 65.5t85 31.5z" />
    <glyph glyph-name="uni0066006C" unicode="fl" horiz-adv-x="1355" 
d="M1180 1036l-125 -694q-11 -57 -11 -76q0 -50 43 -59q9 -2 62 -2q35 0 56.5 -23t21.5 -61q0 -75 -68 -105q-51 -26 -139 -26q-117 0 -184.5 58t-67.5 173q0 49 18 152l129 743q7 32 7 53q0 73 -43 110.5t-115 37.5q-73 0 -130.5 -43t-76.5 -137l-12 -70h90q54 0 83.5 -26
t29.5 -68q0 -44 -29.5 -71.5t-83.5 -27.5h-125l-156 -880q-41 -218 -137 -293q-62 -49 -158 -55q-61 -1 -93.5 29.5t-35.5 78.5q-5 80 82 119q30 13 46 47t26 94l154 860h-45q-47 0 -73 22.5t-26 59.5q0 43 28 65.5t85 31.5l63 8l11 53q37 193 164 299.5t329 106.5
q89 0 163.5 -22t131.5 -66t89 -116.5t32 -166.5q0 -45 -10 -113z" />
    <glyph glyph-name="f_f_i" unicode="ffi" horiz-adv-x="1888" 
d="M1174 1065l489 -4q72 0 105.5 -39.5t21.5 -110.5l-137 -784q-12 -66 -49 -101.5t-93 -35.5q-70 0 -105 44.5t-20 129.5l125 706h-366l-154 -880q-41 -218 -137 -293q-62 -49 -158 -55q-61 -1 -93.5 29.5t-35.5 78.5q-5 80 82 119q30 13 46 47t26 94l151 860h-358
l-158 -880q-41 -218 -137 -293q-62 -49 -158 -55q-61 -1 -93.5 29.5t-35.5 78.5q-5 80 82 119q30 13 46 47t26 94l154 860h-45q-47 0 -73 22.5t-26 59.5q0 43 27.5 65.5t83.5 31.5l63 8l23 123q14 72 36.5 126.5t63 104t107 76t155.5 26.5q95 0 150 -24q63 -27 63 -86
q0 -77 -55 -90q-16 -3 -96 2q-124 3 -150 -135l-22 -117h356l14 86q30 184 161 284.5t323 100.5q137 0 246 -47q86 -30 86 -90q0 -42 -25 -71.5t-66 -29.5q-21 0 -63 11q-84 30 -156 30q-194 0 -229 -178z" />
    <glyph glyph-name="f_f_l" unicode="ffl" horiz-adv-x="1982" 
d="M1804 1055l-112 -715q-11 -57 -11 -76q0 -50 43 -59q9 -2 62 -2q35 0 56.5 -23t21.5 -61q0 -75 -68 -105q-51 -26 -139 -26q-117 0 -184.5 58t-67.5 173q0 49 18 152l133 759q5 45 5 54q0 74 -43.5 110.5t-118.5 36.5q-73 0 -131 -43t-74 -135l-16 -88h94q54 0 82 -25.5
t28 -68.5q0 -45 -28 -72t-82 -27h-131l-156 -880q-41 -218 -137 -293q-62 -49 -158 -55q-61 -1 -93.5 29.5t-35.5 78.5q-5 80 82 119q30 13 46 47t26 94l153 860h-354l-158 -880q-41 -218 -137 -293q-62 -49 -158 -55q-61 -1 -93.5 29.5t-35.5 78.5q-5 80 82 119
q30 13 46 47t26 94l154 860h-45q-47 0 -73 22.5t-26 59.5q0 82 111 97l63 8l23 123q11 56 26.5 102t44 90.5t66.5 74.5t95.5 48.5t129.5 18.5q92 0 150 -25q63 -27 63 -86q0 -77 -55 -90q-16 -3 -96 2q-124 3 -150 -135l-22 -117h354l10 68q26 190 157.5 295.5t336.5 105.5
q121 0 211 -37.5t145.5 -123t55.5 -212.5q0 -38 -11 -106z" />
    <glyph glyph-name=".notdef" horiz-adv-x="1435" 
d="M580 1499l712 -2q71 0 104 -39t21 -108l-260 -1471q-21 -127 -153 -127h-711q-71 0 -105 40t-22 110l260 1470q21 127 154 127zM614 1335l197 -547l387 547h-584zM870 612l174 -479l173 961zM367 160l327 452l-166 461zM369 -92h579l-192 532z" />
    <glyph glyph-name=".null" horiz-adv-x="20" 
 />
    <glyph glyph-name=".null" horiz-adv-x="20" 
 />
    <glyph glyph-name="nonmarkingreturn" horiz-adv-x="682" 
 />
    <glyph glyph-name="CR" unicode="&#xd;" horiz-adv-x="641" 
 />
    <glyph glyph-name="space" unicode=" " horiz-adv-x="530" 
 />
    <glyph glyph-name="exclam" unicode="!" horiz-adv-x="620" 
d="M180 539l90 733q19 164 164 164q74 0 115 -50t18 -149l-157 -721q-27 -117 -123 -117q-54 0 -84 37t-23 103zM229 270q62 0 106 -44t44 -105t-44 -104.5t-106 -43.5t-105.5 43.5t-43.5 104.5t44 105t105 44z" />
    <glyph glyph-name="quotedbl" unicode="&#x22;" horiz-adv-x="991" 
d="M201 940l61 356q10 73 48.5 107.5t92.5 34.5q55 0 89 -32t34 -87q0 -27 -12 -62l-131 -339q-28 -84 -98 -84q-41 0 -66 27.5t-18 78.5zM655 940l60 356q10 73 48.5 107.5t92.5 34.5q55 0 90 -32t35 -87q0 -27 -12 -62l-131 -339q-28 -84 -99 -84q-41 0 -66 27.5t-18 78.5
z" />
    <glyph glyph-name="numbersign" unicode="#" horiz-adv-x="1638" 
d="M1155 1104l90 246q32 84 107 84q43 0 75.5 -25.5t32.5 -77.5q0 -21 -12 -57l-64 -176h84q67 0 103.5 -29.5t36.5 -79.5q0 -52 -36.5 -83.5t-101.5 -31.5h-163l-121 -339h88q66 0 102.5 -29.5t36.5 -79.5q0 -53 -37.5 -85t-103.5 -32h-168l-84 -231q-32 -84 -107 -84
q-43 0 -75.5 25t-32.5 77q0 22 12 58l57 157h-354l-86 -231q-32 -84 -106 -84q-43 0 -76 25t-33 77q0 22 12 58l60 157h-88q-66 0 -103 32t-37 85q0 50 37.5 80.5t104.5 30.5h164l120 340h-86q-67 0 -103 30.5t-36 83.5q0 50 37.5 80.5t104.5 30.5h167l93 250q32 84 106 84
q43 0 76 -25.5t33 -77.5q0 -18 -13 -57l-63 -176h350zM721 874l-119 -339h350l121 339h-352z" />
    <glyph glyph-name="dollar" unicode="$" horiz-adv-x="1249" 
d="M692 1460l21 117q15 76 88 76q36 0 59.5 -23t16.5 -67l-19 -115q126 -16 250 -76q86 -41 86 -104q0 -51 -29 -81t-82 -30q-36 0 -82 19q-135 61 -262 61q-124 0 -181.5 -52.5t-57.5 -125.5q0 -40 14.5 -71t47.5 -57.5t66.5 -45.5t92.5 -47q146 -67 200 -103
q154 -100 179 -257q6 -35 6 -72q0 -133 -67.5 -229t-180 -144.5t-260.5 -55.5l-20 -114q-15 -80 -91 -80q-37 0 -60.5 25t-16.5 69l18 107q-163 19 -299 94q-80 44 -80 112q0 46 28 76.5t77 30.5q36 0 84 -25q147 -75 307 -75q124 0 196 56.5t72 145.5q0 29 -7.5 53.5
t-25 45t-33.5 35.5t-47.5 32t-51 26.5t-59.5 27t-59 26.5q-57 26 -99 50t-86.5 60t-73 76.5t-46.5 97.5t-18 124q0 194 134.5 298t350.5 109z" />
    <glyph glyph-name="percent" unicode="%" horiz-adv-x="1832" 
d="M528 1458l-2 -2q134 0 221 -83.5t87 -227.5q0 -102 -40 -187t-122.5 -138.5t-192.5 -53.5q-135 0 -222 85t-87 228q0 76 23 143.5t67 120.5t113 84t155 31zM393 158l907 1212q51 66 101 66q62 0 88.5 -49t-19.5 -117l-907 -1213q-51 -65 -100 -65q-62 0 -89 49t19 117z
M522 1274v2q-74 0 -113.5 -57t-39.5 -138q0 -64 29.5 -102.5t84.5 -38.5q75 0 114.5 56.5t39.5 138.5q0 64 -30 101.5t-85 37.5zM1374 666l-4 -2q134 0 221.5 -84t87.5 -228q0 -103 -40 -187.5t-122 -138t-192 -53.5q-135 0 -222 85.5t-87 228.5q0 76 23 143.5t67 120.5
t113 84t155 31zM1366 483l-2 2q-74 0 -114 -56.5t-40 -137.5q0 -63 30.5 -102t86.5 -39q75 0 114.5 56.5t39.5 137.5q0 64 -30 101.5t-85 37.5z" />
    <glyph glyph-name="ampersand" unicode="&#x26;" horiz-adv-x="1376" 
d="M942 45l-51 76q-166 -146 -395 -146q-196 0 -314.5 103t-118.5 284q0 150 84 252t252 195q-55 79 -82.5 144t-27.5 141q0 157 110.5 260.5t278.5 103.5q146 0 247 -80.5t101 -220.5q0 -59 -19 -111.5t-46.5 -90.5t-73.5 -77t-85.5 -64t-96.5 -58l243 -336q58 57 103 139
q46 76 102 76q38 0 67 -24t29 -66q0 -33 -30 -88q-29 -54 -67 -105t-62 -76l-23 -24l72 -100q26 -39 26 -76q0 -41 -31 -68.5t-73 -27.5q-74 0 -119 65zM672 1251h2q-68 0 -111 -42t-43 -109q0 -49 21 -90.5t63 -96.5q77 40 135 97.5t58 128.5q0 47 -32.5 79.5t-92.5 32.5z
M774 297l-256 358q-43 -23 -72.5 -43t-62 -51t-49.5 -71t-17 -87q0 -91 62.5 -143.5t165.5 -52.5q126 0 229 90z" />
    <glyph glyph-name="quotesingle" unicode="'" horiz-adv-x="540" 
d="M201 944l61 352q10 74 47.5 108t91.5 34q72 0 106 -51.5t7 -131.5l-129 -335q-28 -86 -100 -86q-41 0 -66 28.5t-18 81.5z" />
    <glyph glyph-name="parenleft" unicode="(" horiz-adv-x="811" 
d="M731 1411v4q41 0 70.5 -27t29.5 -67q0 -28 -12 -51t-45 -49q-89 -68 -164.5 -145t-140 -170t-101 -201.5t-36.5 -219.5q0 -147 53.5 -285t138.5 -233q30 -33 42 -54t12 -44q0 -40 -29 -67t-70 -27q-57 0 -114 57q-123 129 -205 298.5t-82 358.5q0 509 559 889
q47 33 94 33z" />
    <glyph glyph-name="parenright" unicode=")" horiz-adv-x="811" 
d="M317 1411l2 2q58 0 115 -57q123 -129 205 -299.5t82 -360.5q0 -509 -559 -889q-53 -32 -94 -32q-42 0 -72.5 27.5t-30.5 66.5q0 27 12.5 49t45.5 49q90 68 165 145t139.5 170t101 201t36.5 219q0 147 -54 285.5t-139 231.5q-53 59 -53 98q0 40 28.5 67t69.5 27z" />
    <glyph glyph-name="asterisk" unicode="*" horiz-adv-x="919" 
d="M530 1305l27 159q9 78 76 78q40 0 62.5 -30t-1.5 -82l-61 -150l147 59q30 13 45 13q31 0 50.5 -21t19.5 -51q0 -33 -21.5 -53.5t-62.5 -24.5l-147 -22l116 -97q49 -38 49 -79q0 -30 -20.5 -50t-52.5 -20q-44 0 -76 43l-96 123l-25 -156q-4 -39 -23 -59.5t-49 -18.5
q-43 2 -62.5 30t1.5 81l57 149l-139 -55q-57 -22 -89 -2t-34 64q-2 29 18.5 48t63.5 25l152 25l-119 94q-49 40 -49 76q0 29 21 49t50 20q44 0 76 -43z" />
    <glyph glyph-name="plus" unicode="+" horiz-adv-x="1034" 
d="M455 786l41 220q17 102 100 102q45 0 68.5 -29.5t13.5 -89.5l-37 -203h193q54 0 84 -24.5t30 -65.5q0 -43 -31 -68.5t-86 -25.5h-225l-39 -219q-17 -100 -98 -100q-45 0 -68.5 29t-13.5 89l37 201h-193q-55 0 -85.5 25.5t-30.5 68.5q0 41 30 65.5t84 24.5h226z" />
    <glyph glyph-name="comma" unicode="," horiz-adv-x="579" 
d="M211 250l-4 -2q67 0 106 -48.5t39 -115.5q0 -96 -62.5 -173.5t-160.5 -129.5q-28 -14 -41 -14q-23 0 -36 14t-13 33q0 26 37 49q99 65 121 143l-5 -3q-4 -3 -8 -5t-13 -4t-19 -2q-44 0 -70.5 34.5t-26.5 82.5q0 64 46 102.5t110 38.5z" />
    <glyph glyph-name="hyphen" unicode="-" horiz-adv-x="1048" 
d="M264 629h553q54 0 82.5 -23.5t28.5 -64.5q0 -43 -29 -67.5t-82 -24.5h-553q-54 0 -82 24t-28 68q0 41 28 64.5t82 23.5z" />
    <glyph glyph-name="period" unicode="." horiz-adv-x="548" 
d="M193 254q59 0 100 -41t41 -100t-41.5 -100.5t-99.5 -41.5q-59 0 -100.5 41.5t-41.5 100.5q0 58 41.5 99.5t100.5 41.5z" />
    <glyph glyph-name="slash" unicode="/" horiz-adv-x="1026" 
d="M-88 -229l1020 1663q44 73 100 73q33 0 59.5 -19t34 -54t-21.5 -84l-1022 -1663q-43 -72 -100 -72q-35 0 -61 19t-32 54t23 83z" />
    <glyph glyph-name="zero" unicode="0" horiz-adv-x="1488" 
d="M823 1458v-2q264 0 421 -175.5t157 -469.5q0 -124 -29 -244.5t-89 -227.5t-143 -189t-199.5 -129.5t-250.5 -47.5q-265 0 -422 173.5t-157 465.5q0 124 29 245.5t89 229.5t143.5 191t200 131.5t250.5 48.5zM809 1225h-2q-99 0 -178.5 -54.5t-128 -143.5t-74 -195
t-25.5 -216q0 -192 76.5 -301.5t220.5 -109.5q99 0 178.5 54t128 142.5t74 194t25.5 215.5q0 193 -76 303.5t-219 110.5z" />
    <glyph glyph-name="one" unicode="1" horiz-adv-x="823" 
d="M238 1284l258 121q70 33 135 33q66 0 104 -43t25 -115l-203 -1145q-26 -141 -147 -141q-71 0 -105.5 45t-19.5 127l174 977l-113 -47q-48 -17 -88.5 -16t-68 28t-27.5 74q0 65 76 102z" />
    <glyph glyph-name="two" unicode="2" horiz-adv-x="1253" 
d="M123 281l502 389q138 107 199 181t61 167q0 96 -64 153.5t-184 57.5q-89 0 -227 -43q-79 -23 -123.5 8t-44.5 92q0 38 25.5 66.5t68.5 44.5q165 61 356 61q232 0 360 -108.5t128 -298.5q0 -75 -21.5 -143.5t-55 -122t-88.5 -108t-107.5 -95t-125.5 -90.5l-381 -265h535
q67 0 104 -29t37 -79q0 -54 -37.5 -86.5t-103.5 -32.5h-782q-66 0 -101 32t-35 91q0 43 24 78.5t81 79.5z" />
    <glyph glyph-name="three" unicode="3" horiz-adv-x="1191" 
d="M451 858l45 -6q131 0 220 47.5t89 144.5q0 87 -65 133t-165 46q-66 0 -188 -35q-73 -21 -115.5 9t-42.5 95q0 81 113 113q159 49 303 49q91 0 171.5 -22.5t144.5 -66t101.5 -115.5t37.5 -163q0 -128 -76.5 -217.5t-224.5 -117.5q128 -42 188 -133t60 -213
q0 -112 -47.5 -197.5t-128.5 -135.5t-179 -75t-209 -25q-227 0 -389 78q-35 18 -56.5 47.5t-21.5 63.5q0 48 29 79t80 31q37 0 72 -14q136 -59 262 -59t209.5 59.5t83.5 179.5q0 55 -19.5 96t-49.5 65t-72 38.5t-79.5 19.5t-80.5 5q-58 0 -89.5 25.5t-31.5 72.5q0 46 30 72
t91 26z" />
    <glyph glyph-name="four" unicode="4" horiz-adv-x="1347" 
d="M102 545l785 809q75 78 172 78q76 0 116 -46.5t27 -123.5l-133 -750h55q57 0 89 -26t32 -70q0 -45 -33 -74t-90 -29h-90l-31 -174q-24 -147 -143 -147q-70 0 -104 45t-21 127l27 151h-590q-129 0 -129 109q0 56 61 121zM350 512h443l100 563z" />
    <glyph glyph-name="five" unicode="5" horiz-adv-x="1253" 
d="M500 1434h571q66 0 100.5 -29t34.5 -80q0 -54 -34.5 -86.5t-100.5 -32.5h-524l-92 -338q105 66 241 66q201 0 323 -120.5t122 -319.5q0 -126 -48.5 -226t-133 -164t-196 -97.5t-241.5 -33.5q-114 0 -221 27t-186 70q-76 46 -76 118q0 42 28 74.5t76 32.5q40 0 76 -16
q156 -78 270 -78q98 0 176.5 31.5t128.5 99t50 162.5q0 113 -66.5 178t-177.5 65q-55 0 -154 -35q-105 -38 -178 11q-70 48 -45 157l121 445q30 119 156 119z" />
    <glyph glyph-name="six" unicode="6" horiz-adv-x="1363" 
d="M889 1458h2q161 0 289 -61q73 -37 73 -103q0 -51 -30.5 -83.5t-79.5 -32.5q-24 0 -76 18q-101 37 -190 37q-90 0 -165.5 -26.5t-129 -71t-94.5 -108.5t-65.5 -134.5t-39.5 -153.5q59 89 165 145t232 56q192 0 321.5 -119.5t129.5 -324.5q0 -106 -38.5 -200.5t-108 -166
t-175 -113t-231.5 -41.5q-259 0 -408 165.5t-149 447.5q0 121 28.5 241.5t90.5 234.5t150 201t217 140t282 53zM705 735v2q-127 0 -211 -76.5t-84 -205.5q0 -119 71.5 -192t192.5 -73q127 0 207 81t80 210q0 123 -71 188.5t-185 65.5z" />
    <glyph glyph-name="seven" unicode="7" horiz-adv-x="1202" 
d="M334 1434l788 -2q66 0 103 -32.5t37 -86.5q0 -31 -12.5 -64.5t-24.5 -52t-35 -51.5l-686 -1053q-62 -98 -146 -98q-55 0 -91 32.5t-36 84.5q0 49 43 110l648 987h-588q-66 0 -100.5 31.5t-34.5 85.5q0 51 34.5 80t100.5 29z" />
    <glyph glyph-name="eight" unicode="8" horiz-adv-x="1343" 
d="M743 1458v-4q216 0 351 -108t135 -277q0 -126 -75.5 -212t-205.5 -116q125 -35 193.5 -123.5t68.5 -214.5q0 -136 -77 -234.5t-204.5 -146t-291.5 -47.5q-249 0 -400 110.5t-151 301.5q0 139 85.5 246t242.5 141q-90 34 -139.5 113t-49.5 174q0 171 148 284t370 113z
M733 1237l-2 -2q-105 0 -173.5 -54.5t-68.5 -146.5q0 -88 66 -139t166 -51q102 0 169.5 53t67.5 145q0 87 -61 141t-164 54zM655 635h2q-129 0 -209.5 -63.5t-80.5 -172.5q0 -104 75 -165.5t197 -61.5q123 0 203 63t80 177q0 105 -72 164t-195 59z" />
    <glyph glyph-name="nine" unicode="9" horiz-adv-x="1363" 
d="M707 1458l6 -8q264 0 415.5 -167.5t151.5 -471.5q0 -129 -27 -248.5t-87 -228.5t-147 -189.5t-215.5 -128t-283.5 -47.5q-187 0 -309 68q-74 41 -74 104q0 47 29 81t78 34q39 0 80 -14q103 -41 200 -41q95 0 171 25t128.5 68t89 105t56 131.5t26.5 151.5
q-57 -89 -160 -138.5t-227 -49.5q-127 0 -229 50.5t-164.5 153t-62.5 240.5q0 106 37.5 200t106.5 165.5t175.5 113t235.5 41.5zM721 1235l2 -2q-130 0 -209.5 -79.5t-79.5 -207.5q0 -124 73.5 -189t188.5 -65q127 0 209 76.5t82 204.5q0 119 -72.5 190.5t-193.5 71.5z" />
    <glyph glyph-name="colon" unicode=":" horiz-adv-x="552" 
d="M324 958q58 0 99.5 -41t41.5 -100t-41.5 -100t-99.5 -41q-59 0 -100.5 41.5t-41.5 99.5t41.5 99.5t100.5 41.5zM197 254q59 0 100 -41t41 -100t-41.5 -100.5t-99.5 -41.5q-59 0 -100.5 41.5t-41.5 100.5q0 58 41.5 99.5t100.5 41.5z" />
    <glyph glyph-name="semicolon" unicode=";" horiz-adv-x="606" 
d="M342 956q58 0 99.5 -41t41.5 -100t-41.5 -100t-99.5 -41t-99.5 41t-41.5 100t41.5 100t99.5 41zM215 248l-4 -2q67 0 106 -48.5t39 -115.5q0 -97 -62 -174t-161 -129q-23 -15 -41 -15q-23 0 -36 14.5t-13 33.5q0 23 37 49q100 66 121 143q-24 -12 -45 -12q-44 0 -70.5 33
t-26.5 81q0 64 46 103t110 39z" />
    <glyph glyph-name="less" unicode="&#x3c;" horiz-adv-x="884" 
d="M193 791l450 213q33 16 68 16q38 0 62 -23t24 -59q0 -60 -76 -96l-365 -164l283 -152q66 -37 66 -88q0 -38 -26 -63t-67 -25q-35 0 -77 23l-365 200q-78 43 -66 121q6 35 27.5 56.5t61.5 40.5z" />
    <glyph glyph-name="equal" unicode="=" horiz-adv-x="1036" 
d="M293 948h536q53 0 82 -24.5t29 -65.5q0 -43 -29.5 -67.5t-83.5 -24.5h-532q-55 0 -85 24.5t-30 67.5q0 41 29.5 65.5t83.5 24.5zM238 616h536q53 0 82 -24.5t29 -65.5q0 -43 -29.5 -67.5t-83.5 -24.5h-532q-55 0 -85 24.5t-30 67.5q0 41 29.5 65.5t83.5 24.5z" />
    <glyph glyph-name="greater" unicode="&#x3e;" horiz-adv-x="886" 
d="M553 705l-277 151q-65 36 -65 88q0 37 24.5 61.5t63.5 24.5t82 -22l364 -201q78 -43 66 -121q-6 -35 -27 -56t-61 -40l-455 -213q-39 -17 -65 -17q-40 0 -65 23.5t-25 60.5q0 62 75 97z" />
    <glyph glyph-name="question" unicode="?" horiz-adv-x="1040" 
d="M334 526l4 45q11 60 40 109.5t66.5 83t81 62.5t84 55t74 53.5t54 65t20.5 83.5q0 67 -47.5 104.5t-122.5 37.5q-93 0 -174 -37q-38 -17 -76 -17q-46 0 -71 32t-25 73q0 67 84 108q150 72 313 72q79 0 148.5 -20t125.5 -59t88.5 -105t32.5 -150q0 -74 -24 -133.5
t-63.5 -99.5t-87 -73t-96.5 -60.5t-91 -55t-72 -64.5t-37 -81l-8 -49q-14 -107 -119 -107q-54 0 -81 33.5t-21 93.5zM393 268q62 0 106 -44t44 -105t-44 -104.5t-106 -43.5q-61 0 -104 43t-43 105t43 105.5t104 43.5z" />
    <glyph glyph-name="at" unicode="@" horiz-adv-x="1894" 
d="M1327 725l-55 -283q-9 -61 22.5 -96t98.5 -35q117 0 179 105.5t62 283.5q0 147 -44 257.5t-125 176.5t-187.5 98t-239.5 32q-147 0 -272 -38t-215.5 -106t-154.5 -161t-95 -202.5t-31 -230.5q0 -131 37 -238t110.5 -186.5t190.5 -123t269 -44.5q72 0 160 17t93 18
q98 9 107 -71q9 -77 -90 -105q-118 -35 -301 -35q-185 0 -331.5 56.5t-242 158.5t-146 243t-50.5 312q0 194 67.5 361.5t190 290t306 192.5t404.5 70q179 0 323.5 -46.5t247 -136t158.5 -226.5t56 -312q0 -166 -48 -291.5t-151 -199.5t-250 -74q-108 0 -173.5 41.5
t-84.5 117.5q-42 -75 -119.5 -118t-179.5 -43q-128 0 -203 71.5t-75 190.5q0 98 54.5 163.5t140.5 93t198 27.5q39 0 186 -12l11 55q13 86 -21.5 122t-130.5 36q-32 0 -62 -3.5t-71 -10t-53 -8.5q-52 -7 -73.5 12t-23.5 45q-9 62 68 84q102 31 260 31q177 0 251 -77.5
t48 -248.5zM1085 489l15 80q-80 11 -148 11q-46 0 -84 -7t-71.5 -23t-52.5 -46.5t-19 -73.5q0 -60 37 -93.5t104 -33.5q89 0 146.5 50.5t72.5 135.5z" />
    <glyph glyph-name="A" unicode="A" horiz-adv-x="1409" 
d="M-8 199l581 1089q43 80 105 118t153 38q104 0 161.5 -48.5t76.5 -148.5l209 -1063q17 -87 -22.5 -136.5t-114.5 -49.5q-121 0 -146 141l-43 226h-571l-145 -273q-51 -96 -138 -96q-59 0 -94 34.5t-35 86.5q0 34 23 82zM807 1192l-315 -612h426l-107 612h-4z" />
    <glyph glyph-name="B" unicode="B" horiz-adv-x="1447" 
d="M436 1434l488 2q215 0 322.5 -98.5t107.5 -262.5q0 -131 -71.5 -226t-190.5 -126q43 -13 78.5 -34.5t68.5 -57t51.5 -91t18.5 -126.5q0 -103 -42.5 -183.5t-115 -130t-164.5 -75t-196 -25.5h-582q-72 0 -105.5 39.5t-21.5 110.5l205 1159q21 125 149 125zM543 1210
l-62 -381h369q94 0 154.5 57.5t60.5 147.5q0 81 -49 128.5t-131 47.5h-342zM442 614l-71 -387h399q108 0 175 58t67 149q0 83 -54 131.5t-139 48.5h-377z" />
    <glyph glyph-name="C" unicode="C" horiz-adv-x="1445" 
d="M944 1458v4q198 -3 356 -76q48 -23 74.5 -51.5t26.5 -70.5q0 -49 -32.5 -81t-86.5 -32q-24 0 -86 23q-113 55 -248 55q-107 -1 -196 -32t-149.5 -83.5t-102.5 -123t-61 -149t-19 -163.5q0 -120 36 -212.5t98.5 -147t140.5 -82t167 -27.5q124 0 230 41q11 4 30 12t29.5 12
t25.5 7.5t27 3.5q89 0 107 -88q18 -81 -74 -136q-73 -42 -181.5 -65t-215.5 -23q-119 0 -226.5 29t-197.5 87t-155.5 140t-102.5 194.5t-37 244.5q0 169 61.5 316t169.5 251t261 163.5t331 59.5z" />
    <glyph glyph-name="D" unicode="D" horiz-adv-x="1484" 
d="M438 1434h215q175 0 312 -39t235.5 -117t150.5 -201t52 -286q0 -173 -52.5 -317.5t-152.5 -250t-254 -164.5t-348 -59h-387q-72 0 -105.5 39.5t-21.5 110.5l207 1159q21 125 149 125zM553 1204l-170 -973h121q92 0 117 2q233 12 362 164.5t129 380.5q0 203 -105 314.5
t-311 111.5h-143z" />
    <glyph glyph-name="E" unicode="E" horiz-adv-x="1323" 
d="M436 1434l764 4q61 0 95 -32t34 -81t-34 -82t-95 -33h-647l-70 -395h500q61 0 95 -32t34 -81t-34 -81.5t-95 -32.5h-539l-61 -361h625q61 0 95 -31.5t34 -80.5t-34 -82t-95 -33h-799q-72 0 -105.5 39.5t-21.5 110.5l205 1159q21 125 149 125z" />
    <glyph glyph-name="F" unicode="F" horiz-adv-x="1286" 
d="M436 1434l783 2q61 0 95 -32t34 -81t-34 -82t-95 -33h-662l-74 -417h514q61 0 95 -32t34 -81t-34 -81t-95 -32h-555l-77 -424q-24 -147 -146 -147q-71 0 -107.5 45.5t-23.5 126.5l201 1143q21 125 147 125z" />
    <glyph glyph-name="G" unicode="G" horiz-adv-x="1572" 
d="M1468 625l-73 -371q-17 -100 -103 -152q-201 -125 -463 -125q-155 0 -285 45t-226 130.5t-149.5 218t-53.5 299.5q0 242 110.5 422.5t301.5 274t436 93.5q211 0 391 -78q48 -21 73 -48t25 -70q0 -49 -31.5 -82t-85.5 -33q-27 0 -86 22q-135 58 -280 58q-130 0 -236 -44
t-174.5 -119.5t-105.5 -175t-37 -212.5q0 -137 50 -241t155.5 -166t255.5 -62q181 0 303 86l51 276h-254q-58 0 -89.5 29t-31.5 74q0 43 31.5 71.5t89.5 28.5h364q72 0 105.5 -39.5t21.5 -109.5z" />
    <glyph glyph-name="H" unicode="H" horiz-adv-x="1556" 
d="M1149 823l82 467q12 72 51 110t98 38q71 0 107.5 -45.5t23.5 -126.5l-200 -1127q-12 -72 -51 -109.5t-99 -37.5q-71 0 -107.5 45.5t-23.5 126.5l76 422h-662l-77 -445q-12 -72 -51 -109.5t-99 -37.5q-71 0 -107.5 45.5t-23.5 126.5l199 1126q12 72 51 110t98 38
q71 0 107.5 -45.5t23.5 -126.5l-78 -445h662z" />
    <glyph glyph-name="I" unicode="I" horiz-adv-x="610" 
d="M86 166l199 1126q12 72 51 110t98 38q71 0 107.5 -45.5t23.5 -126.5l-198 -1127q-12 -72 -51 -109.5t-99 -37.5q-71 0 -107.5 45.5t-23.5 126.5z" />
    <glyph glyph-name="J" unicode="J" horiz-adv-x="1138" 
d="M659 451l152 849q13 72 52.5 108t99.5 36q71 0 107.5 -43.5t23.5 -124.5l-144 -813q-84 -486 -540 -486q-131 0 -225.5 42t-143.5 102q-45 52 -45 102q0 46 31 79.5t82 33.5q56 0 108 -49q84 -80 193 -80q206 0 249 244z" />
    <glyph glyph-name="K" unicode="K" horiz-adv-x="1378" 
d="M469 776l676 617q52 49 110 49q56 0 88.5 -37.5t27.5 -90t-48 -91.5l-426 -379l291 -643q36 -84 -2 -145.5t-129 -61.5q-94 0 -131 94l-252 586l-256 -234l-53 -303q-12 -69 -50.5 -106t-95.5 -37q-72 0 -108 46.5t-23 127.5l199 1128q12 69 50.5 106.5t94.5 37.5
q71 0 106.5 -46.5t22.5 -127.5l-35 -197l-61 -291z" />
    <glyph glyph-name="L" unicode="L" horiz-adv-x="1171" 
d="M84 150l205 1142q12 73 50 110.5t97 37.5q71 0 106.5 -45.5t22.5 -126.5l-180 -1043h520q67 0 101 -28.5t34 -79.5q0 -53 -35 -85t-100 -32h-694q-72 0 -105.5 39.5t-21.5 110.5z" />
    <glyph glyph-name="M" unicode="M" horiz-adv-x="1923" 
d="M913 385l539 848q35 55 55 82.5t51.5 60t66.5 45.5t79 13q38 0 72 -12.5t60 -36.5t37 -65t1 -93l-193 -1090q-12 -72 -50.5 -109.5t-98.5 -37.5q-72 0 -109 46t-24 128l57 317l107 510h-4l-488 -772q-77 -123 -199 -123t-157 127l-213 772h-4l-68 -491l-63 -363
q-12 -72 -51 -109.5t-99 -37.5q-72 0 -109 46t-24 128l195 1094q17 96 71.5 137t126.5 41q88 0 134 -51.5t73 -155.5l223 -848h6z" />
    <glyph glyph-name="N" unicode="N" horiz-adv-x="1544" 
d="M1157 936l57 354q12 72 52 110t100 38q72 0 107 -46t22 -128l-197 -1102q-32 -170 -188 -170q-41 0 -73 11t-52.5 31t-32 37t-22.5 40l-420 907h-4l-88 -561l-56 -318q-12 -72 -49.5 -109.5t-95.5 -37.5q-71 0 -107.5 46.5t-23.5 127.5l195 1102q30 172 188 172
q125 0 180 -121l424 -895h4z" />
    <glyph glyph-name="O" unicode="O" horiz-adv-x="1720" 
d="M932 1458l4 -2q162 0 296 -50.5t225.5 -141t141.5 -218.5t50 -280q0 -164 -58.5 -309.5t-162.5 -252.5t-258 -169t-336 -62q-326 0 -518.5 190.5t-192.5 500.5q0 168 59.5 315t164.5 252.5t256.5 166t328.5 60.5zM932 1225v-2q-142 0 -257 -70t-182 -198t-67 -291
q0 -214 113.5 -336.5t300.5 -122.5q217 0 362.5 156.5t145.5 400.5q0 211 -113 337t-303 126z" />
    <glyph glyph-name="P" unicode="P" horiz-adv-x="1462" 
d="M436 1434l529 2q112 0 200.5 -35.5t144 -96t84.5 -138.5t29 -167q0 -73 -19.5 -141.5t-61.5 -130t-102.5 -107.5t-148 -73t-192.5 -27h-467l-67 -381q-12 -72 -50.5 -108.5t-97.5 -36.5q-72 0 -108 44.5t-23 125.5l203 1145q21 125 147 125zM555 1210l-80 -462h375
q136 0 206 70.5t70 172.5q0 41 -12.5 78t-38 69.5t-71.5 52t-107 19.5h-342z" />
    <glyph glyph-name="Q" unicode="Q" horiz-adv-x="1724" 
d="M930 1458l-2 2q325 0 517.5 -190.5t192.5 -499.5q0 -139 -42.5 -266.5t-113.5 -221.5t-162.5 -158t-189.5 -85q138 -38 242 -74q49 -18 72.5 -45.5t23.5 -71.5q0 -46 -35.5 -81t-93.5 -35q-28 0 -79 14q-211 69 -386 191q-54 37 -94 40q-306 15 -482.5 202.5
t-176.5 484.5q0 168 59.5 315t164.5 252.5t256.5 166t328.5 60.5zM924 1229l2 -2q-142 0 -257 -70t-182 -198t-67 -291q0 -214 113.5 -336.5t300.5 -122.5q216 0 360.5 156t144.5 401q0 211 -112.5 337t-302.5 126z" />
    <glyph glyph-name="R" unicode="R" horiz-adv-x="1449" 
d="M440 1434h533q132 0 233.5 -60t153 -155.5t51.5 -208.5q0 -158 -101 -276t-276 -159l146 -374q37 -82 3 -144.5t-120 -62.5q-101 0 -141 110l-158 451h-324l-71 -412q-12 -72 -52 -110.5t-100 -38.5q-72 0 -108 46t-21 128l205 1141q21 125 147 125zM557 1208l-72 -428
h373q118 0 187 63.5t69 160.5q0 89 -55 146.5t-154 57.5h-348z" />
    <glyph glyph-name="S" unicode="S" horiz-adv-x="1290" 
d="M756 1458l4 -10q235 0 399 -82q88 -38 88 -117q0 -41 -26.5 -74.5t-83.5 -33.5q-27 0 -99 30q-126 60 -266 60q-78 0 -134 -15t-84.5 -42t-41 -56.5t-12.5 -64.5q0 -33 11 -59.5t29 -46t53 -39t70 -34.5t93 -36q156 -58 217 -92q164 -93 196 -250q9 -43 9 -90
q0 -109 -44 -193.5t-122 -136.5t-179 -78.5t-221 -26.5q-254 0 -460 107q-95 48 -95 127q0 48 30 80t81 32q38 0 88 -24q169 -94 340 -94q133 0 209 47t76 131q0 34 -14.5 61.5t-36.5 47t-61.5 39t-73.5 32.5t-90 33q-26 9 -40 14q-63 23 -107 43.5t-95.5 56.5t-83 77.5
t-53 104.5t-21.5 140q0 111 41 195t115.5 135t173.5 76.5t221 25.5z" />
    <glyph glyph-name="T" unicode="T" horiz-adv-x="1337" 
d="M303 1434h967q66 0 101.5 -29t35.5 -80q0 -53 -35.5 -85t-101.5 -32h-357l-188 -1065q-13 -74 -52.5 -111.5t-97.5 -37.5q-71 0 -106.5 46t-22.5 128l183 1040h-326q-66 0 -100.5 31t-34.5 84q0 51 34.5 81t100.5 30z" />
    <glyph glyph-name="U" unicode="U" horiz-adv-x="1503" 
d="M1032 487l150 803q12 72 51 110t98 38q71 0 106.5 -45.5t22.5 -126.5l-133 -758q-42 -244 -203 -389.5t-432 -145.5q-136 0 -244.5 38t-176 103.5t-103 148.5t-35.5 177q0 50 6 97l133 753q12 72 51.5 110t98.5 38q71 0 106.5 -45.5t22.5 -126.5l-131 -758q-6 -42 -6 -59
q0 -107 75.5 -174.5t206.5 -67.5q139 0 226 77.5t110 202.5z" />
    <glyph glyph-name="V" unicode="V" horiz-adv-x="1378" 
d="M629 307l514 1022q54 111 145 111q60 0 102 -31t42 -86q0 -37 -23 -90l-569 -1081q-42 -83 -102.5 -120.5t-147.5 -37.5q-94 0 -154.5 52t-75.5 151l-178 1040q-8 46 -8 72q0 59 39.5 95t103.5 36q127 0 146 -140l162 -993h4z" />
    <glyph glyph-name="W" unicode="W" horiz-adv-x="2095" 
d="M1444 344l436 991q47 103 135 103q56 0 95.5 -29t39.5 -80q0 -48 -20 -88l-498 -1079q-39 -84 -94 -126t-135 -42q-88 0 -142.5 52t-60.5 153l-67 837l-388 -874q-71 -168 -233 -168q-87 0 -141 51.5t-66 153.5l-119 1040q-6 35 -6 72q0 57 40.5 94t103.5 37
q123 0 137 -152l96 -946h4l408 942q63 156 217 156q170 0 182 -197l72 -901h4z" />
    <glyph glyph-name="X" unicode="X" horiz-adv-x="1380" 
d="M741 913l447 467q31 31 57 44.5t60 13.5q51 0 88.5 -36.5t37.5 -87.5t-49 -106l-491 -503l307 -492q51 -83 15 -153t-121 -70q-82 0 -131 78l-277 446l-436 -465q-57 -57 -119 -57q-53 0 -89 34.5t-35 88.5t48 102l492 512l-309 477q-33 57 -32 109t39 88.5t97 36.5
q77 0 121 -70z" />
    <glyph glyph-name="Y" unicode="Y" horiz-adv-x="1265" 
d="M657 815l406 545q60 80 131 80q53 0 89 -30.5t36 -80.5q0 -48 -43 -106l-506 -645l-76 -435q-13 -73 -53 -111t-98 -38q-71 0 -106.5 46t-22.5 128l69 410l-274 645q-21 54 -21 100q0 51 38 84t98 33q46 0 73 -23t49 -80l207 -522h4z" />
    <glyph glyph-name="Z" unicode="Z" horiz-adv-x="1339" 
d="M365 1434l858 2q65 0 98 -31t33 -84q0 -26 -14 -53.5t-26 -42t-40 -45.5l-864 -957v-4l374 8h250q66 0 100.5 -28.5t34.5 -79.5q0 -53 -35 -85t-100 -32h-911q-61 0 -92 30.5t-31 78.5q0 10 1 19.5t4.5 19t5.5 16t8.5 16.5t8.5 14t11.5 15t11 13t13 14.5t12.5 13.5
l870 960l-2 5l-356 -9h-223q-66 0 -101 32t-35 85q0 51 35 80t101 29z" />
    <glyph glyph-name="bracketleft" unicode="[" horiz-adv-x="684" 
d="M449 1458h174q60 0 90 -26.5t30 -73.5q0 -45 -30.5 -73t-89.5 -28h-113l-250 -1411h86q54 0 85.5 -25.5t31.5 -66.5q0 -47 -32.5 -77.5t-86.5 -30.5h-190q-72 0 -105.5 39.5t-21.5 109.5l274 1538q21 125 148 125z" />
    <glyph glyph-name="backslash" unicode="\" horiz-adv-x="970" 
d="M614 -201l-421 1557q-19 69 11 107t87 38q37 0 60 -21.5t36 -72.5l424 -1561q19 -70 -9 -106.5t-85 -36.5q-78 0 -103 96z" />
    <glyph glyph-name="bracketright" unicode="]" horiz-adv-x="684" 
d="M324 1458h188q72 0 105.5 -39.5t21.5 -109.5l-274 -1534q-21 -127 -148 -127h-172q-60 0 -90.5 26.5t-30.5 73.5q0 45 31 72.5t90 27.5h113l250 1409h-86q-55 0 -86 25.5t-31 67.5q0 47 32.5 77.5t86.5 30.5z" />
    <glyph glyph-name="asciicircum" unicode="^" horiz-adv-x="1005" 
d="M774 1495l158 -213q22 -25 22 -55q0 -28 -20.5 -48t-50.5 -20q-42 0 -70 33l-151 182l-218 -182q-45 -35 -79 -35q-32 0 -51 18t-19 46q0 35 31 61l233 213q44 39 115 39q36 0 58.5 -8t41.5 -31z" />
    <glyph glyph-name="underscore" unicode="_" horiz-adv-x="1243" 
d="M109 -111h741q55 0 84 -24.5t29 -67.5q0 -45 -30 -70.5t-85 -25.5h-739q-57 0 -87 25.5t-30 70.5q0 42 30.5 67t86.5 25z" />
    <glyph glyph-name="grave" unicode="`" horiz-adv-x="595" 
d="M309 1245l-71 172q-11 25 -11 51q0 41 30.5 64.5t68.5 23.5q71 0 88 -79l39 -187q11 -53 -10 -80.5t-60 -27.5q-49 0 -74 63z" />
    <glyph glyph-name="a" unicode="a" horiz-adv-x="1341" 
d="M885 104l2 48q-114 -170 -350 -170q-113 0 -204.5 40.5t-149.5 110.5t-89 161t-31 195q0 160 65 294t193.5 217t296.5 83q140 0 229 -57t134 -147l27 96q25 96 122 96q64 0 97.5 -40t21.5 -113l-119 -680l-14 -117q-16 -127 -125 -127q-51 0 -80.5 29.5t-25.5 80.5z
M666 877l-2 -3q-148 0 -240 -106t-92 -268q0 -142 74.5 -227t201.5 -85q146 0 237 108.5t91 272.5q0 142 -72.5 225t-197.5 83z" />
    <glyph glyph-name="b" unicode="b" horiz-adv-x="1345" 
d="M59 135l224 1233q9 65 46 101t93 36q70 0 104 -44t21 -128l-64 -360q122 110 299 110q146 0 254.5 -67.5t163.5 -182.5t55 -260q0 -161 -66 -295.5t-191 -216t-285 -81.5q-145 0 -253 61.5t-147 148.5l-22 -90q-27 -108 -127 -108q-56 0 -86.5 38t-18.5 105zM713 874l2 3
q-146 0 -237 -108.5t-91 -272.5q0 -142 72.5 -225t197.5 -83q147 0 239.5 106.5t92.5 268.5q0 142 -74.5 226.5t-201.5 84.5z" />
    <glyph glyph-name="c" unicode="c" horiz-adv-x="1093" 
d="M688 1083l6 -4q170 0 283 -61q61 -38 57 -96q-3 -45 -33 -74t-79 -25q-25 4 -97 29t-125 25q-174 0 -269 -105.5t-95 -261.5q0 -68 19 -126t56.5 -104.5t100.5 -73t145 -26.5q61 0 126.5 22.5t86.5 24.5q39 5 66.5 -20t30.5 -70q5 -59 -70 -96q-55 -28 -136 -42.5
t-153 -14.5q-244 0 -393 137.5t-149 374.5q0 171 82 305.5t223.5 207.5t316.5 74z" />
    <glyph glyph-name="d" unicode="d" horiz-adv-x="1349" 
d="M987 905l84 473q21 129 143 129q69 0 102.5 -40.5t20.5 -114.5l-196 -1112l-17 -136q-6 -55 -39.5 -82.5t-83.5 -27.5q-53 0 -85 31t-29 88l4 45q-114 -176 -352 -176q-111 0 -201 39t-147.5 108t-88 160t-30.5 196q0 118 38.5 225.5t107.5 190.5t175 132.5t232 49.5
q132 0 223.5 -50t138.5 -128zM674 877q-146 0 -238 -104.5t-92 -268.5q0 -145 75 -230.5t202 -85.5q146 0 236.5 108.5t90.5 272.5q0 143 -73.5 225.5t-200.5 82.5z" />
    <glyph glyph-name="e" unicode="e" horiz-adv-x="1239" 
d="M1044 449l-694 -5q1 -132 92 -203t232 -71q96 0 196 39q57 22 88 22q39 0 59.5 -27t20.5 -65q0 -63 -77 -94q-151 -63 -328 -63q-114 0 -212 31.5t-174.5 93t-120.5 161t-44 226.5q0 111 32.5 207t88.5 165.5t132 118.5t163.5 73.5t181.5 24.5q206 0 339 -122t126 -320
q-3 -64 -15 -123q-6 -31 -30 -50t-56 -19zM369 616h540q4 16 4 39q2 94 -57.5 161t-175.5 67q-114 0 -202 -71.5t-109 -195.5z" />
    <glyph glyph-name="f" unicode="f" horiz-adv-x="735" 
d="M272 1061l25 125q11 57 26.5 102t43.5 90t65.5 75t95 48.5t129.5 18.5q92 0 150 -25q63 -27 63 -88q0 -75 -59 -92q-23 -2 -28 -2.5t-33 2t-35 2.5q-124 3 -150 -135l-22 -117h106q54 0 83.5 -26t29.5 -68q0 -44 -29.5 -71.5t-83.5 -27.5h-137l-158 -880
q-31 -170 -103 -255t-190 -93q-62 -1 -95.5 28t-33.5 76q0 81 82 123q30 11 46 45.5t26 95.5l154 860h-45q-47 0 -73 22.5t-26 59.5q0 42 28 65t85 34z" />
    <glyph glyph-name="g" unicode="g" horiz-adv-x="1296" 
d="M803 106l22 111q-97 -137 -317 -137q-90 0 -170.5 30.5t-143.5 87.5t-100 147t-37 202q0 127 43.5 230.5t117.5 169.5t169 101t201 35q131 0 226.5 -51.5t146.5 -142.5l24 84q36 98 121 98q62 0 93.5 -36.5t19.5 -102.5l-146 -826q-21 -118 -74 -207t-132 -143.5
t-176.5 -81.5t-213.5 -28q-211 -3 -366 71q-39 17 -61.5 45t-22.5 58q0 45 24.5 74.5t69.5 29.5q33 0 76 -16q123 -53 249 -53q314 0 357 251zM627 879l-4 -2q-140 0 -224 -93.5t-84 -226.5q0 -125 73 -200.5t202 -75.5q141 0 227 96t86 225q0 122 -75 199.5t-201 77.5z" />
    <glyph glyph-name="h" unicode="h" horiz-adv-x="1241" 
d="M63 166l207 1202q12 66 49 101.5t93 35.5q70 0 106 -44.5t21 -127.5l-70 -391q114 141 317 141q67 0 125 -18.5t107 -56t77.5 -103.5t28.5 -153q0 -58 -12 -123l-88 -500q-9 -65 -46 -101t-93 -36q-70 0 -105 44t-20 128l82 461q6 41 6 73q0 89 -44 134t-124 45
q-100 0 -171.5 -67.5t-92.5 -188.5l-88 -490q-9 -65 -46.5 -101t-93.5 -36q-70 0 -105 44t-20 128z" />
    <glyph glyph-name="i" unicode="i" horiz-adv-x="628" 
d="M449 1493h-5q69 0 108.5 -33.5t35.5 -97.5l-4 -25q-19 -131 -152 -131q-65 0 -105.5 32.5t-33.5 94.5l4 25q17 135 152 135zM242 1065l155 -2q72 0 105.5 -39.5t21.5 -110.5l-139 -786q-12 -65 -48.5 -99t-92.5 -34q-70 0 -106 44.5t-21 127.5l116 663l-36 15
q-84 32 -84 110q0 50 33 80.5t96 30.5z" />
    <glyph glyph-name="j" unicode="j" horiz-adv-x="626" 
d="M455 1493h-4q69 0 108 -33.5t35 -97.5l-4 -25q-19 -131 -152 -131q-65 0 -105.5 32.5t-33.5 94.5l4 25q17 135 152 135zM248 1065l151 2q72 0 105.5 -39.5t21.5 -109.5l-166 -945q-26 -155 -109 -240t-241 -85q-94 0 -143 28q-58 38 -55 101q3 68 59 88q26 8 94 2
q52 -5 84 26.5t45 104.5l148 831l-37 15q-86 32 -86 110q0 49 33 80t96 31z" />
    <glyph glyph-name="k" unicode="k" horiz-adv-x="1091" 
d="M68 170l202 1196q24 137 144 137q71 0 106.5 -46.5t18.5 -127.5l-82 -448l-66 -303l197 194l262 254q41 41 94 41q49 0 82.5 -33t29 -87.5t-60.5 -106.5l-295 -271l195 -368q44 -79 10.5 -144t-117.5 -65q-76 0 -118 80l-170 344l-142 -129l-26 -164q-25 -129 -139 -129
q-69 0 -104 45.5t-21 130.5z" />
    <glyph glyph-name="l" unicode="l" horiz-adv-x="661" 
d="M532 1343l-174 -1003q-10 -52 -10 -76q0 -50 43 -59q9 -2 62 -2q35 0 56 -23t21 -61q0 -76 -67 -105q-51 -26 -139 -26q-117 0 -184.5 58t-67.5 173q0 49 18 152l176 1003q22 133 144 133q68 0 101.5 -43.5t20.5 -120.5z" />
    <glyph glyph-name="m" unicode="m" horiz-adv-x="1875" 
d="M438 958l-6 -43q54 85 141.5 133t188.5 48q98 0 174.5 -47.5t103.5 -147.5q50 84 144 138.5t221 54.5q73 0 134.5 -19.5t110.5 -59.5t77 -107t28 -156q0 -68 -12 -138l-86 -477q-12 -66 -48 -101.5t-93 -35.5q-70 0 -105 44t-20 128l82 451q10 68 10 92q0 75 -39 120.5
t-121 45.5q-55 0 -99.5 -21.5t-72 -57t-44.5 -73.5t-24 -78l-92 -516q-12 -66 -48 -101.5t-93 -35.5q-70 0 -105 44t-20 128l92 510q14 86 -25.5 142.5t-129.5 56.5q-102 0 -163.5 -66.5t-76.5 -155.5l-94 -524q-9 -65 -46.5 -101t-93.5 -36q-70 0 -103.5 44t-18.5 128
l114 653l19 131q17 119 125 119q51 0 83 -29.5t31 -83.5z" />
    <glyph glyph-name="n" unicode="n" horiz-adv-x="1247" 
d="M444 958l-4 -53q12 19 29 39t49.5 47.5t69 48.5t89.5 35.5t111 14.5q53 0 101 -11t92.5 -36.5t77 -63t52 -94.5t19.5 -127q0 -62 -12 -123l-90 -502q-9 -65 -46 -100t-93 -35q-70 0 -104 43t-19 127l80 463q6 38 6 74q0 87 -45.5 130.5t-124.5 43.5q-102 0 -172 -68.5
t-94 -204.5l-86 -475q-9 -65 -46.5 -101t-93.5 -36q-70 0 -103.5 44t-18.5 128l118 674l13 110q12 121 125 121q55 0 88 -29t32 -84z" />
    <glyph glyph-name="o" unicode="o" horiz-adv-x="1335" 
d="M700 1083h-2q251 0 398 -143t147 -371q0 -255 -172.5 -421t-447.5 -166q-252 0 -396.5 143t-144.5 373q0 171 79 304.5t220 207t319 73.5zM686 874v-4q-142 0 -240 -103.5t-98 -264.5q0 -145 80 -230.5t209 -85.5q147 0 241.5 109t94.5 266q0 141 -79 227t-208 86z" />
    <glyph glyph-name="p" unicode="p" horiz-adv-x="1347" 
d="M182 829l13 123q11 121 129 121q47 0 77 -29.5t29 -82.5l-2 -35q125 157 348 157q144 0 253 -67.5t165.5 -182t56.5 -258.5q0 -118 -38 -225t-107.5 -189t-175 -130.5t-232.5 -48.5q-134 0 -227 50.5t-135 133.5l-68 -383q-10 -66 -46.5 -101.5t-92.5 -35.5
q-70 0 -105 44t-20 128zM707 877q-145 0 -236.5 -109t-91.5 -270q0 -139 75.5 -223.5t200.5 -84.5q147 0 237.5 106t90.5 267q0 143 -74.5 228.5t-201.5 85.5z" />
    <glyph glyph-name="q" unicode="q" horiz-adv-x="1320" 
d="M788 -182l46 266q-104 -107 -295 -107q-110 0 -201 40.5t-150.5 111t-92 164.5t-32.5 201q0 156 64 288t192 215.5t297 83.5q135 0 228 -52t137 -132l18 72q23 102 131 102q64 0 99 -43.5t22 -120.5l-200 -1124q-12 -66 -48.5 -101.5t-91.5 -35.5q-70 0 -104 44t-19 128z
M666 870l-2 -2q-148 0 -240 -106t-92 -268q0 -142 74.5 -227t201.5 -85q146 0 237 108.5t91 272.5q0 142 -72.5 224.5t-197.5 82.5z" />
    <glyph glyph-name="r" unicode="r" horiz-adv-x="845" 
d="M436 942l-8 -86q22 45 45.5 80t58 69.5t81 53t102.5 18.5q66 0 100.5 -35t34.5 -86q0 -61 -37.5 -98t-107.5 -43q-141 -10 -212.5 -99t-99.5 -251l-59 -330q-12 -67 -48 -103t-91 -36q-70 0 -105 44t-20 128l114 651l13 125q13 125 125 125q55 0 86 -33.5t28 -93.5z" />
    <glyph glyph-name="s" unicode="s" horiz-adv-x="1005" 
d="M547 1085l-4 2q89 0 174.5 -19t142.5 -48q77 -38 72 -105q-4 -36 -27.5 -63.5t-68.5 -26.5q-25 0 -68 19q-103 49 -199 49q-178 -2 -178 -119q0 -29 10.5 -50.5t38 -38.5t46 -25t63.5 -25q8 -3 25 -9q40 -14 60 -22t55.5 -23t54.5 -27t46 -31t41.5 -39t29.5 -46t21.5 -58
t6.5 -69q0 -86 -36.5 -151t-100.5 -103.5t-144 -57.5t-174 -19q-95 -1 -190.5 19.5t-163.5 57.5q-79 42 -74 107q2 39 26 66t72 24q26 0 84 -27q125 -53 240 -53q182 3 182 115q0 19 -5 34.5t-18 28.5t-24 22t-36.5 20.5t-41 17.5t-51 19t-53.5 20q-61 23 -103 46
t-81.5 57.5t-59 84t-20.5 113.5q-1 87 34.5 152.5t97 103.5t136.5 57t162 20z" />
    <glyph glyph-name="t" unicode="t" horiz-adv-x="817" 
d="M264 1065l66 211q35 102 131 102q58 0 87 -35t19 -98l-30 -180h165q53 0 80 -25.5t27 -66.5q0 -44 -27 -71.5t-80 -27.5h-198l-94 -532q-7 -32 -7 -57q0 -95 95 -95q17 0 44 4t33 5q44 3 68.5 -24t22.5 -71q-4 -71 -93 -100q-64 -20 -147 -20q-299 0 -299 262
q0 44 10 102l94 531h-41q-48 0 -72 22.5t-24 59.5q0 40 22 61.5t68 30.5z" />
    <glyph glyph-name="u" unicode="u" horiz-adv-x="1247" 
d="M801 449l88 487q21 129 137 129q69 0 105 -40t24 -112l-121 -673l-14 -127q-12 -121 -125 -121q-55 0 -88 32t-33 87v51q-18 -26 -42 -51t-66.5 -58t-104.5 -53t-133 -20q-68 0 -127.5 18t-109 55t-78.5 103t-29 153q0 57 12 119l92 514q24 129 148 129q66 0 100.5 -40
t22.5 -113l-84 -484q-6 -40 -6 -80q0 -85 45.5 -125.5t126.5 -40.5q101 0 169 66t91 195z" />
    <glyph glyph-name="v" unicode="v" horiz-adv-x="1110" 
d="M465 299l358 678q50 94 138 94q54 0 89 -29t35 -77q0 -38 -20 -76l-428 -764q-39 -69 -88.5 -100t-124.5 -31q-77 0 -129.5 43.5t-67.5 124.5l-131 719q-6 35 -6 67q0 55 38.5 89t94.5 34q109 0 127 -119l111 -653h4z" />
    <glyph glyph-name="w" unicode="w" horiz-adv-x="1792" 
d="M207 162l-113 719q-4 40 -4 67q0 55 38 90t93 35q56 0 90 -32t41 -93l90 -647h9l303 643q31 69 76.5 98t113.5 29q74 0 118.5 -39t53.5 -119l70 -614h8l311 670q45 102 137 102q50 0 84.5 -28t34.5 -76q0 -45 -26 -105l-369 -735q-35 -73 -88 -104t-127 -31
q-81 0 -135.5 43t-63.5 127l-59 559h-2l-279 -592q-63 -137 -215 -137q-167 0 -190 170z" />
    <glyph glyph-name="x" unicode="x" horiz-adv-x="1089" 
d="M561 715l301 299q30 30 53 42.5t54 12.5q57 0 89 -37t28.5 -85t-37.5 -81l-338 -334l223 -348q23 -44 21 -86.5t-36 -74t-88 -31.5q-68 0 -110 61l-197 307l-307 -315q-27 -27 -51 -41t-60 -14q-58 0 -89.5 36.5t-27.5 86t40 84.5l352 348l-215 325q-20 29 -23 64.5
t8.5 65.5t42.5 50.5t74 20.5q40 0 65.5 -18.5t47.5 -53.5z" />
    <glyph glyph-name="y" unicode="y" horiz-adv-x="1148" 
d="M504 256l370 721q26 51 57 72.5t77 21.5q57 0 91 -32t34 -81q0 -40 -25 -88l-530 -938q-84 -146 -179.5 -216t-220.5 -70q-103 0 -162 20q-88 34 -88 109q0 42 28 69t69 23q19 -1 59 -10t66 -9q43 0 73 22.5t62 74.5l24 45l-200 911q-7 24 -7 43q0 59 35.5 93t98.5 34
q103 0 126 -127l138 -688h4z" />
    <glyph glyph-name="z" unicode="z" horiz-adv-x="1105" 
d="M262 1065l680 2q67 0 100 -32t33 -87q0 -44 -22.5 -79.5t-69.5 -77.5l-621 -590v-8l281 8h193q57 0 87.5 -27.5t30.5 -71.5q0 -46 -29.5 -74t-86.5 -28h-709q-135 0 -135 121q0 41 22.5 74.5t65.5 72.5l627 596v8l-277 -8h-172q-56 0 -85.5 28.5t-29.5 74.5q0 44 30 71
t87 27z" />
    <glyph glyph-name="braceleft" unicode="{" horiz-adv-x="718" 
d="M217 729l74 436q9 56 22.5 96.5t40 80t64 64t96 39.5t135.5 15q66 0 93.5 -24t27.5 -70q0 -48 -32.5 -78.5t-88.5 -30.5q-75 0 -104.5 -32t-38.5 -90l-76 -435q-20 -129 -145 -151q116 -17 96 -146l-78 -438q-10 -60 7 -90.5t81 -30.5q113 0 113 -92q0 -55 -39 -81.5
t-131 -26.5q-77 0 -130.5 18t-81.5 46t-40 71.5t-11 86t11 97.5l74 412q10 57 -39 82q-38 22 -54 43.5t-12 56.5q4 34 25.5 52t60.5 30q70 23 80 90z" />
    <glyph glyph-name="bar" unicode="|" horiz-adv-x="698" 
d="M246 -197l2 1684q0 60 30 93.5t80 33.5t79.5 -33t29.5 -94v-1684q0 -61 -30.5 -95t-82.5 -34q-50 0 -79 34t-29 95z" />
    <glyph glyph-name="braceright" unicode="}" horiz-adv-x="716" 
d="M479 375l-76 -432q-12 -71 -32 -120t-58.5 -91.5t-105 -63.5t-162.5 -22q-123 0 -123 102q0 47 33 73.5t90 26.5q75 0 104.5 32.5t38.5 90.5l76 435q20 129 146 151q-117 17 -97 145l78 439q10 58 -7 88.5t-81 30.5q-113 0 -113 92q0 55 39 81.5t131 26.5q77 0 130.5 -18
t81.5 -46t40 -71.5t11 -86t-11 -97.5l-73 -410q-10 -57 39 -82q37 -22 53 -45t12 -57t-25.5 -52t-60.5 -30q-30 -6 -51 -29t-27 -61z" />
    <glyph glyph-name="exclamdown" unicode="&#xa1;" horiz-adv-x="587" 
d="M346 1085q62 0 106 -43t44 -104q0 -62 -44 -106t-106 -44q-61 0 -105 44t-44 106q0 61 43.5 104t105.5 43zM8 -178l158 721q27 116 123 116q54 0 83.5 -36.5t22.5 -102.5l-90 -733q-19 -164 -164 -164q-74 0 -115 50t-18 149z" />
    <glyph glyph-name="cent" unicode="&#xa2;" horiz-adv-x="1150" 
d="M842 1315l-8 -78q108 -12 186 -55q59 -37 59 -97q0 -44 -31 -71t-81 -23q-22 4 -96.5 26.5t-127.5 22.5q-174 0 -269 -105t-95 -261q0 -68 19 -126t56.5 -104.5t100.5 -73t145 -26.5q61 0 126.5 22.5t86.5 24.5q40 5 68.5 -19.5t28.5 -68.5q0 -64 -70 -98
q-55 -28 -136.5 -43t-152.5 -15h-22l-15 -96q-11 -76 -79 -76q-32 0 -54.5 23.5t-15.5 67.5l16 102q-173 44 -274 173t-101 321q0 122 43.5 227.5t119.5 180.5t180.5 121.5t226.5 55.5l14 80q14 74 84 74q32 0 53.5 -22t14.5 -64z" />
    <glyph glyph-name="sterling" unicode="&#xa3;" horiz-adv-x="1249" 
d="M268 758l47 231q16 98 57.5 181.5t106 148.5t157.5 102t204 37q180 0 299 -96q59 -46 59 -102q0 -51 -32.5 -82t-78.5 -31q-31 0 -69 20q-99 60 -176 60q-112 0 -182 -71t-89 -189l-32 -209h379q42 0 64 -18.5t22 -51.5q0 -36 -22 -56t-64 -20h-404l-29 -163
q-31 -170 -145 -222h606q65 0 99 -29.5t34 -78.5q0 -53 -35 -85t-100 -32h-803q-63 0 -92 29.5t-29 74.5q0 25 5.5 44.5t17.5 35t22 25.5t29 24.5t27 22.5q70 58 86 150l35 204h-25q-42 0 -65 20t-23 56q0 33 22.5 51.5t65.5 18.5h51z" />
    <glyph glyph-name="currency" unicode="&#xa4;" horiz-adv-x="1304" 
d="M406 1106l49 -57q113 61 252 61q166 0 280 -90l100 88q19 15 43.5 13t38.5 -19q15 -17 13 -41t-21 -41l-98 -86q64 -99 61 -223q-3 -198 -127 -322l47 -61q15 -17 14 -41.5t-20 -38.5q-19 -15 -43.5 -12t-38.5 20l-51 66q-114 -68 -258 -68q-169 0 -278 86l-95 -84
q-19 -15 -42 -13t-37 19q-15 17 -13.5 40t21.5 40l92 80q-66 97 -66 231q0 201 133 328l-43 53q-18 22 -16 43.5t23 36.5q19 15 43 13t37 -21zM702 961q-125 0 -210.5 -83t-85.5 -221q0 -119 70 -185t179 -66q126 0 208.5 86t82.5 221q0 109 -66.5 178.5t-177.5 69.5z" />
    <glyph glyph-name="yen" unicode="&#xa5;" horiz-adv-x="1472" 
d="M756 813l395 547q60 80 135 80q52 0 86.5 -32.5t34.5 -82.5q0 -51 -41 -102l-502 -617l-14 -82h158q75 0 75 -59q0 -30 -19 -47t-54 -17h-181l-14 -86h158q37 0 56.5 -15.5t19.5 -43.5q0 -29 -19.5 -46t-54.5 -17h-182l-15 -78q-10 -56 -51 -85.5t-98 -29.5q-56 0 -93 35
t-28 94l10 64h-166q-35 0 -54 16.5t-19 46.5q0 59 75 59h181l14 86h-158q-35 0 -54.5 17t-19.5 47q0 28 19.5 43.5t56.5 15.5h180l15 82l-281 619q-26 58 -26 96q0 51 37.5 85t97.5 34q45 0 72 -25t49 -76l217 -526h2z" />
    <glyph glyph-name="section" unicode="&#xa7;" horiz-adv-x="1263" 
d="M745 1434l-4 2q183 0 346 -68q84 -36 84 -102q0 -51 -30.5 -84t-81.5 -33q-25 0 -60 12q-123 43 -239 43q-48 0 -91.5 -7t-82.5 -23t-62.5 -46t-23.5 -71q0 -76 100 -125q38 -18 101.5 -38t118 -35.5t115 -42t102.5 -58t70 -82.5t28 -115q0 -44 -14 -86t-33 -72.5
t-49.5 -62t-53.5 -50.5t-55 -42q106 -83 106 -221q0 -95 -43.5 -168.5t-119 -117t-170.5 -65.5t-205 -22q-204 0 -361 72q-86 39 -86 104q0 54 30.5 85.5t84.5 31.5q20 0 61 -13q118 -47 248 -47q68 0 123 12t96 47t41 89q0 43 -27.5 72.5t-80.5 52.5q-38 16 -102 36
t-116.5 35.5t-112 42.5t-100 58t-67.5 82t-27 116q0 51 15.5 95.5t47 83.5t62 67.5t76.5 63.5q-104 84 -104 219q0 94 44 167.5t120.5 118t173 67t208.5 22.5zM453 741l-2 -2q-99 -81 -99 -166q0 -46 26 -78t75 -52t98.5 -33t117.5 -29.5t111 -32.5q101 88 101 168
q0 42 -26.5 71t-75 47t-100 31.5t-116.5 33t-110 42.5z" />
    <glyph glyph-name="dieresis" unicode="&#xa8;" horiz-adv-x="1069" 
d="M356 1483v-2q52 0 86.5 -29.5t30.5 -85.5q-5 -61 -37 -94t-90 -33q-60 0 -94.5 30t-30.5 89q4 61 39.5 93t95.5 32zM825 1481v-2q52 0 86.5 -29.5t30.5 -85.5q-5 -61 -37 -94t-90 -33q-60 0 -94.5 30t-30.5 89q4 61 39.5 93t95.5 32z" />
    <glyph glyph-name="copyright" unicode="&#xa9;" horiz-adv-x="1691" 
d="M866 1434q198 0 363.5 -93.5t261.5 -258t96 -363.5q0 -200 -97 -365.5t-262.5 -259.5t-361.5 -94q-146 0 -280 55.5t-232 150.5t-156.5 229t-58.5 284q0 149 58 282.5t155.5 228t231.5 149.5t282 55zM866 1319q-165 0 -305 -78.5t-222.5 -217t-82.5 -306.5
q0 -169 82 -307.5t222 -216.5t306 -78t305 78t220.5 216.5t81.5 307.5q0 168 -81.5 306.5t-220.5 217t-305 78.5zM883 1110q113 0 192 -51q53 -33 53 -74q0 -30 -19.5 -52t-51.5 -22q-24 0 -49 11q-60 26 -113 26q-104 0 -162.5 -67.5t-58.5 -163.5q0 -95 58 -163.5
t159 -68.5q55 0 117 27q27 12 51 12q33 0 51 -20t18 -49q0 -51 -53 -80q-82 -51 -190 -51q-172 0 -285 113t-113 280q0 168 113.5 280.5t282.5 112.5z" />
    <glyph glyph-name="ordfeminine" unicode="&#xaa;" horiz-adv-x="1028" 
d="M698 1161l7 23q11 74 -20.5 103.5t-96.5 29.5q-82 0 -156 -17q-49 -12 -74.5 13.5t-25.5 58.5q0 36 24 58t62 30q116 25 221 25q146 0 212.5 -75.5t43.5 -209.5l-53 -291q-5 -22 1 -32t25 -11q60 -6 60 -63q0 -47 -38.5 -72.5t-98.5 -25.5q-62 0 -95.5 27.5t-33.5 72.5
q0 6 2 14l2 8q-76 -131 -238 -131q-110 0 -175 61.5t-65 164.5q0 66 27.5 115.5t76 78t108.5 42t132 13.5q54 0 166 -10zM668 987l10 55q-44 11 -121 11q-30 0 -59 -5t-60 -17.5t-50 -39t-19 -63.5q0 -49 31 -75t85 -26q68 0 117 42.5t66 117.5zM236 598h546q49 0 73 -21
t24 -57q0 -41 -26 -63.5t-75 -22.5h-542q-99 0 -99 84q0 37 25 58.5t74 21.5z" />
    <glyph glyph-name="guillemotleft" unicode="&#xab;" horiz-adv-x="1339" 
d="M121 598l399 371q44 36 83.5 35.5t68.5 -29.5q30 -33 25 -74t-42 -78l-301 -309l166 -276q63 -104 0 -154q-36 -31 -82 -24t-82 53l-254 340q-32 42 -26 77q6 32 45 68zM682 596l399 371q44 36 83.5 35.5t68.5 -29.5q30 -33 25.5 -74t-41.5 -78l-302 -309l166 -276
q63 -104 0 -154q-36 -31 -81.5 -24t-81.5 53l-254 340q-33 43 -27 77q6 32 45 68z" />
    <glyph glyph-name="registered" unicode="&#xae;" horiz-adv-x="1218" 
d="M674 1434q192 0 326.5 -135.5t134.5 -327.5q0 -123 -62 -229t-168 -168t-231 -62q-190 0 -325.5 135t-135.5 324q0 126 62 232.5t168 168.5t231 62zM674 1335h-2q-150 0 -256.5 -107.5t-106.5 -256.5q0 -151 106 -256t257 -105q148 0 256 104.5t108 256.5
q0 148 -106.5 256t-255.5 108zM547 1227h170q66 0 109.5 -45t43.5 -109q0 -49 -26.5 -86.5t-71.5 -52.5l82 -137q12 -21 12 -37q0 -17 -11.5 -27t-29.5 -10q-28 0 -47 37l-96 164h-102v-150q0 -24 -12 -37.5t-33 -13.5q-22 0 -34 14t-12 37v395q0 26 16.5 42t41.5 16z
M582 1139v-127h133q27 0 46 18t19 45q0 30 -19 47t-46 17h-133z" />
    <glyph glyph-name="macron" unicode="&#xaf;" horiz-adv-x="940" 
d="M287 1372h452q45 0 72 -20.5t27 -59.5q0 -38 -26.5 -60t-72.5 -22h-452q-45 0 -73 22t-28 60q0 37 28 58.5t73 21.5z" />
    <glyph glyph-name="degree" unicode="&#xb0;" horiz-adv-x="796" 
d="M524 1458l-2 4q122 0 196.5 -69t74.5 -181q0 -127 -85.5 -213t-226.5 -86q-120 0 -196 69t-76 179q0 122 86.5 209.5t228.5 87.5zM512 1329v-2q-74 0 -114 -47.5t-40 -112.5q0 -53 36 -86.5t93 -33.5q76 0 113 48t37 113q0 54 -34.5 87.5t-90.5 33.5z" />
    <glyph glyph-name="plusminus" unicode="&#xb1;" horiz-adv-x="1095" 
d="M494 801l38 200q17 99 99 99q45 0 68.5 -28.5t13.5 -86.5l-33 -186h192q53 0 83 -24t30 -64q0 -41 -30.5 -65.5t-84.5 -24.5h-225l-35 -201q-17 -98 -98 -98q-45 0 -68.5 29t-13.5 87l33 185h-193q-54 0 -84 24t-30 66q0 40 29.5 64t82.5 24h226zM162 205h608
q53 0 83 -23.5t30 -62.5q0 -43 -29 -66.5t-82 -23.5h-610q-53 0 -82 23.5t-29 66.5q0 39 29 62.5t82 23.5z" />
    <glyph glyph-name="acute" unicode="&#xb4;" horiz-adv-x="669" 
d="M242 1296l108 199q32 59 88 59q37 0 67 -24.5t30 -63.5q0 -34 -27 -69l-135 -174q-33 -41 -72 -41q-42 0 -62 31.5t3 82.5z" />
    <glyph glyph-name="mu" unicode="&#xb5;" horiz-adv-x="1312" 
d="M879 434l92 512q12 66 46 97.5t97 31.5q67 0 100.5 -40t20.5 -113l-141 -801q-20 -123 -131 -123q-47 0 -77.5 27t-29.5 77l2 37q-98 -162 -272 -162q-89 0 -156 40t-88 98l-59 -340q-22 -127 -136 -127q-68 0 -101 41t-19 121l198 1130q22 133 144 133q67 0 100 -40.5
t20 -114.5l-81 -465q-22 -120 36 -192.5t172 -72.5q110 0 176.5 68t86.5 178z" />
    <glyph glyph-name="paragraph" unicode="&#xb6;" horiz-adv-x="1304" 
d="M670 1434h432q72 0 105.5 -39.5t21.5 -110.5l-242 -1362q-9 -46 -36 -71t-68 -25q-45 0 -72 31.5t-18 83.5l227 1292h-180l-232 -1311q-9 -47 -36.5 -71.5t-67.5 -24.5q-50 0 -76.5 31t-17.5 84l106 591h-41q-159 0 -242 99.5t-83 259.5q0 114 32.5 207.5t84.5 154.5
t121 103t139.5 60t142.5 18z" />
    <glyph glyph-name="periodcentered" unicode="&#xb7;" horiz-adv-x="626" 
d="M311 811q77 0 131 -54t54 -130q0 -75 -54.5 -129t-130.5 -54q-75 0 -128.5 54t-53.5 129q0 76 53.5 130t128.5 54z" />
    <glyph glyph-name="cedilla" unicode="&#xb8;" horiz-adv-x="677" 
d="M365 27l-70 -144q1 0 5 1t7 1q59 0 102.5 -32.5t43.5 -96.5q0 -53 -22 -90t-60 -55.5t-78 -26.5t-88 -8q-44 0 -92 10q-50 12 -50 52q0 25 17.5 39.5t54.5 7.5q52 -9 72 -9q98 0 98 70q0 53 -69 53h-13q-36 0 -51 19q-16 22 0 51l86 158h107z" />
    <glyph glyph-name="ordmasculine" unicode="&#xba;" horiz-adv-x="1110" 
d="M666 1485v2q171 0 274.5 -92.5t103.5 -251.5q0 -80 -30 -154.5t-83.5 -133t-136.5 -93.5t-182 -35q-171 0 -276 92.5t-105 253.5q0 108 49.5 200.5t150.5 152t235 59.5zM653 1317l2 -2q-103 0 -158 -66.5t-55 -165.5q0 -83 51.5 -133.5t133.5 -50.5q105 0 158 69t53 162
q0 86 -50.5 136.5t-134.5 50.5zM236 588l616 4q50 0 77 -22t27 -60q0 -41 -27.5 -64.5t-76.5 -23.5h-616q-50 0 -77.5 23t-27.5 63q0 36 27.5 58t77.5 22z" />
    <glyph glyph-name="guillemotright" unicode="&#xbb;" horiz-adv-x="1339" 
d="M387 551l-164 276q-63 104 0 154q36 31 82 24t82 -53l254 -340q33 -43 27 -77q-6 -32 -45 -68l-404 -373q-44 -36 -82 -35.5t-67 29.5q-30 33 -25.5 75t41.5 79zM952 551l-161 276q-63 104 0 154q36 31 81.5 24t81.5 -53l254 -340q33 -43 27 -77q-6 -32 -45 -68
l-404 -373q-44 -36 -83 -35.5t-68 29.5q-30 33 -25.5 75t41.5 79z" />
    <glyph glyph-name="onequarter" unicode="&#xbc;" horiz-adv-x="1501" 
d="M309 1362l99 51q50 27 88 27q36 0 57.5 -24t13.5 -73l-94 -538q-14 -90 -98 -90q-42 0 -63.5 23.5t-14.5 68.5l76 428l-25 -10q-33 -11 -51 -11q-29 0 -44 19t-15 43q0 47 71 86zM66 145l1230 1205q38 37 52.5 49.5t37.5 25.5t44 13q36 0 56.5 -19t20.5 -49
q0 -49 -45 -90l-1218 -1198q-6 -6 -19.5 -18.5t-19 -17.5t-16.5 -14.5t-16.5 -13.5t-15 -10t-16 -8t-15 -4t-17.5 -2q-37 0 -57.5 19t-22.5 48q-3 44 37 84zM829 334l273 293q44 47 73 67.5t66 20.5q41 0 65.5 -25.5t16.5 -75.5l-61 -354h32q28 0 44 -15t16 -42
q0 -31 -22.5 -50.5t-59.5 -19.5h-33l-12 -67q-14 -82 -90 -82q-38 0 -57.5 20t-12.5 62l12 65h-256q-37 0 -58.5 19t-21.5 51q0 19 12.5 41.5t24.5 37t39 43.5l3.5 3.5t3 3.5t3.5 4zM922 260h176l43 236z" />
    <glyph glyph-name="onehalf" unicode="&#xbd;" horiz-adv-x="1554" 
d="M301 1362l98 51q50 27 88 27q36 0 58 -25t14 -74l-94 -538q-14 -90 -98 -90q-41 0 -63 24t-15 70l76 428l-25 -10q-33 -11 -51 -11q-29 0 -44.5 19t-15.5 43q0 47 72 86zM57 145l1227 1203q39 38 52 50t36.5 25t44.5 13q36 0 57 -19t21 -49q0 -49 -45 -90l-1219 -1198
q-6 -6 -19.5 -18.5t-19 -17.5t-16.5 -14.5t-16.5 -13.5t-15 -10t-16 -8t-15 -4t-17.5 -2q-37 0 -57.5 19.5t-20.5 49.5q0 45 39 84zM928 178l225 176q100 75 100 146q0 84 -98 84q-34 0 -90 -17q-40 -8 -45 -8q-31 0 -45 18.5t-14 43.5q0 54 79 81q88 29 168 29
q108 0 170 -52.5t62 -148.5q0 -153 -197 -280l-143 -103h211q37 0 56 -17t19 -44q1 -42 -26 -64t-68 -22h-348q-39 0 -61.5 21t-22.5 57q0 53 68 100z" />
    <glyph glyph-name="threequarters" unicode="&#xbe;" horiz-adv-x="1626" 
d="M172 147l1229 1205q39 38 52 50t36.5 25t44.5 13q36 0 57 -19t21 -49q0 -49 -45 -90l-1219 -1198q-6 -6 -19.5 -18.5t-19 -17.5t-16.5 -14.5t-16.5 -13.5t-15 -10t-16 -8t-15 -4t-17.5 -2q-37 0 -57.5 20t-20.5 52q0 42 37 79zM387 1145h31q47 0 78.5 19t31.5 61
q0 33 -24.5 50t-59.5 17q-26 0 -65 -8t-55 -8q-28 0 -45 17t-17 42q0 64 84 86q72 21 141 21q104 0 165 -48.5t61 -127.5q0 -59 -36 -110.5t-120 -72.5q54 -12 86.5 -55.5t32.5 -101.5q0 -111 -91.5 -170.5t-234.5 -59.5q-82 0 -147 25q-53 18 -53 70q0 32 19 52.5t56 20.5
q9 0 37 -4q51 -14 96 -14q59 0 96.5 26t37.5 76q0 40 -31 58t-76 18h-12q-30 -2 -49 13.5t-19 45.5q0 65 82 62zM948 334l273 293q44 47 73 67.5t66 20.5q41 0 65.5 -25.5t16.5 -75.5l-62 -354h33q28 0 44 -15t16 -42q0 -31 -22.5 -50.5t-59.5 -19.5h-33l-12 -67
q-14 -82 -91 -82q-38 0 -57 20t-12 62l12 65h-256q-37 0 -58.5 19t-21.5 51q0 19 12.5 41.5t24.5 37t39 43.5l3.5 3.5t3 3.5t3.5 4zM1040 260h177l43 236z" />
    <glyph glyph-name="questiondown" unicode="&#xbf;" horiz-adv-x="1028" 
d="M608 1083q62 0 105 -43t43 -104q0 -62 -43.5 -106t-104.5 -44t-105 44t-44 106q0 61 43.5 104t105.5 43zM444 504l11 51q14 107 118 107q54 0 81.5 -33.5t21.5 -93.5l-8 -50q-11 -60 -40 -109.5t-66.5 -83t-81 -62.5t-84 -55t-74 -53.5t-54 -65t-20.5 -83.5
q0 -67 47.5 -104t122.5 -37q78 0 174 35q43 14 78 14q46 0 71 -31t25 -73q0 -64 -84 -105q-148 -71 -313 -71q-79 0 -148.5 20t-125 59t-88 105.5t-32.5 151.5q0 74 24 133.5t63 99.5t86.5 73t96.5 60.5t90.5 55t71.5 64.5t37 81z" />
    <glyph glyph-name="Agrave" unicode="&#xc0;" horiz-adv-x="1409" 
d="M856 1579l-113 119q-41 41 -41 76q0 51 31 77.5t76 28.5q30 1 52 -15t44 -55l84 -145q15 -24 15 -47q0 -33 -23.5 -54.5t-54.5 -21.5q-33 0 -70 37zM-8 195l581 1089q43 80 105 118t153 38q104 0 161.5 -48.5t76.5 -148.5l209 -1063q17 -87 -22.5 -136.5t-114.5 -49.5
q-121 0 -146 141l-43 225h-571l-145 -272q-51 -96 -138 -96q-59 0 -94 34.5t-35 86.5q0 34 23 82zM807 1188l-315 -613h426l-107 613h-4z" />
    <glyph glyph-name="Aacute" unicode="&#xc1;" horiz-adv-x="1409" 
d="M768 1669l131 152q33 38 58.5 54t56.5 15q35 -2 60.5 -23.5t25.5 -56.5q0 -32 -15 -53.5t-57 -52.5l-151 -121q-51 -39 -80 -39q-27 0 -44.5 15.5t-17.5 37.5q0 36 33 72zM-6 205l581 1089q43 80 105.5 118t153.5 38q103 0 160.5 -48t76.5 -149l209 -1063
q17 -87 -22.5 -136.5t-114.5 -49.5q-121 0 -146 141l-43 226h-571l-145 -273q-51 -96 -138 -96q-59 0 -94 34.5t-35 86.5q0 34 23 82zM809 1198l-315 -612h426l-107 612h-4z" />
    <glyph glyph-name="Acircumflex" unicode="&#xc2;" horiz-adv-x="1409" 
d="M582 1649l188 120q56 41 113 41q55 0 102 -41l129 -112q35 -32 35 -68q0 -24 -19 -42.5t-47 -18.5q-31 0 -75 33l-131 96l-181 -98q-58 -31 -84 -31q-25 0 -46 14.5t-21 46.5q0 37 37 60zM-6 197l581 1089q43 80 105.5 118t153.5 38q103 0 160.5 -48t76.5 -149l209 -1063
q17 -87 -22.5 -136.5t-114.5 -49.5q-121 0 -146 141l-43 225h-571l-145 -272q-51 -96 -138 -96q-59 0 -94 34.5t-35 86.5q0 34 23 82zM809 1190l-315 -612h426l-107 612h-4z" />
    <glyph glyph-name="Atilde" unicode="&#xc3;" horiz-adv-x="1409" 
d="M788 1782h7q57 0 131.5 -41t117.5 -41q44 0 86 33q27 18 48 18q19 0 32 -12t13 -35q0 -24 -20 -52.5t-52 -52.5q-77 -61 -176 -61q-50 0 -92.5 20.5t-80 41t-73.5 20.5q-44 0 -94 -37q-21 -18 -43 -18q-49 0 -49 49q0 54 94 119q73 49 151 49zM-2 197l582 1089
q43 80 105 118t153 38q103 0 160.5 -48t76.5 -149l209 -1063q17 -87 -22.5 -136.5t-114.5 -49.5q-121 0 -146 141l-43 225h-571l-145 -272q-51 -96 -138 -96q-59 0 -94 34.5t-35 86.5q0 34 23 82zM813 1190l-315 -612h426l-107 612h-4z" />
    <glyph glyph-name="Adieresis" unicode="&#xc4;" horiz-adv-x="1409" 
d="M641 1804v-2q52 0 86.5 -29t30.5 -85q-5 -61 -37 -94t-90 -33q-60 0 -94.5 29.5t-30.5 88.5q4 61 39.5 93t95.5 32zM1110 1802v-2q52 0 86.5 -29t30.5 -85q-5 -61 -37 -94t-90 -33q-60 0 -94.5 29.5t-30.5 88.5q4 61 39.5 93t95.5 32zM-8 195l581 1089q43 80 105 118
t153 38q104 0 161.5 -48.5t76.5 -148.5l209 -1063q17 -87 -22.5 -136.5t-114.5 -49.5q-121 0 -146 141l-43 225h-571l-145 -272q-51 -96 -138 -96q-59 0 -94 34.5t-35 86.5q0 34 23 82zM807 1188l-315 -613h426l-107 613h-4z" />
    <glyph glyph-name="Aring" unicode="&#xc5;" horiz-adv-x="1409" 
d="M868 1913q88 0 144.5 -53.5t56.5 -139.5q0 -87 -56 -140.5t-145 -53.5q-87 0 -143.5 53.5t-56.5 140.5q0 86 56.5 139.5t143.5 53.5zM866 1812q-44 0 -66 -25.5t-22 -66.5t22.5 -67.5t65.5 -26.5q42 0 65 26.5t23 67.5q0 40 -23 66t-65 26zM-10 197l581 1089
q43 80 105 118t153 38q104 0 161.5 -48.5t76.5 -148.5l209 -1063q17 -87 -22.5 -136.5t-114.5 -49.5q-121 0 -146 141l-43 225h-571l-146 -272q-51 -96 -137 -96q-59 0 -94 34.5t-35 86.5q0 34 23 82zM805 1190l-316 -612h426l-106 612h-4z" />
    <glyph glyph-name="AE" unicode="&#xc6;" horiz-adv-x="2093" 
d="M893 1434l1077 8q61 0 95 -32t34 -81t-34 -82t-95 -33h-647l-70 -395h500q61 0 95 -31.5t34 -80.5t-34 -82t-95 -33h-539l-59 -361h623q61 0 95 -31.5t34 -80.5t-34 -82t-95 -33h-799q-72 0 -105.5 39.5t-21.5 110.5l37 213h-455l-168 -271q-32 -52 -66 -75t-85 -23
q-54 0 -92.5 34t-38.5 85q0 54 49 127l694 1097q31 50 69.5 71.5t96.5 21.5zM938 1210l-381 -626h371l110 626h-100z" />
    <glyph glyph-name="Ccedilla" unicode="&#xc7;" horiz-adv-x="1445" 
d="M637 -131l63 123q-125 19 -230 73t-183 139t-122 205.5t-44 264.5q0 169 61.5 316t169.5 251t261 163.5t331 59.5q200 -3 356 -75q101 -48 101 -123q0 -49 -32.5 -81t-86.5 -32q-24 0 -86 23q-113 55 -248 55q-107 -1 -196 -32t-149.5 -83.5t-102.5 -123t-61 -149
t-19 -163.5q0 -120 36 -212.5t98.5 -147t140.5 -82t167 -27.5q124 0 230 41q11 4 30 12t29.5 12t25.5 7.5t27 3.5q89 0 107 -88q18 -81 -74 -136q-73 -42 -181.5 -65t-215.5 -23h-35l-45 -92l4 1q4 1 8 1q59 0 102.5 -32.5t43.5 -96.5q0 -53 -22 -90t-60 -55.5t-78 -26.5
t-88 -8q-44 0 -92 10q-50 12 -50 52q0 25 17.5 39.5t54.5 7.5q52 -9 72 -9q98 0 98 70q0 53 -70 53h-12q-36 0 -51 19q-16 22 0 51z" />
    <glyph glyph-name="Egrave" unicode="&#xc8;" horiz-adv-x="1323" 
d="M803 1579l-113 119q-41 41 -41 76q0 51 31 77.5t76 28.5q30 1 52 -15t44 -55l84 -145q14 -22 14 -47q0 -33 -23.5 -54.5t-54.5 -21.5q-32 0 -69 37zM438 1432l764 4q61 0 95 -32t34 -81t-34 -82t-95 -33h-647l-70 -395h500q61 0 95 -32t34 -81t-34 -81.5t-95 -32.5h-539
l-61 -361h625q61 0 95 -31.5t34 -80.5t-34 -82t-95 -33h-799q-72 0 -105.5 39.5t-21.5 109.5l205 1160q21 125 149 125z" />
    <glyph glyph-name="Eacute" unicode="&#xc9;" horiz-adv-x="1323" 
d="M737 1669l131 152q33 38 58.5 54t56.5 15q35 -2 60.5 -23.5t25.5 -56.5q0 -32 -15 -53.5t-57 -52.5l-151 -121q-51 -39 -80 -39q-27 0 -44 15.5t-17 37.5q0 37 32 72zM438 1440l764 4q61 0 95 -32t34 -81t-34 -81.5t-95 -32.5h-647l-70 -396h500q61 0 95 -31.5t34 -80.5
t-34 -82t-95 -33h-539l-61 -361h625q61 0 95 -31.5t34 -80.5t-34 -82t-95 -33h-799q-72 0 -105.5 39.5t-21.5 110.5l205 1159q21 125 149 125z" />
    <glyph glyph-name="Ecircumflex" unicode="&#xca;" horiz-adv-x="1323" 
d="M551 1649l188 120q56 41 113 41q55 0 102 -41l129 -112q35 -32 35 -68q0 -24 -18.5 -42.5t-46.5 -18.5q-32 0 -76 33l-131 96l-180 -98q-58 -31 -84 -31q-25 0 -46.5 14.5t-21.5 46.5q0 37 37 60zM438 1432l764 4q61 0 95 -32t34 -81t-34 -82t-95 -33h-647l-70 -395h500
q61 0 95 -32t34 -81t-34 -81.5t-95 -32.5h-539l-61 -361h625q61 0 95 -31.5t34 -80.5t-34 -82t-95 -33h-799q-72 0 -105.5 39.5t-21.5 109.5l205 1160q21 125 149 125z" />
    <glyph glyph-name="Edieresis" unicode="&#xcb;" horiz-adv-x="1323" 
d="M610 1804v-2q52 0 86.5 -29t30.5 -85q-5 -61 -37 -94t-90 -33q-60 0 -94.5 29.5t-30.5 88.5q4 61 39.5 93t95.5 32zM1079 1802v-2q52 0 86.5 -29t30.5 -85q-5 -61 -37 -94t-90 -33q-60 0 -94.5 29.5t-30.5 88.5q4 61 39.5 93t95.5 32zM436 1430l764 4q61 0 95 -32t34 -81
t-34 -82t-95 -33h-647l-70 -395h500q61 0 95 -32t34 -81t-34 -81.5t-95 -32.5h-539l-61 -361h625q61 0 95 -31.5t34 -80.5t-34 -82t-95 -33h-799q-72 0 -105.5 39.5t-21.5 109.5l205 1160q21 125 149 125z" />
    <glyph glyph-name="Igrave" unicode="&#xcc;" horiz-adv-x="610" 
d="M418 1579l-111 119q-41 41 -41 76q0 51 31 77.5t76 28.5q30 1 52 -15t44 -55l84 -145q12 -19 12 -47q0 -33 -23.5 -54.5t-54.5 -21.5q-32 0 -69 37zM90 164l199 1126q12 72 51 110t98 38q71 0 107.5 -45.5t23.5 -126.5l-198 -1127q-12 -72 -51 -109.5t-99 -37.5
q-71 0 -107.5 45.5t-23.5 126.5z" />
    <glyph glyph-name="Iacute" unicode="&#xcd;" horiz-adv-x="610" 
d="M371 1669l131 152q33 38 58 54t56 15q35 -2 60.5 -23.5t25.5 -56.5q0 -32 -14.5 -53.5t-56.5 -52.5l-152 -121q-51 -39 -80 -39q-27 0 -44 15.5t-17 37.5q0 36 33 72zM88 172l199 1126q12 72 51 110t98 38q71 0 107.5 -45.5t23.5 -126.5l-198 -1127q-12 -72 -51 -109.5
t-99 -37.5q-71 0 -107.5 45.5t-23.5 126.5z" />
    <glyph glyph-name="Icircumflex" unicode="&#xce;" horiz-adv-x="610" 
d="M182 1649l189 120q56 41 112 41t103 -41l129 -112q35 -32 35 -68q0 -24 -19 -42.5t-47 -18.5q-32 0 -76 33l-131 96l-180 -98q-58 -31 -84 -31q-25 0 -46.5 14.5t-21.5 46.5q0 37 37 60zM88 164l199 1126q12 72 51 110t98 38q71 0 107.5 -45.5t23.5 -126.5l-198 -1127
q-12 -72 -51 -109.5t-99 -37.5q-71 0 -107.5 45.5t-23.5 126.5z" />
    <glyph glyph-name="Idieresis" unicode="&#xcf;" horiz-adv-x="610" 
d="M242 1804v-2q52 0 86 -29t30 -85q-5 -61 -37 -94t-90 -33q-60 0 -94.5 29.5t-30.5 88.5q4 61 39.5 93t96.5 32zM711 1802v-2q52 0 86 -29t30 -85q-5 -61 -37 -94t-90 -33q-60 0 -94.5 29.5t-30.5 88.5q4 61 39.5 93t96.5 32zM86 162l199 1126q12 72 51 110t98 38
q71 0 107.5 -45.5t23.5 -126.5l-198 -1127q-12 -72 -51 -109.5t-99 -37.5q-71 0 -107.5 45.5t-23.5 126.5z" />
    <glyph glyph-name="Eth" unicode="&#xd0;" horiz-adv-x="1509" 
d="M459 1434h215q356 0 552.5 -160.5t196.5 -482.5q0 -173 -52.5 -317.5t-152.5 -250t-254 -164.5t-348 -59h-387q-72 0 -105.5 39.5t-21.5 110.5l91 503h-76q-41 0 -63.5 19.5t-22.5 52.5q0 30 23 49t63 19h100l92 516q21 125 150 125zM403 229l121 2q92 0 117 2
q233 12 362.5 165t129.5 380q0 203 -105 314.5t-311 111.5h-144l-71 -411h157q41 0 63.5 -18.5t22.5 -49.5q0 -33 -22.5 -51.5t-63.5 -18.5h-182z" />
    <glyph glyph-name="Ntilde" unicode="&#xd1;" horiz-adv-x="1544" 
d="M850 1782h6q57 0 132 -41t118 -41q44 0 86 33q27 18 47 18q19 0 32 -12t13 -35q0 -24 -20 -52.5t-52 -52.5q-77 -61 -176 -61q-50 0 -92.5 20.5t-79.5 41t-73 20.5q-45 0 -95 -37q-21 -18 -43 -18q-49 0 -49 49q0 54 94 119q73 49 152 49zM1163 936l58 354
q12 72 51.5 110t99.5 38q72 0 107 -46t22 -128l-196 -1102q-32 -170 -189 -170q-41 0 -73 11t-52.5 31t-32 37t-22.5 40l-420 907h-4l-88 -561l-55 -318q-12 -72 -50 -109.5t-96 -37.5q-71 0 -107.5 46.5t-23.5 127.5l195 1102q30 172 188 172q125 0 180 -121l424 -895h4z
" />
    <glyph glyph-name="Ograve" unicode="&#xd2;" horiz-adv-x="1720" 
d="M918 1579l-111 119q-41 41 -41 76q0 51 30.5 77.5t75.5 28.5q56 3 97 -70l84 -145q12 -19 12 -47q0 -33 -23.5 -54.5t-54.5 -21.5q-32 0 -69 37zM934 1456l4 -2q162 0 296 -50.5t225.5 -141t141.5 -218.5t50 -280q0 -164 -58.5 -309.5t-162.5 -252.5t-258 -169t-336 -62
q-326 0 -518.5 190.5t-192.5 500.5q0 168 59.5 315t164.5 252.5t256.5 166t328.5 60.5zM934 1223v-2q-142 0 -257 -70t-182 -198t-67 -291q0 -214 113.5 -336.5t300.5 -122.5q217 0 362.5 156.5t145.5 400.5q0 211 -113 337t-303 126z" />
    <glyph glyph-name="Oacute" unicode="&#xd3;" horiz-adv-x="1720" 
d="M870 1669l131 152q33 38 58.5 54t56.5 15q35 -2 60.5 -23.5t25.5 -56.5q0 -32 -15 -53.5t-57 -52.5l-151 -121q-51 -39 -80 -39q-27 0 -44 15.5t-17 37.5q0 37 32 72zM932 1464l4 -2q162 0 296 -50.5t225.5 -141t141.5 -218.5t50 -280q0 -164 -58.5 -309t-162.5 -252
t-258 -169t-336 -62q-163 0 -296.5 50.5t-224.5 141.5t-140.5 218.5t-49.5 279.5q0 168 59.5 315t164.5 252.5t256.5 166t328.5 60.5zM932 1231v-2q-142 0 -257 -70t-182 -198t-67 -291q0 -214 113.5 -336.5t300.5 -122.5q217 0 362.5 156.5t145.5 400.5q0 211 -113 337
t-303 126z" />
    <glyph glyph-name="Ocircumflex" unicode="&#xd4;" horiz-adv-x="1720" 
d="M682 1649l188 120q56 41 113 41q55 0 102 -41l129 -112q35 -32 35 -68q0 -24 -18.5 -42.5t-46.5 -18.5q-32 0 -76 33l-131 96l-180 -98q-58 -31 -84 -31q-25 0 -46.5 14.5t-21.5 46.5q0 37 37 60zM932 1456l4 -2q162 0 296 -50.5t225.5 -141t141.5 -218.5t50 -280
q0 -164 -58.5 -309.5t-162.5 -252.5t-258 -169t-336 -62q-326 0 -518.5 190.5t-192.5 500.5q0 168 59.5 315t164.5 252.5t256.5 166t328.5 60.5zM932 1223v-2q-142 0 -257 -70t-182 -198t-67 -291q0 -214 113.5 -336.5t300.5 -122.5q217 0 362.5 156.5t145.5 400.5
q0 211 -113 337t-303 126z" />
    <glyph glyph-name="Otilde" unicode="&#xd5;" horiz-adv-x="1720" 
d="M891 1782h6q57 0 132 -41t118 -41q44 0 86 33q27 18 47 18q19 0 32 -12t13 -35q0 -24 -20 -52.5t-52 -52.5q-77 -61 -176 -61q-50 0 -92.5 20.5t-80 41t-73.5 20.5q-44 0 -94 -37q-21 -18 -43 -18q-49 0 -49 49q0 54 94 119q73 49 152 49zM938 1458l4 -2q162 0 296 -50.5
t225.5 -141t141.5 -218.5t50 -280q0 -164 -58.5 -309.5t-162.5 -252.5t-258 -169t-336 -62q-326 0 -518.5 190.5t-192.5 500.5q0 168 59.5 315t164.5 252.5t256.5 166t328.5 60.5zM938 1225v-2q-142 0 -257 -70t-182 -198t-67 -291q0 -214 113.5 -336.5t300.5 -122.5
q217 0 362.5 156.5t145.5 400.5q0 211 -113 337t-303 126z" />
    <glyph glyph-name="Odieresis" unicode="&#xd6;" horiz-adv-x="1720" 
d="M743 1804v-2q52 0 86.5 -29t30.5 -85q-5 -61 -37 -94t-90 -33q-60 0 -94.5 29.5t-30.5 88.5q4 61 39.5 93t95.5 32zM1212 1802v-2q52 0 86.5 -29t30.5 -85q-5 -61 -37 -94t-90 -33q-60 0 -94.5 29.5t-30.5 88.5q4 61 39.5 93t95.5 32zM932 1454l4 -2q162 0 296 -50.5
t225.5 -141t141.5 -218.5t50 -280q0 -164 -58.5 -309.5t-162.5 -252.5t-258 -169t-336 -62q-163 0 -296.5 50.5t-224.5 141.5t-140.5 218.5t-49.5 279.5q0 168 59.5 315t164.5 252.5t256.5 166.5t328.5 61zM932 1221v-2q-216 0 -361 -157t-145 -403q0 -214 113.5 -336
t300.5 -122q217 0 362.5 156.5t145.5 400.5q0 211 -113 337t-303 126z" />
    <glyph glyph-name="multiply" unicode="&#xd7;" horiz-adv-x="974" 
d="M504 760l217 166q35 28 65 28q26 0 49 -19t23 -54t-47 -72l-203 -162l123 -137q37 -40 37 -70q0 -37 -26 -59.5t-60 -22.5q-41 0 -78 43l-125 150l-203 -166q-39 -33 -71 -33q-31 0 -52.5 22t-21.5 54q0 36 47 74l195 160l-117 135q-37 47 -37 77q0 32 24.5 54t55.5 22
q40 0 80 -43z" />
    <glyph glyph-name="Oslash" unicode="&#xd8;" horiz-adv-x="1693" 
d="M1511 1346l-57 -74q201 -192 201 -508q0 -164 -58.5 -309.5t-162.5 -252.5t-258 -169t-336 -62q-222 0 -387 92l-70 -83q-27 -33 -47.5 -45.5t-44.5 -12.5q-34 0 -56 20.5t-22 51.5q0 37 35 80l74 90q-191 188 -191 498q0 168 59.5 315t164.5 252.5t256.5 166t328.5 60.5
q212 0 375 -86l55 68q49 57 94 57q35 0 58.5 -20.5t23.5 -51.5q0 -37 -35 -77zM504 383l651 786q-94 54 -215 54q-142 0 -257 -70t-182 -198t-67 -291q0 -166 70 -281zM1276 1055l-655 -791q94 -61 227 -61q217 0 362.5 156.5t145.5 400.5q0 173 -80 295z" />
    <glyph glyph-name="Ugrave" unicode="&#xd9;" horiz-adv-x="1503" 
d="M872 1579l-112 119q-41 41 -41 76q0 51 30.5 77.5t75.5 28.5q56 3 97 -70l84 -145q14 -22 14 -47q0 -33 -23.5 -54.5t-54.5 -21.5q-33 0 -70 37zM1032 485l150 803q12 72 51 110t98 38q71 0 106.5 -45.5t22.5 -126.5l-133 -758q-42 -244 -203 -389.5t-432 -145.5
q-136 0 -244.5 38t-176 103.5t-103 148.5t-35.5 177q0 50 6 97l133 753q12 72 51.5 110t98.5 38q71 0 106.5 -45.5t22.5 -126.5l-131 -758q-6 -42 -6 -60q0 -107 75.5 -174t206.5 -67q139 0 226 77.5t110 202.5z" />
    <glyph glyph-name="Uacute" unicode="&#xda;" horiz-adv-x="1503" 
d="M823 1669l131 152q33 38 58.5 54t56.5 15q35 -2 60.5 -23.5t25.5 -56.5q0 -32 -15 -53.5t-57 -52.5l-151 -121q-51 -39 -80 -39q-27 0 -44 15.5t-17 37.5q0 37 32 72zM1034 494l150 802q12 72 51 110t98 38q71 0 106.5 -45.5t22.5 -126.5l-133 -758q-42 -244 -203 -389
t-432 -145q-136 0 -244.5 38t-176 103t-103 148t-35.5 177q0 50 6 97l133 753q12 72 51.5 110t98.5 38q71 0 106.5 -45.5t22.5 -126.5l-131 -758q-6 -42 -6 -59q0 -107 75.5 -174.5t206.5 -67.5q139 0 226 78t110 203z" />
    <glyph glyph-name="Ucircumflex" unicode="&#xdb;" horiz-adv-x="1503" 
d="M635 1649l188 120q56 41 113 41q55 0 102 -41l129 -112q35 -32 35 -68q0 -24 -18.5 -42.5t-46.5 -18.5q-32 0 -76 33l-131 96l-180 -98q-58 -31 -84 -31q-25 0 -46.5 14.5t-21.5 46.5q0 37 37 60zM1034 485l150 803q12 72 51 110t98 38q71 0 106.5 -45.5t22.5 -126.5
l-133 -758q-42 -244 -203 -389.5t-432 -145.5q-136 0 -244.5 38t-176 103.5t-103 148.5t-35.5 177q0 50 6 97l133 753q12 72 51.5 110t98.5 38q71 0 106.5 -45.5t22.5 -126.5l-131 -758q-6 -42 -6 -60q0 -107 75.5 -174t206.5 -67q139 0 226 77.5t110 202.5z" />
    <glyph glyph-name="Udieresis" unicode="&#xdc;" horiz-adv-x="1503" 
d="M694 1804v-2q52 0 86.5 -29t30.5 -85q-5 -61 -37 -94t-90 -33q-60 0 -94.5 29.5t-30.5 88.5q4 61 39.5 93t95.5 32zM1163 1802v-2q52 0 86.5 -29t30.5 -85q-5 -61 -37 -94t-90 -33q-60 0 -94.5 29.5t-30.5 88.5q4 61 39.5 93t95.5 32zM1032 483l150 803q12 72 51 110
t98 38q71 0 106.5 -45.5t22.5 -126.5l-133 -758q-42 -244 -203 -389.5t-432 -145.5q-136 0 -244.5 38t-176 103.5t-103 148.5t-35.5 177q0 50 6 96l133 754q12 72 51.5 110t98.5 38q71 0 106.5 -45.5t22.5 -126.5l-131 -758q-6 -42 -6 -60q0 -107 75.5 -174t206.5 -67
q139 0 226 77.5t110 202.5z" />
    <glyph glyph-name="Yacute" unicode="&#xdd;" horiz-adv-x="1265" 
d="M680 1669l131 152q33 38 58.5 54t56.5 15q35 -2 60.5 -23.5t25.5 -56.5q0 -32 -15 -53.5t-57 -52.5l-152 -121q-51 -39 -79 -39q-27 0 -44.5 15.5t-17.5 37.5q0 36 33 72zM659 821l406 545q60 80 131 80q53 0 89 -30.5t36 -80.5q0 -48 -43 -106l-506 -645l-76 -434
q-13 -74 -53 -112t-98 -38q-71 0 -106.5 46t-22.5 128l69 410l-274 645q-21 54 -21 100q0 51 38 84t98 33q47 0 74 -23.5t49 -79.5l206 -522h4z" />
    <glyph glyph-name="Thorn" unicode="&#xde;" horiz-adv-x="1359" 
d="M100 166l195 1122q13 75 53 113.5t98 38.5q71 0 108 -45.5t24 -128.5l-15 -88h297q220 0 339.5 -120.5t119.5 -303.5q0 -92 -32 -175.5t-94 -151.5t-165 -108t-233 -40h-392l-22 -140q-12 -72 -51.5 -109.5t-98.5 -37.5q-71 0 -107.5 46.5t-23.5 127.5zM522 958l-82 -462
h312q133 0 204.5 71t71.5 172q0 40 -12.5 77.5t-38 70t-71 52t-105.5 19.5h-279z" />
    <glyph glyph-name="germandbls" unicode="&#xdf;" horiz-adv-x="1312" 
d="M76 168l143 807q39 227 169.5 353t344.5 126q198 0 315 -101t117 -255q0 -55 -16 -104t-38.5 -84t-45.5 -67.5t-39 -69t-16 -73.5q0 -41 20 -75.5t48 -62.5t56 -59.5t48 -83t20 -116.5q0 -169 -122.5 -265.5t-329.5 -96.5q-68 0 -158 22q-49 13 -74.5 43.5t-23.5 69.5
q3 87 79 96q23 3 76.5 -3.5t81.5 -6.5q90 0 150.5 40.5t60.5 127.5q0 47 -20 84t-48.5 62t-57 51t-48.5 66.5t-20 92.5q0 55 23.5 107t51 86.5t51 84.5t23.5 101q0 70 -39.5 116t-124.5 46q-56 0 -100.5 -24.5t-73 -67t-46.5 -89.5t-28 -102l-145 -811q-21 -139 -139 -139
q-70 0 -105 44.5t-20 129.5z" />
    <glyph glyph-name="agrave" unicode="&#xe0;" horiz-adv-x="1341" 
d="M639 1253l-72 172q-10 23 -10 52q0 41 30 64.5t68 23.5q32 0 55.5 -20t32.5 -60l39 -187q11 -54 -9.5 -81t-59.5 -27q-49 0 -74 63zM881 104l2 48q-114 -170 -351 -170q-113 0 -204.5 40.5t-149.5 110.5t-88.5 161t-30.5 195q0 160 65 294t193.5 217t296.5 83
q140 0 229 -57t134 -147l27 96q25 96 122 96q64 0 97.5 -40t21.5 -113l-119 -680l-14 -117q-16 -127 -125 -127q-51 0 -80.5 29.5t-25.5 80.5zM662 877l-3 -3q-147 0 -239 -106t-92 -268q0 -142 74.5 -227t201.5 -85q146 0 237 108.5t91 272.5q0 142 -72.5 225t-197.5 83z
" />
    <glyph glyph-name="aacute" unicode="&#xe1;" horiz-adv-x="1341" 
d="M649 1305l109 198q32 60 88 60q36 0 66 -24.5t30 -63.5q0 -35 -27 -70l-135 -174q-33 -41 -71 -41q-42 0 -62.5 32t2.5 83zM887 104l2 48q-114 -170 -350 -170q-113 0 -204.5 40.5t-149.5 110.5t-88.5 161t-30.5 195q0 160 65 294t193.5 217t296.5 83q140 0 228.5 -57
t133.5 -147l27 96q25 96 123 96q64 0 97 -40t21 -113l-118 -680l-15 -117q-16 -127 -125 -127q-51 0 -80.5 29.5t-25.5 80.5zM668 877l-2 -3q-148 0 -240 -106t-92 -268q0 -142 74.5 -227t201.5 -85q146 0 237 108.5t91 272.5q0 142 -72.5 225t-197.5 83z" />
    <glyph glyph-name="acircumflex" unicode="&#xe2;" horiz-adv-x="1341" 
d="M475 1335l162 133q35 28 63 42t62 14q29 0 53 -11t37 -23t33 -34l110 -127q21 -25 21 -53q0 -31 -22 -51.5t-54 -20.5q-39 0 -74 41l-110 121l-172 -131q-45 -33 -72 -33q-30 0 -51 18.5t-21 45.5q0 43 35 69zM883 106l2 48q-114 -170 -350 -170q-113 0 -204.5 40.5
t-149.5 111t-89 161.5t-31 195q0 119 38.5 226.5t108 189t175.5 129.5t233 48q140 0 229 -57t134 -147l27 96q25 96 122 96q64 0 97.5 -40t21.5 -113l-119 -680l-14 -117q-16 -127 -125 -127q-51 0 -80.5 29.5t-25.5 80.5zM664 879l-2 -2q-147 0 -239.5 -106.5t-92.5 -268.5
q0 -142 74.5 -227t201.5 -85q146 0 237 108.5t91 272.5q0 142 -72.5 225t-197.5 83z" />
    <glyph glyph-name="atilde" unicode="&#xe3;" horiz-adv-x="1341" 
d="M666 1444h6q57 0 132 -41t118 -41q44 0 86 33q27 18 47 18q19 0 32 -12t13 -35q0 -50 -72 -104q-79 -62 -176 -62q-50 0 -92.5 20.5t-80 41t-73.5 20.5q-44 0 -94 -37q-21 -18 -43 -18q-49 0 -49 49q0 54 94 119q73 49 152 49zM891 106l2 46q-114 -170 -350 -170
q-113 0 -204.5 40.5t-149.5 110.5t-88.5 161t-30.5 195q0 160 65 294t193.5 217t296.5 83q140 0 228.5 -57t133.5 -147l27 96q25 98 123 98q64 0 97 -40t21 -113l-118 -680l-15 -117q-16 -127 -125 -127q-51 0 -80.5 29.5t-25.5 80.5zM672 877l-2 -3q-148 0 -240 -106
t-92 -268q0 -142 74.5 -227t201.5 -85q146 0 237 108.5t91 272.5q0 142 -72.5 225t-197.5 83z" />
    <glyph glyph-name="adieresis" unicode="&#xe4;" horiz-adv-x="1341" 
d="M518 1464v-2q52 0 86.5 -29t30.5 -85q-5 -61 -37 -94t-90 -33q-60 0 -94.5 29.5t-30.5 88.5q4 61 39.5 93t95.5 32zM987 1462v-2q52 0 86.5 -29t30.5 -85q-5 -61 -37 -94t-90 -33q-60 0 -94.5 29.5t-30.5 88.5q4 61 39.5 93t95.5 32zM885 100l2 47q-114 -170 -350 -170
q-113 0 -204.5 40.5t-149.5 111t-89 161.5t-31 195q0 160 65 294t193.5 217t296.5 83q140 0 229 -57.5t134 -147.5l27 97q25 96 122 96q64 0 97.5 -40.5t21.5 -113.5l-119 -680l-14 -116q-16 -127 -125 -127q-51 0 -80.5 29.5t-25.5 80.5zM666 872l-2 -2q-148 0 -240 -106
t-92 -268q0 -142 74.5 -227t201.5 -85q146 0 237 108.5t91 272.5q0 142 -72.5 224.5t-197.5 82.5z" />
    <glyph glyph-name="aring" unicode="&#xe5;" horiz-adv-x="1341" 
d="M748 1575q88 0 144 -53.5t56 -139.5q0 -87 -56 -140.5t-144 -53.5q-87 0 -144 53.5t-57 140.5q0 85 57 139t144 54zM745 1475q-44 0 -66 -26t-22 -67t22.5 -67.5t65.5 -26.5q42 0 65.5 27t23.5 67t-23.5 66.5t-65.5 26.5zM885 104l2 48q-114 -170 -350 -170
q-113 0 -204.5 40.5t-149.5 110.5t-89 161t-31 195q0 160 65 294t193.5 217t296.5 83q140 0 229 -57t134 -147l27 96q25 96 122 96q64 0 97.5 -40t21.5 -113l-119 -680l-14 -117q-16 -127 -125 -127q-51 0 -80.5 29.5t-25.5 80.5zM666 877l-2 -3q-148 0 -240 -106t-92 -268
q0 -142 74.5 -227t201.5 -85q146 0 237 108.5t91 272.5q0 142 -72.5 225t-197.5 83z" />
    <glyph glyph-name="ae" unicode="&#xe6;" horiz-adv-x="1849" 
d="M1694 449l-703 -7q0 -140 91.5 -207t242.5 -67q83 2 184 39q57 22 88 22q39 0 59.5 -27t20.5 -65q0 -63 -78 -94q-148 -61 -321 -61q-142 0 -258 45t-189 135q-160 -182 -421 -182q-80 0 -150 18t-128.5 55.5t-92 102t-33.5 149.5q0 78 28 139.5t75.5 101t114 65.5
t138.5 37t154 11q90 0 227 -14q7 55 39 107q-2 41 -19.5 68.5t-49 41t-66 18.5t-82.5 5q-36 0 -73 -3t-59 -5.5t-59 -8.5t-52 -8q-140 -15 -140 90q0 49 28 72t81 33q154 32 332 32q116 0 192 -30t135 -90q155 120 371 120q209 0 344.5 -124t126.5 -320q-4 -74 -16 -123
q-17 -71 -82 -71zM1014 614l547 2q0 1 1 13t1 24q2 94 -59 162t-175 68t-203.5 -71t-111.5 -198zM461 170h2q85 0 160.5 38.5t128.5 108.5q-34 74 -25 170q-117 13 -170 13q-278 0 -278 -176q0 -68 50.5 -111t131.5 -43z" />
    <glyph glyph-name="ccedilla" unicode="&#xe7;" horiz-adv-x="1093" 
d="M391 -131l78 125q-184 39 -290.5 169.5t-106.5 328.5q0 171 82 305.5t223.5 207.5t316.5 74q170 0 283 -61q61 -38 57 -96q-3 -45 -33 -74t-79 -25q-25 4 -97 29t-125 25q-174 0 -269 -105.5t-95 -261.5q0 -68 19 -126t56.5 -104.5t100.5 -73t145 -26.5q61 0 126.5 22.5
t86.5 24.5q39 5 66.5 -20t30.5 -70q5 -59 -70 -96q-55 -28 -136 -42.5t-153 -14.5l-45 2l-49 -103l4 1q4 1 8 1q59 0 102.5 -32.5t43.5 -96.5q0 -53 -22 -90t-60 -55.5t-78 -26.5t-88 -8q-44 0 -92 10q-49 12 -49 52q0 25 17 39.5t54 7.5q52 -9 72 -9q98 0 98 70
q0 53 -69 53h-13q-36 0 -51 19q-16 22 0 51z" />
    <glyph glyph-name="egrave" unicode="&#xe8;" horiz-adv-x="1239" 
d="M604 1253l-72 172q-10 23 -10 52q0 41 30.5 64.5t68.5 23.5q32 0 55.5 -20t32.5 -60l39 -187q11 -53 -10 -80.5t-60 -27.5q-49 0 -74 63zM1042 449l-694 -5q1 -132 92 -203t232 -71q96 0 196 39q57 22 88 22q39 0 59.5 -27t20.5 -65q0 -63 -78 -94q-151 -63 -327 -63
q-114 0 -212 31.5t-174.5 93t-120.5 161t-44 226.5q0 111 32.5 207t88.5 165.5t132 118.5t163.5 73.5t181.5 24.5q206 0 339 -122t126 -320q-3 -64 -15 -123q-6 -31 -30 -50t-56 -19zM367 616h540q4 16 4 39q2 94 -57.5 161t-175.5 67q-114 0 -202 -71.5t-109 -195.5z" />
    <glyph glyph-name="eacute" unicode="&#xe9;" horiz-adv-x="1239" 
d="M612 1305l109 198q32 60 88 60q36 0 66 -24.5t30 -63.5q0 -37 -26 -70l-136 -174q-33 -41 -71 -41q-42 0 -62.5 32t2.5 83zM1047 449l-695 -5q1 -132 92 -203t232 -71q96 0 196 39q57 22 89 22q39 0 59 -26.5t20 -65.5q0 -63 -77 -94q-151 -63 -328 -63q-114 0 -212 31.5
t-174.5 93t-120.5 161t-44 226.5q0 111 32.5 207t88.5 165.5t132 118.5t163.5 73.5t181.5 24.5q206 0 339 -122t126 -320q-4 -71 -14 -123q-6 -31 -30 -50t-56 -19zM371 616h540q4 16 4 39q2 94 -57.5 161t-175.5 67q-114 0 -202 -71.5t-109 -195.5z" />
    <glyph glyph-name="ecircumflex" unicode="&#xea;" horiz-adv-x="1239" 
d="M440 1335l162 133q35 28 63 42t62 14q29 0 53 -11t37 -23t33 -34l111 -127q20 -24 20 -53q0 -31 -22 -51.5t-54 -20.5q-39 0 -74 41l-110 121l-172 -131q-45 -33 -72 -33q-30 0 -50.5 18.5t-20.5 45.5q0 44 34 69zM1044 451l-694 -5q1 -132 92 -203t232 -71q96 0 196 39
q57 22 88 22q39 0 59.5 -27t20.5 -65q0 -63 -77 -94q-151 -63 -328 -63q-114 0 -212 31.5t-174.5 93t-120.5 161t-44 226.5q0 111 32.5 207t88.5 165.5t132 118.5t163.5 73.5t181.5 24.5q206 0 339 -122t126 -320q-3 -64 -15 -123q-6 -31 -30 -50t-56 -19zM369 618h540
q4 16 4 39q2 94 -57.5 161t-175.5 67q-114 0 -202 -71.5t-109 -195.5z" />
    <glyph glyph-name="edieresis" unicode="&#xeb;" horiz-adv-x="1239" 
d="M483 1464v-2q52 0 86.5 -29t30.5 -85q-5 -61 -37 -94t-90 -33q-60 0 -94.5 29.5t-30.5 88.5q4 61 39.5 93t95.5 32zM952 1462v-2q52 0 86.5 -29t30.5 -85q-5 -61 -37 -94t-90 -33q-60 0 -94.5 29.5t-30.5 88.5q4 61 39.5 93t95.5 32zM1047 444l-695 -4q1 -132 92 -203
t232 -71q96 0 196 39q57 22 89 22q39 0 59 -26.5t20 -65.5q0 -63 -77 -94q-153 -64 -328 -64q-114 0 -212 31.5t-174.5 93t-120.5 161t-44 226.5q0 138 49.5 252t133 186.5t190.5 112t225 39.5q206 0 339 -122t126 -320q-4 -71 -14 -123q-6 -32 -30.5 -51t-55.5 -19z
M371 612h540q4 16 4 39q2 94 -57.5 161t-175.5 67q-114 0 -202 -71.5t-109 -195.5z" />
    <glyph glyph-name="igrave" unicode="&#xec;" horiz-adv-x="620" 
d="M283 1253l-72 172q-10 23 -10 52q0 41 30 64.5t68 23.5q32 0 55.5 -20t32.5 -60l39 -187q11 -53 -10 -80.5t-60 -27.5q-48 0 -73 63zM242 1063l155 -2q72 0 105.5 -39.5t21.5 -110.5l-139 -786q-12 -65 -48.5 -99t-92.5 -34q-70 0 -106 44.5t-21 127.5l116 663l-36 15
q-84 32 -84 110q0 50 33 80.5t96 30.5z" />
    <glyph glyph-name="iacute" unicode="&#xed;" horiz-adv-x="620" 
d="M291 1307l108 198q32 60 88 60q37 0 67 -24.5t30 -63.5q0 -35 -27 -70l-135 -174q-33 -41 -72 -41q-42 0 -62 32t3 83zM244 1067l155 -2q72 0 105.5 -39.5t21.5 -110.5l-139 -786q-12 -65 -48.5 -99t-92.5 -34q-70 0 -106 44.5t-21 127.5l117 663l-37 15q-84 32 -84 110
q0 50 33 80.5t96 30.5z" />
    <glyph glyph-name="icircumflex" unicode="&#xee;" horiz-adv-x="620" 
d="M119 1337l162 133q35 28 63 42t62 14q29 0 53 -11t36.5 -22.5t32.5 -34.5l111 -127q20 -24 20 -53q0 -31 -21.5 -51.5t-53.5 -20.5q-39 0 -74 41l-111 121l-172 -131q-45 -33 -71 -33q-30 0 -51 18.5t-21 45.5q0 43 35 69zM242 1069l155 -2q72 0 105.5 -39.5t21.5 -109.5
l-139 -787q-12 -65 -48.5 -99t-92.5 -34q-70 0 -106 44.5t-21 127.5l116 664l-36 14q-84 32 -84 110q0 50 33 80.5t96 30.5z" />
    <glyph glyph-name="idieresis" unicode="&#xef;" horiz-adv-x="620" 
d="M162 1466v-2q52 0 86.5 -29t30.5 -85q-5 -61 -37 -94t-90 -33q-60 0 -94.5 29.5t-30.5 88.5q4 61 39.5 93t95.5 32zM631 1464v-2q52 0 86.5 -29t30.5 -85q-5 -61 -37 -94t-90 -33q-60 0 -94.5 29.5t-30.5 88.5q4 61 39.5 93t95.5 32zM244 1061l155 -2q72 0 105.5 -39.5
t21.5 -110.5l-139 -786q-12 -65 -48.5 -99t-92.5 -34q-70 0 -106 44.5t-21 127.5l117 663l-37 15q-84 32 -84 110q0 50 33 80.5t96 30.5z" />
    <glyph glyph-name="eth" unicode="&#xf0;" horiz-adv-x="1261" 
d="M592 1268l133 88q-29 39 -78 82q-39 36 -39 73q0 33 21.5 55.5t54.5 22.5q38 0 76 -28q78 -62 131 -121l149 92q23 14 47 14q19 0 33 -12t15 -31q3 -33 -37 -57l-137 -86q95 -129 145.5 -306.5t50.5 -346.5q0 -113 -21 -216.5t-67 -196.5t-113 -161.5t-166.5 -108.5
t-220.5 -40q-228 0 -370 141.5t-142 361.5t139.5 369.5t358.5 149.5q239 0 354 -166q0 29 -2 43q-9 127 -36 212t-87 171l-135 -82q-25 -15 -47 -15q-19 0 -32.5 12t-14.5 31q-3 33 37 56zM606 807h2q-132 0 -206 -93.5t-74 -228.5q0 -130 68 -210t186 -80q68 0 123.5 29.5
t89 77.5t51.5 106t18 120q0 130 -71 204.5t-187 74.5z" />
    <glyph glyph-name="ntilde" unicode="&#xf1;" horiz-adv-x="1247" 
d="M627 1444h6q57 0 132 -41t118 -41q44 0 86 33q27 18 47 18q19 0 32 -12t13 -35q0 -50 -72 -104q-79 -62 -176 -62q-50 0 -92.5 20.5t-80 41t-73.5 20.5q-44 0 -94 -37q-21 -18 -43 -18q-49 0 -49 49q0 54 94 119q73 49 152 49zM451 958l-5 -53q16 25 41.5 51.5t68 59
t105.5 53.5t134 21q53 0 101 -11t92.5 -36.5t77 -63t52 -94.5t19.5 -127q0 -56 -13 -123l-90 -502q-9 -65 -46 -100t-93 -35q-70 0 -104 43t-19 127l80 463q6 38 6 74q0 87 -45.5 130.5t-124.5 43.5q-102 0 -172 -68.5t-94 -204.5l-86 -475q-9 -65 -46 -101t-93 -36
q-70 0 -104 44t-19 128l119 674l12 110q12 121 125 121q55 0 88.5 -29t32.5 -84z" />
    <glyph glyph-name="ograve" unicode="&#xf2;" horiz-adv-x="1335" 
d="M647 1253l-72 172q-10 23 -10 52q0 41 30.5 64.5t68.5 23.5q32 0 55.5 -20t32.5 -60l39 -187q11 -53 -10 -80.5t-60 -27.5q-49 0 -74 63zM698 1083h-2q251 0 398 -143t147 -371q0 -255 -172.5 -421t-447.5 -166q-252 0 -396.5 143t-144.5 373q0 171 79 304.5t220 207
t319 73.5zM684 874v-4q-142 0 -240 -103.5t-98 -264.5q0 -145 80 -230.5t209 -85.5q147 0 241.5 109t94.5 266q0 141 -79 227t-208 86z" />
    <glyph glyph-name="oacute" unicode="&#xf3;" horiz-adv-x="1316" 
d="M662 1307l108 198q32 60 88 60q36 0 66 -24.5t30 -63.5q0 -37 -26 -70l-135 -174q-33 -41 -72 -41q-42 0 -62 32t3 83zM700 1085h-2q251 0 398 -143t147 -371q0 -255 -172.5 -421t-447.5 -166q-252 0 -396.5 143t-144.5 373q0 171 79 304.5t220 207t319 73.5zM686 877v-5
q-142 0 -240 -103.5t-98 -264.5q0 -145 80 -230.5t209 -85.5q147 0 241.5 109t94.5 266q0 141 -79 227.5t-208 86.5z" />
    <glyph glyph-name="ocircumflex" unicode="&#xf4;" horiz-adv-x="1335" 
d="M483 1337l162 133q35 28 63 42t62 14q29 0 53 -11t37 -23t33 -34l111 -127q20 -24 20 -53q0 -31 -22 -51.5t-54 -20.5q-39 0 -74 41l-110 121l-172 -131q-45 -33 -72 -33q-30 0 -50.5 18.5t-20.5 45.5q0 44 34 69zM700 1087h-2q251 0 398 -143t147 -371
q0 -255 -172.5 -421t-447.5 -166q-252 0 -396.5 143t-144.5 373q0 171 79 304.5t220 207t319 73.5zM686 879v-5q-142 0 -240 -103.5t-98 -264.5q0 -145 80 -230.5t209 -85.5q147 0 241.5 109t94.5 266q0 141 -79 227.5t-208 86.5z" />
    <glyph glyph-name="otilde" unicode="&#xf5;" horiz-adv-x="1335" 
d="M672 1444h6q57 0 132 -41t118 -41q44 0 86 33q27 18 47 18q19 0 32 -12t13 -35q0 -50 -72 -104q-79 -62 -176 -62q-50 0 -92.5 20.5t-80 41t-73.5 20.5q-44 0 -94 -37q-21 -18 -43 -18q-49 0 -49 49q0 54 94 119q73 49 152 49zM705 1083h-3q251 0 398 -143t147 -371
q0 -255 -172.5 -421t-447.5 -166q-252 0 -396.5 143t-144.5 373q0 258 174 421.5t445 163.5zM690 874v-4q-142 0 -240 -103.5t-98 -264.5q0 -145 80 -230.5t209 -85.5q147 0 241.5 109t94.5 266q0 141 -79 227t-208 86z" />
    <glyph glyph-name="odieresis" unicode="&#xf6;" horiz-adv-x="1335" 
d="M524 1466v-2q52 0 86.5 -29t30.5 -85q-5 -61 -37 -94t-90 -33q-60 0 -94.5 29.5t-30.5 88.5q4 61 39.5 93t95.5 32zM993 1464v-2q52 0 86.5 -29t30.5 -85q-5 -61 -37 -94t-90 -33q-60 0 -94.5 29.5t-30.5 88.5q4 61 39.5 93t95.5 32zM700 1081h-2q251 0 398 -143
t147 -371q0 -255 -172.5 -421t-447.5 -166q-252 0 -396.5 143t-144.5 373q0 171 79 304.5t220 207t319 73.5zM686 872v-4q-142 0 -240 -103.5t-98 -264.5q0 -145 80 -230.5t209 -85.5q147 0 241.5 109t94.5 266q0 141 -79 227t-208 86z" />
    <glyph glyph-name="divide" unicode="&#xf7;" horiz-adv-x="1241" 
d="M692 1167q57 0 96 -39t39 -96q0 -56 -39 -94.5t-96 -38.5q-56 0 -94.5 38.5t-38.5 94.5q0 57 38.5 96t94.5 39zM258 762h750q52 0 79 -23t27 -63q0 -43 -27 -67.5t-79 -24.5h-750q-51 0 -77.5 24t-26.5 68q0 40 26 63t78 23zM563 449q57 0 96 -39.5t39 -96.5
q0 -56 -39 -94.5t-96 -38.5q-55 0 -94 39t-39 94q0 57 38.5 96.5t94.5 39.5z" />
    <glyph glyph-name="oslash" unicode="&#xf8;" horiz-adv-x="1286" 
d="M1104 1016l-43 -53q174 -142 174 -398q0 -255 -173 -421.5t-448 -166.5q-178 0 -305 76l-63 -76q-23 -28 -38.5 -39.5t-35.5 -11.5q-22 0 -39 15.5t-19 42t25 61.5l72 86q-135 138 -135 365q0 171 79 304.5t220 207t319 73.5q146 0 260 -51l39 49q24 28 41 41t37 13
q40 0 55 -33.5t-22 -83.5zM379 336l426 512q-55 24 -123 24q-142 0 -240 -103.5t-98 -264.5q0 -96 35 -168zM903 770l-438 -532q73 -54 170 -54q147 0 241.5 109t94.5 266q0 127 -68 211z" />
    <glyph glyph-name="ugrave" unicode="&#xf9;" horiz-adv-x="1247" 
d="M614 1253l-71 172q-11 25 -11 52q0 41 30.5 64.5t68.5 23.5q32 0 55.5 -20t32.5 -60l39 -187q11 -53 -10 -80.5t-60 -27.5q-49 0 -74 63zM801 449l88 487q21 129 137 129q69 0 105 -40t24 -112l-121 -673l-14 -127q-12 -121 -125 -121q-55 0 -88 32t-33 87v51
q-18 -26 -42 -51t-66.5 -58t-104.5 -53t-133 -20q-68 0 -127.5 18t-109 55t-78.5 103t-29 153q0 57 12 119l92 514q24 129 148 129q66 0 100.5 -40t22.5 -113l-84 -484q-6 -40 -6 -80q0 -85 45.5 -125.5t126.5 -40.5q101 0 169 66t91 195z" />
    <glyph glyph-name="uacute" unicode="&#xfa;" horiz-adv-x="1247" 
d="M623 1305l108 198q32 60 88 60q36 0 66 -24.5t30 -63.5q0 -37 -26 -70l-135 -174q-33 -41 -72 -41q-42 0 -62 32t3 83zM803 451l88 487q21 129 137 129q69 0 105 -40t24 -112l-121 -673l-14 -127q-12 -121 -125 -121q-55 0 -88 32t-33 87v51q-18 -26 -42 -51t-66.5 -58
t-104.5 -53t-133 -20q-68 0 -127.5 18t-109 55t-78.5 103t-29 153q0 57 12 119l92 514q24 129 148 129q66 0 100.5 -40t22.5 -113l-84 -484q-6 -40 -6 -80q0 -85 45.5 -125.5t126.5 -40.5q101 0 169 66t91 195z" />
    <glyph glyph-name="ucircumflex" unicode="&#xfb;" horiz-adv-x="1247" 
d="M451 1335l161 133q35 28 63 42t62 14q29 0 53 -11t37 -23t33 -34l111 -127q20 -24 20 -53q0 -31 -22 -51.5t-54 -20.5q-38 0 -73 41l-111 121l-172 -131q-45 -33 -72 -33q-30 0 -50.5 18.5t-20.5 45.5q0 43 35 69zM801 453l88 487q21 129 137 129q69 0 105 -39.5
t24 -111.5l-121 -674l-14 -127q-12 -121 -125 -121q-55 0 -88 32t-33 87v51q-18 -26 -42 -51t-66.5 -58t-104.5 -53t-133 -20q-68 0 -127.5 18t-109 55t-78.5 103t-29 153q0 57 12 119l92 514q24 129 148 129q66 0 100.5 -40t22.5 -113l-84 -484q-6 -40 -6 -80
q0 -165 172 -165q101 0 169 65.5t91 194.5z" />
    <glyph glyph-name="udieresis" unicode="&#xfc;" horiz-adv-x="1247" 
d="M494 1464v-2q52 0 86 -29t30 -85q-5 -61 -37 -94t-90 -33q-60 0 -94.5 29.5t-30.5 88.5q4 61 39.5 93t96.5 32zM963 1462v-2q52 0 86 -29t30 -85q-5 -61 -37 -94t-90 -33q-60 0 -94.5 29.5t-30.5 88.5q4 61 39.5 93t96.5 32zM803 444l88 488q21 129 137 129q69 0 105 -40
t24 -112l-121 -673l-14 -127q-12 -121 -125 -121q-55 0 -88 31.5t-33 86.5v52q-14 -20 -30 -39t-48.5 -47t-68 -48t-88.5 -34.5t-111 -14.5q-68 0 -127.5 18t-109 55.5t-78.5 103.5t-29 153q0 57 12 119l92 514q24 129 148 129q66 0 100.5 -40.5t22.5 -113.5l-84 -483
q-6 -41 -6 -80q0 -85 45.5 -125.5t126.5 -40.5q101 0 169 65.5t91 194.5z" />
    <glyph glyph-name="yacute" unicode="&#xfd;" horiz-adv-x="1148" 
d="M551 1305l108 198q32 60 89 60q36 0 66 -24.5t30 -63.5q0 -35 -27 -70l-135 -174q-33 -41 -72 -41q-42 0 -62 32t3 83zM506 256l371 721q26 51 56.5 72.5t76.5 21.5q57 0 91 -32t34 -81q0 -40 -25 -88l-530 -938q-84 -146 -179.5 -216t-220.5 -70q-103 0 -162 20
q-88 34 -88 109q0 42 28 69t69 23q19 -1 59 -10t66 -9q43 0 73 22.5t62 74.5l24 45l-200 911q-7 24 -7 43q0 59 35.5 93t98.5 34q104 0 127 -127l137 -688h4z" />
    <glyph glyph-name="thorn" unicode="&#xfe;" horiz-adv-x="1347" 
d="M2 -186l264 1501q24 127 142 127q61 0 93 -39.5t19 -110.5l-59 -334q62 61 137 94t190 33q108 0 196.5 -39.5t146 -107.5t89 -159t31.5 -195q0 -167 -64.5 -303t-189.5 -217.5t-288 -81.5q-143 0 -239.5 59t-141.5 147l-70 -409q-22 -133 -135 -133q-66 0 -101.5 42
t-19.5 126zM711 879v-2q-145 0 -237.5 -105.5t-92.5 -269.5q0 -145 75 -227t199 -82q147 0 237.5 109.5t90.5 266.5q0 141 -72 225.5t-200 84.5z" />
    <glyph glyph-name="ydieresis" unicode="&#xff;" horiz-adv-x="1148" 
d="M422 1464v-2q52 0 86.5 -29t30.5 -85q-5 -61 -37 -94t-90 -33q-60 0 -94.5 29.5t-30.5 88.5q4 61 39.5 93t95.5 32zM891 1462v-2q52 0 86.5 -29t30.5 -85q-5 -61 -37 -94t-90 -33q-60 0 -94.5 29.5t-30.5 88.5q4 61 39.5 93t95.5 32zM506 252l371 721q26 51 56.5 72.5
t76.5 21.5q57 0 91 -32t34 -81q0 -40 -25 -88l-530 -938q-84 -146 -179.5 -216t-220.5 -70q-103 0 -162 20q-88 34 -88 109q0 42 28 69t69 23q19 -1 59 -10t66 -9q43 0 73 22.5t62 74.5l24 45l-200 911q-7 25 -7 43q0 59 35.5 93t98.5 34q104 0 127 -127l137 -688h4z" />
    <glyph glyph-name="Amacron" unicode="&#x100;" horiz-adv-x="1409" 
d="M629 1745h452q45 0 72 -20.5t27 -59.5q0 -38 -26.5 -60t-72.5 -22h-452q-45 0 -73 22t-28 60q0 37 28 58.5t73 21.5zM-10 199l581 1089q43 80 105 118t153 38q104 0 161.5 -48.5t76.5 -148.5l209 -1063q17 -87 -22.5 -136.5t-114.5 -49.5q-121 0 -146 141l-43 226h-571
l-146 -273q-51 -96 -137 -96q-59 0 -94 34.5t-35 86.5q0 34 23 82zM805 1192l-316 -612h426l-106 612h-4z" />
    <glyph glyph-name="amacron" unicode="&#x101;" horiz-adv-x="1341" 
d="M506 1405h452q45 0 72 -20.5t27 -59.5q0 -38 -26.5 -60t-72.5 -22h-452q-45 0 -72.5 22t-27.5 60t27.5 59t72.5 21zM883 104l2 48q-114 -170 -350 -170q-113 0 -204.5 40.5t-149.5 110.5t-89 161t-31 195q0 160 65 294t193.5 217t296.5 83q140 0 229 -57t134 -147l27 96
q25 96 122 96q64 0 97.5 -40t21.5 -113l-119 -680l-14 -117q-16 -127 -125 -127q-51 0 -80.5 29.5t-25.5 80.5zM664 877l-2 -3q-148 0 -240 -106t-92 -268q0 -142 74.5 -227t201.5 -85q146 0 237 108.5t91 272.5q0 142 -72.5 225t-197.5 83z" />
    <glyph glyph-name="Abreve" unicode="&#x102;" horiz-adv-x="1409" 
d="M1102 1835l-4 -2q39 0 55.5 -26t-0.5 -64q-74 -187 -299 -187q-222 0 -260 183q-8 40 9 67t63 27q50 0 63 -49q23 -90 135 -90q116 0 170 92q24 49 68 49zM-12 197l581 1089q43 80 105 118t153 38q104 0 161.5 -48.5t76.5 -148.5l209 -1063q17 -87 -22.5 -136.5
t-114.5 -49.5q-121 0 -146 141l-43 225h-571l-146 -272q-51 -96 -137 -96q-59 0 -94 34.5t-35 86.5q0 34 23 82zM803 1190l-316 -612h426l-106 612h-4z" />
    <glyph glyph-name="abreve" unicode="&#x103;" horiz-adv-x="1341" 
d="M979 1495l-4 -2q39 0 55.5 -26t-0.5 -64q-74 -186 -299 -186q-222 0 -260 182q-8 40 9 67t63 27q50 0 63 -49q23 -90 135 -90q116 0 170 92q24 49 68 49zM881 102l2 45q-114 -170 -351 -170q-113 0 -204.5 40.5t-149.5 111t-88.5 161.5t-30.5 195q0 160 65 294t193.5 217
t296.5 83q140 0 229 -57.5t134 -147.5l27 97q25 98 122 98q64 0 97.5 -40.5t21.5 -113.5l-119 -679l-14 -117q-16 -127 -125 -127q-51 0 -80.5 29.5t-25.5 80.5zM662 872l-3 -2q-147 0 -239 -106t-92 -268q0 -142 74.5 -227t201.5 -85q146 0 237 108.5t91 272.5
q0 142 -72.5 224.5t-197.5 82.5z" />
    <glyph glyph-name="Aogonek" unicode="&#x104;" horiz-adv-x="1466" 
d="M1081 1245l205 -1061q15 -75 -13 -123.5t-87 -60.5q-49 -30 -74 -76.5t-25 -87.5q0 -40 22.5 -61t55.5 -21q29 0 41 -6q23 -13 25 -41q3 -40 -47 -61q-36 -15 -84 -15q-81 0 -126.5 45.5t-45.5 118.5q0 67 34.5 126t96.5 102q-43 37 -55 114l-43 225h-572l-145 -272
q-51 -96 -138 -96q-59 0 -94 34.5t-35 86.5q0 34 23 82l586 1089q43 80 105 118t153 38q103 0 160.5 -48t76.5 -149zM926 580l-105 612h-4l-317 -612h426z" />
    <glyph glyph-name="aogonek" unicode="&#x105;" horiz-adv-x="1355" 
d="M993 877l25 94q25 98 123 98q64 0 97.5 -40.5t21.5 -113.5l-119 -679l-15 -117q-12 -105 -94 -123q-46 -30 -70 -76t-24 -86t22.5 -61t55.5 -21q29 0 41 -6q23 -9 26 -41q3 -40 -47 -61q-36 -15 -84 -15q-81 0 -126.5 45.5t-45.5 118.5q0 68 36.5 128.5t101.5 103.5
q-26 29 -23 77l4 48q-114 -170 -350 -170q-113 0 -204.5 40.5t-149.5 110.5t-88.5 161t-30.5 195q0 160 65 294t193.5 217t296.5 83q140 0 228.5 -57t133.5 -147zM618 186l-2 -2q146 0 237 108.5t91 272.5q0 142 -72.5 224.5t-197.5 82.5q-148 0 -240 -106t-92 -268
q0 -142 74.5 -227t201.5 -85z" />
    <glyph glyph-name="Cacute" unicode="&#x106;" horiz-adv-x="1445" 
d="M881 1669l131 152q33 38 58 54t56 15q35 -2 60.5 -23.5t25.5 -56.5q0 -32 -14.5 -53.5t-56.5 -52.5l-152 -121q-51 -39 -80 -39q-27 0 -44 15.5t-17 37.5q0 36 33 72zM946 1464v4q201 -3 357 -75q100 -47 100 -123q0 -49 -32.5 -81t-86.5 -32q-24 0 -86 23
q-113 55 -248 55q-107 -1 -196 -32t-149.5 -83.5t-102.5 -123t-61 -149t-19 -163.5q0 -120 36 -212.5t98.5 -147t140.5 -82t167 -27.5q124 0 230 41q11 4 30 12t29.5 12t25.5 7.5t27 3.5q89 0 107 -88q18 -81 -74 -135q-73 -42 -181.5 -65t-215.5 -23q-149 0 -279 46
t-228.5 132t-155 219t-56.5 297q0 169 61.5 316t169.5 251t261 163.5t331 59.5z" />
    <glyph glyph-name="cacute" unicode="&#x107;" horiz-adv-x="1093" 
d="M612 1303l109 198q32 60 88 60q36 0 66 -24.5t30 -63.5q0 -37 -26 -70l-136 -174q-33 -41 -71 -41q-42 0 -62.5 32t2.5 83zM688 1083l6 -4q170 0 283 -61q61 -38 57 -96q-3 -45 -33 -74t-79 -25q-25 4 -97 29t-125 25q-174 0 -269 -105.5t-95 -261.5q0 -68 19 -126
t56.5 -104.5t100.5 -73t145 -26.5q61 0 126.5 22.5t86.5 24.5q39 5 66.5 -20t30.5 -70q5 -59 -70 -96q-55 -28 -136 -42.5t-153 -14.5q-244 0 -393 137.5t-149 374.5q0 171 82 305.5t223.5 207.5t316.5 74z" />
    <glyph glyph-name="Ccircumflex" unicode="&#x108;" horiz-adv-x="1445" 
d="M692 1649l189 120q56 41 112 41t103 -41l129 -112q35 -32 35 -68q0 -24 -19 -42.5t-47 -18.5q-32 0 -76 33l-131 96l-180 -98q-58 -31 -84 -31q-25 0 -46.5 14.5t-21.5 46.5q0 37 37 60zM944 1456v4q198 -3 356 -76q48 -23 74.5 -51.5t26.5 -70.5q0 -49 -32.5 -81
t-86.5 -32q-27 0 -86 22q-115 56 -248 56q-107 -1 -196 -32t-149.5 -83.5t-102.5 -123t-61 -149t-19 -163.5q0 -120 36 -212.5t98.5 -147t140.5 -82t167 -27.5q124 0 230 41q11 4 30 12t29.5 12t25.5 7.5t27 3.5q89 0 107 -88q18 -81 -74 -136q-73 -42 -181.5 -65
t-215.5 -23q-119 0 -226.5 29t-197.5 87t-155.5 140t-102.5 194.5t-37 244.5q0 169 61.5 316t169.5 251t261 163.5t331 59.5z" />
    <glyph glyph-name="ccircumflex" unicode="&#x109;" horiz-adv-x="1093" 
d="M440 1333l162 133q35 28 63 42t62 14q29 0 53 -11t37 -23t33 -34l111 -127q20 -24 20 -53q0 -31 -22 -51.5t-54 -20.5q-39 0 -74 41l-110 121l-172 -131q-45 -33 -72 -33q-30 0 -50.5 18.5t-20.5 45.5q0 44 34 69zM686 1085l6 -4q170 0 283 -61q61 -38 57 -96
q-3 -45 -33 -74t-79 -25q-25 4 -97 29t-125 25q-174 0 -269 -105.5t-95 -261.5q0 -68 19 -126t56.5 -104.5t100.5 -73t145 -26.5q61 0 126.5 22.5t86.5 24.5q39 5 66.5 -20t30.5 -70q5 -59 -70 -96q-55 -28 -136 -42.5t-153 -14.5q-244 0 -393.5 137.5t-149.5 374.5
q0 171 82 305.5t224 207.5t317 74z" />
    <glyph glyph-name="Cdotaccent" unicode="&#x10a;" horiz-adv-x="1445" 
d="M1010 1831h-4q68 0 106 -33t37 -96q0 -9 -2 -23q-11 -129 -152 -129q-64 0 -103 31.5t-36 93.5l4 25q4 66 44.5 98.5t105.5 32.5zM940 1458v4q198 -3 356 -76q48 -23 74.5 -51.5t26.5 -70.5q0 -49 -32.5 -81t-86.5 -32q-24 0 -86 23q-113 55 -248 55q-107 -1 -196 -32
t-149.5 -83.5t-102.5 -123t-61 -149t-19 -163.5q0 -120 36 -212.5t98.5 -147t140.5 -82t167 -27.5q123 0 229 41q11 4 30.5 12t30 12t25.5 7.5t27 3.5q89 0 107 -88q18 -81 -74 -136q-73 -42 -181.5 -65t-215.5 -23q-119 0 -226.5 29t-197.5 87t-155.5 140t-102.5 194.5
t-37 244.5q0 169 61.5 316t169.5 251t261 163.5t331 59.5z" />
    <glyph glyph-name="cdotaccent" unicode="&#x10b;" horiz-adv-x="1093" 
d="M739 1491h-2q68 0 106.5 -33t37.5 -96q0 -9 -2 -23q-11 -129 -154 -129q-64 0 -103 31.5t-36 93.5l4 25q4 66 44 98.5t105 32.5zM686 1083l6 -4q170 0 283 -61q61 -38 57 -96q-3 -45 -33 -74t-79 -25q-25 4 -97 29t-125 25q-174 0 -269 -105.5t-95 -261.5q0 -68 19 -126
t56.5 -104.5t100.5 -73t145 -26.5q61 0 126.5 22.5t86.5 24.5q39 5 66.5 -20t30.5 -70q5 -59 -70 -96q-55 -28 -136 -42.5t-153 -14.5q-244 0 -393.5 137.5t-149.5 374.5q0 171 82 305.5t224 207.5t317 74z" />
    <glyph glyph-name="Ccaron" unicode="&#x10c;" horiz-adv-x="1445" 
d="M975 1686l184 92q56 30 78 30q27 0 46.5 -14t19.5 -39q0 -40 -39 -65l-183 -121q-56 -39 -114 -39q-55 0 -101 39l-143 119q-27 24 -27 59q0 31 20.5 47t45.5 16q28 0 74 -30zM946 1454v4q199 -3 357 -76q100 -47 100 -122q0 -49 -32.5 -81t-86.5 -32q-27 0 -86 22
q-115 56 -248 56q-107 -1 -196 -32t-149.5 -83.5t-102.5 -123t-61 -149t-19 -163.5q0 -120 36 -212.5t98.5 -147t140.5 -82t167 -27.5q124 0 230 41q11 4 30 12t29.5 12t25.5 7.5t27 3.5q89 0 107 -88q18 -81 -74 -136q-73 -42 -181.5 -65t-215.5 -23q-119 0 -226.5 29
t-197.5 87t-155.5 140t-102.5 194.5t-37 244.5q0 169 61.5 316t169.5 251t261 163.5t331 59.5z" />
    <glyph glyph-name="ccaron" unicode="&#x10d;" horiz-adv-x="1093" 
d="M729 1360l174 117q56 34 84 34q29 0 47.5 -15t18.5 -42q0 -33 -37 -63l-182 -150q-48 -41 -117 -41q-68 0 -105 45l-123 146q-22 28 -22 55q0 30 19 47.5t46 17.5q31 0 72 -36zM684 1083l6 -4q170 0 283 -61q61 -38 57 -96q-3 -45 -33 -74t-79 -25q-25 4 -97 29t-125 25
q-174 0 -269 -105.5t-95 -261.5q0 -68 19 -126t56.5 -104.5t100.5 -73t145 -26.5q61 0 126.5 22.5t86.5 24.5q39 5 66.5 -20t30.5 -70q5 -59 -70 -96q-55 -28 -136 -42.5t-153 -14.5q-244 0 -393.5 137.5t-149.5 374.5q0 171 82 305.5t224 207.5t317 74z" />
    <glyph glyph-name="Dcaron" unicode="&#x10e;" horiz-adv-x="1484" 
d="M819 1683l185 93q56 30 77 30q27 0 46.5 -14t19.5 -39q0 -40 -39 -65l-182 -121q-56 -39 -115 -39q-54 0 -100 39l-144 119q-26 23 -26 59q0 31 20 47t45 16q28 0 74 -30zM440 1430h215q175 0 312 -39t235.5 -117.5t150.5 -201.5t52 -286q0 -173 -52.5 -317t-152.5 -250
t-254 -164.5t-348 -58.5h-387q-72 0 -105.5 39.5t-21.5 109.5l207 1160q21 125 149 125zM555 1200l-170 -973h121q92 0 117 2q233 12 362 164.5t129 380.5q0 203 -105 314.5t-311 111.5h-143z" />
    <glyph glyph-name="dcaron" unicode="&#x10f;" horiz-adv-x="1503" 
d="M997 905l84 473q21 129 144 129q69 0 102.5 -40.5t20.5 -114.5l-197 -1112l-16 -136q-6 -55 -39.5 -82.5t-83.5 -27.5q-53 0 -85.5 31t-29.5 88l4 45q-114 -176 -352 -176q-111 0 -201 39t-147.5 108t-88 160t-30.5 196q0 118 38.5 225.5t107.5 190.5t175 132.5t232 49.5
q132 0 223.5 -50t138.5 -128zM1653 1505l2 4q47 0 70.5 -31.5t11.5 -84.5q-34 -143 -125 -263q-50 -62 -107 -34q-45 21 -10 106q31 75 59 203q11 53 32.5 76.5t66.5 23.5zM686 883q-146 0 -238 -104.5t-92 -268.5q0 -145 75 -230t202 -85q146 0 237 108t91 272
q0 143 -74 225.5t-201 82.5z" />
    <glyph glyph-name="Dcroat" unicode="&#x110;" horiz-adv-x="1497" 
d="M449 1434l215 2q356 0 552.5 -160.5t196.5 -482.5q0 -173 -52.5 -317.5t-152.5 -250t-254 -164.5t-348 -59h-387q-72 0 -105.5 39.5t-21.5 110.5l90 503h-67q-40 0 -63 19.5t-23 50.5q0 30 23 49t63 19h92l92 516q21 125 150 125zM393 231l121 2q80 0 117 3
q233 12 362 164t129 380q0 203 -104.5 314.5t-310.5 111.5h-144l-71 -411h170q40 0 63 -19t23 -49q0 -31 -23 -50.5t-63 -19.5h-195z" />
    <glyph glyph-name="dcroat" unicode="&#x111;" horiz-adv-x="1353" 
d="M1341 1321l64 6q29 0 44 -13.5t15 -35.5q0 -24 -16 -37.5t-45 -13.5h-78l-174 -985l-16 -136q-6 -55 -39.5 -82.5t-83.5 -27.5q-53 0 -85.5 31t-29.5 88l4 45q-114 -176 -352 -176q-111 0 -201 39t-147.5 108t-88 160t-30.5 196q0 118 38.5 225.5t107.5 190.5t175 132.5
t232 49.5q132 0 223.5 -50t138.5 -128l56 320h-219q-29 0 -44.5 13.5t-15.5 35.5q0 21 16 34t44 13h237l10 55q21 129 144 129q69 0 102.5 -40.5t20.5 -114.5zM631 197q146 0 236.5 108.5t90.5 272.5q0 143 -73.5 225t-200.5 82q-146 0 -238 -104.5t-92 -268.5
q0 -145 75 -230t202 -85z" />
    <glyph glyph-name="Emacron" unicode="&#x112;" horiz-adv-x="1323" 
d="M598 1745h453q45 0 71.5 -20.5t26.5 -59.5q0 -38 -26 -60t-72 -22h-453q-45 0 -72.5 22t-27.5 60t27.5 59t72.5 21zM434 1434l764 4q61 0 95 -32t34 -81t-34 -82t-95 -33h-647l-70 -395h500q61 0 95 -32t34 -81t-34 -81.5t-95 -32.5h-539l-61 -361h625q61 0 95 -31.5
t34 -80.5t-34 -82t-95 -33h-799q-72 0 -105.5 39.5t-21.5 110.5l205 1159q21 125 149 125z" />
    <glyph glyph-name="emacron" unicode="&#x113;" horiz-adv-x="1239" 
d="M471 1405h453q45 0 71.5 -20.5t26.5 -59.5q0 -38 -26 -60t-72 -22h-453q-45 0 -72.5 22t-27.5 60t27.5 59t72.5 21zM1044 446l-694 -4q1 -132 92 -203t232 -71q96 0 196 39q57 22 88 22q39 0 59.5 -27t20.5 -65q0 -63 -77 -94q-151 -63 -328 -63q-114 0 -212 31.5
t-174.5 93t-120.5 161t-44 226.5q0 111 32.5 207t88.5 165.5t132 118.5t163.5 73.5t181.5 24.5q206 0 339 -122t126 -320q-3 -64 -15 -123q-6 -32 -30.5 -51t-55.5 -19zM369 614h540q4 16 4 39q2 94 -57.5 161t-175.5 67q-114 0 -202 -71.5t-109 -195.5z" />
    <glyph glyph-name="Ebreve" unicode="&#x114;" horiz-adv-x="1323" 
d="M1071 1835l-4 -2q39 0 55.5 -26t-0.5 -64q-74 -187 -299 -187q-222 0 -260 183q-8 40 9 67t63 27q50 0 63 -49q23 -90 136 -90q116 0 170 92q24 49 67 49zM432 1432l764 4q61 0 95 -32t34 -81t-34 -82t-95 -33h-647l-70 -395h500q61 0 95 -32t34 -81t-34 -81.5t-95 -32.5
h-539l-61 -361h625q61 0 95 -31.5t34 -80.5t-34 -82t-95 -33h-799q-72 0 -105.5 39.5t-21.5 109.5l205 1160q21 125 149 125z" />
    <glyph glyph-name="ebreve" unicode="&#x115;" horiz-adv-x="1239" 
d="M944 1495l-4 -2q39 0 55.5 -26t-0.5 -64q-74 -186 -299 -186q-222 0 -260 182q-8 40 9 67t63 27q50 0 63 -49q23 -90 136 -90q116 0 170 92q24 49 67 49zM1040 444l-694 -4q1 -132 92 -203t232 -71q96 0 196 39q57 22 88 22q39 0 59.5 -27t20.5 -65q0 -63 -78 -94
q-153 -64 -327 -64q-114 0 -212 31.5t-174.5 93t-120.5 161t-44 226.5q0 138 49.5 252t133 186.5t190.5 112t225 39.5q206 0 339 -122t126 -320q-3 -64 -15 -123q-6 -32 -30.5 -51t-55.5 -19zM365 612h540q4 16 4 39q2 94 -57.5 161t-175.5 67q-114 0 -202 -71.5
t-109 -195.5z" />
    <glyph glyph-name="Edotaccent" unicode="&#x116;" horiz-adv-x="1331" 
d="M868 1831h-4q68 0 106.5 -33t37.5 -96q0 -9 -2 -23q-11 -129 -152 -129q-64 0 -103 31.5t-36 93.5l4 25q4 66 44 98.5t105 32.5zM432 1434l764 4q61 0 95 -32t34 -81t-34 -82t-95 -33h-647l-70 -395h500q61 0 95 -32t34 -81t-34 -81.5t-95 -32.5h-539l-61 -361h625
q61 0 95 -31.5t34 -80.5t-34 -82t-95 -33h-799q-72 0 -105.5 39.5t-21.5 110.5l205 1159q21 125 149 125z" />
    <glyph glyph-name="edotaccent" unicode="&#x117;" horiz-adv-x="1239" 
d="M739 1493h-2q68 0 106.5 -33t37.5 -96q0 -9 -2 -23q-11 -129 -154 -129q-64 0 -103 31.5t-36 93.5l4 25q4 66 44 98.5t105 32.5zM1042 449l-694 -5q1 -132 92 -203t232 -71q96 0 196 39q57 22 88 22q39 0 59.5 -27t20.5 -65q0 -63 -78 -94q-151 -63 -327 -63
q-114 0 -212 31.5t-174.5 93t-120.5 161t-44 226.5q0 111 32.5 207t88.5 165.5t132 118.5t163.5 73.5t181.5 24.5q206 0 339 -122t126 -320q-3 -64 -15 -123q-6 -31 -30 -50t-56 -19zM367 616h540q4 16 4 39q2 94 -57.5 161t-175.5 67q-114 0 -202 -71.5t-109 -195.5z" />
    <glyph glyph-name="Eogonek" unicode="&#x118;" horiz-adv-x="1341" 
d="M446 1434h764q61 0 95 -32t34 -81t-34 -82t-95 -33h-647l-69 -395h499q61 0 95 -32t34 -81t-34 -81.5t-95 -32.5h-538l-62 -361h625q61 0 95 -31.5t34 -80.5q0 -41 -25 -71.5t-69 -39.5q-51 -28 -78 -76t-27 -90q0 -40 22.5 -61t55.5 -21q29 0 41 -6q23 -13 25 -41
q3 -40 -48 -61q-36 -15 -83 -15q-81 0 -127 45.5t-46 118.5q0 119 101 207h-670q-72 0 -105.5 39.5t-21.5 110.5l205 1159q21 125 149 125z" />
    <glyph glyph-name="eogonek" unicode="&#x119;" horiz-adv-x="1183" 
d="M1055 449h-693q1 -89 45.5 -152.5t116 -93t162.5 -29.5q97 0 197 39q59 23 88 23q39 0 59.5 -28t20.5 -67q0 -63 -78 -94q-82 -34 -156 -47q-46 -30 -70 -76t-24 -86t22.5 -61t55.5 -21q29 0 41 -6q22 -12 24 -41q3 -40 -47 -61q-36 -15 -84 -15q-81 0 -126.5 45.5
t-45.5 118.5q0 105 80 185q-114 0 -212 31.5t-174.5 93t-120.5 161t-44 226.5q0 111 32.5 207t88.5 165.5t132 118.5t163.5 73.5t181.5 24.5q206 0 339 -122t126 -320q-4 -71 -14 -123q-6 -31 -30 -50t-56 -19zM381 621h541q4 16 4 38q1 59 -22 109.5t-78 84.5t-134 34
q-114 0 -202 -71t-109 -195z" />
    <glyph glyph-name="Ecaron" unicode="&#x11a;" horiz-adv-x="1323" 
d="M831 1686l185 92q56 30 78 30q27 0 46 -14t19 -39q0 -40 -39 -65l-182 -121q-56 -39 -115 -39q-54 0 -100 39l-143 119q-27 24 -27 59q0 31 20 47t45 16q28 0 74 -30zM438 1430l764 4q61 0 95 -32t34 -81t-34 -82t-95 -33h-647l-70 -395h500q61 0 95 -32t34 -81
t-34 -81.5t-95 -32.5h-539l-61 -361h625q61 0 95 -31.5t34 -80.5t-34 -82t-95 -33h-799q-72 0 -105.5 39.5t-21.5 109.5l205 1160q21 125 149 125z" />
    <glyph glyph-name="ecaron" unicode="&#x11b;" horiz-adv-x="1239" 
d="M729 1362l174 117q56 34 84 34q29 0 47.5 -15t18.5 -42q0 -33 -37 -63l-182 -150q-48 -41 -117 -41q-68 0 -105 45l-123 146q-22 28 -22 55q0 30 19 47.5t46 17.5q31 0 72 -36zM1042 449l-694 -5q1 -132 92 -203t232 -71q96 0 196 39q57 22 88 22q39 0 59.5 -27t20.5 -65
q0 -63 -78 -94q-151 -63 -327 -63q-114 0 -212 31.5t-174.5 93t-120.5 161t-44 226.5q0 111 32.5 207t88.5 165.5t132 118.5t163.5 73.5t181.5 24.5q206 0 339 -122t126 -320q-3 -64 -15 -123q-6 -31 -30 -50t-56 -19zM367 616h540q4 16 4 39q2 94 -57.5 161t-175.5 67
q-114 0 -202 -71.5t-109 -195.5z" />
    <glyph glyph-name="Gcircumflex" unicode="&#x11c;" horiz-adv-x="1572" 
d="M709 1649l188 120q56 41 113 41q55 0 102 -41l129 -112q35 -32 35 -68q0 -24 -19 -42.5t-47 -18.5q-31 0 -75 33l-131 96l-181 -98q-58 -31 -84 -31q-25 0 -46 14.5t-21 46.5q0 37 37 60zM1470 623l-73 -371q-17 -100 -103 -152q-201 -125 -463 -125q-155 0 -285 45
t-226 130.5t-149.5 218t-53.5 299.5q0 242 110.5 422.5t301.5 274t436 93.5q211 0 391 -78q48 -21 73 -48t25 -70q0 -49 -31.5 -82t-85.5 -33q-27 0 -86 22q-135 58 -280 58q-130 0 -236 -44t-174.5 -119.5t-105.5 -175t-37 -212.5q0 -137 50 -241t155.5 -166t255.5 -62
q181 0 303 86l51 276h-254q-58 0 -89.5 29t-31.5 74q0 43 31.5 71.5t89.5 28.5h364q72 0 105.5 -39.5t21.5 -109.5z" />
    <glyph glyph-name="gcircumflex" unicode="&#x11d;" horiz-adv-x="1296" 
d="M428 1337l162 133q35 28 63 42t62 14q29 0 53 -11t37 -23t33 -34l110 -127q21 -25 21 -53q0 -31 -22 -51.5t-54 -20.5q-39 0 -74 41l-110 121l-172 -131q-45 -33 -72 -33q-30 0 -51 18.5t-21 45.5q0 43 35 69zM803 111l22 110q-97 -137 -317 -137q-90 0 -170.5 30.5
t-143.5 87.5t-100 147t-37 202q0 127 43.5 230.5t117.5 169.5t169 101t201 35q131 0 226.5 -51.5t146.5 -142.5l24 84q36 98 121 98q62 0 93.5 -36.5t19.5 -102.5l-146 -825q-41 -232 -199 -345.5t-397 -115.5q-211 -3 -366 71q-39 17 -61.5 45t-22.5 58q0 45 24.5 74.5
t69.5 29.5q33 0 76 -16q123 -53 249 -53q314 0 357 252zM627 883l-4 -2q-140 0 -224 -93.5t-84 -226.5q0 -125 73 -200.5t202 -75.5q141 0 227 96t86 225q0 122 -75 199.5t-201 77.5z" />
    <glyph glyph-name="Gbreve" unicode="&#x11e;" horiz-adv-x="1572" 
d="M1229 1835l-4 -2q39 0 55.5 -26t-0.5 -64q-74 -187 -299 -187q-222 0 -260 183q-8 40 9 67t63 27q50 0 63 -49q23 -90 135 -90q116 0 170 92q24 49 68 49zM1464 623l-73 -371q-17 -100 -103 -152q-201 -125 -463 -125q-155 0 -285 45t-226 130.5t-149.5 218t-53.5 299.5
q0 242 110 422.5t301 274t436 93.5q212 0 392 -78q48 -21 73 -48t25 -70q0 -49 -31.5 -82t-85.5 -33q-27 0 -86 22q-135 58 -280 58q-130 0 -236 -44t-174.5 -119.5t-105.5 -175t-37 -212.5q0 -137 49.5 -241t155 -166t255.5 -62q182 0 304 86l51 276h-254q-58 0 -89.5 29
t-31.5 74q0 43 31.5 71.5t89.5 28.5h364q72 0 105.5 -39.5t21.5 -109.5z" />
    <glyph glyph-name="gbreve" unicode="&#x11f;" horiz-adv-x="1296" 
d="M932 1497l-4 -2q39 0 55.5 -26t-0.5 -64q-74 -186 -299 -186q-222 0 -260 182q-8 40 9 67t63 27q50 0 63 -49q23 -90 135 -90q116 0 170 92q24 49 68 49zM799 104l22 111q-97 -137 -317 -137q-90 0 -170.5 30.5t-143.5 87.5t-100 147t-37 202q0 127 43.5 230.5
t117.5 169.5t169 101t201 35q131 0 226 -51.5t146 -142.5l25 84q36 98 121 98q62 0 93 -36.5t19 -102.5l-145 -826q-21 -118 -74 -207t-132 -143.5t-176.5 -81.5t-213.5 -28q-212 -3 -367 71q-38 17 -60.5 44.5t-22.5 58.5q0 45 24.5 74.5t69.5 29.5q33 0 76 -16
q123 -53 249 -53q314 0 357 251zM623 877l-5 -3q-140 0 -223.5 -93t-83.5 -226q0 -125 73 -200.5t202 -75.5q141 0 227 96t86 225q0 122 -75 199.5t-201 77.5z" />
    <glyph glyph-name="Gdotaccent" unicode="&#x120;" horiz-adv-x="1572" 
d="M1024 1831h-2q68 0 106 -33t37 -96q0 -9 -2 -23q-11 -129 -153 -129q-64 0 -103.5 32t-36.5 93l4 25q4 66 44.5 98.5t105.5 32.5zM1466 623l-73 -371q-17 -100 -103 -152q-201 -125 -463 -125q-155 0 -285 45t-226 130.5t-149.5 218t-53.5 299.5q0 242 110.5 422.5
t301.5 274t436 93.5q211 0 391 -78q48 -21 73 -48t25 -70q0 -49 -31.5 -82t-85.5 -33q-27 0 -86 22q-135 58 -280 58q-130 0 -236 -44t-174.5 -119.5t-105.5 -175t-37 -212.5q0 -137 49.5 -241t155 -166t255.5 -62q182 0 304 86l51 276h-254q-58 0 -89.5 29t-31.5 74
q0 43 31.5 71.5t89.5 28.5h364q72 0 105.5 -39.5t21.5 -109.5z" />
    <glyph glyph-name="gdotaccent" unicode="&#x121;" horiz-adv-x="1296" 
d="M727 1493h-4q68 0 106 -33t37 -96q0 -9 -2 -23q-11 -129 -151 -129q-64 0 -103.5 32t-36.5 93l5 25q4 66 44 98.5t105 32.5zM799 106l22 111q-97 -137 -317 -137q-90 0 -170.5 30.5t-143.5 87.5t-100 147t-37 202q0 127 43.5 230.5t117.5 169.5t169 101t201 35
q131 0 226 -51.5t146 -142.5l25 84q36 98 121 98q62 0 93 -36.5t19 -102.5l-145 -826q-21 -118 -74 -207t-132 -143.5t-176.5 -81.5t-213.5 -28q-212 -3 -367 71q-38 17 -60.5 44.5t-22.5 58.5q0 45 24.5 74.5t69.5 29.5q33 0 76 -16q123 -53 249 -53q314 0 357 251z
M623 879l-5 -2q-140 0 -223.5 -93.5t-83.5 -226.5q0 -125 73 -200.5t202 -75.5q141 0 227 96t86 225q0 122 -75 199.5t-201 77.5z" />
    <glyph glyph-name="Gcommaaccent" unicode="&#x122;" horiz-adv-x="1572" 
d="M1468 625l-73 -371q-17 -100 -103 -152q-201 -125 -463 -125q-155 0 -285 45t-226 130.5t-149.5 218t-53.5 299.5q0 242 110.5 422.5t301.5 274t436 93.5q211 0 391 -78q48 -21 73 -48t25 -70q0 -49 -31.5 -82t-85.5 -33q-27 0 -86 22q-135 58 -280 58q-130 0 -236 -44
t-174.5 -119.5t-105.5 -175t-37 -212.5q0 -137 50 -241t155.5 -166t255.5 -62q181 0 303 86l51 276h-254q-58 0 -89.5 29t-31.5 74q0 43 31.5 71.5t89.5 28.5h364q72 0 105.5 -39.5t21.5 -109.5zM731 -172h2q59 0 91 -40t30 -97q-1 -74 -54 -148.5t-116 -103.5
q-21 -12 -41 -12q-15 0 -26 10t-11 28q0 26 37 50q45 37 45 75q1 20 -11 35.5t-26.5 24.5t-25 29t-7.5 49q3 47 34 73.5t79 26.5z" />
    <glyph glyph-name="gcommaaccent" unicode="&#x123;" horiz-adv-x="1296" 
d="M711 1272h-2q-59 0 -91 40t-30 97q1 74 54 148.5t116 103.5q21 12 41 12q15 0 26 -10.5t11 -28.5q0 -25 -37 -49q-45 -37 -45 -76q-1 -20 11 -35t26 -24t24.5 -29t7.5 -49q-3 -47 -33.5 -73.5t-78.5 -26.5zM801 106l22 111q-97 -137 -317 -137q-90 0 -170.5 30.5
t-143.5 87.5t-100 147t-37 202q0 127 43.5 230.5t117.5 169.5t169 101t201 35q131 0 226 -51.5t146 -142.5l25 84q36 98 121 98q62 0 93.5 -36.5t19.5 -102.5l-146 -826q-21 -118 -74 -207t-132 -143.5t-176.5 -81.5t-213.5 -28q-211 -3 -366 71q-39 17 -61.5 45t-22.5 58
q0 45 24.5 74.5t69.5 29.5q33 0 76 -16q123 -53 249 -53q314 0 357 251zM625 879l-4 -2q-140 0 -224 -93.5t-84 -226.5q0 -125 73 -200.5t202 -75.5q141 0 227 96t86 225q0 122 -75 199.5t-201 77.5z" />
    <glyph glyph-name="Hcircumflex" unicode="&#x124;" horiz-adv-x="1556" 
d="M659 1649l189 120q56 41 113 41q55 0 102 -41l129 -112q35 -32 35 -68q0 -24 -19 -42.5t-47 -18.5q-32 0 -76 33l-131 96l-180 -98q-58 -31 -84 -31q-25 0 -46 14.5t-21 46.5q0 38 36 60zM1149 821l82 467q12 72 51 110t98 38q71 0 107.5 -45.5t23.5 -126.5l-200 -1127
q-12 -72 -51 -109.5t-99 -37.5q-71 0 -107.5 45.5t-23.5 126.5l76 422h-662l-77 -445q-12 -72 -51 -109.5t-99 -37.5q-71 0 -107.5 45.5t-23.5 126.5l199 1126q12 72 51 110t98 38q71 0 107.5 -45.5t23.5 -126.5l-78 -445h662z" />
    <glyph glyph-name="hcircumflex" unicode="&#x125;" horiz-adv-x="1241" 
d="M162 1671l188 121q56 41 113 41q55 0 102 -41l129 -113q35 -32 35 -67q0 -24 -18.5 -43t-46.5 -19q-32 0 -76 33l-131 96l-181 -98q-58 -31 -83 -31t-46.5 15t-21.5 47q0 36 37 59zM66 166l206 1202q12 66 49 101.5t93 35.5q70 0 106 -44.5t21 -127.5l-70 -391
q114 141 317 141q67 0 125 -18.5t107 -56t77.5 -103.5t28.5 -153q0 -58 -12 -123l-88 -500q-9 -65 -46 -101t-93 -36q-70 0 -105 44t-20 128l82 461q6 41 6 73q0 89 -44 134t-124 45q-100 0 -171.5 -67.5t-92.5 -188.5l-88 -490q-9 -65 -46.5 -101t-93.5 -36
q-70 0 -104.5 44t-19.5 128z" />
    <glyph glyph-name="Hbar" unicode="&#x126;" horiz-adv-x="1568" 
d="M1509 1198l7 -6q37 0 58 -17.5t21 -46.5q0 -30 -20.5 -47.5t-58.5 -17.5h-29l-164 -926q-12 -72 -50.5 -109.5t-98.5 -37.5q-71 0 -108 45.5t-24 126.5l76 422h-661l-78 -445q-12 -72 -51 -109.5t-99 -37.5q-71 0 -107.5 45.5t-23.5 126.5l158 903h-33q-39 0 -59.5 18
t-20.5 50q0 29 20.5 46t59.5 17h56l16 94q12 72 51 110t98 38q71 0 107.5 -45.5t23.5 -126.5l-12 -70h662l16 94q12 72 51.5 110t98.5 38q71 0 107.5 -45.5t23.5 -126.5zM1202 1063h-661l-43 -246h661z" />
    <glyph glyph-name="hbar" unicode="&#x127;" horiz-adv-x="1239" 
d="M535 1221l-54 -277q53 66 134.5 103.5t183.5 37.5q67 0 125 -18.5t107 -56t77.5 -103.5t28.5 -153q0 -53 -13 -123l-88 -500q-9 -65 -46 -101t-93 -36q-70 0 -105 44t-20 128l82 461q6 41 6 73q0 89 -44 134t-124 45q-100 0 -171.5 -67.5t-92.5 -188.5l-88 -490
q-9 -65 -46 -101t-93 -36q-70 0 -105 44t-20 128l186 1055h-92q-29 0 -44 13.5t-15 35.5t15 35.5t44 13.5h109l8 51q12 66 48.5 101.5t92.5 35.5q70 0 106 -44.5t21 -127.5l-2 -16h182q29 0 44.5 -13.5t15.5 -35.5q0 -23 -16.5 -37t-45.5 -14h-198z" />
    <glyph glyph-name="Itilde" unicode="&#x128;" horiz-adv-x="610" 
d="M389 1782h6q57 0 132 -41t118 -41q44 0 86 33q27 18 47 18q19 0 32 -12t13 -35q0 -51 -71 -105q-77 -61 -177 -61q-50 0 -92.5 20.5t-79.5 41t-73 20.5q-44 0 -94 -37q-21 -18 -43 -18q-23 0 -36.5 12.5t-13.5 36.5q0 54 95 119q73 49 151 49zM92 166l199 1126
q12 72 51 110t98 38q71 0 107.5 -45.5t23.5 -126.5l-198 -1127q-12 -72 -51 -109.5t-99 -37.5q-71 0 -107.5 45.5t-23.5 126.5z" />
    <glyph glyph-name="itilde" unicode="&#x129;" horiz-adv-x="620" 
d="M332 1444h6q57 0 132 -41t118 -41q44 0 86 33q27 18 47 18q19 0 32 -12t13 -35q0 -50 -72 -104q-79 -62 -176 -62q-50 0 -92.5 20.5t-80 41t-73.5 20.5q-44 0 -94 -37q-21 -18 -43 -18q-49 0 -49 49q0 54 94 119q73 49 152 49zM250 1065l156 -2q72 0 105 -39.5t21 -110.5
l-139 -786q-12 -65 -48.5 -99t-92.5 -34q-70 0 -106 44.5t-21 127.5l117 663l-37 15q-84 32 -84 110q0 50 33 80.5t96 30.5z" />
    <glyph glyph-name="Imacron" unicode="&#x12a;" horiz-adv-x="610" 
d="M231 1745h453q45 0 71.5 -20.5t26.5 -59.5q0 -38 -26 -60t-72 -22h-453q-45 0 -72.5 22t-27.5 60t27.5 59t72.5 21zM86 166l199 1126q12 72 51 110t98 38q71 0 107.5 -45.5t23.5 -126.5l-198 -1127q-12 -72 -51 -109.5t-99 -37.5q-71 0 -107.5 45.5t-23.5 126.5z" />
    <glyph glyph-name="imacron" unicode="&#x12b;" horiz-adv-x="620" 
d="M150 1407h452q45 0 71.5 -20.5t26.5 -59.5q0 -38 -26 -60t-72 -22h-452q-45 0 -73 22t-28 60q0 37 28 58.5t73 21.5zM242 1065l155 -2q72 0 105.5 -39.5t21.5 -110.5l-139 -786q-12 -65 -48.5 -99t-92.5 -34q-70 0 -106 44.5t-21 127.5l116 663l-36 15q-84 32 -84 110
q0 50 33 80.5t96 30.5z" />
    <glyph glyph-name="Ibreve" unicode="&#x12c;" horiz-adv-x="610" 
d="M705 1835l-5 -2q39 0 56 -26t0 -64q-74 -187 -299 -187q-222 0 -260 183q-8 41 8.5 67.5t62.5 26.5q51 0 64 -49q23 -90 135 -90q116 0 170 92q24 49 68 49zM84 164l199 1126q12 72 51 110t98 38q71 0 107.5 -45.5t23.5 -126.5l-198 -1127q-12 -72 -51 -109.5t-99 -37.5
q-71 0 -107.5 45.5t-23.5 126.5z" />
    <glyph glyph-name="ibreve" unicode="&#x12d;" horiz-adv-x="620" 
d="M623 1497l-5 -2q39 0 56 -26t0 -64q-74 -186 -299 -186q-222 0 -260 182q-8 41 8.5 67.5t62.5 26.5q51 0 64 -49q23 -90 135 -90q116 0 170 92q24 49 68 49zM240 1063l155 -2q72 0 105.5 -39.5t21.5 -110.5l-139 -786q-12 -65 -48.5 -99t-92.5 -34q-70 0 -106 44.5
t-21 127.5l116 663l-36 15q-84 32 -84 110q0 50 33 80.5t96 30.5z" />
    <glyph glyph-name="Iogonek" unicode="&#x12e;" horiz-adv-x="647" 
d="M96 166l201 1124q12 72 51 110t98 38q71 0 108 -45.5t24 -126.5l-199 -1127q-21 -124 -115 -143q-46 -30 -70 -76t-24 -86t22.5 -61t55.5 -21q29 0 41 -6q22 -12 24 -41q3 -40 -47 -61q-36 -15 -84 -15q-81 0 -126.5 45.5t-45.5 118.5q0 137 127 227q-59 46 -41 146z" />
    <glyph glyph-name="iogonek" unicode="&#x12f;" horiz-adv-x="604" 
d="M418 1493l-4 -2q68 0 106 -33.5t37 -97.5q0 -9 -2 -23q-11 -131 -152 -131q-64 0 -103 32t-36 95l4 25q4 69 44.5 102t105.5 33zM231 1063l152 4q72 0 105.5 -39.5t21.5 -109.5l-139 -787q-18 -114 -109 -133q-47 -28 -70.5 -73t-23.5 -87q0 -40 22.5 -61t55.5 -21
q29 0 41 -6q23 -12 26 -41q3 -40 -47 -61q-36 -15 -82 -15q-81 0 -126.5 45.5t-45.5 118.5q0 139 129 226q-52 43 -35 141l117 663l-37 15q-84 32 -84 110q0 50 33 80.5t96 30.5z" />
    <glyph glyph-name="Idotaccent" unicode="&#x130;" horiz-adv-x="610" 
d="M500 1831h-4q68 0 106 -33t37 -96q0 -9 -2 -23q-11 -129 -152 -129q-64 0 -103 31.5t-36 93.5l4 25q4 66 44.5 98.5t105.5 32.5zM84 164l199 1126q12 72 51 110t98 38q71 0 107.5 -45.5t23.5 -126.5l-198 -1127q-12 -72 -51 -109.5t-99 -37.5q-71 0 -107.5 45.5
t-23.5 126.5z" />
    <glyph glyph-name="dotlessi" unicode="&#x131;" horiz-adv-x="620" 
d="M244 1065l155 -2q72 0 105.5 -39.5t21.5 -110.5l-139 -786q-12 -65 -48.5 -99t-92.5 -34q-70 0 -106 44.5t-21 127.5l117 663l-37 15q-84 32 -84 110q0 50 33 80.5t96 30.5z" />
    <glyph glyph-name="IJ" unicode="&#x132;" horiz-adv-x="1343" 
d="M856 436l154 860q25 148 149 148q71 0 107.5 -46t23.5 -126l-137 -780q-7 -43 -14 -75t-19.5 -76t-27 -77.5t-37.5 -73t-51 -68t-67 -57t-85 -46t-106 -28.5t-130 -11q-149 0 -263 44t-174.5 135.5t-41.5 217.5q24 148 158 145q144 -2 127 -155q-7 -56 24.5 -93t77 -51
t99.5 -14q95 0 153 52t80 175zM584 1276l-86 -485q-23 -136 -148 -136q-73 0 -110 42t-25 116l86 487q26 146 152 146q70 0 107 -44.5t24 -125.5z" />
    <glyph glyph-name="ij" unicode="&#x133;" horiz-adv-x="1259" 
d="M449 1493h-5q69 0 108.5 -33.5t35.5 -97.5l-4 -25q-19 -131 -152 -131q-65 0 -105.5 32.5t-33.5 94.5l4 25q17 135 152 135zM1085 1493h-4q69 0 108.5 -33.5t35.5 -97.5l-4 -25q-19 -131 -152 -131q-65 0 -105.5 32.5t-33.5 94.5l4 25q17 135 151 135zM240 1065l155 -2
q72 0 105.5 -39.5t21.5 -110.5l-139 -786q-12 -65 -48.5 -99t-92.5 -34q-70 0 -106 44.5t-21 127.5l116 663l-36 15q-84 32 -84 110q0 50 33 80.5t96 30.5zM877 1063l151 2q72 0 105.5 -39.5t21.5 -110.5l-166 -944q-26 -155 -109 -240t-241 -85q-94 0 -143 28
q-59 39 -56 101q3 68 60 88q26 8 94 2q52 -5 84 26.5t45 104.5l147 831l-36 15q-86 32 -86 110q0 49 33 80t96 31z" />
    <glyph glyph-name="Jcircumflex" unicode="&#x134;" horiz-adv-x="1138" 
d="M711 1645l188 120q56 41 113 41q55 0 102 -41l129 -112q35 -32 35 -68q0 -24 -19 -42.5t-47 -18.5q-33 0 -75 32l-131 97l-181 -99q-56 -30 -84 -30q-25 0 -46 14.5t-21 46.5q0 37 37 60zM662 446l151 850q13 72 52.5 108t99.5 36q71 0 107.5 -43.5t23.5 -124.5
l-144 -813q-84 -486 -540 -486q-131 0 -225.5 42t-143.5 102q-45 52 -45 102q0 46 31 79.5t82 33.5q56 0 108 -49q84 -80 193 -80q207 0 250 243z" />
    <glyph glyph-name="jcircumflex" unicode="&#x135;" horiz-adv-x="614" 
d="M141 1341l162 134q68 55 125 55q29 0 53 -11t37 -23t33 -34l111 -127q20 -24 20 -53q0 -31 -22 -51.5t-54 -20.5q-39 0 -74 41l-110 121l-172 -131q-45 -33 -72 -33q-30 0 -51 18.5t-21 45.5q0 43 35 69zM240 1067l153 -2q72 0 105.5 -39.5t21.5 -110.5l-164 -921
q-29 -163 -124 -253.5t-255 -90.5q-81 0 -133 28q-61 31 -61 95q0 85 80 100q46 4 74 4q65 0 101 30.5t48 98.5l145 823l-36 15q-84 41 -84 112q0 50 33 80.5t96 30.5z" />
    <glyph glyph-name="Kcommaaccent" unicode="&#x136;" horiz-adv-x="1378" 
d="M469 776l676 617q52 49 110 49q56 0 88.5 -37.5t27.5 -90t-48 -91.5l-426 -379l291 -643q36 -84 -2 -145.5t-129 -61.5q-94 0 -131 94l-252 586l-256 -234l-53 -303q-12 -69 -50.5 -106t-95.5 -37q-72 0 -108 46.5t-23 127.5l199 1128q12 69 50.5 106.5t94.5 37.5
q71 0 106.5 -46.5t22.5 -127.5l-35 -197l-61 -291zM604 -172h2q59 0 91 -40t30 -97q-1 -74 -54 -148.5t-116 -103.5q-21 -12 -41 -12q-15 0 -26 10t-11 28q0 26 37 50q45 37 45 75q1 20 -11 35.5t-26 24.5t-24.5 29t-7.5 49q3 47 33.5 73.5t78.5 26.5z" />
    <glyph glyph-name="kcommaaccent" unicode="&#x137;" horiz-adv-x="1091" 
d="M68 170l202 1196q24 137 144 137q71 0 106.5 -46.5t18.5 -127.5l-82 -448l-66 -303l197 194l262 254q41 41 94 41q49 0 82.5 -33t29 -87.5t-60.5 -106.5l-295 -271l195 -368q44 -79 10.5 -144t-117.5 -65q-76 0 -118 80l-170 344l-142 -129l-26 -164q-25 -129 -139 -129
q-69 0 -104 45.5t-21 130.5zM446 -174h3q59 0 90.5 -39.5t29.5 -97.5q-1 -74 -54 -148.5t-116 -103.5q-21 -12 -41 -12q-15 0 -25.5 10t-10.5 28q0 27 36 50q45 37 45 75q1 20 -11 35.5t-26 24.5t-24.5 29t-7.5 49q3 47 33.5 73.5t78.5 26.5z" />
    <glyph glyph-name="kgreenlandic" unicode="&#x138;" horiz-adv-x="1144" 
d="M63 150l142 792q25 129 147 129q68 0 102 -41.5t21 -116.5l-24 -131l-37 -194l440 438q37 43 88 43q33 0 60.5 -18t40.5 -44.5t6.5 -59.5t-35.5 -60l-312 -301l207 -391q33 -60 21.5 -105t-50 -71.5t-87.5 -26.5q-74 0 -117 78l-176 358l-138 -125l-30 -182
q-12 -66 -47 -97.5t-99 -31.5q-69 0 -102.5 41.5t-20.5 116.5z" />
    <glyph glyph-name="Lacute" unicode="&#x139;" horiz-adv-x="1171" 
d="M369 1671l131 152q33 38 58 54t56 15q35 -2 60.5 -23.5t25.5 -56.5q0 -32 -14.5 -53.5t-56.5 -52.5l-152 -121q-51 -39 -80 -39q-27 0 -44 15.5t-17 37.5q0 36 33 72zM86 158l205 1142q12 73 50 110.5t97 37.5q71 0 106.5 -45.5t22.5 -126.5l-180 -1043h520
q67 0 101 -28.5t34 -79.5q0 -53 -35 -85t-100 -32h-694q-72 0 -105.5 39.5t-21.5 110.5z" />
    <glyph glyph-name="lacute" unicode="&#x13a;" horiz-adv-x="661" 
d="M393 1704l109 199q32 59 88 59q36 0 66 -24.5t30 -63.5q0 -36 -27 -70l-135 -174q-33 -41 -71 -41q-42 0 -62.5 32t2.5 83zM532 1343l-174 -1003q-10 -52 -10 -76q0 -50 43 -59q9 -2 62 -2q35 0 56 -23t21 -61q0 -76 -67 -105q-51 -26 -139 -26q-117 0 -184.5 58
t-67.5 173q0 49 18 152l176 1003q22 133 144 133q68 0 101.5 -43.5t20.5 -120.5z" />
    <glyph glyph-name="Lcommaaccent" unicode="&#x13b;" horiz-adv-x="1171" 
d="M84 150l205 1142q12 73 50 110.5t97 37.5q71 0 106.5 -45.5t22.5 -126.5l-180 -1043h520q67 0 101 -28.5t34 -79.5q0 -53 -35 -85t-100 -32h-694q-72 0 -105.5 39.5t-21.5 110.5zM528 -172h2q59 0 91 -40t30 -97q-1 -74 -54 -148.5t-116 -103.5q-21 -12 -41 -12
q-15 0 -26 10t-11 28q0 26 37 50q45 37 45 75q1 20 -11 35.5t-26 24.5t-24.5 29t-7.5 49q3 47 33.5 73.5t78.5 26.5z" />
    <glyph glyph-name="lcommaaccent" unicode="&#x13c;" horiz-adv-x="661" 
d="M532 1343l-174 -1003q-10 -52 -10 -76q0 -50 43 -59q9 -2 62 -2q35 0 56 -23t21 -61q0 -76 -67 -105q-51 -26 -139 -26q-117 0 -184.5 58t-67.5 173q0 49 18 152l176 1003q22 133 144 133q68 0 101.5 -43.5t20.5 -120.5zM203 -172h2q59 0 91 -40t30 -97
q-1 -74 -54 -148.5t-116 -103.5q-21 -12 -41 -12q-15 0 -26 10t-11 28q0 26 37 50q45 37 45 75q1 20 -11 35.5t-26.5 24.5t-25 29t-7.5 49q3 47 34 73.5t79 26.5z" />
    <glyph glyph-name="Lcaron" unicode="&#x13d;" horiz-adv-x="1230" 
d="M94 150l205 1142q12 73 50 110.5t97 37.5q71 0 106.5 -45.5t22.5 -126.5l-180 -1043h520q67 0 101.5 -28.5t34.5 -79.5q0 -53 -35 -85t-101 -32h-694q-72 0 -105.5 39.5t-21.5 110.5zM1063 1440l2 4q47 0 70.5 -32t11.5 -85q-34 -142 -125 -262q-50 -63 -107 -35
q-45 21 -10 107q34 81 60 202q11 53 32 77t66 24z" />
    <glyph glyph-name="lcaron" unicode="&#x13e;" horiz-adv-x="788" 
d="M543 1343l-174 -1003q-11 -57 -11 -76q0 -50 43 -59q9 -2 62 -2q35 0 56.5 -23t21.5 -61q0 -75 -68 -105q-51 -26 -139 -26q-117 0 -184.5 58t-67.5 173q0 49 18 152l176 1003q22 133 144 133q69 0 102.5 -43.5t20.5 -120.5zM852 1503l2 4q47 0 70.5 -31.5t11.5 -84.5
q-34 -143 -125 -263q-50 -62 -106 -34q-46 21 -11 106q33 80 60 203q11 53 32 76.5t66 23.5z" />
    <glyph glyph-name="Ldot" unicode="&#x13f;" horiz-adv-x="1169" 
d="M94 150l205 1142q12 73 50 110.5t97 37.5q71 0 106.5 -45.5t22.5 -126.5l-180 -1043h520q67 0 101.5 -28.5t34.5 -79.5q0 -53 -35 -85t-101 -32h-694q-72 0 -105.5 39.5t-21.5 110.5zM944 922v-2q78 0 120.5 -47t35.5 -132q-6 -78 -50 -125t-118 -47q-75 0 -119.5 49.5
t-36.5 124.5q19 179 168 179z" />
    <glyph glyph-name="ldot" unicode="&#x140;" horiz-adv-x="944" 
d="M543 1343l-174 -1003q-11 -57 -11 -76q0 -50 43 -59q9 -2 62 -2q35 0 56.5 -23t21.5 -61q0 -75 -68 -105q-51 -26 -139 -26q-117 0 -184.5 58t-67.5 173q0 49 18 152l176 1003q22 133 144 133q69 0 102.5 -43.5t20.5 -120.5zM768 893h-4q79 0 127 -50t41 -134
q-6 -77 -55 -129t-123 -52q-75 0 -124 53t-42 128q9 86 57 135t123 49z" />
    <glyph glyph-name="Lslash" unicode="&#x141;" horiz-adv-x="1247" 
d="M434 225l522 -4q67 0 101.5 -28.5t34.5 -79.5q0 -53 -35 -85t-101 -32h-694q-72 0 -105.5 39.5t-21.5 109.5l62 344l-64 -34q-42 -25 -70 -25q-26 0 -42.5 16t-16.5 41q0 40 72 80l149 84l113 639q12 73 50 110.5t97 37.5q71 0 106.5 -45.5t22.5 -126.5l-75 -441l221 123
q42 25 69 25q26 0 43 -16.5t17 -41.5q0 -39 -72 -79l-307 -170z" />
    <glyph glyph-name="lslash" unicode="&#x142;" horiz-adv-x="702" 
d="M492 844l129 69q44 23 65 23q25 0 42 -16.5t17 -42.5q0 -37 -57 -70l-223 -123l-59 -344q-11 -57 -11 -76q0 -50 43 -59q9 -2 62 -2q35 0 56.5 -23t21.5 -61q0 -75 -68 -105q-51 -26 -139 -26q-117 0 -184.5 58t-67.5 173q0 49 18 152l27 151l-35 -18q-37 -21 -66 -21
q-28 0 -45 18t-16 46q2 32 68 69l123 66l120 690q22 133 144 133q69 0 102.5 -43.5t20.5 -120.5z" />
    <glyph glyph-name="Nacute" unicode="&#x143;" horiz-adv-x="1544" 
d="M829 1669l132 152q33 38 58 54t56 15q35 -2 60.5 -23.5t25.5 -56.5q0 -32 -14.5 -53.5t-56.5 -52.5l-152 -121q-51 -39 -80 -39q-27 0 -44 15.5t-17 37.5q0 37 32 72zM1159 944l58 354q12 72 51.5 110t99.5 38q72 0 107 -46t22 -128l-197 -1102q-32 -170 -188 -170
q-41 0 -73 11t-52.5 31t-32 37t-22.5 40l-420 907h-4l-88 -561l-55 -318q-12 -72 -50 -109.5t-96 -37.5q-71 0 -107.5 46.5t-23.5 127.5l195 1102q30 172 188 172q125 0 180 -121l424 -895h4z" />
    <glyph glyph-name="nacute" unicode="&#x144;" horiz-adv-x="1247" 
d="M608 1305l109 198q32 60 88 60q36 0 66 -24.5t30 -63.5q0 -35 -27 -70l-135 -174q-33 -41 -71 -41q-42 0 -62.5 32t2.5 83zM444 958l-4 -53q12 19 29 39t49.5 47.5t69 48.5t89.5 35.5t111 14.5q53 0 101 -11t92.5 -36.5t77 -63t52 -94.5t19.5 -127q0 -62 -12 -123
l-90 -502q-9 -65 -46 -100t-93 -35q-70 0 -104 43t-19 127l80 463q6 38 6 74q0 87 -45.5 130.5t-124.5 43.5q-102 0 -172 -68.5t-94 -204.5l-86 -475q-9 -65 -46.5 -101t-93.5 -36q-70 0 -103.5 44t-18.5 128l118 674l13 110q12 121 125 121q55 0 88 -29t32 -84z" />
    <glyph glyph-name="Ncommaaccent" unicode="&#x145;" horiz-adv-x="1544" 
d="M1157 936l57 354q12 72 52 110t100 38q72 0 107 -46t22 -128l-197 -1102q-32 -170 -188 -170q-41 0 -73 11t-52.5 31t-32 37t-22.5 40l-420 907h-4l-88 -561l-56 -318q-12 -72 -49.5 -109.5t-95.5 -37.5q-71 0 -107.5 46.5t-23.5 127.5l195 1102q30 172 188 172
q125 0 180 -121l424 -895h4zM641 -174h2q59 0 91 -40t30 -97q-1 -74 -54 -148.5t-116 -103.5q-21 -12 -41 -12q-15 0 -26 10t-11 28q0 26 37 50q45 37 45 75q1 20 -11 35.5t-26.5 24.5t-25 29t-7.5 49q3 47 34 73.5t79 26.5z" />
    <glyph glyph-name="ncommaaccent" unicode="&#x146;" horiz-adv-x="1247" 
d="M444 958l-4 -53q12 19 29 39t49.5 47.5t69 48.5t89.5 35.5t111 14.5q53 0 101 -11t92.5 -36.5t77 -63t52 -94.5t19.5 -127q0 -62 -12 -123l-90 -502q-9 -65 -46 -100t-93 -35q-70 0 -104 43t-19 127l80 463q6 38 6 74q0 87 -45.5 130.5t-124.5 43.5q-102 0 -172 -68.5
t-94 -204.5l-86 -475q-9 -65 -46.5 -101t-93.5 -36q-70 0 -103.5 44t-18.5 128l118 674l13 110q12 121 125 121q55 0 88 -29t32 -84zM500 -166h2q59 0 91 -40t30 -97q-1 -74 -54 -148.5t-116 -103.5q-21 -12 -41 -12q-15 0 -26 10.5t-11 28.5q0 25 37 49q45 37 45 76
q1 17 -7 29t-19 21t-22 19t-17.5 27t-4.5 41q3 47 34 73.5t79 26.5z" />
    <glyph glyph-name="Ncaron" unicode="&#x147;" horiz-adv-x="1544" 
d="M924 1686l184 92q56 30 78 30q27 0 46 -14t19 -39q0 -40 -39 -65l-182 -121q-56 -39 -115 -39q-54 0 -100 39l-143 119q-27 24 -27 59q0 31 20.5 47t45.5 16q27 0 73 -30zM1159 934l58 354q12 72 51.5 110t99.5 38q72 0 107 -46t22 -128l-197 -1102q-32 -170 -188 -170
q-41 0 -73 11t-52.5 31t-32 37t-22.5 40l-420 907h-4l-88 -561l-55 -318q-12 -72 -50 -109.5t-96 -37.5q-71 0 -107.5 46.5t-23.5 127.5l195 1102q30 172 188 172q125 0 180 -121l424 -895h4z" />
    <glyph glyph-name="ncaron" unicode="&#x148;" horiz-adv-x="1247" 
d="M727 1362l174 117q56 34 84 34q29 0 47.5 -15t18.5 -42q0 -33 -37 -63l-183 -150q-48 -41 -116 -41t-105 45l-123 146q-22 28 -22 55q0 30 19 47.5t46 17.5q31 0 72 -36zM442 958l-4 -53q12 19 29 39t49.5 47.5t69 48.5t89.5 35.5t111 14.5q53 0 101 -11t92.5 -36.5
t77 -63t52 -94.5t19.5 -127q0 -62 -12 -123l-90 -502q-9 -65 -46 -100t-93 -35q-70 0 -104 43t-19 127l80 463q6 38 6 74q0 87 -45.5 130.5t-124.5 43.5q-102 0 -172 -68.5t-94 -204.5l-86 -475q-9 -65 -46.5 -101t-93.5 -36q-70 0 -103.5 44t-18.5 128l118 674l13 110
q12 121 125 121q55 0 88 -29t32 -84z" />
    <glyph glyph-name="Eng" unicode="&#x14a;" horiz-adv-x="1591" 
d="M1090 426l153 872q26 142 152 142q73 0 109.5 -43.5t21.5 -124.5l-217 -1221q-53 -300 -338 -387q-37 -12 -68 -12q-50 0 -79.5 24.5t-26.5 73.5q2 33 18.5 51.5t57.5 41.5t63 40q60 41 76 117l-471 1024h-4l-156 -887q-12 -72 -50.5 -107.5t-97.5 -35.5
q-73 0 -109.5 44.5t-23.5 125.5l195 1114q27 162 186 162q70 0 117.5 -33t79.5 -104l407 -877h5z" />
    <glyph glyph-name="eng" unicode="&#x14b;" horiz-adv-x="1243" 
d="M438 952v-55q16 25 41 51.5t68 59t106 53t135 20.5q67 0 125.5 -18.5t108 -56t78 -103.5t28.5 -153q0 -58 -12 -123l-119 -664q-22 -130 -110.5 -208.5t-222.5 -104.5q-63 -10 -104.5 12t-41.5 76q0 35 19 56t61 36q54 20 84.5 47t40.5 76l121 670q6 41 6 73
q0 88 -46 133t-126 45q-103 0 -173 -66.5t-93 -193.5l-86 -483q-12 -66 -48.5 -101.5t-93.5 -35.5q-70 0 -105 44t-20 128l117 657l14 123q15 125 127 125q55 0 88.5 -31.5t32.5 -87.5z" />
    <glyph glyph-name="Omacron" unicode="&#x14c;" horiz-adv-x="1720" 
d="M731 1745h453q45 0 71.5 -20.5t26.5 -59.5q0 -38 -26 -60t-72 -22h-453q-45 0 -72.5 22t-27.5 60t27.5 59t72.5 21zM930 1458l4 -2q162 0 296 -50.5t225.5 -141t141.5 -218.5t50 -280q0 -164 -58.5 -309.5t-163 -252.5t-258.5 -169t-336 -62q-326 0 -518 190.5
t-192 500.5q0 168 59.5 315t164.5 252.5t256.5 166t328.5 60.5zM930 1225v-2q-142 0 -257 -70t-182 -198t-67 -291q0 -214 113.5 -336.5t300.5 -122.5q217 0 362.5 156.5t145.5 400.5q0 211 -113 337t-303 126z" />
    <glyph glyph-name="omacron" unicode="&#x14d;" horiz-adv-x="1335" 
d="M514 1407h453q45 0 71.5 -20.5t26.5 -59.5q0 -38 -26 -60t-72 -22h-453q-45 0 -72.5 22t-27.5 60t27.5 59t72.5 21zM700 1083h-2q251 0 398 -143t147 -371q0 -255 -172.5 -421t-447.5 -166q-252 0 -396.5 143t-144.5 373q0 171 79 304.5t220 207t319 73.5zM686 874v-4
q-142 0 -240 -103.5t-98 -264.5q0 -145 80 -230.5t209 -85.5q147 0 241.5 109t94.5 266q0 141 -79 227t-208 86z" />
    <glyph glyph-name="Obreve" unicode="&#x14e;" horiz-adv-x="1720" 
d="M1204 1835l-4 -2q39 0 55.5 -26t-0.5 -64q-74 -187 -299 -187q-222 0 -260 183q-8 40 9 67t63 27q50 0 63 -49q23 -90 136 -90q116 0 170 92q24 49 67 49zM926 1456l4 -2q325 0 518.5 -190.5t193.5 -499.5q0 -164 -58.5 -309.5t-162.5 -252.5t-258 -169t-336 -62
q-326 0 -518 190.5t-192 500.5q0 168 59.5 315t164.5 252.5t256.5 166t328.5 60.5zM926 1223v-2q-142 0 -257 -70t-182 -198t-67 -291q0 -214 113.5 -336.5t300.5 -122.5q106 0 199.5 41t161 113.5t107 177t39.5 225.5q0 211 -112.5 337t-302.5 126z" />
    <glyph glyph-name="obreve" unicode="&#x14f;" horiz-adv-x="1335" 
d="M987 1497l-4 -2q39 0 55.5 -26t-0.5 -64q-74 -186 -299 -186q-222 0 -260 182q-8 40 9 67t63 27q50 0 63 -49q23 -90 136 -90q116 0 170 92q24 49 67 49zM696 1081h-2q251 0 398 -143t147 -371q0 -125 -45.5 -233.5t-125.5 -186.5t-196.5 -122.5t-253.5 -44.5
q-252 0 -396 143t-144 373q0 171 79 304.5t220 207t319 73.5zM682 872v-4q-142 0 -240 -103.5t-98 -264.5q0 -145 80 -230.5t209 -85.5q147 0 241.5 109t94.5 266q0 141 -79 227t-208 86z" />
    <glyph glyph-name="Ohungarumlaut" unicode="&#x150;" horiz-adv-x="1720" 
d="M1063 1645l108 198q33 60 89 60q35 0 64.5 -24t29.5 -62q0 -34 -25 -70l-135 -176q-33 -41 -72 -41q-42 0 -62 32t3 83zM729 1645l109 198q33 60 88 60q35 0 64.5 -24t29.5 -62q0 -34 -25 -70l-135 -176q-33 -41 -72 -41q-42 0 -62 32t3 83zM932 1458l4 -2
q162 0 296 -50.5t225.5 -141t141.5 -218.5t50 -280q0 -164 -58.5 -309.5t-162.5 -252.5t-258 -169t-336 -62q-326 0 -518.5 190.5t-192.5 500.5q0 168 59.5 315t164.5 252.5t256.5 166t328.5 60.5zM932 1225v-2q-142 0 -257 -70t-182 -198t-67 -291q0 -214 113.5 -336.5
t300.5 -122.5q217 0 362.5 156.5t145.5 400.5q0 211 -113 337t-303 126z" />
    <glyph glyph-name="ohungarumlaut" unicode="&#x151;" horiz-adv-x="1335" 
d="M846 1307l108 198q33 60 88 60q35 0 65 -24.5t30 -61.5q0 -34 -25 -70l-135 -176q-33 -41 -72 -41q-42 0 -62 32t3 83zM512 1307l109 198q33 60 88 60q35 0 64.5 -24t29.5 -62q0 -34 -25 -70l-135 -176q-33 -41 -72 -41q-42 0 -62 32t3 83zM702 1085h-2q251 0 398 -143
t147 -371q0 -255 -172.5 -421t-447.5 -166q-252 0 -396.5 143t-144.5 373q0 171 79 304.5t220 207t319 73.5zM688 877v-5q-142 0 -240 -103.5t-98 -264.5q0 -145 80 -230.5t209 -85.5q147 0 241.5 109t94.5 266q0 141 -79 227.5t-208 86.5z" />
    <glyph glyph-name="OE" unicode="&#x152;" horiz-adv-x="2545" 
d="M1325 98l8 56q-208 -177 -518 -177q-326 0 -518.5 190.5t-192.5 500.5q0 168 59.5 315t164.5 252.5t256.5 166t328.5 60.5q195 0 347 -78t237 -213l25 142q21 125 149 125h766q61 0 94 -32t33 -81q0 -50 -33 -82.5t-94 -32.5h-647l-70 -395h500q61 0 94 -32t33 -81
q0 -50 -33 -82t-94 -32h-539l-59 -361h623q61 0 94 -31.5t33 -80.5q0 -50 -33 -82.5t-94 -32.5h-824q-52 0 -77.5 25t-18.5 73zM911 1229v-2q-216 0 -360.5 -156.5t-144.5 -402.5q0 -214 113 -336.5t300 -122.5q217 0 362.5 156.5t145.5 400.5q0 211 -113 337t-303 126z" />
    <glyph glyph-name="oe" unicode="&#x153;" horiz-adv-x="2197" 
d="M2044 449l-688 -3q1 -89 45 -152t115.5 -92.5t162.5 -29.5q97 0 197 39q57 22 88 22q39 0 59.5 -27t20.5 -65q0 -63 -78 -94q-151 -63 -328 -63q-172 0 -306.5 71t-196.5 209q-79 -130 -216 -205t-313 -75q-252 0 -397.5 141t-145.5 369q0 166 79.5 301t222 212.5
t319.5 77.5q175 0 302.5 -75t189.5 -203q78 132 214.5 204t295.5 72q205 0 335.5 -121.5t130.5 -320.5q0 -66 -14 -123q-20 -69 -94 -69zM1374 618h541q4 16 4 39q2 94 -57.5 161t-175.5 67q-114 0 -202.5 -71.5t-109.5 -195.5zM614 188l2 -2q146 0 242 109.5t96 269.5
q0 135 -78.5 221t-205.5 86q-143 0 -242.5 -104t-99.5 -268q0 -139 80.5 -225.5t205.5 -86.5z" />
    <glyph glyph-name="Racute" unicode="&#x154;" horiz-adv-x="1449" 
d="M731 1669l131 152q33 38 58.5 54t56.5 15q35 -2 60.5 -23.5t25.5 -56.5q0 -32 -15 -53.5t-57 -52.5l-151 -121q-51 -39 -80 -39q-27 0 -44.5 15.5t-17.5 37.5q0 36 33 72zM444 1440h533q132 0 233.5 -60t153 -155.5t51.5 -208.5q0 -158 -100.5 -275.5t-276.5 -158.5
l146 -375q37 -82 3 -144.5t-120 -62.5q-101 0 -141 111l-158 450h-324l-71 -411q-12 -72 -52.5 -111t-99.5 -39q-72 0 -108 46t-21 128l205 1141q21 125 147 125zM561 1214l-72 -428h373q118 0 187 63.5t69 160.5q0 89 -55 146.5t-154 57.5h-348z" />
    <glyph glyph-name="racute" unicode="&#x155;" horiz-adv-x="845" 
d="M399 1305l109 198q32 60 88 60q36 0 66 -24.5t30 -63.5q0 -37 -26 -70l-136 -174q-33 -41 -71 -41q-42 0 -62.5 32t2.5 83zM438 942l-8 -86q22 45 45.5 80t58 69.5t81 53t102.5 18.5q66 0 100.5 -35t34.5 -86q0 -61 -37.5 -98t-107.5 -43q-141 -10 -212.5 -99t-99.5 -251
l-59 -330q-12 -67 -48 -103t-91 -36q-70 0 -105 44t-20 128l114 651l13 125q13 125 125 125q55 0 86 -33.5t28 -93.5z" />
    <glyph glyph-name="Rcommaaccent" unicode="&#x156;" horiz-adv-x="1449" 
d="M440 1434h533q132 0 233.5 -60t153 -155.5t51.5 -208.5q0 -158 -101 -276t-276 -159l146 -374q37 -82 3 -144.5t-120 -62.5q-101 0 -141 110l-158 451h-324l-71 -412q-12 -72 -52 -110.5t-100 -38.5q-72 0 -108 46t-21 128l205 1141q21 125 147 125zM557 1208l-72 -428
h373q118 0 187 63.5t69 160.5q0 89 -55 146.5t-154 57.5h-348zM584 -174h2q59 0 91 -40t30 -97q-1 -74 -54 -148.5t-116 -103.5q-21 -12 -41 -12q-15 0 -26 10t-11 28q0 26 37 50q45 37 45 75q1 20 -11 35.5t-26.5 24.5t-25 29t-7.5 49q3 47 34 73.5t79 26.5z" />
    <glyph glyph-name="rcommaaccent" unicode="&#x157;" horiz-adv-x="845" 
d="M436 942l-8 -86q22 45 45.5 80t58 69.5t81 53t102.5 18.5q66 0 100.5 -35t34.5 -86q0 -61 -37.5 -98t-107.5 -43q-141 -10 -212.5 -99t-99.5 -251l-59 -330q-12 -67 -48 -103t-91 -36q-70 0 -105 44t-20 128l114 651l13 125q13 125 125 125q55 0 86 -33.5t28 -93.5z
M125 -170h2q59 0 91 -40t30 -97q-1 -74 -54 -148.5t-116 -103.5q-21 -12 -41 -12q-15 0 -26 10.5t-11 28.5q0 25 37 49q45 37 45 75q1 20 -11 35.5t-26.5 24.5t-25 29t-7.5 49q3 47 34 73.5t79 26.5z" />
    <glyph glyph-name="Rcaron" unicode="&#x158;" horiz-adv-x="1449" 
d="M825 1686l185 92q56 30 77 30q27 0 46.5 -14t19.5 -39q0 -40 -39 -65l-182 -121q-56 -39 -115 -39q-54 0 -100 39l-144 119q-26 23 -26 59q0 31 20 47t45 16q28 0 74 -30zM444 1430h533q132 0 233.5 -60t153 -155.5t51.5 -208.5q0 -158 -101 -276t-276 -159l146 -374
q37 -82 3 -144.5t-120 -62.5q-101 0 -141 110l-158 451h-324l-71 -412q-12 -72 -52 -110.5t-100 -38.5q-72 0 -108 46t-21 128l205 1141q21 125 147 125zM561 1204l-72 -428h373q118 0 187 63t69 160q0 89 -55 147t-154 58h-348z" />
    <glyph glyph-name="rcaron" unicode="&#x159;" horiz-adv-x="845" 
d="M516 1362l174 117q56 34 84 34q29 0 47.5 -15t18.5 -42q0 -33 -37 -63l-182 -150q-48 -41 -117 -41q-68 0 -105 45l-123 146q-22 28 -22 55q0 30 19 47.5t46 17.5q31 0 72 -36zM434 942l-8 -86q22 45 45.5 80t58 69.5t81 53t102.5 18.5q66 0 100.5 -35t34.5 -86
q0 -61 -38 -98t-108 -43q-141 -10 -211.5 -99t-99.5 -251l-59 -330q-12 -67 -48 -103t-91 -36q-70 0 -105 44t-20 128l114 651l13 125q13 125 124 125q55 0 86.5 -33.5t28.5 -93.5z" />
    <glyph glyph-name="Sacute" unicode="&#x15a;" horiz-adv-x="1290" 
d="M709 1669l131 152q33 38 58 54t56 15q35 -2 60.5 -23.5t25.5 -56.5q0 -32 -14.5 -53.5t-56.5 -52.5l-152 -121q-51 -39 -80 -39q-27 0 -44 15.5t-17 37.5q0 36 33 72zM758 1464l4 -10q235 0 399 -82q88 -38 88 -117q0 -41 -26.5 -74.5t-83.5 -33.5q-8 0 -16 1t-13.5 2.5
t-16 5.5t-15.5 6t-18.5 7.5t-19.5 8.5q-124 59 -266 59q-78 0 -134 -15t-84.5 -42t-41 -56.5t-12.5 -64.5q0 -33 11 -59.5t29 -46t53 -39t70 -34.5t93 -36q156 -58 217 -92q164 -93 196 -250q9 -43 9 -90q0 -109 -44 -193.5t-122 -136.5t-179 -78.5t-221 -26.5
q-254 0 -460 107q-95 48 -95 127q0 48 30 80.5t81 32.5q36 0 88 -25q169 -94 340 -94q133 0 209 47t76 131q0 34 -14.5 61.5t-36.5 47t-61.5 39t-73.5 32.5t-90 33q-26 9 -40 14q-63 23 -107 43.5t-95.5 56.5t-83 77.5t-53 104.5t-21.5 140q0 111 41 195t115.5 135
t173.5 76.5t221 25.5z" />
    <glyph glyph-name="sacute" unicode="&#x15b;" horiz-adv-x="1005" 
d="M485 1305l109 198q32 60 88 60q36 0 66 -24.5t30 -63.5q0 -37 -26 -70l-136 -174q-33 -41 -71 -41q-42 0 -62.5 32t2.5 83zM547 1083l-4 2q89 0 174.5 -19t142.5 -48q77 -38 72 -105q-4 -36 -27.5 -63.5t-68.5 -26.5q-25 0 -68 19q-103 49 -199 49q-178 -2 -178 -119
q0 -29 10.5 -50.5t38 -38.5t46 -25t63.5 -25q8 -3 25 -9q40 -14 60 -22t55.5 -23t54.5 -27t46 -31t41.5 -39t29.5 -46t21.5 -58t6.5 -69q0 -86 -36.5 -151t-100.5 -104t-144 -58t-174 -19q-95 -1 -190.5 20t-163.5 58q-79 42 -74 107q2 39 26 66t72 24q26 0 84 -27
q125 -53 240 -53q182 3 182 115q0 19 -5 34.5t-18 28.5t-24 22t-36.5 20.5t-41 17.5t-51 19t-53.5 20q-61 23 -103 46t-81.5 57.5t-59 84t-20.5 113.5q-1 87 34.5 152.5t97 103.5t136.5 57t162 20z" />
    <glyph glyph-name="Scircumflex" unicode="&#x15c;" horiz-adv-x="1290" 
d="M520 1649l189 120q56 41 112 41t103 -41l129 -112q34 -31 34 -68q0 -24 -18.5 -42.5t-46.5 -18.5q-32 0 -76 33l-131 96l-180 -98q-58 -31 -84 -31q-25 0 -46.5 14.5t-21.5 46.5q0 37 37 60zM756 1456l4 -10q235 0 399 -82q88 -38 88 -117q0 -41 -26.5 -74.5t-83.5 -33.5
q-27 0 -99 30q-126 60 -266 60q-78 0 -134 -15t-84.5 -42t-41 -56.5t-12.5 -64.5q0 -33 11 -59.5t29 -46t53 -39t70 -34.5t93 -36q157 -59 219 -94q166 -94 196 -256q7 -39 7 -83q0 -109 -44 -193.5t-122 -136t-179 -78t-221 -26.5q-254 0 -460 107q-95 48 -95 127
q0 48 30 80t81 32q38 0 88 -24q169 -94 340 -94q133 0 209 47t76 131q0 34 -14.5 61.5t-36.5 47t-61.5 39t-73.5 32.5t-90 33q-26 9 -40 14q-63 23 -107 43.5t-95.5 56.5t-83 77.5t-53 104.5t-21.5 140q0 111 41 195t115.5 135t173.5 76.5t221 25.5z" />
    <glyph glyph-name="scircumflex" unicode="&#x15d;" horiz-adv-x="1005" 
d="M313 1335l162 133q35 28 63 42t62 14q29 0 53 -11t37 -23t33 -34l111 -127q20 -24 20 -53q0 -31 -22 -51.5t-54 -20.5q-38 0 -73 41l-111 121l-172 -131q-45 -33 -72 -33q-30 0 -50.5 18.5t-20.5 45.5q0 44 34 69zM545 1085l-4 2q89 0 174.5 -19t142.5 -48
q77 -38 72 -105q-4 -36 -27.5 -63.5t-68.5 -26.5q-25 0 -68 19q-103 49 -199 49q-178 -2 -178 -119q0 -29 10.5 -50.5t38 -38.5t46 -25t63.5 -25q8 -3 25 -9q40 -14 60 -22t55.5 -23t54.5 -27t46 -31t41.5 -39t29.5 -46t21.5 -58t6.5 -69q0 -86 -36.5 -151t-100.5 -103.5
t-144 -57.5t-174 -19q-95 -1 -190.5 19.5t-163.5 57.5q-79 42 -74 107q2 39 26 66t72 24q26 0 84 -27q125 -53 240 -53q182 3 182 115q0 19 -5 34.5t-18 28.5t-24 22t-36.5 20.5t-41 17.5t-51 19t-53.5 20q-61 23 -103 46t-81.5 57.5t-59 84t-20.5 113.5q-1 87 34.5 152.5
t97 103.5t136.5 57t162 20z" />
    <glyph glyph-name="Scedilla" unicode="&#x15e;" horiz-adv-x="1290" 
d="M471 -131l59 98q-208 15 -378 103q-95 48 -95 127q0 48 30 80t81 32q38 0 88 -24q171 -95 340 -95q133 0 209 47.5t76 131.5q0 34 -14.5 61.5t-36.5 47t-61.5 39t-73.5 32.5t-90 33q-26 9 -40 14q-63 23 -107 43.5t-95.5 56.5t-83 77.5t-53 104.5t-21.5 140q0 111 41 195
t115.5 135t173.5 76.5t221 25.5q235 0 399 -82q88 -38 88 -117q0 -41 -26.5 -74.5t-83.5 -33.5q-8 0 -16 1t-13.5 2.5t-16 5.5t-15.5 6t-18.5 7.5t-19.5 8.5q-124 59 -266 59q-78 0 -134 -15t-84.5 -42t-41 -56.5t-12.5 -64.5q0 -33 11 -59.5t29 -46t53 -39t70 -34.5t93 -36
q156 -58 217 -92q164 -93 196 -250q9 -43 9 -90q0 -140 -72.5 -238t-190.5 -144.5t-272 -50.5l-45 -92l4 1q4 1 8 1q59 0 102.5 -32.5t43.5 -96.5q0 -53 -22 -90t-60 -55.5t-78 -26.5t-88 -8q-44 0 -92 10q-50 12 -50 52q0 25 17.5 39.5t54.5 7.5q52 -9 72 -9q98 0 98 70
q0 53 -69 53h-13q-36 0 -51 19q-16 22 0 51z" />
    <glyph glyph-name="scedilla" unicode="&#x15f;" horiz-adv-x="1005" 
d="M268 -131l62 117q-150 16 -252 73q-79 42 -74 107q2 39 26 66t72 24q26 0 84 -27q125 -53 240 -53q182 3 182 115q0 19 -5 34.5t-18 28.5t-24 22t-36.5 20.5t-41 17.5t-51 19t-53.5 20q-62 23 -104.5 46t-82 57.5t-59 84t-20.5 113.5q-1 87 34.5 152.5t97 103.5t136.5 57
t162 20q89 0 174.5 -19t142.5 -48q77 -38 72 -105q-4 -36 -27.5 -63.5t-68.5 -26.5q-25 0 -68 19q-103 49 -199 49q-178 -2 -178 -119q0 -29 10.5 -50.5t38 -38.5t46 -25t63.5 -25q8 -3 25 -9q40 -14 60 -22t55.5 -23t54.5 -27t46 -31t41.5 -39t29.5 -46t21.5 -58t6.5 -69
q0 -85 -36.5 -149.5t-99.5 -103t-142.5 -57.5t-172.5 -19l-47 -99q1 0 5 1t7 1q59 0 102.5 -32.5t43.5 -96.5q0 -53 -22 -90t-60 -55.5t-78 -26.5t-88 -8q-44 0 -92 10q-49 12 -49 52q0 25 17 39.5t54 7.5q52 -9 72 -9q98 0 98 70q0 53 -69 53h-13q-36 0 -51 19q-16 22 0 51
z" />
    <glyph glyph-name="Scaron" unicode="&#x160;" horiz-adv-x="1290" 
d="M803 1686l184 92q56 30 78 30q27 0 46 -14t19 -39q0 -41 -38 -65l-183 -121q-56 -39 -114 -39q-55 0 -101 39l-143 119q-27 24 -27 59q0 31 20.5 47t45.5 16q28 0 74 -30zM758 1454l4 -10q235 0 399 -82q88 -38 88 -117q0 -41 -26.5 -74.5t-83.5 -33.5q-27 0 -99 30
q-126 60 -266 60q-78 0 -134 -15t-84.5 -42t-41 -56.5t-12.5 -64.5q0 -33 11 -59.5t29 -46t53 -39t70 -34.5t93 -36q157 -59 219 -94q166 -94 196 -256q7 -39 7 -83q0 -109 -44 -193.5t-122 -136t-179 -78t-221 -26.5q-254 0 -460 107q-95 48 -95 127q0 48 30 80t81 32
q38 0 88 -24q169 -94 340 -94q133 0 209 47t76 131q0 34 -14.5 61.5t-36.5 47t-61.5 39t-73.5 32.5t-90 33q-26 9 -40 14q-63 23 -107 43.5t-95.5 56.5t-83 77.5t-53 104.5t-21.5 140q0 111 41 195t115.5 135t173.5 76.5t221 25.5z" />
    <glyph glyph-name="scaron" unicode="&#x161;" horiz-adv-x="1005" 
d="M602 1362l174 117q56 34 84 34q29 0 47.5 -15t18.5 -42q0 -33 -37 -63l-182 -150q-48 -41 -117 -41q-68 0 -105 45l-123 146q-22 28 -22 55q0 30 19.5 47.5t46.5 17.5q30 0 71 -36zM543 1085l-4 2q89 0 174.5 -19t142.5 -48q77 -38 72 -105q-4 -35 -28 -63t-69 -27
q-24 0 -67 19q-103 49 -199 49q-178 -2 -178 -119q0 -29 10.5 -50.5t38 -38.5t46 -25t63.5 -25q8 -3 25 -9q40 -14 60 -22t55.5 -23t54.5 -27t46 -31t41.5 -39t29.5 -46t21.5 -58t6.5 -69q0 -86 -36.5 -151t-100.5 -103.5t-144 -57.5t-174 -19q-95 -1 -190.5 19.5
t-163.5 57.5q-79 42 -74 107q2 39 26 66t72 24q26 0 84 -27q125 -53 240 -53q182 3 182 115q0 19 -5 34.5t-18 28.5t-24 22t-36.5 20.5t-41 17.5t-51 19t-53.5 20q-61 23 -103 46t-81.5 57.5t-59 84t-20.5 113.5q-1 87 34.5 152.5t97 103.5t136.5 57t162 20z" />
    <glyph glyph-name="Tcaron" unicode="&#x164;" horiz-adv-x="1337" 
d="M823 1686l185 92q56 30 77 30q27 0 46.5 -14t19.5 -39q0 -40 -39 -65l-182 -121q-56 -39 -115 -39q-54 0 -100 39l-144 119q-26 23 -26 59q0 31 20 47t45 16q28 0 74 -30zM305 1430h967q66 0 101.5 -29t35.5 -80q0 -53 -35.5 -85t-101.5 -32h-357l-188 -1065
q-13 -74 -52 -111.5t-97 -37.5q-71 0 -106.5 46t-22.5 128l182 1040h-326q-66 0 -100.5 31t-34.5 84q0 51 34.5 81t100.5 30z" />
    <glyph glyph-name="tcaron" unicode="&#x165;" horiz-adv-x="825" 
d="M870 1653l2 4q47 0 70.5 -32t11.5 -85q-34 -142 -125 -262q-50 -62 -106 -35q-45 21 -10 107q32 76 59 202q11 53 32 77t66 24zM272 1069l66 211q35 102 131 102q58 0 87 -35t19 -98l-30 -180h166q53 0 79.5 -25.5t26.5 -66.5q0 -44 -26.5 -71t-79.5 -27h-199l-94 -533
q-6 -27 -6 -57q0 -50 24 -72t70 -22q17 0 45.5 4t32.5 4q44 3 68 -23.5t22 -70.5q-4 -72 -92 -101q-64 -20 -148 -20q-299 0 -299 262q0 44 10 102l95 531h-41q-48 0 -72.5 22.5t-24.5 59.5q0 40 22.5 61.5t68.5 30.5z" />
    <glyph glyph-name="Tbar" unicode="&#x166;" horiz-adv-x="1290" 
d="M313 1434l965 2q66 0 101.5 -29t35.5 -80q0 -53 -35.5 -85t-101.5 -32h-356l-76 -426h201q40 0 63 -18.5t23 -48.5q0 -31 -23 -50.5t-63 -19.5h-226l-88 -504q-13 -74 -52 -111.5t-97 -37.5q-71 0 -106.5 46t-22.5 128l84 477h-207q-40 0 -63 19.5t-23 50.5q0 30 23 48.5
t63 18.5h231l76 426h-326q-66 0 -100.5 31t-34.5 84q0 51 34.5 81t100.5 30z" />
    <glyph glyph-name="tbar" unicode="&#x167;" horiz-adv-x="823" 
d="M510 874l-33 -188h207q29 0 44 -13.5t15 -35.5q0 -24 -16 -37.5t-45 -13.5h-225l-43 -246q-6 -27 -6 -57q0 -95 94 -95q17 0 44.5 4t33.5 5q44 3 68 -24t22 -71q-4 -71 -92 -100q-64 -20 -148 -20q-299 0 -299 262q0 44 10 102l43 242h-94q-29 0 -44 13.5t-15 35.5
t15 35.5t44 13.5h113l35 193h-41q-48 0 -72.5 22.5t-24.5 59.5q0 40 22 61.5t68 30.5l80 12l66 211q35 102 131 102q58 0 87 -35t19 -98l-30 -180h166q53 0 79.5 -25.5t26.5 -66.5q0 -44 -26.5 -71.5t-79.5 -27.5h-199z" />
    <glyph glyph-name="Utilde" unicode="&#x168;" horiz-adv-x="1503" 
d="M842 1782h6q57 0 132 -41t118 -41q44 0 86 33q27 18 47 18q19 0 32 -12t13 -35q0 -24 -20 -52.5t-52 -52.5q-77 -61 -176 -61q-50 0 -92.5 20.5t-80 41t-73.5 20.5q-44 0 -94 -37q-21 -18 -43 -18q-49 0 -49 49q0 54 94 119q73 49 152 49zM1038 487l150 803q12 72 51 110
t98 38q71 0 106.5 -45.5t22.5 -126.5l-133 -758q-42 -244 -203 -389.5t-432 -145.5q-136 0 -244.5 38t-176 103.5t-103 148.5t-35.5 177q0 50 6 97l134 753q12 72 51 110t98 38q71 0 106.5 -45.5t22.5 -126.5l-131 -758q-6 -42 -6 -59q0 -107 75.5 -174.5t206.5 -67.5
q139 0 226 77.5t110 202.5z" />
    <glyph glyph-name="utilde" unicode="&#x169;" horiz-adv-x="1247" 
d="M639 1444h6q57 0 132 -41t118 -41q44 0 86 33q27 18 47 18q19 0 32 -12t13 -35q0 -50 -72 -104q-79 -62 -176 -62q-50 0 -92.5 20.5t-79.5 41t-73 20.5q-45 0 -95 -37q-21 -18 -43 -18q-49 0 -49 49q0 54 94 119q73 49 152 49zM807 451l88 487q21 129 137 129
q69 0 105 -40t24 -112l-121 -673l-14 -127q-12 -121 -125 -121q-55 0 -88 32t-33 87v51q-18 -26 -42 -51t-66.5 -58t-104.5 -53t-133 -20q-68 0 -127.5 18t-109 55t-78.5 103t-29 153q0 57 12 119l93 514q24 129 147 129q66 0 100.5 -40t22.5 -113l-84 -484q-6 -40 -6 -80
q0 -85 45.5 -125.5t126.5 -40.5q101 0 169 66t91 195z" />
    <glyph glyph-name="Umacron" unicode="&#x16a;" horiz-adv-x="1503" 
d="M684 1745h453q45 0 71.5 -20.5t26.5 -59.5q0 -38 -26 -60t-72 -22h-453q-45 0 -72.5 22t-27.5 60t27.5 59t72.5 21zM1032 487l150 803q12 72 51 110t98 38q71 0 106.5 -45.5t22.5 -126.5l-133 -758q-42 -244 -203 -389.5t-432 -145.5q-136 0 -244.5 38t-176 103.5
t-103 148.5t-35.5 177q0 50 6 97l133 753q12 72 51.5 110t98.5 38q71 0 106.5 -45.5t22.5 -126.5l-131 -758q-6 -42 -6 -59q0 -107 75.5 -174.5t206.5 -67.5q139 0 226 77.5t110 202.5z" />
    <glyph glyph-name="umacron" unicode="&#x16b;" horiz-adv-x="1247" 
d="M481 1405h453q45 0 71.5 -20.5t26.5 -59.5q0 -38 -26 -60t-72 -22h-453q-45 0 -72.5 22t-27.5 60t27.5 59t72.5 21zM801 449l88 487q21 129 137 129q69 0 105 -40t24 -112l-121 -673l-14 -127q-12 -121 -125 -121q-55 0 -88 32t-33 87v51q-18 -26 -42 -51t-66.5 -58
t-104.5 -53t-133 -20q-68 0 -127.5 18t-109 55t-78.5 103t-29 153q0 57 12 119l92 514q24 129 148 129q66 0 100.5 -40t22.5 -113l-84 -484q-6 -40 -6 -80q0 -85 45.5 -125.5t126.5 -40.5q101 0 169 66t91 195z" />
    <glyph glyph-name="Ubreve" unicode="&#x16c;" horiz-adv-x="1503" 
d="M1157 1835l-4 -2q39 0 55.5 -26t-0.5 -64q-74 -187 -299 -187q-222 0 -260 183q-8 40 9 67t63 27q50 0 63 -49q23 -90 136 -90q116 0 170 92q24 49 67 49zM1028 485l150 803q12 72 51 110t98 38q71 0 106.5 -45.5t22.5 -126.5l-133 -758q-42 -244 -203 -389.5
t-432 -145.5q-136 0 -244.5 38t-176 103.5t-103 148.5t-35.5 177q0 50 6 97l133 753q12 72 51.5 110t98.5 38q71 0 106.5 -45.5t22.5 -126.5l-131 -758q-6 -42 -6 -60q0 -107 75.5 -174t206.5 -67q139 0 226 77.5t110 202.5z" />
    <glyph glyph-name="ubreve" unicode="&#x16d;" horiz-adv-x="1247" 
d="M954 1495l-4 -2q39 0 56 -26t0 -64q-74 -186 -299 -186q-223 0 -261 182q-8 40 9 67t63 27q51 0 64 -49q23 -90 135 -90q116 0 170 92q24 49 67 49zM799 446l88 488q21 129 137 129q69 0 105 -40t24 -112l-121 -673l-14 -127q-12 -121 -125 -121q-55 0 -88 32t-33 87v51
q-14 -20 -30 -39t-48.5 -47t-68 -48t-88.5 -34.5t-111 -14.5q-68 0 -127.5 18t-109 55.5t-78.5 103.5t-29 153q0 57 12 119l92 514q24 129 148 129q66 0 100.5 -40.5t22.5 -113.5l-84 -483q-6 -40 -6 -80q0 -85 45.5 -125.5t126.5 -40.5q101 0 169 65.5t91 194.5z" />
    <glyph glyph-name="Uring" unicode="&#x16e;" horiz-adv-x="1503" 
d="M924 1913q88 0 144 -53.5t56 -139.5q0 -87 -56 -140.5t-144 -53.5q-87 0 -144 53.5t-57 140.5q0 85 57 139t144 54zM922 1812q-44 0 -66 -25.5t-22 -66.5t22.5 -67.5t65.5 -26.5q42 0 65 26.5t23 67.5q0 40 -23 66t-65 26zM1032 487l150 803q12 72 51 110t98 38
q71 0 106.5 -45.5t22.5 -126.5l-133 -758q-42 -244 -203 -389.5t-432 -145.5q-136 0 -244.5 38t-176 103.5t-103 148.5t-35.5 177q0 50 6 97l133 753q12 72 51.5 110t98.5 38q71 0 106.5 -45.5t22.5 -126.5l-131 -758q-6 -42 -6 -59q0 -107 75.5 -174.5t206.5 -67.5
q139 0 226 77.5t110 202.5z" />
    <glyph glyph-name="uring" unicode="&#x16f;" horiz-adv-x="1247" 
d="M721 1575q88 0 144.5 -53.5t56.5 -139.5q0 -87 -56 -140.5t-145 -53.5q-87 0 -144 53.5t-57 140.5q0 85 57 139t144 54zM719 1475q-44 0 -66 -26t-22 -67t22.5 -67.5t65.5 -26.5q42 0 65 26.5t23 67.5q0 40 -23 66.5t-65 26.5zM801 451l88 487q21 129 137 129
q69 0 105 -40t24 -112l-121 -673l-14 -127q-12 -121 -125 -121q-55 0 -88 32t-33 87v51q-18 -26 -42 -51t-66.5 -58t-104.5 -53t-133 -20q-68 0 -127.5 18t-109 55t-78.5 103t-29 153q0 57 12 119l92 514q24 129 148 129q66 0 100.5 -40t22.5 -113l-84 -484q-6 -40 -6 -80
q0 -85 45.5 -125.5t126.5 -40.5q101 0 169 66t91 195z" />
    <glyph glyph-name="Uhungarumlaut" unicode="&#x170;" horiz-adv-x="1503" 
d="M1016 1645l108 198q33 60 88 60q35 0 65 -24.5t30 -61.5q0 -34 -25 -70l-135 -176q-33 -41 -72 -41q-42 0 -62 32t3 83zM682 1645l109 198q33 60 88 60q35 0 64.5 -24t29.5 -62q0 -34 -25 -70l-135 -176q-33 -41 -72 -41q-42 0 -62 32t3 83zM1034 487l150 803
q12 72 51 110t98 38q71 0 106.5 -45.5t22.5 -126.5l-133 -758q-42 -244 -203 -389.5t-432 -145.5q-136 0 -244.5 38t-176 103.5t-103 148.5t-35.5 177q0 50 6 97l133 753q12 72 51.5 110t98.5 38q71 0 106.5 -45.5t22.5 -126.5l-131 -758q-6 -42 -6 -59q0 -107 75.5 -174.5
t206.5 -67.5q139 0 226 77.5t110 202.5z" />
    <glyph glyph-name="uhungarumlaut" unicode="&#x171;" horiz-adv-x="1247" 
d="M813 1305l109 198q33 60 88 60q35 0 64.5 -24t29.5 -62q0 -34 -25 -70l-135 -176q-33 -41 -72 -41q-42 0 -62 32t3 83zM479 1305l109 198q33 60 88 60q35 0 64.5 -24t29.5 -62q0 -34 -25 -70l-135 -176q-33 -41 -71 -41q-42 0 -62.5 32t2.5 83zM805 449l88 487
q21 129 137 129q69 0 105 -40t24 -112l-121 -673l-14 -127q-12 -121 -125 -121q-55 0 -88 32t-33 87v51q-18 -26 -42 -51t-66.5 -58t-104.5 -53t-133 -20q-68 0 -127.5 18t-109 55t-78.5 103t-29 153q0 57 12 119l93 514q24 129 147 129q66 0 100.5 -40t22.5 -113l-84 -484
q-6 -40 -6 -80q0 -85 45.5 -125.5t126.5 -40.5q101 0 169 66t91 195z" />
    <glyph glyph-name="Uogonek" unicode="&#x172;" horiz-adv-x="1525" 
d="M1042 487l152 805q12 72 51 110t98 38q71 0 107 -45.5t23 -126.5l-134 -758q-33 -195 -143.5 -329.5t-292.5 -182.5q-47 -30 -71.5 -76.5t-24.5 -87.5q0 -40 22.5 -61t55.5 -21q29 0 41 -6q22 -12 24 -41q3 -40 -47 -61q-36 -15 -84 -15q-81 0 -126.5 45.5t-45.5 118.5
q0 100 74 180h-19q-136 0 -244.5 38t-176 103.5t-103 148.5t-35.5 177q0 43 7 97l133 753q12 72 51 110t98 38q71 0 106.5 -45.5t22.5 -126.5l-131 -758q-6 -42 -6 -59q0 -107 76 -174.5t207 -67.5q139 0 225.5 77.5t109.5 202.5z" />
    <glyph glyph-name="uogonek" unicode="&#x173;" horiz-adv-x="1253" 
d="M811 449l92 485q21 129 137 129q69 0 105 -40t24 -112l-120 -673l-15 -127q-12 -103 -94 -119q-46 -30 -70 -75t-24 -85t22.5 -61t55.5 -21q29 0 41 -6q22 -12 24 -41q3 -40 -47 -61q-36 -15 -84 -15q-81 0 -126.5 45.5t-45.5 118.5q0 69 35 129t98 103q-35 30 -35 88v51
q-18 -26 -42 -51t-66.5 -58t-104.5 -53t-133 -20q-68 0 -127.5 18t-109 55t-78.5 103t-29 153q0 57 12 119l93 514q24 129 147 129q66 0 100.5 -40t22.5 -113l-84 -484q-6 -40 -6 -80q0 -85 45.5 -125.5t126.5 -40.5q101 0 169 66t91 195z" />
    <glyph glyph-name="Wcircumflex" unicode="&#x174;" horiz-adv-x="2095" 
d="M936 1653l188 121q56 41 113 41q55 0 102 -41l129 -113q35 -32 35 -68q0 -24 -18.5 -42.5t-46.5 -18.5q-32 0 -76 33l-131 96l-180 -98q-58 -31 -84 -31q-25 0 -46.5 14.5t-21.5 46.5q0 37 37 60zM1444 340l436 991q47 103 135 103q56 0 95.5 -29t39.5 -80q0 -48 -20 -88
l-498 -1079q-39 -84 -94 -126t-135 -42q-88 0 -142.5 52t-60.5 153l-67 837l-388 -874q-71 -168 -233 -168q-87 0 -141 51.5t-66 153.5l-119 1040q-6 34 -6 72q0 57 40.5 94t103.5 37q123 0 137 -152l96 -946h4l408 942q63 156 217 156q170 0 182 -197l72 -901h4z" />
    <glyph glyph-name="wcircumflex" unicode="&#x175;" horiz-adv-x="1792" 
d="M698 1335l162 133q35 28 63 42t62 14q29 0 53 -11t37 -23t33 -34l111 -127q20 -24 20 -53q0 -31 -22 -51.5t-54 -20.5q-38 0 -73 41l-111 121l-172 -131q-45 -33 -72 -33q-30 0 -50.5 18.5t-20.5 45.5q0 44 34 69zM207 166l-113 719q-4 40 -4 67q0 55 38 90t93 35
q56 0 90 -32t41 -93l90 -647h9l303 643q31 69 76.5 98t113.5 29q155 0 172 -157l70 -615h8l311 670q45 102 137 102q50 0 84.5 -28t34.5 -76q0 -45 -26 -105l-369 -735q-35 -73 -88 -104t-127 -31q-81 0 -135.5 43t-63.5 127l-59 559h-2l-279 -592q-63 -137 -215 -137
q-167 0 -190 170z" />
    <glyph glyph-name="Ycircumflex" unicode="&#x176;" horiz-adv-x="1265" 
d="M492 1649l188 120q56 41 113 41q55 0 102 -41l129 -112q35 -32 35 -68q0 -24 -19 -42.5t-47 -18.5q-31 0 -75 33l-132 96l-180 -98q-58 -31 -84 -31q-25 0 -46 14.5t-21 46.5q0 37 37 60zM657 813l406 545q60 80 131 80q53 0 89 -30.5t36 -80.5q0 -48 -43 -106l-506 -646
l-76 -434q-13 -73 -53 -111t-98 -38q-71 0 -106.5 46t-22.5 128l69 409l-274 646q-21 54 -21 100q0 51 38 84t98 33q46 0 73 -23t49 -80l207 -522h4z" />
    <glyph glyph-name="ycircumflex" unicode="&#x177;" horiz-adv-x="1148" 
d="M379 1335l162 133q35 28 63 42t62 14q29 0 53 -11t36.5 -22.5t32.5 -34.5l111 -127q21 -25 21 -53q0 -31 -22 -51.5t-54 -20.5q-39 0 -74 41l-111 121l-172 -131q-45 -33 -71 -33q-30 0 -51 18.5t-21 45.5q0 43 35 69zM504 258l370 721q26 51 57 72.5t77 21.5
q57 0 91 -31.5t34 -80.5q0 -41 -25 -89l-530 -938q-84 -146 -179.5 -216t-220.5 -70q-103 0 -162 20q-88 34 -88 109q0 42 28 69t69 23q19 -1 59 -10t66 -9q43 0 73 22.5t62 74.5l24 45l-200 911q-7 25 -7 43q0 59 35.5 93t98.5 34q103 0 126 -127l138 -688h4z" />
    <glyph glyph-name="Ydieresis" unicode="&#x178;" horiz-adv-x="1265" 
d="M553 1804v-2q52 0 86.5 -29t30.5 -85q-5 -61 -37 -94t-90 -33q-60 0 -94.5 29.5t-30.5 88.5q4 61 39.5 93t95.5 32zM1022 1802v-2q52 0 86.5 -29t30.5 -85q-5 -61 -37 -94t-90 -33q-60 0 -94.5 29.5t-30.5 88.5q4 61 39.5 93t95.5 32zM657 811l406 545q60 80 131 80
q53 0 89 -30.5t36 -80.5q0 -48 -43 -106l-506 -646l-76 -434q-13 -73 -53 -111t-98 -38q-71 0 -106.5 46t-22.5 128l69 409l-274 646q-21 54 -21 100q0 51 38 84t98 33q46 0 73 -23t49 -80l207 -522h4z" />
    <glyph glyph-name="Zacute" unicode="&#x179;" horiz-adv-x="1339" 
d="M719 1669l131 152q33 38 58.5 54t56.5 15q35 -2 60.5 -23.5t25.5 -56.5q0 -32 -15 -53.5t-57 -52.5l-152 -121q-51 -39 -79 -39q-27 0 -44.5 15.5t-17.5 37.5q0 36 33 72zM367 1440l856 2q65 0 98 -31t33 -84q0 -26 -13 -53t-26 -43t-39 -45l-864 -957v-4l374 8h250
q66 0 100.5 -28.5t34.5 -79.5q0 -53 -35 -85t-100 -32h-911q-61 0 -92 30.5t-31 78.5q0 10 1 19.5t4.5 19t5.5 16t8.5 16.5t8.5 14t11.5 15t11 13t13 14.5t12.5 13.5l870 961l-2 4l-356 -9h-223q-66 0 -101 32t-35 85q0 51 35 80t101 29z" />
    <glyph glyph-name="zacute" unicode="&#x17a;" horiz-adv-x="1105" 
d="M537 1305l108 198q32 60 88 60q36 0 66 -24.5t30 -63.5q0 -37 -26 -70l-135 -174q-33 -41 -72 -41q-42 0 -62 32t3 83zM264 1065l680 2q67 0 100 -32t33 -87q0 -44 -22.5 -79.5t-69.5 -77.5l-620 -590v-8l280 8h193q57 0 87.5 -27.5t30.5 -71.5q0 -46 -29.5 -74
t-86.5 -28h-709q-135 0 -135 121q0 41 22.5 74.5t65.5 72.5l627 596v8l-277 -8h-172q-56 0 -85.5 28.5t-29.5 74.5q0 44 30 71t87 27z" />
    <glyph glyph-name="Zdotaccent" unicode="&#x17b;" horiz-adv-x="1339" 
d="M846 1831h-4q68 0 106 -33t37 -96q0 -9 -2 -23q-11 -129 -152 -129q-64 0 -103 31.5t-36 93.5l4 25q4 66 44.5 98.5t105.5 32.5zM360 1434l859 2q65 0 98 -31t33 -84q0 -26 -14 -53.5t-26 -42t-40 -45.5l-864 -957v-4l374 8h250q66 0 100.5 -28.5t34.5 -79.5
q0 -53 -35 -85t-100 -32h-911q-61 0 -92 30.5t-31 78.5q0 10 1 19.5t4.5 19t5.5 16t8.5 16.5t8.5 14t11.5 15t11 13t13 14.5t12.5 13.5l870 960l-2 5l-356 -9h-224q-65 0 -100 32t-35 85q0 51 34.5 80t100.5 29z" />
    <glyph glyph-name="zdotaccent" unicode="&#x17c;" horiz-adv-x="1105" 
d="M664 1493h-2q68 0 106 -33t37 -96q0 -9 -2 -23q-11 -129 -154 -129q-64 0 -103 31.5t-36 93.5l4 25q4 66 44.5 98.5t105.5 32.5zM262 1065l680 2q67 0 100 -32t33 -87q0 -44 -22.5 -79.5t-69.5 -77.5l-621 -590v-8l281 8h193q57 0 87.5 -27.5t30.5 -71.5q0 -46 -29.5 -74
t-86.5 -28h-709q-135 0 -135 121q0 41 22.5 74.5t65.5 72.5l627 596v8l-277 -8h-172q-56 0 -85.5 28.5t-29.5 74.5q0 44 30 71t87 27z" />
    <glyph glyph-name="Zcaron" unicode="&#x17d;" horiz-adv-x="1339" 
d="M813 1686l184 92q56 30 78 30q27 0 46.5 -14t19.5 -39q0 -40 -39 -65l-182 -121q-56 -39 -115 -39q-54 0 -100 39l-144 119q-26 23 -26 59q0 31 20 47t45 16q28 0 74 -30zM369 1430l856 2q65 0 98 -31t33 -84q0 -26 -13 -53t-26 -43t-39 -45l-864 -957v-4l374 8h250
q66 0 101 -28.5t35 -79.5q0 -53 -35 -85t-101 -32h-911q-61 0 -92 30.5t-31 77.5q0 28 11 53.5t22 39t35 40.5q3 3 4.5 5t3.5 4l870 960l-2 4l-356 -8h-223q-66 0 -101 32t-35 85q0 51 35 80t101 29z" />
    <glyph glyph-name="zcaron" unicode="&#x17e;" horiz-adv-x="1105" 
d="M653 1362l174 117q56 34 84 34q29 0 47.5 -15t18.5 -42q0 -33 -37 -63l-182 -150q-48 -41 -117 -41q-36 0 -59.5 9.5t-44.5 35.5l-123 146q-23 30 -23 55q0 30 19.5 47.5t46.5 17.5q30 0 71 -36zM260 1067l680 2q67 0 100 -32t33 -87q0 -44 -22.5 -79.5t-69.5 -77.5
l-621 -590v-8l281 8h193q57 0 87.5 -27.5t30.5 -71.5q0 -46 -29.5 -74t-86.5 -28h-709q-135 0 -135 121q0 41 22.5 74.5t65.5 72.5l627 596v8l-277 -8h-172q-56 0 -85.5 28.5t-29.5 74.5q0 44 30 71t87 27z" />
    <glyph glyph-name="AEacute" unicode="&#x1fc;" horiz-adv-x="2093" 
d="M1305 1667l131 152q33 38 58 54t56 15q35 -2 60.5 -23.5t25.5 -56.5q0 -32 -14.5 -53.5t-56.5 -52.5l-152 -121q-51 -39 -80 -39q-27 0 -44 15.5t-17 37.5q0 36 33 72zM895 1442l1077 8q61 0 95 -32t34 -81t-34 -81.5t-95 -32.5h-647l-70 -396h500q61 0 95 -31.5
t34 -80.5t-34 -82t-95 -33h-538l-60 -360h623q61 0 95 -32t34 -81t-34 -82t-95 -33h-799q-72 0 -105.5 39.5t-21.5 110.5l37 213h-455l-168 -271q-32 -52 -66 -75t-85 -23q-54 0 -92.5 34t-38.5 85q0 54 49 127l694 1098q31 49 69 70.5t97 21.5zM940 1219l-381 -627h371
l110 627h-100z" />
    <glyph glyph-name="aeacute" unicode="&#x1fd;" horiz-adv-x="1849" 
d="M946 1282l109 199q32 59 88 59q36 0 66 -24.5t30 -63.5q0 -35 -27 -70l-135 -174q-33 -41 -71 -41q-42 0 -62.5 32t2.5 83zM1696 449l-703 -3q0 -140 91.5 -207t242.5 -67q83 2 184 39q57 22 88 22q39 0 59.5 -27.5t20.5 -66.5q0 -63 -77 -94q-148 -61 -322 -61
q-142 0 -257.5 45t-188.5 135q-160 -182 -422 -182q-80 0 -150 18t-128.5 55.5t-92 102t-33.5 149.5q0 97 42 168t115.5 110.5t161 58t191.5 18.5q81 0 227 -15q7 55 39 107q-4 76 -60.5 103.5t-156.5 27.5q-36 0 -73 -3t-59 -5.5t-59 -8.5t-52 -8q-140 -15 -140 90
q0 49 28 72t81 33q154 32 332 32q116 0 192 -30t135 -90q155 120 371 120q209 0 344.5 -124t126.5 -320q-4 -74 -16 -123q-17 -71 -82 -71zM1016 618l547 3q0 1 1 12.5t1 23.5q2 94 -59 162t-175 68t-203.5 -71t-111.5 -198zM463 174h2q85 0 160.5 39t128.5 109
q-34 74 -25 170q-108 12 -170 12q-278 0 -278 -176q0 -68 50.5 -111t131.5 -43z" />
    <glyph glyph-name="Oslashacute" unicode="&#x1fe;" horiz-adv-x="1693" 
d="M1139 1698l-150 -113q-51 -39 -80 -39q-27 0 -44 15.5t-17 37.5q0 36 33 72l129 144q33 38 58 54t56 15q35 -2 60.5 -23.5t25.5 -56.5q0 -32 -14.5 -53.5t-56.5 -52.5zM1511 1354l-57 -74q201 -192 201 -508q0 -164 -58.5 -309t-162.5 -252t-258 -169t-336 -62
q-222 0 -387 92l-70 -84q-27 -33 -47.5 -45.5t-44.5 -12.5q-34 0 -56 20.5t-22 51.5q0 37 35 80l74 90q-191 188 -191 498q0 168 59.5 315t164.5 252.5t256.5 166t328.5 60.5q212 0 375 -86l55 68q49 57 94 57q35 0 58.5 -20t23.5 -51q0 -38 -35 -78zM504 391l651 787
q-92 53 -215 53q-142 0 -257 -70t-182 -198t-67 -291q0 -166 70 -281zM1276 1063l-655 -791q94 -61 227 -61q217 0 362.5 156.5t145.5 400.5q0 173 -80 295z" />
    <glyph glyph-name="oslashacute" unicode="&#x1ff;" horiz-adv-x="1286" 
d="M913 1407l-133 -174q-33 -41 -71 -41q-42 0 -62.5 32t2.5 83l107 198q32 60 88 60q36 0 66 -24.5t30 -63.5q0 -35 -27 -70zM1104 1016l-43 -53q174 -142 174 -398q0 -255 -173 -421.5t-448 -166.5q-178 0 -305 76l-63 -76q-23 -28 -38.5 -39.5t-35.5 -11.5
q-22 0 -39 15.5t-19 42t25 61.5l72 86q-135 138 -135 365q0 171 79 304.5t220 207t319 73.5q146 0 260 -51l39 49q24 28 41 41t37 13q40 0 55 -33.5t-22 -83.5zM379 336l426 512q-55 24 -123 24q-142 0 -240 -103.5t-98 -264.5q0 -96 35 -168zM903 770l-438 -532
q73 -54 170 -54q147 0 241.5 109t94.5 266q0 127 -68 211z" />
    <glyph glyph-name="Scommaaccent" unicode="&#x218;" horiz-adv-x="1290" 
d="M756 1458l4 -10q235 0 399 -82q88 -38 88 -117q0 -41 -26.5 -74.5t-83.5 -33.5q-27 0 -99 30q-126 60 -266 60q-78 0 -134 -15t-84.5 -42t-41 -56.5t-12.5 -64.5q0 -33 11 -59.5t29 -46t53 -39t70 -34.5t93 -36q156 -58 217 -92q164 -93 196 -250q9 -43 9 -90
q0 -109 -44 -193.5t-122 -136.5t-179 -78.5t-221 -26.5q-254 0 -460 107q-95 48 -95 127q0 48 30 80t81 32q38 0 88 -24q169 -94 340 -94q133 0 209 47t76 131q0 34 -14.5 61.5t-36.5 47t-61.5 39t-73.5 32.5t-90 33q-26 9 -40 14q-63 23 -107 43.5t-95.5 56.5t-83 77.5
t-53 104.5t-21.5 140q0 111 41 195t115.5 135t173.5 76.5t221 25.5zM553 -182h2q59 0 91 -40t30 -97q-1 -74 -54 -148.5t-116 -103.5q-23 -13 -41 -13q-15 0 -26 10.5t-11 28.5q0 25 37 49q45 37 45 76q1 17 -7 29t-19 21t-22 19t-17.5 27t-4.5 41q3 47 34 74t79 27z" />
    <glyph glyph-name="scommaaccent" unicode="&#x219;" horiz-adv-x="1005" 
d="M547 1085l-4 2q89 0 174.5 -19t142.5 -48q77 -38 72 -105q-4 -36 -27.5 -63.5t-68.5 -26.5q-25 0 -68 19q-103 49 -199 49q-178 -2 -178 -119q0 -29 10.5 -50.5t38 -38.5t46 -25t63.5 -25q8 -3 25 -9q40 -14 60 -22t55.5 -23t54.5 -27t46 -31t41.5 -39t29.5 -46t21.5 -58
t6.5 -69q0 -86 -36.5 -151t-100.5 -103.5t-144 -57.5t-174 -19q-95 -1 -190.5 19.5t-163.5 57.5q-79 42 -74 107q2 39 26 66t72 24q26 0 84 -27q125 -53 240 -53q182 3 182 115q0 19 -5 34.5t-18 28.5t-24 22t-36.5 20.5t-41 17.5t-51 19t-53.5 20q-61 23 -103 46
t-81.5 57.5t-59 84t-20.5 113.5q-1 87 34.5 152.5t97 103.5t136.5 57t162 20zM397 -170h2q59 0 91 -40t30 -97q-1 -74 -54 -148.5t-116 -103.5q-21 -12 -41 -12q-15 0 -26 10.5t-11 28.5q0 25 37 49q45 37 45 75q1 20 -11 35.5t-26 24.5t-24.5 29t-7.5 49q3 47 33.5 73.5
t78.5 26.5z" />
    <glyph glyph-name="uni021A" unicode="&#x21a;" horiz-adv-x="1337" 
d="M303 1434h967q66 0 101.5 -29t35.5 -80q0 -53 -35.5 -85t-101.5 -32h-357l-188 -1065q-13 -74 -52.5 -111.5t-97.5 -37.5q-71 0 -106.5 46t-22.5 128l183 1040h-326q-66 0 -100.5 31t-34.5 84q0 51 34.5 81t100.5 30zM528 -172h2q59 0 91 -40t30 -97q-1 -74 -54 -148.5
t-116 -103.5q-21 -12 -41 -12q-15 0 -26 10t-11 28q0 26 37 50q45 37 45 75q1 20 -11 35.5t-26 24.5t-24.5 29t-7.5 49q3 47 33.5 73.5t78.5 26.5z" />
    <glyph glyph-name="uni021B" unicode="&#x21b;" horiz-adv-x="817" 
d="M264 1065l66 211q35 102 131 102q58 0 87 -35t19 -98l-30 -180h165q53 0 80 -25.5t27 -66.5q0 -44 -27 -71.5t-80 -27.5h-198l-94 -532q-7 -32 -7 -57q0 -95 95 -95q17 0 44 4t33 5q44 3 68.5 -24t22.5 -71q-4 -71 -93 -100q-64 -20 -147 -20q-299 0 -299 262
q0 44 10 102l94 531h-41q-48 0 -72 22.5t-24 59.5q0 40 22 61.5t68 30.5zM295 -172h2q59 0 91 -40t30 -97q-1 -74 -54 -148.5t-116 -103.5q-21 -12 -41 -12q-15 0 -26 10t-11 28q0 26 37 50q45 37 45 75q1 20 -11 35.5t-26.5 24.5t-25 29t-7.5 49q3 47 34 73.5t79 26.5z" />
    <glyph glyph-name="dotlessj" unicode="&#x237;" horiz-adv-x="616" 
d="M240 1065h151q72 0 105.5 -39.5t21.5 -110.5l-166 -944q-26 -155 -109 -240t-241 -85q-90 0 -139 28q-58 38 -58 101q0 30 15.5 53.5t42.5 32.5q30 12 94 6q53 -2 84.5 27.5t44.5 101.5l147 831l-36 15q-86 42 -86 112q0 49 33 80t96 31z" />
    <glyph glyph-name="circumflex" unicode="&#x2c6;" horiz-adv-x="851" 
d="M188 1354l162 133q68 55 125 55q41 0 67.5 -17t55.5 -50l111 -127q20 -24 20 -54q0 -31 -22 -51t-54 -20q-38 0 -73 41l-111 120l-172 -131q-43 -32 -72 -32q-30 0 -50.5 18.5t-20.5 44.5q0 45 34 70z" />
    <glyph glyph-name="caron" unicode="&#x2c7;" horiz-adv-x="784" 
d="M420 1378l174 117q58 35 84 35q29 0 47 -15t18 -42q0 -35 -36 -64l-183 -149q-48 -41 -116 -41t-105 45l-123 145q-22 28 -22 55q0 30 19 48t46 18q29 0 72 -37z" />
    <glyph glyph-name="breve" unicode="&#x2d8;" horiz-adv-x="790" 
d="M772 1456l-4 -2q39 0 55.5 -26t-0.5 -64q-74 -186 -299 -186q-222 0 -260 182q-8 40 9 67t63 27q50 0 63 -49q23 -90 136 -90q116 0 170 92q24 49 67 49z" />
    <glyph glyph-name="dotaccent" unicode="&#x2d9;" horiz-adv-x="501" 
d="M401 1485h-4q68 0 106.5 -33t37.5 -96q0 -9 -2 -23q-11 -129 -152 -129q-64 0 -103 31.5t-36 93.5l4 25q4 66 44 98.5t105 32.5z" />
    <glyph glyph-name="ring" unicode="&#x2da;" horiz-adv-x="585" 
d="M442 1567q88 0 144.5 -53.5t56.5 -139.5q0 -87 -56 -140.5t-145 -53.5q-87 0 -143.5 53.5t-56.5 140.5q0 86 56.5 139.5t143.5 53.5zM440 1466q-44 0 -66 -25.5t-22 -66.5t22.5 -67.5t65.5 -26.5q42 0 65 26.5t23 67.5q0 40 -23 66t-65 26z" />
    <glyph glyph-name="ogonek" unicode="&#x2db;" horiz-adv-x="624" 
d="M365 106l10 -77q-66 -32 -101.5 -93.5t-35.5 -113.5q0 -28 14.5 -47t38.5 -19q7 0 19.5 1t19.5 1q20 0 35 -11.5t16 -35.5q0 -39 -49 -61q-41 -17 -88 -17q-78 0 -121 44.5t-43 111.5q0 108 81 196t204 121z" />
    <glyph glyph-name="tilde" unicode="&#x2dc;" horiz-adv-x="1003" 
d="M455 1436h6q57 0 132 -41t118 -41q45 0 86 32q28 19 47 19t32 -12t13 -35q0 -24 -20 -52.5t-52 -52.5q-77 -61 -176 -61q-50 0 -92.5 20.5t-80 41t-73.5 20.5q-44 0 -94 -37q-21 -18 -43 -18q-49 0 -49 49q0 53 94 118q74 50 152 50z" />
    <glyph glyph-name="hungarumlaut" unicode="&#x2dd;" horiz-adv-x="1003" 
d="M569 1296l109 199q33 59 88 59q35 0 64.5 -24t29.5 -62q0 -34 -24 -69l-136 -176q-33 -41 -71 -41q-42 0 -62.5 31.5t2.5 82.5zM236 1296l108 199q33 59 88 59q35 0 64.5 -24t29.5 -62q0 -34 -24 -69l-135 -176q-33 -41 -72 -41q-42 0 -62 31.5t3 82.5z" />
    <glyph glyph-name="Wgrave" unicode="&#x1e80;" horiz-adv-x="2095" 
d="M1184 1583l-111 119q-41 41 -41 76q0 51 31 77.5t76 28.5q30 1 52 -14.5t44 -54.5l84 -146q12 -19 12 -47q0 -33 -23.5 -54.5t-54.5 -21.5q-32 0 -69 37zM1446 340l436 991q47 103 135 103q56 0 95.5 -29t39.5 -80q0 -48 -20 -88l-498 -1079q-39 -84 -94 -126t-135 -42
q-88 0 -142.5 52t-60.5 153l-67 837l-387 -874q-71 -168 -234 -168q-87 0 -141 51.5t-66 153.5l-119 1040q-6 34 -6 72q0 57 40.5 94t103.5 37q123 0 137 -152l96 -946h4l408 942q63 156 217 156q170 0 182 -197l72 -901h4z" />
    <glyph glyph-name="wgrave" unicode="&#x1e81;" horiz-adv-x="1792" 
d="M862 1253l-71 172q-11 25 -11 52q0 41 30.5 64.5t68.5 23.5q32 0 55.5 -20t32.5 -60l39 -187q11 -53 -10 -80.5t-60 -27.5q-49 0 -74 63zM205 164l-113 719q-4 40 -4 67q0 55 38 90t93 35q56 0 90 -32t41 -93l90 -647h9l303 643q31 69 76.5 98t113.5 29q74 0 118.5 -39
t53.5 -119l70 -614h8l311 670q45 102 137 102q50 0 84.5 -28t34.5 -76q0 -45 -26 -105l-369 -735q-35 -73 -88 -104t-127 -31q-81 0 -135.5 43t-63.5 127l-59 559h-2l-279 -592q-63 -137 -215 -137q-167 0 -190 170z" />
    <glyph glyph-name="Wacute" unicode="&#x1e82;" horiz-adv-x="2095" 
d="M1122 1673l131 152q33 38 58.5 54t56.5 15q35 -2 60.5 -23t25.5 -56q0 -32 -15 -54t-57 -53l-151 -121q-51 -39 -80 -39q-27 0 -44 16t-17 38q0 36 32 71zM1444 350l436 991q47 103 135 103q56 0 95.5 -29t39.5 -80q0 -48 -20 -88l-498 -1079q-39 -84 -94 -126t-135 -42
q-88 0 -142.5 52t-60.5 153l-67 837l-388 -874q-71 -168 -233 -168q-87 0 -141 51.5t-66 153.5l-119 1040q-6 34 -6 72q0 57 40.5 94t103.5 37q123 0 137 -152l96 -946h4l408 942q63 156 217 156q170 0 182 -197l72 -901h4z" />
    <glyph glyph-name="wacute" unicode="&#x1e83;" horiz-adv-x="1792" 
d="M870 1305l109 198q32 60 88 60q36 0 66 -24.5t30 -63.5q0 -37 -26 -70l-136 -174q-33 -41 -71 -41q-42 0 -62.5 32t2.5 83zM209 164l-113 719q-4 40 -4 67q0 55 38 90t93 35q56 0 90 -32t41 -93l90 -647h9l303 643q31 69 76.5 98t113.5 29q74 0 118.5 -39t53.5 -119
l70 -614h8l311 670q45 102 138 102q49 0 83.5 -28t34.5 -76q0 -45 -26 -105l-369 -735q-35 -73 -88 -104t-127 -31q-81 0 -135.5 43t-63.5 127l-59 559h-2l-279 -592q-63 -137 -215 -137q-167 0 -190 170z" />
    <glyph glyph-name="Wdieresis" unicode="&#x1e84;" horiz-adv-x="2095" 
d="M995 1808v-2q52 0 86.5 -29t30.5 -85q-5 -61 -37 -94t-90 -33q-60 0 -94.5 29.5t-30.5 88.5q4 61 39.5 93t95.5 32zM1464 1806v-2q52 0 86.5 -29t30.5 -85q-5 -61 -37 -94t-90 -33q-60 0 -94.5 29.5t-30.5 88.5q4 61 39.5 93t95.5 32zM1442 340l436 991q47 103 135 103
q56 0 95.5 -29t39.5 -80q0 -48 -20 -88l-498 -1079q-39 -84 -94 -126t-135 -42q-88 0 -142.5 52t-60.5 153l-68 837l-387 -874q-71 -168 -233 -168q-87 0 -141 51.5t-66 153.5l-119 1040q-6 34 -6 72q0 57 40.5 94t103.5 37q123 0 137 -152l96 -946h4l408 942
q63 156 217 156q170 0 182 -197l72 -901h4z" />
    <glyph glyph-name="wdieresis" unicode="&#x1e85;" horiz-adv-x="1792" 
d="M739 1464v-2q52 0 86.5 -29t30.5 -85q-5 -61 -37 -94t-90 -33q-60 0 -94.5 29.5t-30.5 88.5q4 61 39.5 93t95.5 32zM1208 1462v-2q52 0 86.5 -29t30.5 -85q-5 -61 -37 -94t-90 -33q-60 0 -94.5 29.5t-30.5 88.5q4 61 39.5 93t95.5 32zM207 158l-113 719q-4 40 -4 67
q0 55 38 90t93 35q56 0 90 -32t41 -93l90 -647h9l303 643q31 69 76.5 98t113.5 29q74 0 118.5 -39t53.5 -119l70 -614h8l311 670q45 102 137 102q50 0 84.5 -28t34.5 -76q0 -45 -26 -105l-369 -735q-35 -73 -88 -104t-127 -31q-81 0 -135.5 43t-63.5 127l-59 559h-2
l-279 -592q-63 -137 -215 -137q-167 0 -190 170z" />
    <glyph glyph-name="germandbls.case" unicode="&#x1e9e;" horiz-adv-x="1505" 
d="M98 166l123 754q44 250 207 397t416 147q146 0 279 -50.5t227 -141.5q89 -86 2 -195l-222 -264q129 -41 200 -139.5t71 -237.5q0 -217 -143.5 -344t-409.5 -127q-133 0 -219 35q-84 35 -84 113q0 53 31 78.5t69 25.5q31 0 64 -10q63 -19 131 -19q144 0 226.5 65.5
t82.5 184.5q0 167 -156 209q-51 14 -78 29t-38 45q-22 61 28 123l232 282q-109 105 -293 105q-73 0 -133 -25t-100.5 -69.5t-66.5 -99.5t-38 -119l-139 -785q-25 -139 -142 -139q-71 0 -106.5 44t-20.5 128z" />
    <glyph glyph-name="Ygrave" unicode="&#x1ef2;" horiz-adv-x="1265" 
d="M762 1579l-111 119q-41 41 -41 76q0 51 31 77.5t76 28.5q30 1 52 -15t44 -55l84 -145q12 -19 12 -47q0 -33 -23.5 -54.5t-54.5 -21.5q-32 0 -69 37zM659 813l406 545q60 80 131 80q53 0 89 -30.5t36 -80.5q0 -48 -43 -106l-506 -646l-76 -434q-13 -73 -53 -111t-98 -38
q-71 0 -106.5 46t-22.5 128l69 409l-274 646q-21 54 -21 100q0 51 38 84t98 33q47 0 74 -23.5t49 -79.5l206 -522h4z" />
    <glyph glyph-name="ygrave" unicode="&#x1ef3;" horiz-adv-x="1148" 
d="M543 1253l-72 172q-10 23 -10 52q0 41 30 64.5t68 23.5q32 0 55.5 -20t32.5 -60l39 -187q11 -53 -10 -80.5t-60 -27.5q-48 0 -73 63zM502 256l370 721q26 51 57 72.5t77 21.5q57 0 90.5 -32t33.5 -81q0 -42 -24 -88l-531 -938q-84 -146 -179 -216t-220 -70
q-103 0 -162 20q-88 34 -88 109q0 42 28 69t69 23q19 -1 58.5 -10t65.5 -9q43 0 74 22.5t62 74.5l24 45l-201 911q-6 21 -6 43q0 59 35 93t98 34q104 0 127 -127l138 -688h4z" />
    <glyph glyph-name="endash" unicode="&#x2013;" horiz-adv-x="1472" 
d="M264 629h981q54 0 82.5 -23.5t28.5 -64.5q0 -43 -29.5 -67.5t-81.5 -24.5h-981q-54 0 -82 24t-28 68q0 41 28 64.5t82 23.5z" />
    <glyph glyph-name="emdash" unicode="&#x2014;" horiz-adv-x="1873" 
d="M272 629h1377q54 0 82 -23.5t28 -64.5q0 -43 -29 -67.5t-81 -24.5h-1377q-54 0 -82 24t-28 68q0 41 28 64.5t82 23.5z" />
    <glyph glyph-name="quoteleft" unicode="&#x2018;" horiz-adv-x="552" 
d="M485 1419v-2q26 0 40 -15t14 -34q0 -28 -39 -53q-104 -70 -125 -150l3 2q4 2 7.5 4t9 4t13 3.5t16.5 1.5q48 0 76 -35.5t28 -87.5q0 -68 -49.5 -109t-118.5 -41q-70 0 -112.5 51.5t-42.5 122.5q0 103 66 185.5t171 138.5q24 14 43 14z" />
    <glyph glyph-name="quoteright" unicode="&#x2019;" horiz-adv-x="544" 
d="M385 1434v2q71 0 113.5 -51.5t42.5 -122.5q0 -103 -66.5 -185.5t-171.5 -138.5q-25 -14 -43 -14q-26 0 -39.5 15t-13.5 34q0 28 39 53q104 70 125 150l-3 -2q-4 -2 -7.5 -4t-9 -4t-13 -3.5t-16.5 -1.5q-48 0 -76.5 35.5t-28.5 87.5q0 68 49.5 109t118.5 41z" />
    <glyph glyph-name="quotesinglbase" unicode="&#x201a;" horiz-adv-x="581" 
d="M213 268q71 0 113.5 -51.5t42.5 -122.5q0 -102 -66.5 -183.5t-171.5 -137.5q-30 -17 -43 -17q-26 0 -39.5 15t-13.5 34q0 29 39 54q104 70 125 151q-28 -14 -49 -14q-48 0 -76.5 35.5t-28.5 87.5q0 68 49.5 108.5t118.5 40.5z" />
    <glyph glyph-name="quotedblleft" unicode="&#x201c;" horiz-adv-x="989" 
d="M489 1419l-2 -2q25 0 38.5 -14.5t13.5 -34.5q0 -30 -39 -55q-104 -66 -125 -150l3 2q4 2 7.5 4t9 4t13 3.5t16.5 1.5q48 0 76 -35.5t28 -87.5q0 -68 -49.5 -109t-118.5 -41q-70 0 -112.5 51.5t-42.5 122.5q0 191 237 324q26 16 47 16zM926 1417l-2 -2q25 0 38 -14.5
t13 -34.5q0 -30 -39 -55q-104 -66 -125 -150l3 2q4 2 7.5 4t9 4t13 3.5t16.5 1.5q48 0 76.5 -35.5t28.5 -87.5q0 -68 -49.5 -109t-118.5 -41q-71 0 -113.5 51.5t-42.5 122.5q0 190 238 324q26 16 47 16z" />
    <glyph glyph-name="quotedblright" unicode="&#x201d;" horiz-adv-x="983" 
d="M383 1434l2 4q71 0 113.5 -51.5t42.5 -122.5q0 -190 -238 -324q-26 -16 -47 -16q-25 0 -38 14.5t-13 34.5q0 31 39 53q104 66 125 150l-3 -2q-4 -2 -7.5 -4t-9.5 -4t-13.5 -3.5t-16.5 -1.5q-48 0 -76 35.5t-28 87.5q0 68 49.5 109t118.5 41zM823 1438l4 4
q71 0 113.5 -51.5t42.5 -122.5q0 -190 -238 -324q-26 -16 -47 -16q-25 0 -38 14.5t-13 34.5q0 32 37 53q104 66 125 150l-3 -2q-4 -2 -7.5 -4t-9 -4t-13 -3.5t-16.5 -1.5q-48 0 -76.5 35.5t-28.5 87.5q0 68 49.5 109t118.5 41z" />
    <glyph glyph-name="quotedblbase" unicode="&#x201e;" horiz-adv-x="1017" 
d="M213 268q71 0 113.5 -51.5t42.5 -122.5q0 -102 -66.5 -183.5t-171.5 -137.5q-30 -17 -43 -17q-26 0 -39.5 15t-13.5 34q0 29 39 54q104 70 125 151q-28 -14 -49 -14q-48 0 -76.5 35.5t-28.5 87.5q0 68 49.5 108.5t118.5 40.5zM651 268q71 0 113.5 -51.5t42.5 -122.5
q0 -102 -66.5 -183.5t-171.5 -137.5q-30 -17 -43 -17q-26 0 -39.5 15t-13.5 34q0 29 39 54q104 70 125 151q-28 -14 -49 -14q-48 0 -76.5 35.5t-28.5 87.5q0 68 49.5 108.5t118.5 40.5z" />
    <glyph glyph-name="dagger" unicode="&#x2020;" horiz-adv-x="950" 
d="M698 1280l170 20q50 6 77.5 -17t27.5 -64q0 -47 -35.5 -73t-97.5 -20l-176 17l-64 -488q-7 -57 -39 -83.5t-76 -26.5q-49 0 -77.5 31.5t-16.5 82.5l111 480l-180 -13q-49 -3 -77 20.5t-28 65.5q0 45 32.5 70.5t96.5 17.5l172 -20l8 150q1 65 36.5 100t84.5 35
q56 0 84.5 -41t7.5 -105z" />
    <glyph glyph-name="daggerdbl" unicode="&#x2021;" horiz-adv-x="954" 
d="M518 1280l12 152q1 65 36.5 100t84.5 35q55 0 84 -41t8 -103l-41 -141l172 18q49 6 76 -16.5t27 -62.5q0 -49 -33 -74.5t-100 -18.5l-158 15l-12 -166l-39 -170l160 18q51 6 77.5 -17t26.5 -65q0 -48 -33.5 -72.5t-99.5 -17.5l-160 15l-43 -328q-7 -56 -42.5 -84.5
t-82.5 -28.5q-48 0 -79.5 31.5t-18.5 85.5l76 322l-166 -13q-49 -3 -78 21t-29 67q0 45 32.5 70t96.5 16l164 -20l19 170l43 162l-172 -13q-49 -3 -78 20t-29 66q0 46 33 71.5t96 16.5z" />
    <glyph glyph-name="bullet" unicode="&#x2022;" horiz-adv-x="847" 
d="M432 784q82 0 140.5 -57.5t58.5 -138.5t-58.5 -138t-140.5 -57t-139 56.5t-57 138.5t57 139t139 57z" />
    <glyph glyph-name="ellipsis" unicode="&#x2026;" horiz-adv-x="1505" 
d="M193 254q59 0 100 -41t41 -100t-41.5 -100.5t-99.5 -41.5q-59 0 -100.5 41.5t-41.5 100.5q0 58 41.5 99.5t100.5 41.5zM668 254q58 0 99.5 -41t41.5 -100t-41.5 -100.5t-99.5 -41.5t-100 41.5t-42 100.5q0 58 41.5 99.5t100.5 41.5zM1147 254q59 0 100 -41t41 -100
t-41.5 -100.5t-99.5 -41.5t-99.5 41.5t-41.5 100.5t41 100t100 41z" />
    <glyph glyph-name="perthousand" unicode="&#x2030;" horiz-adv-x="2635" 
d="M528 1458l-2 -2q134 0 221 -83.5t87 -227.5q0 -102 -40 -187t-122.5 -138.5t-192.5 -53.5q-135 0 -222 85t-87 228q0 76 23 143.5t67 120.5t113 84t155 31zM393 158l907 1212q51 66 101 66q62 0 88.5 -49t-19.5 -117l-907 -1213q-51 -65 -100 -65q-62 0 -89 49t19 117z
M522 1274v2q-74 0 -113.5 -57t-39.5 -138q0 -64 29.5 -102.5t84.5 -38.5q75 0 114.5 56.5t39.5 138.5q0 64 -30 101.5t-85 37.5zM1378 666l-4 -2q134 0 221.5 -84t87.5 -228q0 -103 -40 -187.5t-122 -138t-192 -53.5q-135 0 -222 85.5t-87 228.5q0 76 23 143.5t67 120.5
t113 84t155 31zM2169 664l-2 -2q134 0 221.5 -84t87.5 -228q0 -103 -40 -187.5t-122 -138t-192 -53.5q-135 0 -222.5 85.5t-87.5 228.5q0 102 39 186.5t122 138.5t196 54zM2161 481l-2 2q-74 0 -114 -56.5t-40 -137.5q0 -63 30.5 -102.5t86.5 -39.5q75 0 113 56.5t38 138.5
q0 64 -29 101.5t-83 37.5zM1366 483l-2 2q-74 0 -114 -56.5t-40 -137.5q0 -63 30.5 -102t86.5 -39q75 0 114.5 56.5t39.5 137.5q0 64 -30 101.5t-85 37.5z" />
    <glyph glyph-name="minute" unicode="&#x2032;" horiz-adv-x="669" 
d="M195 1081l59 287q15 115 108 115q72 0 99.5 -46t3.5 -112l-100 -270q-28 -74 -91 -74q-37 0 -61.5 25.5t-17.5 74.5z" />
    <glyph glyph-name="second" unicode="&#x2033;" horiz-adv-x="1042" 
d="M588 1081l59 287q15 115 109 115q72 0 99 -45.5t3 -112.5l-100 -270q-28 -74 -90 -74q-37 0 -62 25.5t-18 74.5zM195 1081l59 287q15 115 108 115q72 0 99.5 -46t3.5 -112l-100 -270q-28 -74 -91 -74q-37 0 -61.5 25.5t-17.5 74.5z" />
    <glyph glyph-name="guilsinglleft" unicode="&#x2039;" horiz-adv-x="776" 
d="M125 598l399 371q44 36 83.5 35.5t68.5 -29.5q30 -33 25 -74t-42 -78l-301 -309l166 -276q63 -104 0 -154q-36 -31 -82 -24t-82 53l-254 340q-32 42 -26 77q6 32 45 68z" />
    <glyph glyph-name="guilsinglright" unicode="&#x203a;" horiz-adv-x="776" 
d="M385 549l-162 278q-63 104 0 154q36 31 82 24t82 -53l254 -340q33 -43 27 -77q-6 -32 -45 -68l-404 -373q-44 -36 -83 -35.5t-68 29.5q-30 33 -25.5 74t41.5 78z" />
    <glyph glyph-name="fraction" unicode="&#x2044;" horiz-adv-x="1298" 
d="M-18 145l1230 1207q38 37 52.5 49.5t37.5 25.5t44 13q36 0 56.5 -20t20.5 -50q0 -47 -45 -88l-1220 -1200q-6 -6 -19.5 -18.5t-19 -17.5t-16.5 -14.5t-16.5 -13.5t-15 -10t-16 -8t-15 -4t-17.5 -2q-37 0 -57.5 20.5t-20.5 51.5q0 42 37 79z" />
    <glyph glyph-name="Euro" unicode="&#x20ac;" horiz-adv-x="1638" 
d="M211 911l119 2q77 254 295.5 400.5t511.5 146.5q166 0 295 -53q86 -36 86 -102q0 -55 -31.5 -86t-79.5 -31q-31 0 -74 12q-96 29 -182 29q-194 0 -315.5 -86.5t-180.5 -231.5h514q38 0 58 -16.5t20 -46.5t-20 -47t-58 -17h-555q-8 -47 -8 -102q0 -33 2 -47h469
q38 0 59 -17t21 -47t-20 -46.5t-58 -16.5h-440q30 -137 140.5 -220t277.5 -83q87 0 192 31q24 8 49 8q47 0 75 -28t28 -75q0 -76 -98 -114q-129 -52 -304 -52q-125 0 -238.5 34.5t-206.5 100.5t-158 168.5t-89 231.5h-106q-37 0 -57.5 17t-20.5 46q0 30 20 47t56 17h92v29
q0 66 8 118h-86q-36 0 -57 17.5t-21 46.5q0 30 20 46.5t56 16.5z" />
    <glyph glyph-name="trademark" unicode="&#x2122;" horiz-adv-x="1652" 
d="M1219 1030l219 346q20 32 39 46t49 14q44 0 66.5 -27t13.5 -72l-88 -479q-15 -76 -80 -76q-38 0 -59.5 24t-12.5 68l53 256l-151 -229q-33 -57 -84 -57q-60 0 -74 69l-63 222l-50 -277q-12 -76 -79 -76q-37 0 -57 24t-11 68l88 484q15 80 94 80q74 0 92 -76zM342 1430
l422 -3q45 0 69.5 -19.5t24.5 -53.5q0 -36 -24.5 -57t-69.5 -21h-139l-76 -418q-12 -78 -86 -78q-39 0 -61 25t-15 69l72 402h-117q-45 0 -69.5 22t-24.5 58q0 35 24 54.5t70 19.5z" />
    <glyph glyph-name="uni2190" unicode="&#x2190;" horiz-adv-x="1746" 
d="M178 655l418 379q57 53 112.5 57t96.5 -42q83 -96 -35 -207l-113 -99l-125 -100l320 16h631q151 0 151 -129t-151 -129h-631l-320 17l127 -103l111 -96q118 -111 35 -207q-41 -46 -96.5 -41.5t-112.5 58.5l-418 377q-65 59 -65 124q0 66 65 125z" />
    <glyph glyph-name="uni2191" unicode="&#x2191;" horiz-adv-x="1347" 
d="M799 1372l379 -418q52 -57 56 -112.5t-42 -96.5q-48 -40 -101 -30.5t-106 65.5l-90 105l-109 133l17 -320v-555q0 -149 -129 -149t-129 149v555l16 320l-106 -129l-93 -109q-53 -56 -105.5 -65.5t-100.5 30.5q-47 41 -42.5 96.5t58.5 112.5l377 418q54 66 125 66
q68 0 125 -66z" />
    <glyph glyph-name="uni2192" unicode="&#x2192;" horiz-adv-x="1746" 
d="M1151 1034l420 -379q63 -60 63 -125q0 -64 -63 -124l-420 -377q-57 -54 -112.5 -58.5t-96.5 41.5q-83 96 37 207l113 98l122 101l-319 -17h-629q-153 0 -153 129t153 129h629l319 -16l-131 107l-104 92q-120 111 -37 207q41 46 96.5 42t112.5 -57z" />
    <glyph glyph-name="uni2193" unicode="&#x2193;" horiz-adv-x="1347" 
d="M1178 477l-379 -418q-56 -65 -125 -65q-72 0 -125 65l-377 418q-54 57 -58.5 112.5t42.5 96.5q48 40 100.5 30.5t105.5 -65.5l91 -106l108 -131l-16 319v555q0 150 129 150t129 -150v-555l-17 -319l107 131l92 106q53 56 106 65.5t101 -30.5q46 -41 42 -96.5t-56 -112.5z
" />
    <glyph glyph-name="uni2196" unicode="&#x2196;" horiz-adv-x="1329" 
d="M291 1102l561 -27q78 -3 120.5 -39.5t39.5 -99.5q-4 -62 -49 -93t-123 -28l-131 10l-177 17l238 -215l381 -381q56 -54 63.5 -108t-36.5 -99q-46 -44 -100.5 -37t-108.5 61l-381 381l-215 238l18 -176l10 -131q3 -163 -122 -172q-62 -3 -98.5 39.5t-39.5 119.5l-28 564
q-3 87 43 133q49 49 135 43z" />
    <glyph glyph-name="uni2197" unicode="&#x2197;" horiz-adv-x="1329" 
d="M475 1075l563 27q84 6 133 -43t43 -133l-28 -564q-2 -77 -38 -119.5t-99 -39.5q-62 4 -93 50t-28 122l10 133l16 174l-215 -238l-379 -381q-54 -54 -108.5 -61t-99.5 37q-44 45 -37 99t61 108l381 381l238 215l-189 -19l-119 -8q-76 -3 -122 28t-50 93q-3 63 40 99.5
t120 39.5z" />
    <glyph glyph-name="uni2198" unicode="&#x2198;" horiz-adv-x="1329" 
d="M1038 0l-563 27q-78 5 -120.5 41t-39.5 98q4 62 50 93t122 28l134 -8l174 -17l-238 213l-381 381q-54 54 -61 108t37 99q45 45 99 37.5t109 -62.5l379 -381l215 -237l-16 178l-10 129q-3 76 28 122t93 50q63 3 99 -39.5t38 -120.5l28 -563q6 -84 -43 -133t-133 -43z" />
    <glyph glyph-name="uni2199" unicode="&#x2199;" horiz-adv-x="1329" 
d="M852 27l-561 -27q-86 -6 -135 43q-46 46 -43 133l28 563q3 79 39.5 121t100.5 39q61 -4 91.5 -49.5t28.5 -122.5l-10 -123l-18 -184l215 237l381 381q55 55 108.5 62.5t100.5 -37.5q44 -45 36.5 -99t-63.5 -108l-381 -381l-238 -213l175 17l133 8q78 3 123.5 -27.5
t48.5 -93.5q3 -62 -39 -98t-121 -41z" />
    <glyph glyph-name="uni24EA" unicode="&#x24ea;" 
d="M778 1382q134 0 257 -52.5t211.5 -142t141 -213t52.5 -259.5q0 -134 -52.5 -257t-141 -211.5t-211.5 -141t-257 -52.5q-135 0 -258 52.5t-212.5 141t-142 211.5t-52.5 257q0 136 52.5 259.5t142 213t212.5 142t258 52.5zM778 1319q-122 0 -233.5 -48t-192.5 -128.5
t-128.5 -192.5t-47.5 -235q0 -122 47.5 -232.5t128.5 -190.5t192.5 -127.5t233.5 -47.5t232.5 47.5t190.5 127.5t127.5 190.5t47.5 232.5q0 123 -47.5 235t-127.5 192.5t-190.5 128.5t-232.5 48zM778 1151q164 0 266.5 -120t102.5 -316q0 -197 -103 -319t-268 -122
t-266.5 120t-101.5 317t102.5 318.5t267.5 121.5zM776 1010q-90 0 -142 -78t-52 -219q0 -144 52 -221.5t144 -77.5q91 0 143 78t52 219q0 143 -52.5 221t-144.5 78z" />
    <glyph glyph-name="uni24FF" unicode="&#x24ff;" 
d="M1440 715q0 -134 -52.5 -257t-141 -211.5t-211.5 -141t-257 -52.5q-135 0 -258 52.5t-212.5 141t-142 211.5t-52.5 257q0 136 52.5 259.5t142 213t212.5 142t258 52.5q134 0 257 -52.5t211.5 -142t141 -213t52.5 -259.5zM778 1151q-165 0 -267.5 -121.5t-102.5 -318.5
t101.5 -317t266.5 -120t268 122t103 319q0 196 -102.5 316t-266.5 120zM776 1010q92 0 144.5 -78t52.5 -221q0 -141 -52 -219t-143 -78q-92 0 -144 77.5t-52 221.5q0 141 52 219t142 78z" />
    <glyph glyph-name="uni2722" unicode="&#x2722;" horiz-adv-x="1153" 
d="M672 854q0 -57 -38.5 -160.5t-45.5 -152.5q70 9 160.5 46.5t152.5 37.5q38 0 68 -10.5t45.5 -27.5t23 -37t0 -40.5t-23 -37.5t-45.5 -27.5t-68 -10.5q-62 0 -151.5 37t-161.5 47q9 -70 46.5 -160.5t37.5 -152.5q0 -44 -14 -77t-35.5 -47.5t-46 -14.5t-46 14.5t-35.5 47.5
t-14 77q0 61 37.5 150.5t46.5 162.5q-73 -9 -162.5 -46.5t-150.5 -37.5q-38 0 -68 10.5t-45.5 27.5t-23 37.5t0 40.5t23 37t45.5 27.5t68 10.5q62 0 152.5 -37.5t160.5 -46.5q-9 73 -46.5 162.5t-37.5 150.5q0 44 14 77t35.5 47.5t46 14.5t46 -14.5t35.5 -47.5t14 -77z" />
    <glyph glyph-name="uni2723" unicode="&#x2723;" horiz-adv-x="1169" 
d="M586 627q-72 0 -115 55t-43 141q0 74 43 123t115 49q71 0 114 -49t43 -123q0 -86 -43 -141t-114 -55zM481 530q0 -72 -54 -114.5t-140 -42.5q-75 0 -124.5 42.5t-49.5 114.5t49.5 115t124.5 43q86 0 140 -43t54 -115zM885 688q75 0 123.5 -43t48.5 -115t-48.5 -114.5
t-123.5 -42.5q-86 0 -140.5 42.5t-54.5 114.5t54.5 115t140.5 43zM586 434q71 0 114 -55t43 -141q0 -74 -43 -123t-114 -49q-72 0 -115 49t-43 123q0 86 43 141t115 55z" />
    <glyph glyph-name="uni2724" unicode="&#x2724;" horiz-adv-x="1155" 
d="M578 995q77 0 131.5 -42t54.5 -122q0 -46 -25.5 -87.5t-61.5 -80t-46 -57.5q-13 -26 -7 -30.5t31 8.5q17 10 56.5 46.5t81 61.5t86.5 25q80 0 121.5 -55t41.5 -132q0 -76 -42 -131t-121 -55q-36 0 -71 17t-58.5 37.5t-51 45t-45.5 33.5q-25 14 -30 8.5t8 -30.5
q9 -17 33.5 -44.5t45 -51t37.5 -58.5t17 -70q0 -81 -54.5 -123t-131.5 -42q-76 0 -131.5 42t-55.5 123q0 35 17 70t37.5 58.5t45 51.5t33.5 46q12 22 8.5 27.5t-26.5 -5.5q-18 -9 -46 -33t-51.5 -45.5t-60 -39t-72.5 -17.5q-79 0 -121 55t-42 131q0 77 41.5 132t121.5 55
q35 0 69 -16t56.5 -35t50.5 -43.5t44 -34.5q28 -17 35.5 -11t-9.5 35q-10 17 -47 56t-60.5 79t-23.5 84q0 79 55.5 121.5t131.5 42.5z" />
    <glyph glyph-name="uni2725" unicode="&#x2725;" horiz-adv-x="1153" 
d="M575 874q16 71 74 103.5t110.5 8t53.5 -94.5q0 -47 -18.5 -86t-45 -65t-52.5 -49t-44.5 -48.5t-17.5 -52.5q28 -1 53.5 17t48.5 44t48.5 52t64.5 44.5t86 18.5q71 -1 96.5 -53.5t-7 -110t-103.5 -72.5q71 -15 103.5 -72.5t7 -109.5t-96.5 -53q-47 0 -86 18.5t-64.5 44.5
t-48.5 52t-48.5 44t-53.5 17q-1 -27 17.5 -52.5t44.5 -48.5t52.5 -49t45 -65t18.5 -86q-1 -70 -53.5 -94.5t-110.5 7.5t-74 103q-15 -71 -72.5 -103t-109.5 -7.5t-53 94.5q0 47 18.5 86t45 65t52.5 49t43.5 48.5t16.5 52.5q-27 1 -52.5 -17t-48.5 -44t-48.5 -52t-64 -44.5
t-85.5 -18.5q-71 1 -96.5 53t7 109.5t103.5 72.5q-71 15 -103.5 72.5t-7 110t96.5 53.5q47 0 85.5 -18.5t64 -44.5t48.5 -52t48.5 -44t52.5 -17q1 27 -16.5 52.5t-43.5 48.5t-52.5 49t-45 65t-18.5 86q1 70 53 94.5t109.5 -8t72.5 -103.5z" />
    <glyph glyph-name="uni2726" unicode="&#x2726;" horiz-adv-x="1155" 
d="M692 791l-82 -148q-25 -49 2.5 -77t77.5 -3q29 14 76.5 41t71.5 39q76 43 140 9.5t64 -122.5t-64 -122t-140 10q-24 12 -71.5 39t-76.5 41q-50 25 -77.5 -2.5t-2.5 -77.5l82 -148q46 -78 12 -141t-126 -63t-126.5 63t11.5 141l82 148q25 50 -3 77.5t-77 2.5
q-29 -14 -76.5 -41t-71.5 -39q-77 -43 -140.5 -10t-63.5 122t63.5 122.5t140.5 -9.5q24 -12 71.5 -39t76.5 -41q49 -25 77 3t3 77l-82 148q-46 78 -11.5 141t126.5 63t126 -63t-12 -141z" />
    <glyph glyph-name="uni273B" unicode="&#x273b;" horiz-adv-x="1155" 
d="M690 483q41 -30 96.5 -59.5t96.5 -50t79.5 -45.5t59 -56t20.5 -71q0 -55 -42 -95t-97 -40q-49 0 -88.5 38t-63 86.5t-59 117.5t-67.5 110q-18 24 -47 24q-30 0 -48 -24q-32 -41 -67.5 -110t-59 -117.5t-63 -86.5t-88.5 -38q-55 0 -97 40t-42 95q0 40 20.5 71t59 56
t79.5 45.5t96.5 50t96.5 59.5q27 20 27 47q0 28 -27 48q-41 30 -96.5 59.5t-96.5 50t-79.5 45.5t-59 56t-20.5 71q0 55 42 95t97 40q49 0 88.5 -38t63 -86.5t59 -117.5t67.5 -110q19 -25 48 -25q28 0 47 25q32 41 67.5 110t59 117.5t63 86.5t88.5 38q55 0 97 -40t42 -95
q0 -40 -20.5 -71t-59 -56t-79.5 -45.5t-96.5 -50t-96.5 -59.5q-26 -20 -26 -48t26 -47z" />
    <glyph glyph-name="uni273C" unicode="&#x273c;" horiz-adv-x="1155" 
d="M473 897q0 98 105 98q47 0 75.5 -24t28.5 -74q0 -151 -30.5 -236.5t-71.5 -85.5q-43 0 -75 85t-32 237zM211 426q-98 0 -98 104q0 105 98 105q151 0 236 -31t85 -72q0 -43 -84.5 -74.5t-236.5 -31.5zM944 426q-152 0 -236.5 31t-84.5 73q0 43 84.5 74t236.5 31
q98 0 98 -105q0 -104 -98 -104zM473 164q0 151 31.5 236t73.5 85q43 0 73.5 -85t30.5 -236q0 -50 -28.5 -74t-75.5 -24q-105 0 -105 98z" />
    <glyph glyph-name="uni273D" unicode="&#x273d;" horiz-adv-x="1155" 
d="M621 575q81 46 151.5 66.5t118.5 17t83 -22t51.5 -46.5t16.5 -60t-16.5 -60t-51.5 -46.5t-83 -22t-118.5 17t-151.5 66.5q46 -81 67 -151.5t17.5 -118.5t-22 -82.5t-46 -50.5t-59.5 -16t-59.5 16t-46 50.5t-22 82.5t17.5 118.5t67 151.5q-81 -46 -151.5 -66.5t-119 -17
t-83.5 22t-51.5 46.5t-16.5 60t16.5 60t51.5 46.5t83.5 22t119 -17t151.5 -66.5q-46 81 -67 152t-17.5 118.5t22 82.5t46 51t59.5 16t59.5 -16t46 -51t22 -82.5t-17.5 -118.5t-67 -152z" />
    <glyph glyph-name="uni273E" unicode="&#x273e;" horiz-adv-x="1087" 
d="M547 66h-4q-67 0 -104.5 35t-37.5 89q1 25 18.5 66t43 89.5t33.5 68.5q11 25 2.5 45t-31.5 20q-22 0 -47.5 -30.5t-48 -66.5t-65 -66.5t-95.5 -30.5q-63 1 -88.5 56t7.5 110q41 70 146 79q-110 8 -149 83q-30 56 -2 109q27 50 86 52q53 0 95.5 -30.5t65 -66.5t48 -66.5
t47.5 -30.5q23 0 31.5 21t-2.5 44q-8 20 -33.5 69t-43 90t-18.5 66q0 55 38 90t106 35q66 0 104 -33.5t37 -91.5q-1 -25 -18 -66t-42.5 -90.5t-33.5 -68.5q-11 -23 -2.5 -44t31.5 -21q22 0 47.5 30.5t48 66.5t65 66.5t95.5 30.5q62 -1 88 -55q26 -55 -7 -111
q-42 -70 -147 -78q110 -9 149 -84q31 -56 3 -109q-26 -51 -86 -52q-53 0 -95.5 30.5t-65 66.5t-48 66.5t-47.5 30.5q-23 0 -31.5 -20t2.5 -45q8 -20 33.5 -68.5t42.5 -89.5t18 -66q2 -54 -35.5 -89t-103.5 -35zM545 952q-47 0 -71.5 -23t-24.5 -65q0 -18 8 -43.5t18 -47.5
t32 -70.5t38 -84.5q16 36 38 84.5t32 70.5t18 47.5t8 43.5q0 42 -24.5 65t-71.5 23zM545 109q47 0 71.5 23t24.5 65q0 18 -8 43t-18 47.5t-32 70t-38 84.5q-16 -37 -38 -84.5t-32 -70t-18 -47.5t-8 -43q0 -42 24.5 -65t71.5 -23z" />
    <glyph glyph-name="uni273F" unicode="&#x273f;" horiz-adv-x="1191" 
d="M694 530q55 -12 95 -23t99 -35.5t97 -52.5t66 -73.5t28 -99.5q0 -82 -55 -131t-147 -49q-49 0 -89.5 18t-68.5 52t-49 71t-35.5 87.5t-22.5 88t-16 84.5q-8 -47 -16 -84.5t-22.5 -88t-35.5 -87.5t-49 -71t-68.5 -52t-89.5 -18q-92 0 -147 49t-55 131q0 54 28 99.5
t66 73.5t97 52.5t99 35.5t95 23q-37 8 -65.5 15.5t-71 21.5t-74 28.5t-66 37t-57 48t-37 60.5t-14.5 74q0 82 55 131t147 49q49 0 89.5 -18t68.5 -52t49 -71t35.5 -87.5t22.5 -88t16 -84.5q8 47 16 84.5t22.5 88t35.5 87.5t49 71t68.5 52t89.5 18q92 0 147 -49t55 -131
q0 -39 -14.5 -74t-37 -60.5t-57 -48t-66 -37t-74 -28.5t-71 -21.5t-65.5 -15.5z" />
    <glyph glyph-name="uni2740" unicode="&#x2740;" horiz-adv-x="1155" 
d="M578 995q192 0 328 -136.5t136 -328.5t-136 -328t-328 -136t-328.5 136t-136.5 328t136.5 328.5t328.5 136.5zM483 530q-27 -6 -61 -22t-68.5 -40.5t-58 -61t-23.5 -74.5q0 -50 31 -84.5t86 -34.5q24 0 45 7.5t37.5 23.5t29 31.5t25 42t19 43t17.5 46.5t16 42
q4 -10 15 -42t17 -47t18.5 -42.5t24.5 -42t28.5 -31t37.5 -24t45 -7.5q56 0 87.5 34.5t31.5 84.5q0 38 -23.5 74.5t-58 61t-69 40.5t-62.5 22q39 8 85.5 32.5t87 70.5t40.5 96t-31.5 84.5t-87.5 34.5q-24 0 -45 -7.5t-37.5 -24t-28.5 -31t-24.5 -42t-18.5 -42.5t-17 -47
t-15 -42q-5 12 -16 42t-17.5 46.5t-19 43t-25 42t-29 31.5t-37.5 23.5t-45 7.5q-55 0 -86 -34.5t-31 -84.5q0 -38 23.5 -74.5t58 -61t68.5 -41t61 -22.5z" />
    <glyph glyph-name="uni2749" unicode="&#x2749;" horiz-adv-x="1187" 
d="M633 530q0 -40 16 -72.5t38.5 -55t44.5 -45.5t38 -55t16 -71q0 -81 -56.5 -123t-135.5 -42q-81 0 -138 42t-57 123q0 39 16 71t38.5 55t45 45.5t38.5 55t16 72.5t-16 72.5t-38.5 55t-45 45.5t-38.5 55t-16 71q0 81 57 123.5t138 42.5q79 0 135.5 -42.5t56.5 -123.5
q0 -39 -16 -71t-38 -55t-44.5 -45.5t-38.5 -55t-16 -72.5zM471 530q0 -70 -53 -111.5t-137 -41.5q-73 0 -120.5 42t-47.5 111t47.5 111.5t120.5 42.5q84 0 137 -42t53 -112zM905 684q73 0 121.5 -42.5t48.5 -111.5t-48 -111t-122 -42q-83 0 -136.5 42t-53.5 111
q0 70 53.5 112t136.5 42z" />
    <glyph glyph-name="uni2765" unicode="&#x2765;" horiz-adv-x="933" 
d="M676 653q80 -11 112.5 -45t32.5 -78q0 -107 -145 -127q-50 -7 -82.5 -31.5t-47.5 -57.5t-25 -70.5t-22 -74t-32 -66.5t-61 -48t-103 -18q-86 0 -138 54.5t-52 137.5q0 118 84 205t215 96q-130 6 -214.5 93.5t-84.5 203.5q0 83 52 137t138 54q62 0 103 -18t61 -47.5
t32 -65.5t22 -74t24.5 -70.5t47.5 -57t83 -32.5z" />
    <glyph glyph-name="uni2776" unicode="&#x2776;" 
d="M778 1382q134 0 257 -52.5t211.5 -142t141 -213t52.5 -259.5q0 -134 -52.5 -257t-141 -211.5t-211.5 -141t-257 -52.5q-135 0 -258 52.5t-212.5 141t-142 211.5t-52.5 257q0 136 52.5 259.5t142 213t212.5 142t258 52.5zM885 379v686q0 40 -24 61t-58 21q-38 0 -80 -23
l-109 -63q-53 -34 -53 -70q0 -25 17.5 -46t46.5 -21t47 8l49 22v-575q0 -42 22 -65t58 -23q38 0 61 23t23 65z" />
    <glyph glyph-name="uni2777" unicode="&#x2777;" 
d="M778 1382q134 0 257 -52.5t211.5 -142t141 -213t52.5 -259.5q0 -134 -52.5 -257t-141 -211.5t-211.5 -141t-257 -52.5q-135 0 -258 52.5t-212.5 141t-142 211.5t-52.5 257q0 136 52.5 259.5t142 213t212.5 142t258 52.5zM705 430l174 152q42 33 70 60t58.5 65.5t46 83
t15.5 94.5q0 121 -84 194.5t-217 73.5q-111 0 -203 -37q-57 -21 -57 -67q0 -32 19.5 -50t47.5 -18q18 0 64 12q64 19 98 19q76 0 117 -39.5t41 -98.5q0 -49 -29.5 -92t-83.5 -96l-237 -215q-60 -53 -60 -98q0 -34 22 -58t64 -24h430q36 0 57 19.5t21 49.5t-21 50t-57 20
h-296z" />
    <glyph glyph-name="uni2778" unicode="&#x2778;" horiz-adv-x="1554" 
d="M1442 717q0 -134 -52.5 -257t-141 -211.5t-211.5 -141t-257 -52.5q-135 0 -258 52.5t-212.5 141t-142 211.5t-52.5 257q0 136 52.5 259.5t142 213t212.5 142t258 52.5q134 0 257 -52.5t211.5 -142t141 -213t52.5 -259.5zM733 801h-26q-36 0 -55 -17t-19 -43
q0 -27 18.5 -44t53.5 -17h20q75 0 128.5 -32.5t53.5 -100.5q0 -62 -49 -96.5t-119 -34.5q-53 0 -135 24q-27 9 -47 9q-30 0 -47.5 -18t-17.5 -46q0 -48 61 -74q81 -35 197 -35q146 0 238.5 64t92.5 184q0 77 -44 134.5t-113 76.5q64 28 95.5 78t31.5 111q0 107 -80 168
t-207 61q-89 0 -172 -27q-64 -23 -64 -67q0 -30 17.5 -50t46.5 -20q11 0 51 8q45 11 92 11q64 0 107 -26.5t43 -82.5q0 -94 -152 -98z" />
    <glyph glyph-name="uni2779" unicode="&#x2779;" 
d="M1440 715q0 -134 -52.5 -257t-141 -211.5t-211.5 -141t-257 -52.5q-135 0 -258 52.5t-212.5 141t-142 211.5t-52.5 257q0 136 52.5 259.5t142 213t212.5 142t258 52.5q134 0 257 -52.5t211.5 -142t141 -213t52.5 -259.5zM770 1071l-319 -407q-3 -4 -11.5 -15.5t-12 -16.5
l-10.5 -15t-10 -16t-7 -14.5t-5.5 -15.5t-1.5 -14q0 -36 23.5 -57t62.5 -21h336v-102q0 -41 22.5 -63.5t59.5 -22.5t59.5 22.5t22.5 63.5v102h31q31 2 48 18.5t17 45.5q0 27 -17.5 42t-47.5 15h-31v455q0 45 -26 67.5t-66 22.5q-39 0 -62.5 -17t-54.5 -57zM815 600h-252
l252 324v-324z" />
    <glyph glyph-name="uni277A" unicode="&#x277a;" 
d="M1440 715q0 -134 -52.5 -257t-141 -211.5t-211.5 -141t-257 -52.5q-135 0 -258 52.5t-212.5 141t-142 211.5t-52.5 257q0 136 52.5 259.5t142 213t212.5 142t258 52.5q134 0 257 -52.5t211.5 -142t141 -213t52.5 -259.5zM977 1147h-342q-37 0 -60.5 -20t-27.5 -58
l-35 -256q-9 -75 39 -102q45 -23 113 2q58 20 90 20q65 0 107 -42.5t42 -110.5q0 -72 -51.5 -114t-128.5 -42q-58 0 -141 27q-28 8 -45 8q-27 0 -44.5 -17.5t-17.5 -44.5q0 -52 62 -73q103 -39 208 -39q153 0 241.5 84.5t88.5 216.5q0 116 -74.5 193t-207.5 77
q-92 0 -148 -37l25 191h307q35 0 56.5 19.5t21.5 49.5t-21.5 49t-56.5 19z" />
    <glyph glyph-name="uni277B" unicode="&#x277b;" 
d="M1440 715q0 -134 -52.5 -257t-141 -211.5t-211.5 -141t-257 -52.5q-135 0 -258 52.5t-212.5 141t-142 211.5t-52.5 257q0 136 52.5 259.5t142 213t212.5 142t258 52.5q134 0 257 -52.5t211.5 -142t141 -213t52.5 -259.5zM786 1151q-85 0 -151 -31t-105.5 -78t-65 -111
t-35 -123t-9.5 -120q0 -84 19.5 -156t60 -131t110 -93t162.5 -34q139 0 227 82t88 213t-83 204t-209 73q-149 0 -222 -103q3 130 61.5 199.5t164.5 69.5q54 0 133 -17q32 -8 47 -8q31 1 47 21.5t16 48.5q0 43 -59 63q-91 31 -197 31zM762 721q75 0 117.5 -45t42.5 -113
q0 -67 -44 -112t-116 -45q-77 0 -120.5 45t-43.5 112t43.5 112.5t120.5 45.5z" />
    <glyph glyph-name="uni277C" unicode="&#x277c;" 
d="M1440 715q0 -134 -52.5 -257t-141 -211.5t-211.5 -141t-257 -52.5q-135 0 -258 52.5t-212.5 141t-142 211.5t-52.5 257q0 136 52.5 259.5t142 213t212.5 142t258 52.5q134 0 257 -52.5t211.5 -142t141 -213t52.5 -259.5zM975 1145h-424q-34 0 -54 -19.5t-20 -48.5
q0 -30 20 -49.5t54 -19.5h348l-281 -600q-12 -24 -12 -48q0 -30 23.5 -48.5t58.5 -18.5q49 0 74 59l285 611q30 58 30 98q0 37 -26.5 60.5t-75.5 23.5z" />
    <glyph glyph-name="uni277D" unicode="&#x277d;" 
d="M778 1382q134 0 257 -52.5t211.5 -142t141 -213t52.5 -259.5q0 -134 -52.5 -257t-141 -211.5t-211.5 -141t-257 -52.5q-135 0 -258 52.5t-212.5 141t-142 211.5t-52.5 257q0 136 52.5 259.5t142 213t212.5 142t258 52.5zM778 1151q-128 0 -210.5 -61.5t-82.5 -171.5
q0 -66 37.5 -113t91.5 -68q-73 -23 -119 -78t-46 -131q0 -65 27 -115t74 -79.5t104 -44.5t122 -15q94 0 166.5 25.5t119 84t46.5 144.5q0 76 -46.5 131t-117.5 78q53 23 90 69.5t37 111.5q0 110 -82.5 171.5t-210.5 61.5zM778 1020q60 0 97.5 -30.5t37.5 -82.5
q0 -50 -36 -81t-99 -31t-99 31t-36 81q0 52 37.5 82.5t97.5 30.5zM778 668q71 0 116.5 -35t45.5 -98q0 -67 -48 -101.5t-114 -34.5t-114 34.5t-48 101.5q0 63 45.5 98t116.5 35z" />
    <glyph glyph-name="uni277E" unicode="&#x277e;" 
d="M1440 715q0 -134 -52.5 -257t-141 -211.5t-211.5 -141t-257 -52.5q-135 0 -258 52.5t-212.5 141t-142 211.5t-52.5 257q0 136 52.5 259.5t142 213t212.5 142t258 52.5q134 0 257 -52.5t211.5 -142t141 -213t52.5 -259.5zM778 1151q-140 0 -227.5 -81.5t-87.5 -213.5
q0 -131 83.5 -204.5t209.5 -73.5q72 0 129.5 27.5t91.5 78.5q-6 -272 -225 -272q-42 0 -101 11.5t-71 12.5q-30 3 -48 -15.5t-20 -45.5q-3 -46 59 -70q80 -31 193 -31q72 0 130.5 20.5t97.5 57t67 81t43 99t21.5 104t6.5 101.5q0 85 -19.5 157t-60 131t-110 92.5
t-162.5 33.5zM788 1022q76 0 120 -46t44 -114q0 -67 -43.5 -111t-120.5 -44q-75 0 -117 44t-42 111q0 68 43.5 114t115.5 46z" />
    <glyph glyph-name="uni2780" unicode="&#x2780;" 
d="M778 1382q134 0 257 -52.5t211.5 -142t141 -213t52.5 -259.5q0 -134 -52.5 -257t-141 -211.5t-211.5 -141t-257 -52.5q-135 0 -258 52.5t-212.5 141t-142 211.5t-52.5 257q0 136 52.5 259.5t142 213t212.5 142t258 52.5zM778 1319q-122 0 -233.5 -48t-192.5 -128.5
t-128.5 -192.5t-47.5 -235q0 -122 47.5 -232.5t128.5 -190.5t192.5 -127.5t233.5 -47.5t232.5 47.5t190.5 127.5t127.5 190.5t47.5 232.5q0 123 -47.5 235t-127.5 192.5t-190.5 128.5t-232.5 48zM885 379v686q0 40 -24 61t-58 21q-38 0 -80 -23l-109 -63q-53 -34 -53 -70
q0 -25 17.5 -46t46.5 -21t47 8l49 22v-575q0 -42 22 -65t58 -23q38 0 61 23t23 65z" />
    <glyph glyph-name="uni2781" unicode="&#x2781;" 
d="M778 1382q134 0 257 -52.5t211.5 -142t141 -213t52.5 -259.5q0 -134 -52.5 -257t-141 -211.5t-211.5 -141t-257 -52.5q-135 0 -258 52.5t-212.5 141t-142 211.5t-52.5 257q0 136 52.5 259.5t142 213t212.5 142t258 52.5zM778 1319q-122 0 -233.5 -48t-192.5 -128.5
t-128.5 -192.5t-47.5 -235q0 -122 47.5 -232.5t128.5 -190.5t192.5 -127.5t233.5 -47.5t232.5 47.5t190.5 127.5t127.5 190.5t47.5 232.5q0 123 -47.5 235t-127.5 192.5t-190.5 128.5t-232.5 48zM705 430l174 152q42 33 70 60t58.5 65.5t46 83t15.5 94.5q0 121 -84 194.5
t-217 73.5q-98 0 -203 -37q-57 -19 -57 -67q0 -32 19.5 -50t47.5 -18q18 0 64 12q64 19 98 19q76 0 117 -39.5t41 -98.5q0 -49 -29.5 -92t-83.5 -96l-237 -215q-60 -53 -60 -98q0 -34 22 -58t64 -24h430q36 0 57 19.5t21 49.5t-21 50t-57 20h-296z" />
    <glyph glyph-name="uni2782" unicode="&#x2782;" horiz-adv-x="1554" 
d="M778 1382q134 0 257 -52.5t211.5 -142t141 -213t52.5 -259.5q0 -134 -52.5 -257t-141 -211.5t-211.5 -141t-257 -52.5q-135 0 -258 52.5t-212.5 141t-142 211.5t-52.5 257q0 136 52.5 259.5t142 213t212.5 142t258 52.5zM778 1319q-122 0 -233.5 -48t-192.5 -128.5
t-128.5 -192.5t-47.5 -235q0 -122 47.5 -232.5t128.5 -190.5t192.5 -127.5t233.5 -47.5t232.5 47.5t190.5 127.5t127.5 190.5t47.5 232.5q0 123 -47.5 235t-127.5 192.5t-190.5 128.5t-232.5 48zM707 801h26q152 4 152 98q0 56 -43 82.5t-107 26.5q-47 0 -92 -11
q-40 -8 -51 -8q-29 0 -46.5 20t-17.5 50q0 44 64 67q83 27 172 27q127 0 207 -61t80 -168q0 -61 -31.5 -111t-95.5 -78q69 -19 113 -76.5t44 -134.5q0 -120 -92.5 -184t-238.5 -64q-116 0 -197 35q-61 26 -61 74q0 28 17.5 46t47.5 18q20 0 47 -9q82 -24 135 -24
q70 0 119 34.5t49 96.5q0 68 -53.5 100.5t-128.5 32.5h-20q-35 0 -53.5 17t-18.5 44q0 26 19 43t55 17z" />
    <glyph glyph-name="uni2783" unicode="&#x2783;" 
d="M778 1382q134 0 257 -52.5t211.5 -142t141 -213t52.5 -259.5q0 -134 -52.5 -257t-141 -211.5t-211.5 -141t-257 -52.5q-135 0 -258 52.5t-212.5 141t-142 211.5t-52.5 257q0 136 52.5 259.5t142 213t212.5 142t258 52.5zM778 1319q-122 0 -233.5 -48t-192.5 -128.5
t-128.5 -192.5t-47.5 -235q0 -122 47.5 -232.5t128.5 -190.5t192.5 -127.5t233.5 -47.5t232.5 47.5t190.5 127.5t127.5 190.5t47.5 232.5q0 123 -47.5 235t-127.5 192.5t-190.5 128.5t-232.5 48zM451 664l319 407q31 40 54.5 57t62.5 17q40 0 66 -22.5t26 -67.5v-455h31
q30 0 47.5 -15t17.5 -42q0 -29 -17 -45.5t-48 -18.5h-31v-102q0 -41 -22.5 -63.5t-59.5 -22.5t-59.5 22.5t-22.5 63.5v102h-336q-39 0 -62.5 21t-23.5 57q0 7 1.5 14t5.5 15.5t7 14.5t10 16l10.5 15t12 16.5t11.5 15.5zM563 600h252v324z" />
    <glyph glyph-name="uni2784" unicode="&#x2784;" 
d="M778 1382q134 0 257 -52.5t211.5 -142t141 -213t52.5 -259.5q0 -134 -52.5 -257t-141 -211.5t-211.5 -141t-257 -52.5q-135 0 -258 52.5t-212.5 141t-142 211.5t-52.5 257q0 136 52.5 259.5t142 213t212.5 142t258 52.5zM778 1319q-122 0 -233.5 -48t-192.5 -128.5
t-128.5 -192.5t-47.5 -235q0 -122 47.5 -232.5t128.5 -190.5t192.5 -127.5t233.5 -47.5t232.5 47.5t190.5 127.5t127.5 190.5t47.5 232.5q0 123 -47.5 235t-127.5 192.5t-190.5 128.5t-232.5 48zM635 1147h342q35 0 56.5 -19t21.5 -49t-21.5 -49.5t-56.5 -19.5h-307
l-25 -191q56 37 148 37q133 0 207.5 -77t74.5 -193q0 -132 -88.5 -216.5t-241.5 -84.5q-105 0 -208 39q-62 21 -62 73q0 27 17.5 44.5t44.5 17.5q17 0 45 -8q83 -27 141 -27q77 0 128.5 42t51.5 114q0 68 -42 110.5t-107 42.5q-32 0 -90 -20q-68 -25 -113 -2q-48 27 -39 102
l35 256q4 38 27.5 58t60.5 20z" />
    <glyph glyph-name="uni2785" unicode="&#x2785;" 
d="M778 1382q134 0 257 -52.5t211.5 -142t141 -213t52.5 -259.5q0 -134 -52.5 -257t-141 -211.5t-211.5 -141t-257 -52.5q-135 0 -258 52.5t-212.5 141t-142 211.5t-52.5 257q0 136 52.5 259.5t142 213t212.5 142t258 52.5zM778 1319q-122 0 -233.5 -48t-192.5 -128.5
t-128.5 -192.5t-47.5 -235q0 -122 47.5 -232.5t128.5 -190.5t192.5 -127.5t233.5 -47.5t232.5 47.5t190.5 127.5t127.5 190.5t47.5 232.5q0 123 -47.5 235t-127.5 192.5t-190.5 128.5t-232.5 48zM786 1151q106 0 197 -31q59 -20 59 -63q0 -28 -16 -48.5t-47 -21.5
q-15 0 -47 8q-79 17 -133 17q-106 0 -164.5 -69.5t-61.5 -199.5q73 103 222 103q126 0 209 -73t83 -204t-88 -213t-227 -82q-93 0 -162.5 34t-110 93t-60 131t-19.5 156q0 61 9.5 120t35 123t65 111t105.5 78t151 31zM762 721q-77 0 -120.5 -45.5t-43.5 -112.5t43.5 -112
t120.5 -45q72 0 116 45t44 112q0 68 -42.5 113t-117.5 45z" />
    <glyph glyph-name="uni2786" unicode="&#x2786;" 
d="M778 1382q134 0 257 -52.5t211.5 -142t141 -213t52.5 -259.5q0 -134 -52.5 -257t-141 -211.5t-211.5 -141t-257 -52.5q-135 0 -258 52.5t-212.5 141t-142 211.5t-52.5 257q0 136 52.5 259.5t142 213t212.5 142t258 52.5zM778 1319q-122 0 -233.5 -48t-192.5 -128.5
t-128.5 -192.5t-47.5 -235q0 -122 47.5 -232.5t128.5 -190.5t192.5 -127.5t233.5 -47.5t232.5 47.5t190.5 127.5t127.5 190.5t47.5 232.5q0 123 -47.5 235t-127.5 192.5t-190.5 128.5t-232.5 48zM551 1145h424q49 0 75.5 -23.5t26.5 -60.5q0 -40 -30 -98l-285 -611
q-25 -59 -74 -59q-35 0 -58.5 18.5t-23.5 48.5q0 24 12 48l281 600h-348q-34 0 -54 19.5t-20 49.5q0 29 20 48.5t54 19.5z" />
    <glyph glyph-name="uni2787" unicode="&#x2787;" 
d="M778 1382q134 0 257 -52.5t211.5 -142t141 -213t52.5 -259.5q0 -134 -52.5 -257t-141 -211.5t-211.5 -141t-257 -52.5q-135 0 -258 52.5t-212.5 141t-142 211.5t-52.5 257q0 136 52.5 259.5t142 213t212.5 142t258 52.5zM778 1319q-122 0 -233.5 -48t-192.5 -128.5
t-128.5 -192.5t-47.5 -235q0 -122 47.5 -232.5t128.5 -190.5t192.5 -127.5t233.5 -47.5t232.5 47.5t190.5 127.5t127.5 190.5t47.5 232.5q0 123 -47.5 235t-127.5 192.5t-190.5 128.5t-232.5 48zM778 1151q-128 0 -210.5 -61.5t-82.5 -171.5q0 -66 37.5 -113t91.5 -68
q-73 -23 -119 -78t-46 -131q0 -65 27 -115t74 -79.5t104 -44.5t122 -15q94 0 166.5 25.5t119 84t46.5 144.5q0 76 -46.5 131t-117.5 78q53 23 90 69.5t37 111.5q0 110 -82.5 171.5t-210.5 61.5zM778 1020q60 0 97.5 -30.5t37.5 -82.5q0 -50 -36 -81t-99 -31t-99 31t-36 81
q0 52 37.5 82.5t97.5 30.5zM778 668q71 0 116.5 -35t45.5 -98q0 -67 -48 -101.5t-114 -34.5t-114 34.5t-48 101.5q0 63 45.5 98t116.5 35z" />
    <glyph glyph-name="uni2788" unicode="&#x2788;" 
d="M778 1382q134 0 257 -52.5t211.5 -142t141 -213t52.5 -259.5q0 -134 -52.5 -257t-141 -211.5t-211.5 -141t-257 -52.5q-135 0 -258 52.5t-212.5 141t-142 211.5t-52.5 257q0 136 52.5 259.5t142 213t212.5 142t258 52.5zM778 1319q-122 0 -233.5 -48t-192.5 -128.5
t-128.5 -192.5t-47.5 -235q0 -122 47.5 -232.5t128.5 -190.5t192.5 -127.5t233.5 -47.5t232.5 47.5t190.5 127.5t127.5 190.5t47.5 232.5q0 123 -47.5 235t-127.5 192.5t-190.5 128.5t-232.5 48zM778 1151q93 0 162.5 -33.5t110 -92.5t60 -131t19.5 -157q0 -52 -6.5 -101.5
t-21.5 -104t-43 -99t-67 -81t-97.5 -57t-130.5 -20.5q-113 0 -193 31q-62 24 -59 70q2 27 20 45.5t48 15.5q12 -1 71 -12.5t101 -11.5q219 0 225 272q-34 -51 -91.5 -78.5t-129.5 -27.5q-126 0 -209.5 73.5t-83.5 204.5q0 132 87.5 213.5t227.5 81.5zM788 1022
q-72 0 -115.5 -46t-43.5 -114q0 -67 42 -111t117 -44q77 0 120.5 44t43.5 111q0 68 -44 114t-120 46z" />
    <glyph glyph-name="uni2799" unicode="&#x2799;" horiz-adv-x="2172" 
d="M508 557h1315q-30 10 -60 25.5t-62.5 40t-52.5 59.5t-20 76q0 52 39 88.5t98 36.5t99.5 -30.5t58.5 -82.5q8 -22 17.5 -57t17 -59.5t20 -51t33 -45t49.5 -27.5q-36 -12 -60 -41t-33.5 -56t-22 -73t-21.5 -69q-18 -52 -58.5 -82.5t-99.5 -30.5t-98 36.5t-39 88.5
q0 41 20 76t52.5 59.5t62.5 40t60 25.5h-1315l-129 -303q-13 -33 -39 -33q-20 0 -29 14.5t0 40.5l119 281h-115l-129 -303q-13 -33 -39 -33q-20 0 -28.5 14.5t0.5 40.5l129 307l-129 308q-9 26 -0.5 40.5t28.5 14.5q26 0 39 -33l129 -303h115l-119 281q-9 26 0 40.5t29 14.5
q26 0 39 -33z" />
    <glyph glyph-name="uni27B3" unicode="&#x27b3;" horiz-adv-x="2324" 
d="M698 545h1233l-7 10q-8 10 -10 13t-9.5 13.5t-10.5 16t-9.5 17t-9.5 19t-7.5 19t-7 21.5t-4 22t-1.5 23q0 55 30 86t85 31q42 0 72 -23.5t48.5 -61.5t34 -78.5t37.5 -84t50 -68.5q-28 -25 -50 -68.5t-37.5 -84t-34 -78.5t-48.5 -61t-72 -23q-55 0 -85 31t-30 86
q0 11 1.5 23t4 22t7 21.5t7.5 19t9.5 19t9.5 17t10.5 16t9.5 13.5t10 13l7 10h-1233l-82 -224q-8 -22 -26 -22q-13 0 -19 10.5t0 28.5l76 207h-100l-82 -224q-8 -22 -27 -22q-13 0 -18.5 10.5t0.5 28.5l76 207h-101l-82 -224q-8 -22 -26 -22q-13 0 -19 10.5t0 28.5l76 207
h-100l-82 -224q-8 -22 -27 -22q-13 0 -18.5 10.5t0.5 28.5l84 231l-84 232q-6 18 -0.5 28.5t18.5 10.5q18 0 27 -23l82 -223h100l-76 207q-6 18 0 28.5t19 10.5q17 0 26 -23l82 -223h101l-76 207q-6 18 -0.5 28.5t18.5 10.5q18 0 27 -23l82 -223h100l-76 207q-6 18 0 28.5
t19 10.5q17 0 26 -23z" />
    </font>
</defs>
</svg>
